<svg xmlns="http://www.w3.org/2000/svg" width="1em" height="1em" viewBox="0 0 32 32"><path d="M15 14h-5a2 2 0 0 1-2-2V4a2 2 0 0 1 .59-1.42A3.57 3.57 0 0 1 10 2h5v2h-5v8h5z" fill="currentColor"/><path d="M4 6h2v8H4z" fill="currentColor"/><path d="M4 2h2v2H4z" fill="currentColor"/><path d="M27.45 19.11l-6-3a1 1 0 0 0-.9 0l-6 3A1 1 0 0 0 14 20v7a1 1 0 0 0 .55.89l6 3a1 1 0 0 0 .9 0l6-3A1 1 0 0 0 28 27v-7a1 1 0 0 0-.55-.89zm-6.45-1L24.76 20L21 21.88L17.24 20zm-5 3.5l4 2v4.76l-4-2zm6 6.76v-4.75l4-2v4.76z" fill="currentColor"/><path d="M23 2h-4a2 2 0 0 0-2 2v10h2v-4h4v4h2V4a2 2 0 0 0-2-2zm-4 6V4h4v4z" fill="currentColor"/></svg>