<svg xmlns="http://www.w3.org/2000/svg" width="1em" height="1em" viewBox="0 0 32 32"><path d="M29.976 15.783l-2-9a1 1 0 0 0-.421-.615l-6-4A1 1 0 0 0 21 2H11a1 1 0 0 0-.555.168l-6 4a1 1 0 0 0-.421.615l-2 9a1.002 1.002 0 0 0 .018.504l3 10a1 1 0 0 0 .67.671l10 3h.006a.979.979 0 0 0 .564 0h.005l10-3a1 1 0 0 0 .671-.67l3-10a1.002 1.002 0 0 0 .018-.505zm-19.05.833l-3.91-7.819l7.282 2.648zM16 12.497L19.589 18H12.41zM19.382 20L16 26.764L12.618 20zm-1.68-8.555l7.281-2.648l-3.91 7.82zm.488-2.305l3.096-4.747l3.515 2.343zM16 8.836L12.846 4h6.308zm-2.19.304L7.2 6.736l3.514-2.343zm-4.844 8.03l-4.802-1.801l1.201-5.402zm5.104 10.207l-6.502-1.95l3.128-4.798zm7.233-6.748l3.129 4.797l-6.502 1.951zm5.332-10.662l1.2 5.402l-4.802 1.8zM4.537 17.645l4.595 1.722l-2.793 4.283zm21.124 6.005l-2.793-4.283l4.595-1.722z" fill="currentColor"/></svg>