<svg xmlns="http://www.w3.org/2000/svg" width="1em" height="1em" viewBox="0 0 32 32"><path fill="currentColor" d="m24.251 21.37l2.194 1.462A1 1 0 0 0 27.8 22.6l3-4l-1.6-1.2l-2.433 3.244l-2.212-1.476a1 1 0 0 0-1.369.25L20 23.879V16h-2v10a2.002 2.002 0 0 0 2 2h10v-2h-9.057zM2 21h14v2H2zm0 5h14v2H2zm9-10v-5h1a4.005 4.005 0 0 0 4-4V4h-3a3.978 3.978 0 0 0-2.747 1.107A6.003 6.003 0 0 0 5 2H2v3a6.007 6.007 0 0 0 6 6h1v5H2v2h14v-2zm2-10h1v1a2.002 2.002 0 0 1-2 2h-1V8a2.002 2.002 0 0 1 2-2M8 9a4.005 4.005 0 0 1-4-4V4h1a4.005 4.005 0 0 1 4 4v1z"/></svg>