<svg xmlns="http://www.w3.org/2000/svg" width="1em" height="1em" viewBox="0 0 32 32"><path d="M11 24h10v2H11z" fill="currentColor"/><path d="M13 28h6v2h-6z" fill="currentColor"/><path d="M23.049 16a9.614 9.614 0 0 1-1.871 2.143C20.107 19.135 19 20.16 19 22h2c0-.92.526-1.45 1.535-2.386A9.989 9.989 0 0 0 25.282 16z" fill="currentColor"/><path d="M16 4a7.928 7.928 0 0 1 3.69.91l.896-1.79A9.99 9.99 0 0 0 6 12a9.18 9.18 0 0 0 3.46 7.616C10.472 20.551 11 21.081 11 22h2c0-1.84-1.11-2.866-2.186-3.86A7.185 7.185 0 0 1 8 12a8.01 8.01 0 0 1 8-8z" fill="currentColor"/><path d="M29 14H19a1 1 0 0 1-.894-1.447l5-10a1 1 0 0 1 1.788 0l5 10A1 1 0 0 1 29 14zm-8.382-2h6.764L24 5.236z" fill="currentColor"/></svg>