<svg xmlns="http://www.w3.org/2000/svg" width="1em" height="1em" viewBox="0 0 32 32"><path d="M11 24h10v2H11z" fill="currentColor"/><path d="M13 28h6v2h-6z" fill="currentColor"/><path d="M10.815 18.14A7.185 7.185 0 0 1 8 12a8.01 8.01 0 0 1 8-8V2A10.011 10.011 0 0 0 6 12a9.18 9.18 0 0 0 3.46 7.616C10.472 20.551 11 21.081 11 22h2c0-1.84-1.11-2.866-2.185-3.86z" fill="currentColor"/><path d="M21.178 18.143C20.107 19.135 19 20.16 19 22h2c0-.92.526-1.45 1.535-2.386A9.193 9.193 0 0 0 26 12h-2a7.203 7.203 0 0 1-2.822 6.143z" fill="currentColor"/><path fill="currentColor" d="M18 6h10v2H18z"/></svg>