<svg xmlns="http://www.w3.org/2000/svg" width="1em" height="1em" viewBox="0 0 32 32"><path fill="currentColor" d="M20 14h8a2.002 2.002 0 0 0 2-2V4a2.002 2.002 0 0 0-2-2h-8a2.002 2.002 0 0 0-2 2H9a2.002 2.002 0 0 0-2 2v4H4a2.002 2.002 0 0 0-2 2v8a2.002 2.002 0 0 0 2 2h2v4a2.002 2.002 0 0 0 2 2h10a2.002 2.002 0 0 0 2 2h8a2.002 2.002 0 0 0 2-2v-8a2.002 2.002 0 0 0-2-2h-8a2.002 2.002 0 0 0-2 2v6H8v-4h4a2.002 2.002 0 0 0 2-2v-8a2.002 2.002 0 0 0-2-2H9V6h9v6a2.002 2.002 0 0 0 2 2m0 14v-4h8v4Zm8-8v2h-8v-2ZM4 20v-4h8v4Zm8-6H4v-2h8Zm8-2V8h8v4Zm8-8v2h-8V4Z"/></svg>