<svg xmlns="http://www.w3.org/2000/svg" width="1em" height="1em" viewBox="0 0 32 32"><path fill="currentColor" d="M2 28h28v2H2zM17.21 5.23l1.39.38l1 11.29l5.87 1.57A2 2 0 0 1 27 20.62a1.88 1.88 0 0 1-1.37 1.52a2 2 0 0 1-1 0l-18.7-5a1.89 1.89 0 0 1-1.33-2.3l1.75-6.5l1.44.38l.61 5.18l6 1.62zm-1-2.2a1 1 0 0 0-.68.69L13 13.07l-2.81-.75l-.5-4.53A1 1 0 0 0 9 7l-3.13-.86a.94.94 0 0 0-.5 0a1 1 0 0 0-.68.68l-2 7.49a3.87 3.87 0 0 0 2.74 4.74l18.71 5A3.87 3.87 0 0 0 29 21a4 4 0 0 0-3-4.42l-4.52-1.21l-.95-10.66a1 1 0 0 0-.72-.85L16.73 3a1.06 1.06 0 0 0-.5 0z"/></svg>