<svg xmlns="http://www.w3.org/2000/svg" width="1em" height="1em" viewBox="0 0 32 32"><path fill="currentColor" d="m8.438 6.145l3.013-1.78l1.018 1.721l-3.013 1.78zM6 12H4V9.9c0-.7.4-1.4 1-1.7l1.5-.9l1 1.7l-1.5.9zm-2 2h2v4H4zm2.5 10.7L5 23.8c-.6-.4-1-1-1-1.7V20h2v2.1l1.5.9zm1.932 1.128l1.017-1.722l3.013 1.78l-1.017 1.723zM17.5 27.1L16 28l-1.5-.9l-1 1.7l1.5.9c.3.2.7.3 1 .3c.4 0 .7-.1 1-.3l1.5-.9zm2.022-1.193l3.013-1.781l1.018 1.722l-3.014 1.78zM25.2 24.9l-1-1.7l1.8-1V20h2v2.1c0 .7-.4 1.4-1 1.7zM26 14h2v4h-2zm2-2h-2V9.9l-1.8-1l1-1.7l1.8 1c.6.4 1 1 1 1.7zm-8.548-5.96l1.017-1.721l3.013 1.78l-1.017 1.722zM17.5 4.9L16 4l-1.5.9l-1-1.7l1.5-.9c.3-.2.6-.3 1-.3s.7.1 1 .3l1.5.9z"/></svg>