<svg xmlns="http://www.w3.org/2000/svg" width="1em" height="1em" viewBox="0 0 32 32"><path fill="currentColor" d="m27.447 9.106l-6-3a1 1 0 0 0-.894 0l-6 3A1 1 0 0 0 14 10v7a1 1 0 0 0 .553.895l6 3a1.001 1.001 0 0 0 .894 0l6-3A1 1 0 0 0 28 17v-7a1 1 0 0 0-.553-.895M21 8.118L24.764 10L21 11.882L17.236 10Zm-5 3.5l4 2v4.764l-4-2Zm6 6.764v-4.764l4-2v4.764Z"/><circle cx="13.5" cy="24.5" r="1.5" fill="currentColor"/><path fill="currentColor" d="M20 30H7a2.002 2.002 0 0 1-2-2V4a2.002 2.002 0 0 1 2-2h13v2H7v24h13v-4h2v4a2.002 2.002 0 0 1-2 2"/></svg>