<svg xmlns="http://www.w3.org/2000/svg" width="1em" height="1em" viewBox="0 0 32 32"><path fill="currentColor" d="M17 28v-6h-2v6H5v2h22v-2z"/><circle cx="9" cy="16" r="1" fill="currentColor"/><path fill="currentColor" d="M26 20H6a2.002 2.002 0 0 1-2-2v-4a2.002 2.002 0 0 1 2-2h20a2.002 2.002 0 0 1 2 2v4a2.002 2.002 0 0 1-2 2M6 14v4h20v-4Z"/><circle cx="9" cy="6" r="1" fill="currentColor"/><path fill="currentColor" d="M26 10H6a2.002 2.002 0 0 1-2-2V4a2.002 2.002 0 0 1 2-2h20a2.002 2.002 0 0 1 2 2v4a2.002 2.002 0 0 1-2 2M6 4v4h20V4Z"/></svg>