<svg xmlns="http://www.w3.org/2000/svg" width="1em" height="1em" viewBox="0 0 32 32"><path fill="currentColor" d="M16 2a14 14 0 1 0 14 14A14.016 14.016 0 0 0 16 2m11.95 13h-5.91a14.409 14.409 0 0 1 2.738-7.153A11.94 11.94 0 0 1 27.95 15M17 15V4.05a11.918 11.918 0 0 1 6.287 2.438A16.265 16.265 0 0 0 20.04 15Zm-2 0h-3.04a16.265 16.265 0 0 0-3.247-8.512A11.918 11.918 0 0 1 15 4.051Zm0 2v10.95a11.918 11.918 0 0 1-6.287-2.438A16.265 16.265 0 0 0 11.96 17Zm2 0h3.04a16.265 16.265 0 0 0 3.248 8.512A11.918 11.918 0 0 1 17 27.949ZM7.22 7.847A14.409 14.409 0 0 1 9.96 15H4.051a11.94 11.94 0 0 1 3.17-7.153M4.05 17h5.91a14.409 14.409 0 0 1-2.738 7.153A11.94 11.94 0 0 1 4.05 17m20.73 7.153A14.409 14.409 0 0 1 22.04 17h5.908a11.94 11.94 0 0 1-3.17 7.153"/></svg>