<svg xmlns="http://www.w3.org/2000/svg" width="1em" height="1em" viewBox="0 0 32 32"><circle cx="13" cy="8" r="2" fill="currentColor"/><circle cx="19" cy="8" r="2" fill="currentColor"/><path fill="currentColor" d="M31.808 8.665a.875.875 0 0 0-.808-.54h-2c-4.21 0-7.721 2.002-9.165 4.901a4.819 4.819 0 0 0-7.67 0C10.721 10.127 7.21 8.125 3 8.125H1a.875.875 0 0 0-.618 1.494l.101.101a5.389 5.389 0 0 1 1.678 6.031A.875.875 0 0 0 3 16.875a2.897 2.897 0 0 1 2.159.727c.978.981.971 2.887.966 4.148V22a.875.875 0 0 0 .875.875h4.125V23a4.875 4.875 0 0 0 9.75 0v-.125H25a.875.875 0 0 0 .875-.875v-.25c-.005-1.26-.011-3.166.967-4.148A2.897 2.897 0 0 1 29 16.875a.875.875 0 0 0 .839-1.124a5.388 5.388 0 0 1 1.676-6.03l.104-.102a.875.875 0 0 0 .19-.954M16 12.875A3.129 3.129 0 0 1 19.125 16v.125h-6.25V16A3.129 3.129 0 0 1 16 12.875m-3.125 5h6.25v3.25h-6.25Zm-5 3.25c-.019-1.459-.185-3.462-1.477-4.759a4.188 4.188 0 0 0-2.31-1.152a6.657 6.657 0 0 0-1.136-5.339H3c4.556 0 8.125 2.69 8.125 6.125v5.125ZM19.124 23a3.125 3.125 0 0 1-6.25 0v-.125h6.25Zm8.787-7.786a4.188 4.188 0 0 0-2.31 1.152c-1.292 1.297-1.458 3.3-1.476 4.759h-3.251V16c0-3.435 3.569-6.125 8.125-6.125h.048a6.656 6.656 0 0 0-1.136 5.34"/></svg>