<svg xmlns="http://www.w3.org/2000/svg" width="1em" height="1em" viewBox="0 0 32 32"><path fill="currentColor" d="M26 16c-.088 0-.173.01-.26.013L24.237 9H28V7h-5a1 1 0 0 0-.978 1.21L22.62 11H12.387l-1-3H14V6H7v2h2.28l1.041 3.123l-2.57 5.14A6 6 0 1 0 11.91 23h2.61a1.991 1.991 0 0 0 1.562-.75l7.058-8.824l.644 3.004A5.99 5.99 0 1 0 26 16M6 26a4 4 0 1 1 .836-7.91l-1.73 3.463l.009.004A.983.983 0 0 0 5 22a.993.993 0 0 0 1.885.443l.01.004L8.618 19A3.984 3.984 0 0 1 6 26m5.91-5a5.999 5.999 0 0 0-2.373-3.836l1.678-3.358L13.613 21Zm3.458-1.06L13.054 13h7.865ZM26 26a3.988 3.988 0 0 1-1.786-7.56l.808 3.77l.02-.004A.986.986 0 0 0 26 23a1 1 0 0 0 1-1a.946.946 0 0 0-.041-.206l.02-.004l-.81-3.773A3.993 3.993 0 0 1 26 26"/></svg>