<svg xmlns="http://www.w3.org/2000/svg" width="1em" height="1em" viewBox="0 0 32 32"><path fill="currentColor" d="M26 9.37V3a1 1 0 0 0-1-1h-3v2h2v6.72s3 .507 3 4.28v13h-3v2h4a1 1 0 0 0 1-1V15c0-3.452-1.933-5.024-3-5.63m-7 0V3a1 1 0 0 0-1-1h-3v2h2v6.72s3 .507 3 4.28v13h-3v2h4a1 1 0 0 0 1-1V15c0-3.452-1.933-5.024-3-5.63M13 28h-3v2h4a1 1 0 0 0 1-1v-4h-2zm-8-3H3v4a1 1 0 0 0 1 1h4v-2H5zm8-7h2v5h-2zM3 18h2v5H3zm9-8.63V3a1 1 0 0 0-1-1H7a1 1 0 0 0-1 1v6.37c-1.067.606-3 2.178-3 5.63v1h2v-1c0-3.772 3-4.28 3-4.28V4h2v6.72s3 .508 3 4.28v1h2v-1c0-3.452-1.933-5.024-3-5.63"/></svg>