<svg xmlns="http://www.w3.org/2000/svg" width="1em" height="1em" viewBox="0 0 32 32"><path d="M28.828 3.172a4.094 4.094 0 0 0-5.656 0L4.05 22.292A6.954 6.954 0 0 0 2 27.242V30h2.756a6.952 6.952 0 0 0 4.95-2.05L28.828 8.829a3.999 3.999 0 0 0 0-5.657zM10.91 18.26l2.829 2.829l-2.122 2.121l-2.828-2.828zm-2.619 8.276A4.966 4.966 0 0 1 4.756 28H4v-.759a4.967 4.967 0 0 1 1.464-3.535l1.91-1.91l2.829 2.828zM27.415 7.414l-12.261 12.26l-2.829-2.828l12.262-12.26a2.047 2.047 0 0 1 2.828 0a2 2 0 0 1 0 2.828z" fill="currentColor"/><path d="M14 2a2.995 2.995 0 0 0-2.816 2H7.816A2.993 2.993 0 1 0 4 7.815v3.37a3 3 0 1 0 2 0v-3.37A2.996 2.996 0 0 0 7.816 6h3.368A2.995 2.995 0 1 0 14 2zM5 15a1 1 0 1 1 1-1a1 1 0 0 1-1 1zm0-9a1 1 0 1 1 1-1a1 1 0 0 1-1 1zm9 0a1 1 0 1 1 1-1a1 1 0 0 1-1 1z" fill="currentColor"/></svg>