<svg xmlns="http://www.w3.org/2000/svg" width="1em" height="1em" viewBox="0 0 32 32"><path fill="currentColor" d="M28 22a3.438 3.438 0 0 1-3.051-2.316a1 1 0 0 0-1.896-.005A3.44 3.44 0 0 1 20 22a3.438 3.438 0 0 1-3.051-2.316A1.007 1.007 0 0 0 16 19a.99.99 0 0 0-.947.679A3.44 3.44 0 0 1 12 22a3.438 3.438 0 0 1-3.051-2.316A1.007 1.007 0 0 0 8 19a.971.971 0 0 0-.947.679A3.44 3.44 0 0 1 4 22H2v2h2a4.932 4.932 0 0 0 4-1.987a5.597 5.597 0 0 0 1 .99a7 7 0 0 0 14 0a5.597 5.597 0 0 0 1-.99A4.932 4.932 0 0 0 28 24h2v-2Zm-12 6a5.002 5.002 0 0 1-4.907-4.085A5.225 5.225 0 0 0 12 24a4.932 4.932 0 0 0 4-1.987A4.932 4.932 0 0 0 20 24a5.225 5.225 0 0 0 .908-.085A5.002 5.002 0 0 1 16 28"/><path fill="currentColor" d="M20.07 7.835A2.012 2.012 0 0 0 18.077 6H17V2h-2v4h-1.082a1.995 1.995 0 0 0-1.986 1.772L10.28 19h2.022l.734-5h5.921l.735 5h2.021ZM13.33 12l.588-4l4.167.063l.578 3.937Z"/></svg>