<svg xmlns="http://www.w3.org/2000/svg" width="1em" height="1em" viewBox="0 0 32 32"><path fill="currentColor" d="M23 31a1 1 0 0 1-.94-.658l-3.136-8.625l-2.005 4.677A1 1 0 0 1 16 27h-4v-2h3.34l2.74-6.394c.163-.377.549-.616.948-.606a1 1 0 0 1 .912.658l3.136 8.626l2.005-4.678A1 1 0 0 1 26 22h4v2h-3.34l-2.74 6.394A1 1 0 0 1 23 31"/><path fill="currentColor" d="M9 25H4V10h24v9h2v-9c0-1.103-.897-2-2-2h-6V4c0-1.103-.897-2-2-2h-8c-1.103 0-2 .897-2 2v4H4c-1.103 0-2 .897-2 2v15c0 1.103.897 2 2 2h5zm3-21h8v4h-8z"/></svg>