<svg xmlns="http://www.w3.org/2000/svg" width="1em" height="1em" viewBox="0 0 32 32"><path fill="currentColor" d="M28.83 21.17L25 17.37l.67-.67a1 1 0 0 0 0-1.41l-6-6a1 1 0 0 0-1.41 0l-.79.79l-6.76-6.79a1 1 0 0 0-1.41 0l-4 4l-.12.15l-4 6a1 1 0 0 0 .12 1.26l3 3a1 1 0 0 0 1.42 0L10 13.41l2.09 2.09l-4.8 4.79a1 1 0 0 0 0 1.41l2 2a1 1 0 0 0 .71.3a1 1 0 0 0 .52-.15l4.33-2.6l2.44 2.45a1 1 0 0 0 1.41 0l.67-.7l3.79 3.83a4 4 0 0 0 5.66-5.66ZM10 10.58l-5 5l-1.71-1.71l3.49-5.24L10 5.41l6.09 6.09l-2.59 2.58Zm8 11l-2.84-2.84l-5 3l-.74-.74L19 11.41L23.59 16Zm9.42 3.83a2 2 0 0 1-2.83 0l-3.8-3.79l2.83-2.83l3.8 3.79a2 2 0 0 1 0 2.83"/></svg>