<svg xmlns="http://www.w3.org/2000/svg" width="1em" height="1em" viewBox="0 0 32 32"><path fill="currentColor" d="M26 12a4 4 0 1 0 0 8a4 4 0 0 0 0-8m0 6c-1.103 0-2-.897-2-2s.897-2 2-2s2 .897 2 2s-.897 2-2 2m-11 2l-1.414 1.414L16.172 24H7.816A2.995 2.995 0 0 0 5 22c-1.654 0-3 1.346-3 3s1.346 3 3 3a2.995 2.995 0 0 0 2.816-2h8.356l-2.586 2.586L15 30l5-5zM5 26a1.001 1.001 0 0 1 0-2a1.001 1.001 0 0 1 0 2M15 4l-1.414 1.414L16.172 8H7.816A2.995 2.995 0 0 0 5 6C3.346 6 2 7.346 2 9s1.346 3 3 3a2.995 2.995 0 0 0 2.816-2h8.356l-2.586 2.586L15 14l5-5zM5 10a1.001 1.001 0 0 1 0-2a1.001 1.001 0 0 1 0 2"/></svg>