<svg xmlns="http://www.w3.org/2000/svg" width="1em" height="1em" viewBox="0 0 32 32"><path fill="currentColor" d="M28 30H18a2.002 2.002 0 0 1-2-2V18a2.002 2.002 0 0 1 2-2h2v2h-2v10h10V18h-2v-2h2a2.002 2.002 0 0 1 2 2v10a2.002 2.002 0 0 1-2 2M14 16H4a2.002 2.002 0 0 1-2-2V4a2.002 2.002 0 0 1 2-2h10a2.002 2.002 0 0 1 2 2v2h-2V4H4v10h10v-2h2v2a2.002 2.002 0 0 1-2 2"/><path fill="currentColor" d="M26 9a2.993 2.993 0 0 0-5.816-1H9v2h11.184A2.994 2.994 0 0 0 22 11.815V23h2V11.816A2.996 2.996 0 0 0 26 9m-3 1a1 1 0 1 1 1-1a1 1 0 0 1-1 1"/></svg>