<svg xmlns="http://www.w3.org/2000/svg" width="1em" height="1em" viewBox="0 0 32 32"><path fill="currentColor" d="M18.303 10a2.662 2.662 0 0 0-1.908.806l-.393.405l-.397-.405a2.662 2.662 0 0 0-3.816 0a2.8 2.8 0 0 0 0 3.896L16.002 19l4.209-4.298a2.8 2.8 0 0 0 0-3.896A2.662 2.662 0 0 0 18.303 10"/><path fill="currentColor" d="M17.736 30L16 29l4-7h6a1.997 1.997 0 0 0 2-2V8a1.997 1.997 0 0 0-2-2H6a1.997 1.997 0 0 0-2 2v12a1.997 1.997 0 0 0 2 2h9v2H6a4 4 0 0 1-4-4V8a3.999 3.999 0 0 1 4-4h20a3.999 3.999 0 0 1 4 4v12a4 4 0 0 1-4 4h-4.835Z"/></svg>