<svg xmlns="http://www.w3.org/2000/svg" width="1em" height="1em" viewBox="0 0 32 32"><path fill="currentColor" d="M30 10V8h-2.101a4.968 4.968 0 0 0-.732-1.753l1.49-1.49l-1.414-1.414l-1.49 1.49A4.968 4.968 0 0 0 24 4.101V2h-2v2.101a4.968 4.968 0 0 0-1.753.732l-1.49-1.49l-1.414 1.414l1.49 1.49A4.968 4.968 0 0 0 18.101 8H16v2h2.101a4.968 4.968 0 0 0 .732 1.753l-1.49 1.49l1.414 1.414l1.49-1.49a4.968 4.968 0 0 0 1.753.732V16h2v-2.101a4.968 4.968 0 0 0 1.753-.732l1.49 1.49l1.414-1.414l-1.49-1.49A4.968 4.968 0 0 0 27.899 10Zm-7 2a3 3 0 1 1 3-3a3.003 3.003 0 0 1-3 3"/><path fill="currentColor" d="M25 30h-.17C5.18 28.87 2.39 12.29 2 7.23a3 3 0 0 1 2.761-3.221Q4.88 4 5 4h5.27a2 2 0 0 1 1.86 1.26L13.65 9a2 2 0 0 1-.44 2.16l-2.13 2.15a9.36 9.36 0 0 0 7.58 7.6l2.17-2.15a2 2 0 0 1 2.17-.41l3.77 1.51A2 2 0 0 1 28 21.72V27a3 3 0 0 1-3 3M5 6a1 1 0 0 0-1.003.997c0 .028 0 .055.003.083C4.46 13 7.41 27 24.94 28a1 1 0 0 0 1.058-.938L26 27v-5.28l-3.77-1.51l-2.87 2.85l-.48-.06C10.18 21.91 9 13.21 9 13.12l-.06-.48l2.84-2.87L10.28 6Z"/></svg>