<svg xmlns="http://www.w3.org/2000/svg" width="1em" height="1em" viewBox="0 0 32 32"><path fill="currentColor" d="M24 28h6v2h-6z"/><circle cx="21" cy="29" r="1" fill="currentColor"/><circle cx="29" cy="25" r="1" fill="currentColor"/><path fill="currentColor" d="M26 26h-6v-2h6zm-2-6h6v2h-6z"/><circle cx="21" cy="21" r="1" fill="currentColor"/><path fill="currentColor" d="m21.493 14.13l-8.5-4.815a1 1 0 0 0-.986 0l-8.5 4.815A1 1 0 0 0 3 15v10a1 1 0 0 0 .507.87l8.5 4.815l.986-1.74L5 24.417v-8.834l7.5-4.248l7.5 4.248V18h2v-3a1 1 0 0 0-.507-.87"/><path fill="currentColor" d="M25 15h2V7a1 1 0 0 0-.507-.87l-8.5-4.815a1 1 0 0 0-.986 0l-8.5 4.815l.986 1.74L17.5 3.334L25 7.583z"/></svg>