<svg xmlns="http://www.w3.org/2000/svg" width="1em" height="1em" viewBox="0 0 32 32"><path fill="currentColor" d="M24 13h-2a3.003 3.003 0 0 0-3-3V8a5.006 5.006 0 0 1 5 5"/><path fill="currentColor" d="M28 13h-2a7.008 7.008 0 0 0-7-7V4a9.01 9.01 0 0 1 9 9m-7.667 8.482l2.24-2.24a2.167 2.167 0 0 1 2.337-.48l2.728 1.092A2.167 2.167 0 0 1 29 21.866v4.961a2.167 2.167 0 0 1-2.284 2.169C7.594 27.806 3.732 11.61 3.015 5.408A2.162 2.162 0 0 1 5.169 3h4.873a2.167 2.167 0 0 1 2.012 1.362l1.091 2.728a2.167 2.167 0 0 1-.48 2.337l-2.24 2.24s1.242 8.732 9.908 9.815"/></svg>