<svg xmlns="http://www.w3.org/2000/svg" width="1em" height="1em" viewBox="0 0 32 32"><path fill="currentColor" d="M30 30h-2a4.932 4.932 0 0 1-4-1.987a5.02 5.02 0 0 1-8 0a5.02 5.02 0 0 1-8 0A4.932 4.932 0 0 1 4 30H2v-2h2a3.44 3.44 0 0 0 3.053-2.321A.971.971 0 0 1 8 25a1.007 1.007 0 0 1 .949.684A3.438 3.438 0 0 0 12 28a3.44 3.44 0 0 0 3.053-2.321A.99.99 0 0 1 16 25a1.007 1.007 0 0 1 .949.684A3.438 3.438 0 0 0 20 28a3.44 3.44 0 0 0 3.053-2.321a1 1 0 0 1 1.896.005A3.438 3.438 0 0 0 28 28h2zM28 6v4h-2.5l-2.1-2.8A3.013 3.013 0 0 0 21 6h-6a3.003 3.003 0 0 0-3 3v1H8.618l-.724-1.447l-1-2A1 1 0 0 0 6 6H3a1 1 0 0 0-1 1v6a3.003 3.003 0 0 0 3 3h6.82l-.667 4H7a1 1 0 0 0 0 2h20a1 1 0 0 0 0-2h-4.153l-.667-4h.163a4.966 4.966 0 0 0 3.535-1.465L28 12.415V16h2V6zM14 9a1 1 0 0 1 1-1h6a1.005 1.005 0 0 1 .8.4L23 10h-9zm6.82 11h-7.64l.667-4h6.306zm1.524-6H5a1 1 0 0 1-1-1V8h1.382l.724 1.447L7.382 12h18.204l-1.122 1.121a2.979 2.979 0 0 1-2.12.879"/></svg>