<svg xmlns="http://www.w3.org/2000/svg" width="1em" height="1em" viewBox="0 0 32 32"><path fill="currentColor" d="M13 11h7v2h-7z"/><path fill="currentColor" d="M29 13h-2.02A5.78 5.78 0 0 0 25 8.852V5a1 1 0 0 0-1.6-.8L19.667 7H15c-5.51 0-9.463 3.241-9.948 8H5a1 1 0 0 1-1-1v-2H2v2a3.003 3.003 0 0 0 3 3h.07A9.173 9.173 0 0 0 9 23.557V27a1 1 0 0 0 1 1h4a1 1 0 0 0 1-1v-2h3v2a1 1 0 0 0 1 1h4a1 1 0 0 0 1-1v-3.363A5.093 5.093 0 0 0 26.819 20H29a1 1 0 0 0 1-1v-5a1 1 0 0 0-1-1m-1 5h-2.876c-.305 2.753-.823 3.485-3.124 4.315V26h-2v-3h-7v3h-2v-3.622A7.013 7.013 0 0 1 7 16c0-4.835 4.018-7 8-7h5.334L23 7v2.776c2.418 1.86 1.913 3.186 2.018 5.224H28Z"/></svg>