<svg xmlns="http://www.w3.org/2000/svg" width="1em" height="1em" viewBox="0 0 32 32"><path fill="currentColor" d="m29.51 17.69l-6-3.55c-.16-.09-.33-.14-.51-.14s-.35.05-.51.14l-6 3.55c-.3.18-.49.51-.49.86v6.9c0 .35.19.68.49.86l6 3.55c.16.09.33.14.51.14s.35-.05.51-.14l6-3.55c.3-.18.49-.51.49-.86v-6.9c0-.35-.19-.68-.49-.86M28 24.88l-5 2.96l-5-2.96v-5.76l5-2.96l5 2.96z"/><path fill="currentColor" d="M23.4 4.47c-.65 0-1.28.09-1.88.27a5.59 5.59 0 0 0-4.4-2.17c-1.17 0-2.28.36-3.22 1.03A6.055 6.055 0 0 0 9.81 2H9.8c-1.62 0-3.14.63-4.29 1.78a5.968 5.968 0 0 0-1.53 5.88a5.379 5.379 0 0 0-1.97 4.18c0 2.97 2.39 5.39 5.34 5.39h.28a5.69 5.69 0 0 0 4.99 2.98c.47 0 .94-.06 1.38-.17v-2.11c-.43.18-.9.28-1.38.28c-1.53 0-2.92-.97-3.44-2.4l-.3-.81l-.84.17c-.23.05-.46.07-.69.07c-1.84 0-3.34-1.53-3.34-3.4c0-1.2.64-2.33 1.68-2.94l.77-.45l-.36-.82c-.23-.51-.34-1.05-.34-1.61c0-1.07.41-2.07 1.17-2.83C7.7 4.42 8.72 4 9.8 4c1.25 0 2.46.6 3.22 1.59l.6.79l1.2-.96c.65-.55 1.46-.85 2.3-.85c1.29 0 2.49.72 3.14 1.87l.45.8l.83-.38c.58-.26 1.21-.39 1.86-.39c2.54 0 4.6 2.09 4.6 4.65a4.6 4.6 0 0 1-.98 2.83l1.75 1.01a6.622 6.622 0 0 0 1.22-3.84c0-3.67-2.96-6.65-6.6-6.65z"/></svg>