<svg xmlns="http://www.w3.org/2000/svg" width="1em" height="1em" viewBox="0 0 32 32"><path d="M14 20a6 6 0 1 1 6-6a6 6 0 0 1-6 6zm0-10a4 4 0 1 0 4 4a4 4 0 0 0-4-4z" fill="currentColor"/><circle cx="14" cy="14" r="2" fill="currentColor"/><path d="M17 23.54A10 10 0 1 1 24 14c0 .34 0 .67-.05 1h2c0-.33.05-.66.05-1a12 12 0 1 0-12 12a12.33 12.33 0 0 0 3-.39z" fill="currentColor"/><path d="M25 30l-2.14-1A5 5 0 0 1 20 24.47V18h10v6.47A5 5 0 0 1 27.14 29zm-3-10v4.47a3 3 0 0 0 1.72 2.71l1.28.61l1.28-.61A3 3 0 0 0 28 24.47V20z" fill="currentColor"/></svg>