<svg xmlns="http://www.w3.org/2000/svg" width="1em" height="1em" viewBox="0 0 32 32"><path fill="currentColor" d="m20.476 8.015l-7.029-3.804a2.008 2.008 0 0 0-2.115.205L4 10.001V2H2v26a2 2 0 0 0 2 2h26V5.735ZM28 20.21l-7.62 1.802l-7.029-2.884a1.99 1.99 0 0 0-2.022.37L4 25.836V21.38l8.375-9.4l7.019 5.62a2.015 2.015 0 0 0 2.046.212l6.56-3.21ZM12.524 5.985l7.03 3.804a2.012 2.012 0 0 0 1.34.16L28 8.265v4.113l-7.381 3.642L13.6 10.4a1.99 1.99 0 0 0-2.688.264L4 18.384v-5.87ZM4.55 28l8.069-7.011l7.029 2.884a1.998 1.998 0 0 0 1.147.077L28 22.26V28Z"/></svg>