<svg xmlns="http://www.w3.org/2000/svg" width="1em" height="1em" viewBox="0 0 32 32"><path fill="currentColor" d="M23 24c-3.6 0-5.03-4.176-6.413-8.214C15.277 11.958 13.92 8 11 8a3.44 3.44 0 0 0-3.053 2.322L6.05 9.684C6.101 9.534 7.321 6 11 6c4.35 0 6.012 4.855 7.48 9.138C19.689 18.667 20.83 22 23 22a3.44 3.44 0 0 0 3.053-2.321l1.896.637C27.899 20.466 26.679 24 23 24"/><path fill="currentColor" d="M4 28V17h2v-2H4V2H2v26a2 2 0 0 0 2 2h26v-2Z"/><path fill="currentColor" d="M8 15h2v2H8zm4 0h2v2h-2zm8 0h2v2h-2zm4 0h2v2h-2zm4 0h2v2h-2z"/></svg>