<svg xmlns="http://www.w3.org/2000/svg" width="1em" height="1em" viewBox="0 0 32 32"><path fill="currentColor" d="m30 6.614l-1.315.437A20.922 20.922 0 0 1 23 8c-1.734 0-3.322-.907-5.004-1.868C16.162 5.084 14.266 4 12 4C9.123 4 5.915 6.206 4 7.772V2H2v26a2.003 2.003 0 0 0 2 2h26ZM4 20.294C5.874 17.376 9.56 13 12 13c1.638 0 2.96 1.102 4.36 2.269C17.897 16.549 19.638 18 22 18a9.469 9.469 0 0 0 6-2.529v4.956A13.003 13.003 0 0 1 22 22a13.862 13.862 0 0 1-4.684-.949A15.682 15.682 0 0 0 12 20c-2.927 0-6.068 2.959-8 5.158ZM12 6c1.734 0 3.323.907 5.004 1.868C18.838 8.916 20.734 10 23 10a21.432 21.432 0 0 0 5-.678v3.321c-.683.803-3.084 3.357-6 3.357c-1.638 0-2.96-1.102-4.36-2.269C16.103 12.451 14.362 11 12 11c-2.936 0-6.063 3.34-8 5.845v-6.421C5.546 8.966 9.259 6 12 6M4.249 28C5.862 25.909 9.41 22 12 22a13.862 13.862 0 0 1 4.684.949A15.682 15.682 0 0 0 22 24a14.736 14.736 0 0 0 6-1.34V28Z"/></svg>