<svg xmlns="http://www.w3.org/2000/svg" width="1em" height="1em" viewBox="0 0 32 32"><path fill="currentColor" d="M16 2a1 1 0 0 0-1 1v7.09a5.962 5.962 0 0 0-2.46 1.043L7.838 6.431a1.455 1.455 0 0 0-2.087.024a14.05 14.05 0 0 0 4.054 22.142a10.848 10.848 0 0 0 1.899.768a14.098 14.098 0 0 0 13.844-3.132a1.434 1.434 0 0 0 .028-2.064l-4.699-4.699A5.963 5.963 0 0 0 21.91 17H29a1 1 0 0 0 1-1A14.016 14.016 0 0 0 16 2m0 10a4 4 0 1 1-4 4a4.005 4.005 0 0 1 4-4M6.83 8.251l4.296 4.296a5.91 5.91 0 0 0-.011 6.924l-4.277 4.277A12.017 12.017 0 0 1 6.83 8.251m1.423 16.91l4.276-4.276A5.959 5.959 0 0 0 15 21.91v6.042a11.878 11.878 0 0 1-6.747-2.79ZM17 27.956V21.91a5.963 5.963 0 0 0 2.46-1.027l4.283 4.282A11.89 11.89 0 0 1 17 27.956M21.91 15A6.006 6.006 0 0 0 17 10.09V4.041A12.02 12.02 0 0 1 27.959 15Z"/></svg>