<svg xmlns="http://www.w3.org/2000/svg" width="1em" height="1em" viewBox="0 0 32 32"><path fill="currentColor" d="M30 30H4a2 2 0 0 1-2-2V2h2v26h26Z"/><path fill="currentColor" d="M14.86 7.823L13 4.723V2h-2v2.723l-1.86 3.1A7.999 7.999 0 0 0 8 11.94v.122a7.996 7.996 0 0 0 1.14 4.116l1.86 3.1V26h2v-6.723l1.86-3.1A7.999 7.999 0 0 0 16 12.06v-.122a7.996 7.996 0 0 0-1.14-4.116M12 6.943l1.145 1.91A6.003 6.003 0 0 1 13.919 11H10.08a6.009 6.009 0 0 1 .774-2.148zm0 10.114l-1.145-1.91A6.003 6.003 0 0 1 10.081 13h3.838a6.009 6.009 0 0 1-.774 2.148zm15.86-5.234L26 8.723V2h-2v6.723l-1.86 3.1A7.999 7.999 0 0 0 21 15.94v.122a7.996 7.996 0 0 0 1.14 4.116l1.86 3.1V26h2v-2.723l1.86-3.1A7.999 7.999 0 0 0 29 16.06v-.122a7.996 7.996 0 0 0-1.14-4.116m-2.86-.88l1.145 1.909A6.003 6.003 0 0 1 26.919 15h-3.837a6.009 6.009 0 0 1 .773-2.148zm0 10.113l-1.145-1.908A6.003 6.003 0 0 1 23.081 17h3.837a6.009 6.009 0 0 1-.773 2.148z"/></svg>