<svg xmlns="http://www.w3.org/2000/svg" width="1em" height="1em" viewBox="0 0 32 32"><path fill="currentColor" d="M28 2h-5v2h5v24h-5v2h5a2.006 2.006 0 0 0 2-2V4a2.006 2.006 0 0 0-2-2M14 17H8a.945.945 0 0 0-1 1v6a.945.945 0 0 0 1 1h6a.945.945 0 0 0 1-1v-6a.945.945 0 0 0-1-1m-1 6H9v-4h4z"/><path fill="currentColor" d="M25 24v-6a.945.945 0 0 0-1-1h-6a.945.945 0 0 0-1 1v6a.945.945 0 0 0 1 1h6a1.002 1.002 0 0 0 1-1m-2-1h-4v-4h4zM14 7H8a.945.945 0 0 0-1 1v6a.945.945 0 0 0 1 1h6a.945.945 0 0 0 1-1V8a.945.945 0 0 0-1-1m-1 6H9V9h4zm5 2h6a.945.945 0 0 0 1-1V8a.945.945 0 0 0-1-1h-6a.945.945 0 0 0-1 1v6a1.002 1.002 0 0 0 1 1m1-6h4v4h-4z"/><path fill="currentColor" d="M4 4h5V2H4a2.006 2.006 0 0 0-2 2v24a2.006 2.006 0 0 0 2 2h5v-2H4Z"/></svg>