<svg xmlns="http://www.w3.org/2000/svg" width="1em" height="1em" viewBox="0 0 32 32"><path fill="currentColor" d="M22.5 30c-1.93 0-3.5-1.57-3.5-3.5c0-.935.364-1.813 1.024-2.474l1.415 1.414a1.502 1.502 0 0 0 2.122 2.12l5-5a1.502 1.502 0 0 0-2.123-2.12l-1.415-1.413A3.478 3.478 0 0 1 27.5 18c1.93 0 3.5 1.57 3.5 3.5c0 .935-.364 1.814-1.025 2.475l-5 5A3.476 3.476 0 0 1 22.5 30"/><path fill="currentColor" d="M16.5 31c-1.93 0-3.5-1.57-3.5-3.5c0-.935.364-1.814 1.025-2.475l5-5A3.476 3.476 0 0 1 21.5 19c1.93 0 3.5 1.57 3.5 3.5c0 .935-.364 1.813-1.024 2.474L22.56 23.56a1.502 1.502 0 0 0-2.122-2.12l-5 5a1.502 1.502 0 0 0 2.123 2.12l1.415 1.413A3.478 3.478 0 0 1 16.5 31M16 2C10.702 2 5 3.252 5 6v18c0 1.68 2.134 2.798 5 3.415v-2.046C8.006 24.896 7.055 24.226 7 24v-3.572c1.494.749 3.674 1.215 6 1.43V19.86c-3.878-.377-5.877-1.422-6-1.86v-3.572C9.128 15.495 12.643 16 16 16c5.298 0 11-1.252 11-4V6c0-2.748-5.702-4-11-4M6.999 6.015C7.15 5.46 10.149 4 16 4c5.798 0 8.795 1.434 8.997 2c-.202.566-3.2 2-8.997 2c-5.85 0-8.85-1.46-9.001-1.985M25 11.987c-.16.557-3.159 2.013-9 2.013c-5.85 0-8.85-1.46-9-2V8.428C9.128 9.495 12.643 10 16 10s6.872-.505 9-1.572z"/></svg>