<svg xmlns="http://www.w3.org/2000/svg" width="1em" height="1em" viewBox="0 0 32 32"><path fill="currentColor" d="M30 15.5a6.532 6.532 0 0 0-5.199-6.363a8.994 8.994 0 0 0-17.6 0A6.532 6.532 0 0 0 2 15.5a6.454 6.454 0 0 0 1.688 4.35A5.983 5.983 0 0 0 8 30h11a5.976 5.976 0 0 0 5.61-8.102A6.505 6.505 0 0 0 30 15.501M19 28H8a3.993 3.993 0 0 1-.673-7.93l.663-.112l.146-.656a5.496 5.496 0 0 1 10.73 0l.145.656l.663.113A3.993 3.993 0 0 1 19 28m4.5-8h-.055a5.956 5.956 0 0 0-2.796-1.756a7.495 7.495 0 0 0-14.299 0a5.988 5.988 0 0 0-1.031.407A4.445 4.445 0 0 1 4 15.5a4.517 4.517 0 0 1 4.144-4.481l.816-.064l.099-.812a6.994 6.994 0 0 1 13.883 0l.099.812l.815.064A4.498 4.498 0 0 1 23.5 20"/></svg>