<svg xmlns="http://www.w3.org/2000/svg" width="1em" height="1em" viewBox="0 0 32 32"><path fill="currentColor" d="M25.822 10.124a10 10 0 0 0-19.644 0A7.496 7.496 0 0 0 7.5 25H8v-2h-.5a5.496 5.496 0 0 1-.377-10.98l.836-.057l.09-.833a7.998 7.998 0 0 1 15.902 0l.09.833l.836.058A5.496 5.496 0 0 1 24.5 23H24v2h.5a7.496 7.496 0 0 0 1.322-14.876"/><path fill="currentColor" d="M23 22v-2h-2.101a4.968 4.968 0 0 0-.732-1.753l1.49-1.49l-1.414-1.414l-1.49 1.49A4.968 4.968 0 0 0 17 16.101V14h-2v2.101a4.968 4.968 0 0 0-1.753.732l-1.49-1.49l-1.414 1.414l1.49 1.49A4.968 4.968 0 0 0 11.101 20H9v2h2.101a4.968 4.968 0 0 0 .732 1.753l-1.49 1.49l1.414 1.414l1.49-1.49a4.968 4.968 0 0 0 1.753.732V28h2v-2.101a4.968 4.968 0 0 0 1.753-.732l1.49 1.49l1.414-1.414l-1.49-1.49A4.968 4.968 0 0 0 20.899 22Zm-7 2a3 3 0 1 1 3-3a3.003 3.003 0 0 1-3 3"/></svg>