<svg xmlns="http://www.w3.org/2000/svg" width="1em" height="1em" viewBox="0 0 32 32"><path fill="currentColor" d="M2 28h9v2H2zm19 0h9v2h-9zm-4-1.833v-8.335l2.586 2.582L21 19l-5-5l-5 5l1.413 1.415L15 17.832v8.335l-2.587-2.583L11 25l5 5l5-5l-1.414-1.414z"/><path fill="currentColor" d="M23 16h-2v-2h2a3 3 0 0 0 0-6a2.576 2.576 0 0 1-.215.026l-.804.058l-.227-.774a5.993 5.993 0 0 0-11.175-.865l-.284.599l-.842-.046A3.5 3.5 0 0 0 9.5 14H11v2H9.5a5.5 5.5 0 0 1-.43-10.983a7.99 7.99 0 0 1 14.35 1A5 5 0 0 1 23 16"/></svg>