<svg xmlns="http://www.w3.org/2000/svg" width="1em" height="1em" viewBox="0 0 32 32"><circle cx="9" cy="20" r="2" fill="currentColor"/><path fill="currentColor" d="M16 20a4 4 0 1 1 4-4a4.012 4.012 0 0 1-4 4m0-6a2 2 0 1 0 2 2a2.006 2.006 0 0 0-2-2"/><circle cx="23" cy="12" r="2" fill="currentColor"/><path fill="currentColor" d="M16 31a.999.999 0 0 1-.504-.136l-12-7A1 1 0 0 1 3 23V9a1 1 0 0 1 .496-.864l12-7a1 1 0 0 1 1.008 0l12 7l-1.008 1.728L16 3.158L5 9.574v12.852l11 6.417l11-6.417V15h2v8a1 1 0 0 1-.496.864l-12 7A.999.999 0 0 1 16 31"/></svg>