<svg xmlns="http://www.w3.org/2000/svg" width="1em" height="1em" viewBox="0 0 32 32"><circle cx="25" cy="20" r="1" fill="currentColor"/><path fill="currentColor" d="M19.414 30H15v-4.414l5.034-5.034A4.607 4.607 0 0 1 20 20a5 5 0 1 1 4.448 4.966zM17 28h1.586l5.206-5.206l.54.124a3.035 3.035 0 1 0-2.25-2.25l.124.54L17 26.414zM6 8h2v8H6zM2 8h2v8H2zm16 0h2v6h-2zm-4 8h-2a2 2 0 0 1-2-2v-4a2 2 0 0 1 2-2h2a2 2 0 0 1 2 2v4a2 2 0 0 1-2 2m-2-2h2v-4h-2zM2 18h2v8H2zm12 0h2v4h-2zm-4 8H8a2 2 0 0 1-2-2v-4a2 2 0 0 1 2-2h2a2 2 0 0 1 2 2v4a2 2 0 0 1-2 2m-2-2h2v-4H8zM2 2h2v4H2zm12 0h2v4h-2zm4 0h2v4h-2zm-8 4H8a2 2 0 0 1-2-2V2h2v2h2V2h2v2a2 2 0 0 1-2 2"/></svg>