<svg xmlns="http://www.w3.org/2000/svg" width="1em" height="1em" viewBox="0 0 32 32"><path fill="currentColor" d="M28 17H18a2.003 2.003 0 0 0-2 2v6a2.003 2.003 0 0 0 2 2h4v-2h-4v-6h10v6h-2.535l-2.594 3.89L24.535 30l2-3H28a2.003 2.003 0 0 0 2-2v-6a2.003 2.003 0 0 0-2-2M8.667 24.109l.861-.862a.833.833 0 0 1 .899-.184l1.05.42a.833.833 0 0 1 .523.773v1.908a.833.833 0 0 1-.879.834c-7.354-.457-8.84-6.686-9.115-9.072A.832.832 0 0 1 2.834 17h1.874a.834.834 0 0 1 .774.524l.42 1.05a.833.833 0 0 1-.184.898l-.862.861a4.527 4.527 0 0 0 3.81 3.776M21 9h7v2h-7zm0-4h9v2h-9zm-4 1l-3 2.2V6a2.002 2.002 0 0 0-2-2H4a2.002 2.002 0 0 0-2 2v6a2.002 2.002 0 0 0 2 2h8a2.002 2.002 0 0 0 2-2V9.8l3 2.2zM4 12V6h8v6z"/></svg>