<svg xmlns="http://www.w3.org/2000/svg" width="1em" height="1em" viewBox="0 0 32 32"><defs/><path d="M7.7 4.7a14.703 14.703 0 0 0-3 3.1L6.3 9a13.263 13.263 0 0 1 2.6-2.7z" fill="currentColor"/><path d="M4.6 12.3l-1.9-.6A12.511 12.511 0 0 0 2 16h2a11.476 11.476 0 0 1 .6-3.7z" fill="currentColor"/><path d="M2.7 20.4a14.403 14.403 0 0 0 2 3.9l1.6-1.2a12.887 12.887 0 0 1-1.7-3.3z" fill="currentColor"/><path d="M7.8 27.3a14.403 14.403 0 0 0 3.9 2l.6-1.9A12.887 12.887 0 0 1 9 25.7z" fill="currentColor"/><path d="M11.7 2.7l.6 1.9A11.476 11.476 0 0 1 16 4V2a12.511 12.511 0 0 0-4.3.7z" fill="currentColor"/><path d="M24.2 27.3a15.18 15.18 0 0 0 3.1-3.1L25.7 23a11.526 11.526 0 0 1-2.7 2.7z" fill="currentColor"/><path d="M27.4 19.7l1.9.6A15.475 15.475 0 0 0 30 16h-2a11.476 11.476 0 0 1-.6 3.7z" fill="currentColor"/><path d="M29.2 11.6a14.403 14.403 0 0 0-2-3.9l-1.6 1.2a12.887 12.887 0 0 1 1.7 3.3z" fill="currentColor"/><path d="M24.1 4.6a14.403 14.403 0 0 0-3.9-2l-.6 1.9a12.887 12.887 0 0 1 3.3 1.7z" fill="currentColor"/><path d="M20.3 29.3l-.6-1.9a11.476 11.476 0 0 1-3.7.6v2a21.42 21.42 0 0 0 4.3-.7z" fill="currentColor"/><path d="M16 26a10 10 0 1 1 10-10a10.011 10.011 0 0 1-10 10zm0-18a8 8 0 1 0 8 8a8.01 8.01 0 0 0-8-8z" fill="currentColor"/></svg>