<svg xmlns="http://www.w3.org/2000/svg" width="1em" height="1em" viewBox="0 0 32 32"><defs/><path d="M16 30v-2a12.002 12.002 0 0 0 3.692-23.421l.616-1.904A14.002 14.002 0 0 1 16 30z" fill="currentColor"/><path d="M7.7 4.7a14.703 14.703 0 0 0-3 3.1L6.3 9a13.263 13.263 0 0 1 2.6-2.7z" fill="currentColor"/><path d="M4.6 12.3l-1.9-.6A12.511 12.511 0 0 0 2 16h2a11.476 11.476 0 0 1 .6-3.7z" fill="currentColor"/><path d="M11.7 2.7l.6 1.9A11.476 11.476 0 0 1 16 4V2a12.511 12.511 0 0 0-4.3.7z" fill="currentColor"/><path d="M15.402 24.248a11.949 11.949 0 0 0-1.718-3.335l1.613-1.183a13.949 13.949 0 0 1 2.005 3.893z" fill="currentColor"/><path d="M11.02 18.267a11.921 11.921 0 0 0-3.347-1.694l.612-1.905a13.924 13.924 0 0 1 3.907 1.978z" fill="currentColor"/></svg>