<svg xmlns="http://www.w3.org/2000/svg" width="1em" height="1em" viewBox="0 0 32 32"><circle cx="21" cy="21" r="2" fill="currentColor"/><circle cx="7" cy="7" r="2" fill="currentColor"/><path fill="currentColor" d="M27 31a4 4 0 1 1 4-4a4.012 4.012 0 0 1-4 4m0-6a2 2 0 1 0 2 2a2.006 2.006 0 0 0-2-2"/><path fill="currentColor" d="M30 16A14.041 14.041 0 0 0 16 2a13.043 13.043 0 0 0-6.8 1.8l1.1 1.7a24.425 24.425 0 0 1 2.4-1A25.135 25.135 0 0 0 10 15H4a11.149 11.149 0 0 1 1.4-4.7L3.9 9A13.842 13.842 0 0 0 2 16a13.998 13.998 0 0 0 14 14a13.366 13.366 0 0 0 5.2-1l-.6-1.9a11.442 11.442 0 0 1-5.2.9A21.071 21.071 0 0 1 12 17h17.9a3.402 3.402 0 0 0 .1-1M12.8 27.6a13.02 13.02 0 0 1-5.3-3.1A12.505 12.505 0 0 1 4 17h6a25.002 25.002 0 0 0 2.8 10.6M12 15a21.446 21.446 0 0 1 3.3-11h1.4A21.446 21.446 0 0 1 20 15Zm10 0a23.278 23.278 0 0 0-2.8-10.6A12.092 12.092 0 0 1 27.9 15Z"/></svg>