<svg xmlns="http://www.w3.org/2000/svg" width="1em" height="1em" viewBox="0 0 32 32"><path fill="currentColor" d="M16 23a7 7 0 1 1 7-7a7.008 7.008 0 0 1-7 7m0-12a5 5 0 1 0 5 5a5.006 5.006 0 0 0-5-5"/><path fill="currentColor" d="M30 6.414L28.586 5l-3.35 3.35a12.081 12.081 0 0 0-1.586-1.586L27 3.414L25.586 2l-3.61 3.61A11.98 11.98 0 0 0 5.61 21.976L2 25.586L3.414 27l3.35-3.35a12.081 12.081 0 0 0 1.586 1.586L5 28.586L6.414 30l3.61-3.61A11.98 11.98 0 0 0 26.39 10.024ZM16 26a10 10 0 1 1 10-10a10.011 10.011 0 0 1-10 10"/></svg>