<svg xmlns="http://www.w3.org/2000/svg" width="1em" height="1em" viewBox="0 0 32 32"><path fill="currentColor" d="M26 30h-2v-3h-4a5.006 5.006 0 0 1-5-5v-1.28l-2.316-.771a1 1 0 0 1-.541-1.463L15 13.723V11a9.01 9.01 0 0 1 9-9h5v2h-5a7.008 7.008 0 0 0-7 7v3a1 1 0 0 1-.143.514L14.5 18.446l1.817.605A1 1 0 0 1 17 20v2a3.003 3.003 0 0 0 3 3h5a1 1 0 0 1 1 1Z"/><circle cx="9" cy="23" r="1" fill="currentColor"/><circle cx="6" cy="20" r="1" fill="currentColor"/><circle cx="6" cy="26" r="1" fill="currentColor"/><circle cx="3" cy="17" r="1" fill="currentColor"/><circle cx="3" cy="29" r="1" fill="currentColor"/><circle cx="3" cy="23" r="1" fill="currentColor"/><path fill="currentColor" d="M19 12h4v2h-4z"/></svg>