<svg xmlns="http://www.w3.org/2000/svg" width="1em" height="1em" viewBox="0 0 32 32"><path d="M11 24h4v2h-4z" fill="currentColor"/><path d="M5 24h4v2H5z" fill="currentColor"/><path d="M23 24h4v2h-4z" fill="currentColor"/><path d="M17 24h4v2h-4z" fill="currentColor"/><path d="M9 22a4.92 4.92 0 0 1 4-2h6a5.22 5.22 0 0 1 4 2h2.3a6.87 6.87 0 0 0-6.3-4h-6a6.87 6.87 0 0 0-6.3 4z" fill="currentColor"/><path d="M24 28h2v2h-2z" fill="currentColor"/><path d="M6 28h2v2H6z" fill="currentColor"/><path d="M16 16a7 7 0 1 1 7-7a7 7 0 0 1-7 7zm0-12a5 5 0 0 0-5 5a5 5 0 0 0 10 0a5 5 0 0 0-5-5z" fill="currentColor"/></svg>