<svg xmlns="http://www.w3.org/2000/svg" width="1em" height="1em" viewBox="0 0 32 32"><path fill="currentColor" d="M23 20.515c0-4.615-3.78-5.141-6.817-5.563c-3.31-.46-5.183-.86-5.183-3.71C11 8.85 13.507 8 15.654 8a6.754 6.754 0 0 1 5.568 2.628l1.556-1.256A8.65 8.65 0 0 0 17 6.096V3h-2v3.022c-3.615.22-6 2.26-6 5.22c0 4.73 3.83 5.263 6.908 5.69c3.252.453 5.092.842 5.092 3.583C21 23.547 17.867 24 16 24c-3.43 0-4.878-.964-6.222-2.628l-1.556 1.256A8.438 8.438 0 0 0 15 25.965V29h2v-3.045c3.726-.304 6-2.327 6-5.44"/></svg>