<svg xmlns="http://www.w3.org/2000/svg" width="1em" height="1em" viewBox="0 0 32 32"><path fill="currentColor" d="M25 29c-1.654 0-3-1.346-3-3s1.346-3 3-3s3 1.346 3 3s-1.346 3-3 3m0-4a1.001 1.001 0 0 0 0 2a1.001 1.001 0 0 0 0-2"/><circle cx="20" cy="21" r="2" fill="currentColor"/><path fill="currentColor" d="M15 19c-1.654 0-3-1.346-3-3s1.346-3 3-3s3 1.346 3 3s-1.346 3-3 3m0-4a1.001 1.001 0 0 0 0 2a1.001 1.001 0 0 0 0-2"/><path fill="currentColor" d="M13 27H4a2.002 2.002 0 0 1-2-2V5a2.002 2.002 0 0 1 2-2h7.586A1.99 1.99 0 0 1 13 3.586L16.414 7H28a2.002 2.002 0 0 1 2 2v7h-2V9H15.586l-4-4H4v20h9z"/></svg>