<svg xmlns="http://www.w3.org/2000/svg" width="1em" height="1em" viewBox="0 0 32 32"><path fill="currentColor" d="M28 13h2v2h-2zm-4.222-8.203l1.414-1.414l1.414 1.414l-1.414 1.414zM15 0h2v2h-2zM6.808 6.233L5.393 4.818l1.415-1.414l1.414 1.414zM2 13h2v2H2zm11 17h6v2h-6zm-2-4h10v2H11zm5-22C10.5 4 6 8.5 6 14c0 4.4 2 6.3 3.5 7.6c1 .9 1.5 1.5 1.5 2.4h2c0-1.8-1.1-2.9-2.2-3.9C9.4 18.9 8 17.5 8 14c0-4.4 3.6-8 8-8s8 3.6 8 8c0 3.5-1.4 4.9-2.8 6.1c-1.1 1-2.2 2-2.2 3.9h2c0-.9.5-1.5 1.5-2.4C24 20.3 26 18.4 26 14c0-5.5-4.5-10-10-10"/><path fill="none" d="M0 0h32v32H0z"/></svg>