<svg xmlns="http://www.w3.org/2000/svg" width="1em" height="1em" viewBox="0 0 32 32"><circle cx="22" cy="24" r="2" fill="currentColor"/><path fill="currentColor" d="M29.777 23.479A8.64 8.64 0 0 0 22 18a8.64 8.64 0 0 0-7.777 5.479L14 24l.223.522A8.64 8.64 0 0 0 22 30a8.64 8.64 0 0 0 7.777-5.478L30 24zM22 28a4 4 0 1 1 4-4a4.005 4.005 0 0 1-4 4M7 17h5v2H7zm0-5h12v2H7zm0-5h12v2H7z"/><path fill="currentColor" d="M22 2H4a2.006 2.006 0 0 0-2 2v24a2.006 2.006 0 0 0 2 2h8v-2H4V4h18v11h2V4a2.006 2.006 0 0 0-2-2"/></svg>