<svg xmlns="http://www.w3.org/2000/svg" width="1em" height="1em" viewBox="0 0 32 32"><path fill="currentColor" d="M25.716 22H25.6a3.371 3.371 0 0 1-3.312 2.276c-3.012 0-4.69-2.276-4.69-6.3c0-4.001 1.678-6.255 4.69-6.255a3.305 3.305 0 0 1 3.312 2.254h.115v-6.99h2.943V24h-2.943zm0-2.116v-3.817c0-1.173-1.081-1.932-2.484-1.932a2.556 2.556 0 0 0-2.552 2.829v2.07a2.537 2.537 0 0 0 2.552 2.805c1.403 0 2.484-.713 2.484-1.955M6.558 24H3.522V7.95h7.244c2.92 0 4.737 1.932 4.737 4.967a4.424 4.424 0 0 1-2.99 4.553L15.802 24h-3.38l-2.99-6.186H6.558zm3.909-8.738a1.689 1.689 0 0 0 1.885-1.817v-1.058a1.672 1.672 0 0 0-1.885-1.793h-3.91v4.668z"/></svg>