<svg xmlns="http://www.w3.org/2000/svg" width="1em" height="1em" viewBox="0 0 32 32"><path fill="currentColor" d="M6 24a2 2 0 1 1-2 2a2 2 0 0 1 2-2m0-2a4 4 0 1 0 4 4a4 4 0 0 0-4-4M16 4a2 2 0 1 1-2 2a2 2 0 0 1 2-2m0-2a4 4 0 1 0 4 4a4 4 0 0 0-4-4m10 2a2 2 0 1 1-2 2a2 2 0 0 1 2-2m0-2a4 4 0 1 0 4 4a4 4 0 0 0-4-4m-8 22v4h-4v-4zm2-2h-8v8h8z"/><path fill="currentColor" d="M27 22.14V17a2 2 0 0 0-2-2H7v-5h3V2H2v8h3v5a2 2 0 0 0 2 2h18v5.14a4 4 0 1 0 2 0M4 4h4v4H4Zm22 24a2 2 0 1 1 2-2a2 2 0 0 1-2 2"/></svg>