<svg xmlns="http://www.w3.org/2000/svg" width="1em" height="1em" viewBox="0 0 32 32"><path fill="currentColor" d="M27 24c-.462 0-.895.113-1.286.3l-4.829-4.83A5.96 5.96 0 0 0 22 16c0-3.309-2.692-6-6-6c-1.294 0-2.49.416-3.471 1.115L7.7 6.286C7.887 5.895 8 5.462 8 5a3 3 0 1 0-3 3c.462 0 .895-.113 1.286-.3l4.829 4.83A5.96 5.96 0 0 0 10 16c0 3.309 2.692 6 6 6c1.294 0 2.49-.416 3.47-1.115l4.83 4.829c-.187.391-.3.824-.3 1.286a3 3 0 1 0 3-3m-11-4c-2.206 0-4-1.794-4-4s1.794-4 4-4s4 1.794 4 4s-1.794 4-4 4"/></svg>