<svg xmlns="http://www.w3.org/2000/svg" width="1em" height="1em" viewBox="0 0 32 32"><path fill="currentColor" d="M22.98 28.875c-4.047 0-5.588-1.058-5.588-2.828a2.211 2.211 0 0 1 2.139-2.3v-.253a1.973 1.973 0 0 1-1.541-2c0-1.242 1.057-1.863 2.207-2.116v-.092a3.622 3.622 0 0 1-2.184-3.495c0-2.438 1.724-4.07 4.967-4.07a6.677 6.677 0 0 1 2.092.299v-.391a1.534 1.534 0 0 1 1.702-1.748h1.862v2.254h-2.552v.321a3.593 3.593 0 0 1 1.862 3.335c0 2.414-1.702 4.024-4.967 4.024a7.372 7.372 0 0 1-1.84-.207a1.23 1.23 0 0 0-.85 1.08c0 .599.506.897 1.563.897h3.22c2.943 0 4.208 1.265 4.208 3.427c0 2.506-1.702 3.863-6.3 3.863m1.494-4.737h-4.093a1.474 1.474 0 0 0-.621 1.242c0 .92.69 1.472 2.53 1.472h1.47c1.91 0 2.76-.483 2.76-1.495c0-.76-.551-1.22-2.046-1.22zm.667-8.163v-.391c0-1.219-.759-1.84-2.161-1.84s-2.162.62-2.162 1.84v.39c0 1.196.759 1.84 2.162 1.84s2.16-.644 2.16-1.84zM4.603 24V7.95h7.22c2.967 0 4.76 2 4.76 4.967c0 2.99-1.793 4.967-4.76 4.967H7.639V24zm3.036-8.738h3.909a1.689 1.689 0 0 0 1.885-1.817v-1.058a1.672 1.672 0 0 0-1.885-1.793h-3.91z"/></svg>