<svg xmlns="http://www.w3.org/2000/svg" width="1em" height="1em" viewBox="0 0 32 32"><path fill="currentColor" d="m18.868 22.068l1.794-1.747a4.218 4.218 0 0 0 3.288 1.632c1.403 0 2-.528 2-1.38c0-.69-.413-1.126-1.471-1.264l-1.196-.161c-2.575-.322-4-1.449-4-3.633c0-2.323 1.816-3.795 4.552-3.795a5.722 5.722 0 0 1 4.691 1.886l-1.725 1.724a3.965 3.965 0 0 0-2.874-1.287c-1.265 0-1.817.506-1.817 1.242c0 .804.437 1.172 1.564 1.356l1.219.161c2.621.368 3.886 1.541 3.886 3.541c0 2.323-1.955 3.933-4.944 3.933a6.094 6.094 0 0 1-4.967-2.208M4.24 7.95h5.84c4.186 0 6.922 2.69 6.922 8.025S14.266 24 10.082 24H4.24zm5.84 13.36c2.254 0 3.703-1.334 3.703-4.07v-2.53c0-2.736-1.449-4.07-3.702-4.07H7.276v10.67z"/></svg>