<svg xmlns="http://www.w3.org/2000/svg" width="1em" height="1em" viewBox="0 0 32 32"><circle cx="11" cy="8" r="1" fill="currentColor"/><circle cx="11" cy="16" r="1" fill="currentColor"/><circle cx="11" cy="24" r="1" fill="currentColor"/><path fill="currentColor" d="M24 3H8a2 2 0 0 0-2 2v22a2 2 0 0 0 2 2h10v-2H8v-6h18V5a2 2 0 0 0-2-2m0 16H8v-6h16Zm0-8H8V5h16Z"/><path fill="currentColor" d="M29 24.415L27.586 23L25 25.587L22.414 23L21 24.415L23.586 27L21 29.586L22.414 31L25 28.414L27.586 31L29 29.586L26.414 27z"/></svg>