<svg xmlns="http://www.w3.org/2000/svg" width="1em" height="1em" viewBox="0 0 32 32"><path fill="currentColor" d="M17.943 20.735c0-2.46 1.863-3.68 5.128-3.68h2.047v-.873c0-1.334-.667-2.116-2.23-2.116a3.125 3.125 0 0 0-2.737 1.518l-1.748-1.564a5.054 5.054 0 0 1 4.691-2.3c3.242 0 4.967 1.54 4.967 4.277v5.657h1.196V24h-1.633a2.184 2.184 0 0 1-2.23-2.07h-.138c-.39 1.54-1.701 2.346-3.495 2.346c-2.438 0-3.818-1.403-3.818-3.541m7.175-.322v-1.587h-1.886c-1.54 0-2.3.529-2.3 1.472v.39c0 .966.667 1.45 1.817 1.45c1.311 0 2.369-.598 2.369-1.725M6.972 24H3.936V7.95h7.244c2.92 0 4.737 1.932 4.737 4.967a4.424 4.424 0 0 1-2.989 4.553L16.216 24h-3.38l-2.99-6.186H6.972zm3.909-8.738a1.689 1.689 0 0 0 1.886-1.817v-1.058a1.672 1.672 0 0 0-1.886-1.793H6.97v4.668z"/></svg>