<svg xmlns="http://www.w3.org/2000/svg" width="1em" height="1em" viewBox="0 0 32 32"><path fill="currentColor" d="M25.348 28.875c-4.047 0-5.588-1.058-5.588-2.828a2.212 2.212 0 0 1 2.139-2.3v-.253a1.973 1.973 0 0 1-1.54-2c0-1.242 1.057-1.863 2.206-2.116v-.092a3.623 3.623 0 0 1-2.184-3.495c0-2.438 1.725-4.07 4.967-4.07a6.672 6.672 0 0 1 2.092.299v-.39a1.534 1.534 0 0 1 1.702-1.748h1.863v2.253h-2.553v.322a3.592 3.592 0 0 1 1.863 3.334c0 2.415-1.702 4.024-4.967 4.024a7.366 7.366 0 0 1-1.84-.207a1.23 1.23 0 0 0-.85 1.081c0 .598.506.897 1.564.897h3.218c2.943 0 4.208 1.265 4.208 3.426c0 2.506-1.7 3.863-6.3 3.863m1.495-4.737H22.75a1.473 1.473 0 0 0-.621 1.242c0 .92.69 1.471 2.53 1.471h1.471c1.909 0 2.76-.483 2.76-1.494c0-.76-.553-1.22-2.047-1.22m.667-8.163v-.391c0-1.219-.759-1.84-2.162-1.84s-2.161.62-2.161 1.84v.39c0 1.196.758 1.84 2.161 1.84s2.162-.644 2.162-1.84zM2.234 7.95H5.66l4.116 7.841h.092l4.07-7.841h3.29V24h-2.876V12.48h-.091l-1.242 2.552l-3.289 6.07l-3.288-6.07l-1.241-2.552h-.093V24H2.234z"/></svg>