<svg xmlns="http://www.w3.org/2000/svg" width="1em" height="1em" viewBox="0 0 32 32"><path fill="currentColor" d="m17.828 22.068l1.794-1.747a4.219 4.219 0 0 0 3.288 1.632c1.403 0 2-.528 2-1.38c0-.69-.414-1.126-1.472-1.264l-1.195-.161c-2.576-.322-4.001-1.449-4.001-3.633c0-2.323 1.816-3.795 4.553-3.795a5.722 5.722 0 0 1 4.69 1.886l-1.724 1.724a3.964 3.964 0 0 0-2.874-1.287c-1.265 0-1.817.506-1.817 1.242c0 .804.437 1.172 1.564 1.356l1.218.161c2.622.368 3.886 1.541 3.886 3.542c0 2.322-1.954 3.932-4.943 3.932a6.094 6.094 0 0 1-4.967-2.208M5.248 24V7.95h10.577v2.69H8.283v3.886h6.668v2.69H8.283v4.094h7.542V24z"/></svg>