<svg xmlns="http://www.w3.org/2000/svg" width="1em" height="1em" viewBox="0 0 32 32"><path fill="currentColor" d="M2 28h28v2H2zM13.48 5.15l5.69 8.14l.8 1.15l1.35-.36l4.52-1.21a2.13 2.13 0 0 1 1.12 0A1.84 1.84 0 0 1 28.23 14A1.87 1.87 0 0 1 27 16.45l-18.71 5a1.78 1.78 0 0 1-1 0A1.87 1.87 0 0 1 6 20.12l-.25-.93L5 16.38l-.74-2.74l1.44-.39l2.3 3.1l.81 1.08l1.31-.35l2.8-.75l1.94-.52l-.52-1.93l-2.26-8.36zM14.16 3a1.06 1.06 0 0 0-.5 0l-3.09.83A1 1 0 0 0 9.89 5l2.5 9.36l-2.81.75l-2.73-3.61a1 1 0 0 0-.52-.36a1.06 1.06 0 0 0-.5 0L2.72 12A1 1 0 0 0 2 13.16l1 3.74l.75 2.8l.25.94a3.87 3.87 0 0 0 2.74 2.74a3.91 3.91 0 0 0 2 0l18.7-5a3.84 3.84 0 0 0 0-7.44a4.27 4.27 0 0 0-2.16 0l-4.51 1.21l-6.07-8.74a1 1 0 0 0-.54-.41"/></svg>