<svg xmlns="http://www.w3.org/2000/svg" width="1em" height="1em" viewBox="0 0 32 32"><path fill="currentColor" d="M8 20H4.73A1.974 1.974 0 0 0 3 19a2 2 0 0 0 0 4a1.974 1.974 0 0 0 1.73-1H8zM29 9a1.974 1.974 0 0 0-1.73 1H24v2h3.27A2 2 0 1 0 29 9"/><path fill="currentColor" d="M25.414 5L21 .586L16.586 5L20 8.414V18h2V8.414zM21 3.414L22.586 5L21 6.586L19.414 5zm-9 20.172V14h-2v9.586L6.586 27L11 31.414L15.414 27zM9.414 27L11 25.414L12.586 27L11 28.586z"/><path fill="currentColor" d="M18 10H8.414L5 6.586L.586 11L5 15.414L8.414 12H18ZM5 12.586L3.414 11L5 9.414L6.586 11Z"/><path fill="currentColor" d="M13 3a2 2 0 0 0-4 0a1.973 1.973 0 0 0 1 1.73V8h2V4.73A1.973 1.973 0 0 0 13 3m9 24.27V24h-2v3.27a2 2 0 1 0 2 0"/><path fill="currentColor" d="M31.414 21L27 16.586L23.586 20H14v2h9.586L27 25.414ZM27 19.414L28.586 21L27 22.586L25.414 21Z"/></svg>