<svg xmlns="http://www.w3.org/2000/svg" width="1em" height="1em" viewBox="0 0 32 32"><path fill="currentColor" d="M4 20v2h4.586L2 28.586L3.414 30L10 23.414V28h2v-8z"/><path fill="currentColor" d="M15 28v-2a9.013 9.013 0 0 0 8.945-8H16a2.002 2.002 0 0 1-2-2V8.055A9.013 9.013 0 0 0 6 17H4A11.013 11.013 0 0 1 15 6a1 1 0 0 1 1 1v9h9a1 1 0 0 1 1 1a11.013 11.013 0 0 1-11 11"/><path fill="currentColor" d="M29.006 14h-9.011A1.996 1.996 0 0 1 18 12V3a1.008 1.008 0 0 1 1.02-1A11.013 11.013 0 0 1 30 12.98a1.004 1.004 0 0 1-.994 1.02M20 12h7.945A9.018 9.018 0 0 0 20 4.055Z"/></svg>