<svg xmlns="http://www.w3.org/2000/svg" width="1em" height="1em" viewBox="0 0 32 32"><path d="M13 11H7a3 3 0 0 0-3 3v2h2v-2a1 1 0 0 1 1-1h6a1 1 0 0 1 1 1v2h2v-2a3 3 0 0 0-3-3z" fill="currentColor"/><path d="M10 10a4 4 0 1 0-4-4a4 4 0 0 0 4 4zm0-6a2 2 0 1 1-2 2a2 2 0 0 1 2-2z" fill="currentColor"/><path d="M20 4h10v2H20z" fill="currentColor"/><path d="M20 8h10v2H20z" fill="currentColor"/><path d="M20 12h6v2h-6z" fill="currentColor"/><path d="M5 30H3a2 2 0 0 1-2-2v-6a2 2 0 0 1 2-2h3v2H3v2h2a2 2 0 0 1 2 2v2a2 2 0 0 1-2 2zm-2-4v2h2v-2z" fill="currentColor"/><path d="M13 30h-2a2 2 0 0 1-2-2v-6a2 2 0 0 1 2-2h2a2 2 0 0 1 2 2v6a2 2 0 0 1-2 2zm-2-8v6h2v-6z" fill="currentColor"/><path d="M21 30h-2a2 2 0 0 1-2-2v-6a2 2 0 0 1 2-2h2a2 2 0 0 1 2 2v6a2 2 0 0 1-2 2zm-2-8v6h2v-6z" fill="currentColor"/><path d="M29 30h-2a2 2 0 0 1-2-2v-6a2 2 0 0 1 2-2h2a2 2 0 0 1 2 2v6a2 2 0 0 1-2 2zm-2-8v6h2v-6z" fill="currentColor"/></svg>