<svg xmlns="http://www.w3.org/2000/svg" width="1em" height="1em" viewBox="0 0 32 32"><path d="M22 2V1h-2v1a7.04 7.04 0 0 1-.08 1h-7.84A7.04 7.04 0 0 1 12 2V1h-2v1c0 3.755 1.97 5.604 4.1 7c-2.13 1.396-4.1 3.245-4.1 7s1.97 5.604 4.1 7c-2.13 1.396-4.1 3.245-4.1 7v1h2v-1a7.04 7.04 0 0 1 .08-1h7.84a7.04 7.04 0 0 1 .08 1v1h2v-1c0-3.755-1.97-5.604-4.1-7c2.13-1.396 4.1-3.245 4.1-7s-1.97-5.604-4.1-7C20.03 7.604 22 5.755 22 2zm-2 14a7.04 7.04 0 0 1-.08 1h-7.84a6.321 6.321 0 0 1 0-2h7.84a7.04 7.04 0 0 1 .08 1zm-.756 11h-6.488A8.908 8.908 0 0 1 16 24.17A8.908 8.908 0 0 1 19.244 27zM16 21.83A8.908 8.908 0 0 1 12.756 19h6.488A8.908 8.908 0 0 1 16 21.83zM19.244 13h-6.488A8.908 8.908 0 0 1 16 10.17A8.908 8.908 0 0 1 19.244 13zM16 7.83A8.908 8.908 0 0 1 12.756 5h6.488A8.908 8.908 0 0 1 16 7.83z" fill="currentColor"/></svg>