<svg xmlns="http://www.w3.org/2000/svg" width="1em" height="1em" viewBox="0 0 32 32"><path fill="currentColor" d="M29 31a.999.999 0 0 1-.624-.22L23.649 27H20a1 1 0 0 1-1-1v-5a1 1 0 0 1 1-1h3.65l4.726-3.78A1 1 0 0 1 30 17v13a1 1 0 0 1-1 1m-8-6h3a1 1 0 0 1 .625.22L28 27.92v-8.84l-3.375 2.7A1 1 0 0 1 24 22h-3Z"/><path fill="currentColor" d="M16 28H8V4h8v6a2.006 2.006 0 0 0 2 2h6v3h2v-5a.91.91 0 0 0-.3-.7l-7-7A.909.909 0 0 0 18 2H8a2.006 2.006 0 0 0-2 2v24a2.006 2.006 0 0 0 2 2h8Zm2-23.6l5.6 5.6H18Z"/></svg>