<svg xmlns="http://www.w3.org/2000/svg" width="1em" height="1em" viewBox="0 0 32 32"><path fill="currentColor" d="M18.303 16a2.662 2.662 0 0 0-1.908.806l-.393.405l-.397-.405a2.662 2.662 0 0 0-3.816 0a2.8 2.8 0 0 0 0 3.896L16.002 25l4.209-4.298a2.8 2.8 0 0 0 0-3.896A2.662 2.662 0 0 0 18.303 16"/><path fill="currentColor" d="m25.7 9.3l-7-7A.908.908 0 0 0 18 2H8a2.006 2.006 0 0 0-2 2v24a2.006 2.006 0 0 0 2 2h16a2.006 2.006 0 0 0 2-2V10a.908.908 0 0 0-.3-.7M18 4.4l5.6 5.6H18ZM24 28H8V4h8v6a2.006 2.006 0 0 0 2 2h6Z"/></svg>