<svg xmlns="http://www.w3.org/2000/svg" width="1em" height="1em" viewBox="0 0 32 32"><path d="M30 25l-1.414-1.414L26 26.172V18h-2v8.172l-2.586-2.586L20 25l5 5l5-5z" fill="currentColor"/><path d="M19 14h4v2h-4z" fill="currentColor"/><path d="M19 10h7v2h-7z" fill="currentColor"/><path d="M9 18h6a3 3 0 0 1 3 3v2h-2v-2a1 1 0 0 0-1-1H9a1 1 0 0 0-1 1v2H6v-2a3 3 0 0 1 3-3z" fill="currentColor"/><path d="M16 13a4 4 0 1 0-4 4a4 4 0 0 0 4-4zm-2 0a2 2 0 1 1-2-2a2 2 0 0 1 2 2z" fill="currentColor"/><path d="M18 26H4V6h24v10h2V6a2 2 0 0 0-2-2H4a2 2 0 0 0-2 2v20a2 2 0 0 0 2 2h14z" fill="currentColor"/></svg>