<svg xmlns="http://www.w3.org/2000/svg" width="1em" height="1em" viewBox="0 0 32 32"><path fill="currentColor" d="M5 24a3 3 0 1 0 0 6a3 3 0 0 0 0-6m0 4a1 1 0 1 1 0-2a1 1 0 0 1 0 2m11-4a3 3 0 1 0 0 6a3 3 0 0 0 0-6m0 4a1 1 0 1 1 0-2a1 1 0 0 1 0 2m11-4a3 3 0 1 0 0 6a3 3 0 0 0 0-6m0 4a1 1 0 1 1 0-2a1 1 0 0 1 0 2m2.586-10.414L28 19.172V16c0-3.554-2.665-6.492-6.1-6.936c.062-.345.1-.7.1-1.064a6 6 0 0 0-12 0c0 .364.038.719.1 1.064C6.665 9.508 4 12.446 4 16v3.171l-1.586-1.585L1 19l4 4l4-4l-1.414-1.414L6 19.172V16c0-2.695 2.148-4.885 4.82-4.982A5.997 5.997 0 0 0 15 13.91v5.262l-1.586-1.586L12 19l4 4l4-4l-1.414-1.414L17 19.172V13.91a5.997 5.997 0 0 0 4.18-2.892C23.852 11.115 26 13.305 26 16v3.171l-1.586-1.585L23 19l4 4l4-4zM16 12c-2.206 0-4-1.794-4-4s1.794-4 4-4s4 1.794 4 4s-1.794 4-4 4"/></svg>