<svg xmlns="http://www.w3.org/2000/svg" width="1em" height="1em" viewBox="0 0 32 32"><path fill="currentColor" d="M7 12a5 5 0 1 1 5-5h-2a3 3 0 1 0-3 3zm18 0v-2a3 3 0 1 0-3-3h-2a5 5 0 1 1 5 5M7 30a5 5 0 0 1 0-10v2a3 3 0 1 0 3 3h2a5.006 5.006 0 0 1-5 5m18 0a5.006 5.006 0 0 1-5-5h2a3 3 0 1 0 3-3v-2a5 5 0 0 1 0 10"/><path fill="currentColor" d="M20 18.586v-5.172l5.707-5.707a1 1 0 1 0-1.414-1.414l-4.5 4.5a3.973 3.973 0 0 0-7.587 0l-4.499-4.5a1 1 0 0 0-1.414 0a1 1 0 0 0 0 1.414L12 13.414v5.172l-5.707 5.707a1 1 0 0 0 0 1.414a1 1 0 0 0 1.414 0l4.5-4.5a3.973 3.973 0 0 0 7.587 0l4.5 4.5a1 1 0 0 0 1.414-1.414ZM18 20a2 2 0 0 1-4 0v-8a2 2 0 0 1 4 0Z"/></svg>