<svg xmlns="http://www.w3.org/2000/svg" width="1em" height="1em" viewBox="0 0 32 32"><path fill="currentColor" d="M16 7a3 3 0 1 1 3-3a3.003 3.003 0 0 1-3 3m0-4a1 1 0 1 0 1 1a1.001 1.001 0 0 0-1-1m-5 27a3 3 0 1 1 3-3a3.003 3.003 0 0 1-3 3m0-4a1 1 0 1 0 1 1a1.001 1.001 0 0 0-1-1M7 11a3 3 0 1 1 3-3a3.003 3.003 0 0 1-3 3m0-4a1 1 0 1 0 1 1a1.001 1.001 0 0 0-1-1m14 23a3 3 0 1 1 3-3a3.003 3.003 0 0 1-3 3m0-4a1 1 0 1 0 1 1a1.001 1.001 0 0 0-1-1m4-15a3 3 0 1 1 3-3a3.003 3.003 0 0 1-3 3m0-4a1 1 0 1 0 1 1a1.001 1.001 0 0 0-1-1M4 21a3 3 0 1 1 3-3a3.003 3.003 0 0 1-3 3m0-4a1 1 0 1 0 1 1a1.001 1.001 0 0 0-1-1m24 4a3 3 0 1 1 3-3a3.003 3.003 0 0 1-3 3m0-4a1 1 0 1 0 1 1a1.001 1.001 0 0 0-1-1m-12 5a6 6 0 1 1 6-6a6.007 6.007 0 0 1-6 6m0-10a4 4 0 1 0 4 4a4.005 4.005 0 0 0-4-4"/></svg>