<svg xmlns="http://www.w3.org/2000/svg" width="1em" height="1em" viewBox="0 0 32 32"><path d="M28 30h-6v-4a2.002 2.002 0 0 1 2-2h2v-2h-4v-2h4a2.002 2.002 0 0 1 2 2v2a2.002 2.002 0 0 1-2 2h-2v2h4z" fill="currentColor"/><path d="M28 16h2A14 14 0 0 0 16 2v2a12 12 0 0 1 12 12z" fill="currentColor"/><path d="M26 16A10 10 0 0 0 16 6v10z" fill="currentColor"/><path d="M16 28a11.96 11.96 0 0 1-10.584-6.345c-.066-.127-.133-.254-.195-.384c-.055-.113-.106-.227-.157-.342A13.12 13.12 0 0 1 4.19 18l-1.968.413A13.917 13.917 0 0 0 2.7 20.3l-.025.009A13.961 13.961 0 0 0 16 30z" fill="currentColor"/><path d="M5.591 10L3.86 9a14.14 14.14 0 0 0-1.638 4.587l1.968.347A12.152 12.152 0 0 1 5.59 10z" fill="currentColor"/><path d="M11.816 4.765l-.683-1.878a13.976 13.976 0 0 0-4.182 2.44L8.236 6.86a11.973 11.973 0 0 1 3.58-2.094z" fill="currentColor"/></svg>