<svg xmlns="http://www.w3.org/2000/svg" width="1em" height="1em" viewBox="0 0 32 32"><path fill="currentColor" d="M29 14h-1v-4h-2v4h-2v-4h-2v4h-1a1 1 0 0 0-1 1v4a5.008 5.008 0 0 0 4 4.899V27a1 1 0 0 1-1 1H5a1 1 0 0 1 0-2h5a3 3 0 0 0 0-6H5a1 1 0 0 1 0-2h5a3.003 3.003 0 0 0 3-3v-4h1a4.005 4.005 0 0 0 4-4V4h-3a3.979 3.979 0 0 0-2.747 1.106A6.004 6.004 0 0 0 7 2H4v3a6.007 6.007 0 0 0 6 6h1v4a1 1 0 0 1-1 1H5a3 3 0 0 0 0 6h5a1 1 0 0 1 0 2H5a3 3 0 0 0 0 6h18a3.003 3.003 0 0 0 3-3v-3.101A5.008 5.008 0 0 0 30 19v-4a1 1 0 0 0-1-1M13 8a2.002 2.002 0 0 1 2-2h1v1a2.002 2.002 0 0 1-2 2h-1Zm-3 1a4.005 4.005 0 0 1-4-4V4h1a4.005 4.005 0 0 1 4 4v1Zm18 10a3 3 0 0 1-6 0v-3h6Z"/></svg>