<svg xmlns="http://www.w3.org/2000/svg" width="1em" height="1em" viewBox="0 0 32 32"><path fill="currentColor" d="M20 15c-1.777 0-3.231-.873-4.514-1.642C14.322 12.659 13.223 12 12 12c-1.398 0-2.449.863-3.293 1.707l-1.414-1.414C8.36 11.225 9.86 10 12 10c1.777 0 3.231.873 4.514 1.642C17.678 12.341 18.777 13 20 13c1.398 0 2.449-.863 3.293-1.707l1.414 1.414C23.64 13.775 22.14 15 20 15m0 7c-1.777 0-3.231-.873-4.514-1.642C14.322 19.659 13.223 19 12 19c-1.398 0-2.449.863-3.293 1.707l-1.414-1.414C8.36 18.225 9.86 17 12 17c1.777 0 3.231.873 4.514 1.642C17.678 19.341 18.777 20 20 20c1.398 0 2.449-.863 3.293-1.707l1.414 1.414C23.64 20.775 22.14 22 20 22"/><path fill="currentColor" d="M16 30C8.28 30 2 23.72 2 16S8.28 2 16 2s14 6.28 14 14s-6.28 14-14 14m0-26C9.383 4 4 9.383 4 16s5.383 12 12 12s12-5.383 12-12S22.617 4 16 4"/></svg>