<svg xmlns="http://www.w3.org/2000/svg" width="1em" height="1em" viewBox="0 0 32 32"><path fill="currentColor" d="M17 15h2v7h-2z"/><circle cx="18" cy="25" r="1.25" fill="currentColor"/><path fill="currentColor" d="M29 30H7a1 1 0 0 1-.886-1.464l11-21c.173-.33.53-.536.886-.536s.713.206.886.536l11 21A1 1 0 0 1 29 30M8.653 28h18.694L18 10.155zM7 23H3a1 1 0 0 1-.894-1.447l2.5-5l1.789.894L4.618 21H7zm-1.394-8.447l2.5-5l1.788.894l-2.5 5zm5.289-6.106l-1.79-.894l2.5-5c.17-.339.532-.553.895-.553s.725.214.894.553l2 4l-1.789.894l-1.105-2.21z"/></svg>