<svg xmlns="http://www.w3.org/2000/svg" width="1em" height="1em" viewBox="0 0 32 32"><path fill="currentColor" d="M30 14a12.985 12.985 0 0 0-3.829-9.243L24.414 3L23 4.414l1.757 1.757a11.071 11.071 0 0 1 0 15.657L22 24.586L23.414 26l2.757-2.757A12.985 12.985 0 0 0 30 14"/><circle cx="17" cy="11" r="1" fill="currentColor"/><path fill="currentColor" d="M22 14a12.985 12.985 0 0 0-3.829-9.243L16.414 3L15 4.414l1.757 1.757a11.071 11.071 0 0 1 0 15.657L14 24.586L15.414 26l2.757-2.757A12.985 12.985 0 0 0 22 14"/><circle cx="25" cy="11" r="1" fill="currentColor"/><circle cx="9" cy="11" r="1" fill="currentColor"/><path fill="currentColor" d="m9.414 24l.757-.757a13.07 13.07 0 0 0 0-18.486L8 2.586L5.829 4.757a13.07 13.07 0 0 0 0 18.486l.757.757l-4.293 4.293A1 1 0 0 0 3 30h10a1 1 0 0 0 .707-1.707ZM4 14a10.999 10.999 0 0 1 3.243-7.829L8 5.414l.757.757a11.071 11.071 0 0 1 0 15.657L8 22.586l-.757-.758A10.999 10.999 0 0 1 4 14m1.414 14L8 25.414L10.586 28Z"/></svg>