<svg xmlns="http://www.w3.org/2000/svg" width="1em" height="1em" viewBox="0 0 32 32"><path fill="currentColor" d="M29 28a2.883 2.883 0 0 1-1-.182v-.006a3.766 3.766 0 0 1-2.053-2.133A.971.971 0 0 0 25 25a1.007 1.007 0 0 0-.949.684A3.438 3.438 0 0 1 21 28a3.44 3.44 0 0 1-3.053-2.321A.99.99 0 0 0 17 25a1.007 1.007 0 0 0-.949.684A3.438 3.438 0 0 1 13 28a3.44 3.44 0 0 1-3.053-2.321a1 1 0 0 0-1.896.005A3.438 3.438 0 0 1 5 28H2v2h3a4.932 4.932 0 0 0 4-1.987a5.02 5.02 0 0 0 8 0a5.02 5.02 0 0 0 8 0a5.143 5.143 0 0 0 2.138 1.62A4.837 4.837 0 0 0 29 30h1v-2Z"/><path fill="none" d="M23.75 11h-1.5V7h1.5ZM23 12a1 1 0 1 0 1 1a1 1 0 0 0-1-1"/><path fill="currentColor" d="M29.912 14.936L23.628 3.37a.718.718 0 0 0-1.256 0l-6.283 11.564A.72.72 0 0 0 16.72 16h12.56a.72.72 0 0 0 .631-1.065M22.25 7h1.5v4h-1.5Zm.75 7a1 1 0 1 1 1-1a1 1 0 0 1-1 1"/><path fill="currentColor" d="M28 21v-3h-2v3h-1a3.438 3.438 0 0 1-3.051-2.316a1 1 0 0 0-1.896-.005A3.44 3.44 0 0 1 17 21a3.438 3.438 0 0 1-3.051-2.316A1.007 1.007 0 0 0 13 18a.99.99 0 0 0-.947.679A3.44 3.44 0 0 1 9 21a3.366 3.366 0 0 1-3-2.185V12.06l10-7.79l2.533 1.976l.968-1.782l-2.889-2.251a1.01 1.01 0 0 0-1.242 0L1 13.419l1.243 1.572L4 13.621v5.188a3.69 3.69 0 0 1-2 2.003v2.084a4.996 4.996 0 0 0 3-1.883a5.02 5.02 0 0 0 8 0a5.02 5.02 0 0 0 8 0A4.932 4.932 0 0 0 25 23h5v-2Z"/></svg>