<svg xmlns="http://www.w3.org/2000/svg" width="1em" height="1em" viewBox="0 0 32 32"><path fill="currentColor" d="M9 15.586L12.586 12L14 13.413L10.413 17zm6-.001L16.586 14L18 15.413L16.414 17z"/><circle cx="10.5" cy="22.5" r="1.5" fill="currentColor"/><circle cx="7.5" cy="18.5" r="1.5" fill="currentColor"/><circle cx="13.5" cy="18.5" r="1.5" fill="currentColor"/><path fill="currentColor" d="M14 28a10 10 0 0 1 0-20h4v5l6-6l-6-6v5h-4a12 12 0 0 0 0 24Z"/><path fill="currentColor" d="M20 20h-4v2h4v2h-3v2h3v2h-4v2h4a2.003 2.003 0 0 0 2-2v-6a2.002 2.002 0 0 0-2-2m8 10h-2a2.002 2.002 0 0 1-2-2v-6a2.002 2.002 0 0 1 2-2h2a2.002 2.002 0 0 1 2 2v6a2.002 2.002 0 0 1-2 2m-2-8v6h2v-6z"/></svg>