<svg xmlns="http://www.w3.org/2000/svg" width="1em" height="1em" viewBox="0 0 32 32"><path fill="currentColor" d="M26 18A10 10 0 1 1 16 8h4v5l6-6l-6-6v5h-4a12 12 0 1 0 12 12Z"/><path fill="currentColor" d="M19.64 22.13a2.81 2.81 0 0 1-1.28-.27a2.36 2.36 0 0 1-.89-.77a3.39 3.39 0 0 1-.47-1.25a7.12 7.12 0 0 1-.17-1.68a7.24 7.24 0 0 1 .17-1.68a3.46 3.46 0 0 1 .52-1.25a2.36 2.36 0 0 1 .89-.77a2.81 2.81 0 0 1 1.28-.27a2.44 2.44 0 0 1 2.16 1a5.31 5.31 0 0 1 .7 2.93a5.31 5.31 0 0 1-.7 2.93a2.44 2.44 0 0 1-2.21 1.08m0-1.22a1 1 0 0 0 1-.55a3.24 3.24 0 0 0 .3-1.51v-1.38a3.17 3.17 0 0 0-.3-1.5a1.22 1.22 0 0 0-2.05 0a3.18 3.18 0 0 0-.29 1.5v1.38a3.25 3.25 0 0 0 .29 1.51a1 1 0 0 0 1.05.55m-7.02-3.49a1.46 1.46 0 0 0 1-.27a.84.84 0 0 0 .31-.68v-.08a.94.94 0 0 0-.3-.74a1.2 1.2 0 0 0-.83-.27a1.65 1.65 0 0 0-.89.24a2.1 2.1 0 0 0-.68.68l-.93-.83a5.37 5.37 0 0 1 .44-.51a2.7 2.7 0 0 1 .54-.4a2.55 2.55 0 0 1 .7-.27a3.25 3.25 0 0 1 .87-.1a3.94 3.94 0 0 1 1.06.14a2.33 2.33 0 0 1 .82.4a1.91 1.91 0 0 1 .54.63a1.87 1.87 0 0 1 .18.83a2 2 0 0 1-.11.67a1.82 1.82 0 0 1-.32.52a1.79 1.79 0 0 1-.47.36a2.27 2.27 0 0 1-.57.2V18a2.34 2.34 0 0 1 .63.21a1.7 1.7 0 0 1 .51.38a1.89 1.89 0 0 1 .34.55a2.07 2.07 0 0 1 .12.73a2 2 0 0 1-.2.92a2 2 0 0 1-.58.72a2.66 2.66 0 0 1-.89.45a3.76 3.76 0 0 1-1.15.16a4.1 4.1 0 0 1-1-.11a3.1 3.1 0 0 1-.76-.31a2.76 2.76 0 0 1-.56-.45a4.22 4.22 0 0 1-.44-.55l1.07-.81a3.07 3.07 0 0 0 .28.42a1.94 1.94 0 0 0 .36.34a1.57 1.57 0 0 0 .45.22a2 2 0 0 0 .57.07a1.45 1.45 0 0 0 1-.3a1.12 1.12 0 0 0 .34-.85v-.08a1 1 0 0 0-.37-.8a1.78 1.78 0 0 0-1.06-.28h-.76v-1.21z"/></svg>