<svg xmlns="http://www.w3.org/2000/svg" width="1em" height="1em" viewBox="0 0 32 32"><path fill="currentColor" d="M26 20c2.206 0 4-1.794 4-4s-1.794-4-4-4c-1.858 0-3.41 1.28-3.858 3h-3.728l5.567-5.567A3.95 3.95 0 0 0 26 10c2.206 0 4-1.794 4-4s-1.794-4-4-4s-4 1.794-4 4c0 .74.215 1.424.567 2.019L16 14.586L9.433 8.019A3.95 3.95 0 0 0 10 6c0-2.206-1.794-4-4-4S2 3.794 2 6s1.794 4 4 4c.74 0 1.424-.215 2.019-.567L13.586 15H9.858c-.447-1.72-2-3-3.858-3c-2.206 0-4 1.794-4 4s1.794 4 4 4c1.858 0 3.41-1.28 3.858-3h3.728l-5.567 5.567A3.952 3.952 0 0 0 6 22c-2.206 0-4 1.794-4 4s1.794 4 4 4c1.858 0 3.41-1.28 3.858-3h12.284c.447 1.72 2 3 3.858 3c2.206 0 4-1.794 4-4s-1.794-4-4-4c-.74 0-1.424.215-2.019.567L18.414 17h3.728c.447 1.72 2 3 3.858 3Zm0-6c1.103 0 2 .898 2 2s-.897 2-2 2s-2-.897-2-2s.897-2 2-2ZM6 18c-1.103 0-2-.897-2-2s.897-2 2-2s2 .898 2 2s-.897 2-2 2ZM26 4c1.103 0 2 .898 2 2s-.897 2-2 2s-2-.897-2-2s.897-2 2-2ZM4 6c0-1.102.897-2 2-2s2 .898 2 2s-.897 2-2 2s-2-.897-2-2Zm5.433 17.981L16 17.414l6.567 6.567A3.95 3.95 0 0 0 22.142 25H9.858a3.94 3.94 0 0 0-.425-1.019ZM6 28c-1.103 0-2-.897-2-2s.897-2 2-2s2 .898 2 2s-.897 2-2 2Zm22-2c0 1.103-.897 2-2 2s-2-.897-2-2s.897-2 2-2s2 .898 2 2Z"/></svg>