<svg xmlns="http://www.w3.org/2000/svg" width="1em" height="1em" viewBox="0 0 32 32"><path fill="currentColor" d="M25 10H7a3.003 3.003 0 0 0-3 3v6a2.002 2.002 0 0 0 2 2v7a2.002 2.002 0 0 0 2 2h4a2.002 2.002 0 0 0 2-2V16h-2v12H8v-9H6v-6a1 1 0 0 1 1-1h18a1 1 0 0 1 1 1v6h-2v9h-4V16h-2v12a2.002 2.002 0 0 0 2 2h4a2.002 2.002 0 0 0 2-2v-7a2.002 2.002 0 0 0 2-2v-6a3.003 3.003 0 0 0-3-3M10 9a4 4 0 1 1 4-4a4.004 4.004 0 0 1-4 4m0-6a2 2 0 1 0 2 2a2.002 2.002 0 0 0-2-2m12 6a4 4 0 1 1 4-4a4.004 4.004 0 0 1-4 4m0-6a2 2 0 1 0 2 2a2.002 2.002 0 0 0-2-2"/></svg>