<svg xmlns="http://www.w3.org/2000/svg" width="1em" height="1em" viewBox="0 0 32 32"><path fill="currentColor" d="M19.878 12.122a.419.419 0 0 0-.437-.097l-9.167 3.333a.417.417 0 0 0-.012.779l4 1.6l1.6 4a.417.417 0 0 0 .388.263h.007a.417.417 0 0 0 .385-.274l3.333-9.167a.417.417 0 0 0-.097-.437"/><path fill="currentColor" d="M30.414 17.414a2 2 0 0 0 0-2.828l-5.787-5.787l2.9-2.862a2.002 2.002 0 1 0-1.44-1.388l-2.874 2.836l-5.799-5.8a2 2 0 0 0-2.828 0L8.799 7.374L5.937 4.472A2.002 2.002 0 1 0 4.55 5.914l2.835 2.873l-5.8 5.799a2 2 0 0 0 0 2.828l5.8 5.799l-2.835 2.873a1.998 1.998 0 1 0 1.387 1.442l2.862-2.9l5.787 5.786a2 2 0 0 0 2.828 0l5.8-5.799l2.872 2.836a1.998 1.998 0 1 0 1.442-1.387l-2.9-2.863ZM16 29L3 16L16 3l13 13Z"/></svg>