<svg xmlns="http://www.w3.org/2000/svg" width="1em" height="1em" viewBox="0 0 32 32"><path fill="currentColor" d="M31 16a1.986 1.986 0 0 0-.586-1.414l-5.793-5.793l2.868-2.868a2 2 0 1 0-1.414-1.414L23.207 7.38l-5.793-5.793a2 2 0 0 0-2.828 0L8.793 7.379L5.925 4.51a2 2 0 1 0-1.414 1.414l2.868 2.868l-5.793 5.793a2 2 0 0 0 0 2.828l5.793 5.793l-2.868 2.868a2 2 0 1 0 1.414 1.414l2.868-2.868l5.793 5.793a2 2 0 0 0 2.828 0l5.793-5.793l2.868 2.868a2 2 0 1 0 1.414-1.414l-2.868-2.868l5.793-5.793A1.987 1.987 0 0 0 31 16m-7.793 5.793L20.414 19L19 20.414l2.793 2.793L16 29l-5.793-5.793L13 20.414L11.586 19l-2.793 2.793L3 16l5.793-5.793L11.586 13L13 11.586l-2.793-2.793L16 3l5.794 5.793L19 11.586L20.414 13l2.794-2.793L29 16Z"/></svg>