<svg xmlns="http://www.w3.org/2000/svg" width="1em" height="1em" viewBox="0 0 32 32"><path fill="currentColor" d="M21 22h-2v-2a1.001 1.001 0 0 0-1-1h-4a1.001 1.001 0 0 0-1 1v2h-2v-2a3.003 3.003 0 0 1 3-3h4a3.003 3.003 0 0 1 3 3zm-5-6a3.5 3.5 0 1 1 3.5-3.5A3.504 3.504 0 0 1 16 16m0-5a1.5 1.5 0 1 0 1.5 1.5A1.502 1.502 0 0 0 16 11"/><path fill="currentColor" d="M30.414 17.414a2 2 0 0 0 0-2.828l-5.787-5.787l2.9-2.862a2.002 2.002 0 1 0-1.44-1.388l-2.874 2.836l-5.799-5.8a2 2 0 0 0-2.828 0L8.799 7.374L5.937 4.472A2.002 2.002 0 1 0 4.55 5.914l2.835 2.873l-5.8 5.799a2 2 0 0 0 0 2.828l5.8 5.799l-2.835 2.873a1.998 1.998 0 1 0 1.387 1.442l2.862-2.9l5.787 5.786a2 2 0 0 0 2.828 0l5.8-5.799l2.872 2.836a1.998 1.998 0 1 0 1.442-1.387l-2.9-2.863ZM16 29L3 16L16 3l13 13Z"/></svg>