<svg xmlns="http://www.w3.org/2000/svg" width="1em" height="1em" viewBox="0 0 32 32"><path fill="currentColor" d="m15 22l-1.41 1.41L16.17 26H4V8H2v18c0 1.103.897 2 2 2h12.17l-2.58 2.59L15 32l5-5z"/><circle cx="11" cy="16" r="1" fill="currentColor"/><path fill="currentColor" d="M24 20H8c-1.103 0-2-.897-2-2v-4c0-1.103.897-2 2-2h16c1.103 0 2 .897 2 2v4c0 1.103-.897 2-2 2M8 14v4h16v-4z"/><path fill="currentColor" d="M28 4H15.83l2.58-2.59L17 0l-5 5l5 5l1.41-1.41L15.83 6H28v18h2V6c0-1.102-.897-2-2-2"/></svg>