<svg xmlns="http://www.w3.org/2000/svg" width="1em" height="1em" viewBox="0 0 32 32"><path fill="currentColor" d="M28 30h-6a2.002 2.002 0 0 1-2-2v-6a2.002 2.002 0 0 1 2-2h6a2.002 2.002 0 0 1 2 2v6a2.002 2.002 0 0 1-2 2m-6-8h-.001L22 28h6v-6zm-4 4h-6a3.003 3.003 0 0 1-3-3v-4h2v4a1.001 1.001 0 0 0 1 1h6zm8-8h-2v-3a1.001 1.001 0 0 0-1-1h-5v-2h5a3.003 3.003 0 0 1 3 3zm-11 0a.999.999 0 0 1-.497-.132L10 15.288l-4.503 2.58a1 1 0 0 1-1.471-1.094l1.061-4.572l-2.818-3.02a1 1 0 0 1 .566-1.668l4.2-.702l2.066-4.25a1 1 0 0 1 1.788-.02l2.204 4.27l4.077.702a1 1 0 0 1 .561 1.668l-2.818 3.02l1.06 4.572A1 1 0 0 1 15 18m-5-5s.343.18.497.269l3.01 1.724l-.784-3.377l2.282-2.445l-3.233-.557l-1.745-3.382l-1.644 3.382l-3.381.565l2.274 2.437l-.784 3.377l3.01-1.724C9.658 13.18 10 13 10 13"/></svg>