<svg xmlns="http://www.w3.org/2000/svg" width="1em" height="1em" viewBox="0 0 32 32"><path fill="currentColor" d="M11 21H9v-2a3.003 3.003 0 0 1 3-3h6v2h-6a1.001 1.001 0 0 0-1 1zm4-6a4 4 0 1 1 4-4a4.005 4.005 0 0 1-4 4m0-6a2 2 0 1 0 2 2a2.002 2.002 0 0 0-2-2m9 13a4 4 0 1 1 4-4a4.005 4.005 0 0 1-4 4m0-6a2 2 0 1 0 2 2a2.002 2.002 0 0 0-2-2m6 12h-2v-2a1.001 1.001 0 0 0-1-1h-6a1.001 1.001 0 0 0-1 1v2h-2v-2a3.003 3.003 0 0 1 3-3h6a3.003 3.003 0 0 1 3 3z"/><path fill="currentColor" d="m14 27.733l-5.234-2.79A8.986 8.986 0 0 1 4 17V4h20v6h2V4a2.002 2.002 0 0 0-2-2H4a2.002 2.002 0 0 0-2 2v13a10.981 10.981 0 0 0 5.824 9.707L14 30Z"/></svg>