<svg xmlns="http://www.w3.org/2000/svg" width="1em" height="1em" viewBox="0 0 32 32"><path fill="currentColor" d="M16 2a14 14 0 1 0 14 14A14 14 0 0 0 16 2m0 23a1.5 1.5 0 1 1 1.5-1.5A1.5 1.5 0 0 1 16 25m1.142-7.754v2.501h-2.25V15h2.125a2.376 2.376 0 0 0 0-4.753h-1.5a2.378 2.378 0 0 0-2.375 2.375v.638h-2.25v-.638A4.628 4.628 0 0 1 15.517 8h1.5a4.624 4.624 0 0 1 .125 9.246"/><path fill="none" d="M16 25a1.5 1.5 0 1 1 1.5-1.5A1.5 1.5 0 0 1 16 25m1.142-7.754v2.501h-2.25V15h2.125a2.376 2.376 0 0 0 0-4.753h-1.5a2.378 2.378 0 0 0-2.375 2.375v.638h-2.25v-.638A4.628 4.628 0 0 1 15.517 8h1.5a4.624 4.624 0 0 1 .125 9.246"/></svg>