<svg xmlns="http://www.w3.org/2000/svg" width="1em" height="1em" viewBox="0 0 32 32"><path fill="currentColor" d="M26 12a3.898 3.898 0 0 1-4-3.777a3.902 3.902 0 0 1 .653-2.064l2.517-3.745a1.038 1.038 0 0 1 1.66 0l2.485 3.696A3.97 3.97 0 0 1 30 8.223A3.898 3.898 0 0 1 26 12m0-7.237l-1.656 2.463a1.89 1.89 0 0 0-.344.997a2.014 2.014 0 0 0 4 0a1.98 1.98 0 0 0-.375-1.047zM23.5 30h-15a6.496 6.496 0 0 1-1.3-12.862a8.994 8.994 0 0 1 17.6 0A6.496 6.496 0 0 1 23.5 30M16 12a7 7 0 0 0-6.941 6.145l-.1.812l-.815.064A4.496 4.496 0 0 0 8.5 28h15a4.496 4.496 0 0 0 .356-8.979l-.815-.064l-.099-.812A7.002 7.002 0 0 0 16 12"/></svg>