<svg xmlns="http://www.w3.org/2000/svg" width="1em" height="1em" viewBox="0 0 32 32"><path fill="currentColor" d="M20 27c-2.98 0-5.77-1.172-7.855-3.3l1.428-1.4A8.933 8.933 0 0 0 20 25c4.963 0 9-4.037 9-9a8.95 8.95 0 0 0-2.573-6.3l1.428-1.4A10.938 10.938 0 0 1 31 16c0 6.066-4.935 11-11 11"/><circle cx="24" cy="5" r="2" fill="currentColor"/><path fill="currentColor" d="m20.414 14.586l-3-3C17.037 11.208 16.534 11 16 11s-1.037.208-1.414.586l-3 3c-.39.39-.586.902-.586 1.414s.196 1.024.586 1.414l3 3c.377.378.88.586 1.414.586s1.037-.208 1.414-.586l3-3c.39-.39.586-.902.586-1.414s-.196-1.024-.586-1.414M16 19l-3-3l3-3l3 3z"/><circle cx="8" cy="27" r="2" fill="currentColor"/><path fill="currentColor" d="M4.3 23.855A10.918 10.918 0 0 1 1 16C1 9.935 5.935 5 12 5c2.98 0 5.77 1.172 7.856 3.3l-1.429 1.4A8.933 8.933 0 0 0 12 7c-4.962 0-9 4.037-9 9c0 2.438.959 4.72 2.7 6.427z"/></svg>