<svg xmlns="http://www.w3.org/2000/svg" width="1em" height="1em" viewBox="0 0 32 32"><path fill="currentColor" d="M26 19c-.7 0-1.4.3-1.9.7l-4.3-2.6c.1-.4.2-.7.2-1.1c0-.4-.1-.8-.2-1.1l4.3-2.6c.5.4 1.2.7 1.9.7c1.7 0 3-1.3 3-3s-1.3-3-3-3s-3 1.3-3 3c0 .2 0 .4.1.6l-4.3 2.6c-.7-.8-1.7-1.2-2.8-1.2c-.6 0-1.1.1-1.6.4l-3.8-4.8c.2-.5.4-1 .4-1.6c0-1.7-1.3-3-3-3S5 4.3 5 6s1.3 3 3 3c.3 0 .7-.1 1-.2l3.8 4.8c-.3.4-.5.9-.7 1.4H7.8c-.4-1.2-1.5-2-2.8-2c-1.7 0-3 1.3-3 3s1.3 3 3 3c1.3 0 2.4-.8 2.8-2h4.3c.1.5.4 1 .7 1.4L9 23.2c-.3-.1-.7-.2-1-.2c-1.7 0-3 1.3-3 3s1.3 3 3 3s3-1.3 3-3c0-.6-.2-1.1-.5-1.6l3.8-4.8c.5.2 1.1.4 1.6.4c1.1 0 2.1-.4 2.8-1.2l4.3 2.6c0 .2-.1.4-.1.6c0 1.7 1.3 3 3 3s3-1.3 3-3s-1.2-3-2.9-3m0-10c.6 0 1 .4 1 1s-.4 1-1 1s-1-.4-1-1s.4-1 1-1M7 6c0-.6.4-1 1-1s1 .4 1 1s-.4 1-1 1s-1-.4-1-1M5 17c-.6 0-1-.4-1-1s.4-1 1-1s1 .4 1 1s-.4 1-1 1m3 10c-.6 0-1-.4-1-1s.4-1 1-1s1 .4 1 1s-.4 1-1 1m8-9c-1.1 0-2-.9-2-2s.9-2 2-2s2 .9 2 2s-.9 2-2 2m10 5c-.6 0-1-.4-1-1s.4-1 1-1s1 .4 1 1s-.4 1-1 1"/></svg>