<svg xmlns="http://www.w3.org/2000/svg" width="1em" height="1em" viewBox="0 0 32 32"><path fill="currentColor" d="M31.358 22H22.96v-2.329l3.654-3.127c1.326-1.14 1.785-1.802 1.785-2.805V13.5c0-.901-.799-1.36-1.564-1.36c-1.121 0-1.665.765-1.903 1.666l-2.227-.85c.527-1.649 1.904-3.026 4.368-3.026c2.567 0 4.046 1.513 4.046 3.57c0 2.04-1.462 3.28-3.162 4.623l-2.21 1.734h5.61zM12.829 9.421h2.516v5.15h.085c.255-.985 1.24-1.7 2.397-1.7c2.26 0 3.433 1.633 3.433 4.658s-1.173 4.675-3.433 4.675c-1.156 0-2.142-.731-2.397-1.7h-.085V22h-2.516zm5.814 8.89v-1.547c0-1.121-.697-1.852-1.65-1.852s-1.648.493-1.648 1.308v2.635c0 .816.697 1.309 1.649 1.309s1.649-.731 1.649-1.853M1.116 10.135h4.47c3.146 0 5.22 1.989 5.22 5.933S8.731 22 5.585 22h-4.47zm4.47 9.569c1.53 0 2.483-.833 2.483-2.72v-1.836c0-1.886-.952-2.72-2.482-2.72H3.7v7.276z"/></svg>