<svg xmlns="http://www.w3.org/2000/svg" width="1em" height="1em" viewBox="0 0 32 32"><circle cx="30" cy="20" r="1" fill="currentColor"/><circle cx="2" cy="20" r="1" fill="currentColor"/><path fill="currentColor" d="M24 26a5.999 5.999 0 0 1-5.19-3.003l-1.733 1C18.46 26.387 21.04 28 24 28s5.54-1.612 6.923-4.003l-1.733-1A5.999 5.999 0 0 1 24 26"/><path fill="currentColor" d="M24 14a6.022 6.022 0 0 1 5.197 3l1.732-1.001C29.502 13.532 26.847 12 24 12s-5.502 1.532-6.938 4.015L13.197 23c-1.07 1.85-3.061 3-5.197 3s-4.127-1.15-5.197-3L1.07 24.001C2.498 26.468 5.153 28 8 28s5.502-1.532 6.938-4.015L18.803 17c1.07-1.85 3.061-3 5.197-3"/><path fill="currentColor" d="M8 14a5.999 5.999 0 0 1 5.19 3.003l1.733-1C13.54 13.613 10.96 12 8 12s-5.54 1.613-6.923 4.003l1.733 1A5.999 5.999 0 0 1 8 14m8-8a9.97 9.97 0 0 1 7.068 2.932L24.48 7.52C22.308 5.346 19.308 4 16 4S9.692 5.346 7.519 7.519l1.413 1.413A9.97 9.97 0 0 1 16 6"/></svg>