<svg xmlns="http://www.w3.org/2000/svg" width="1em" height="1em" viewBox="0 0 32 32"><circle cx="8" cy="26" r="1" fill="currentColor"/><path fill="currentColor" d="M5 30h22c1.1 0 2-.9 2-2v-4c0-1.1-.9-2-2-2H5c-1.1 0-2 .9-2 2v4c0 1.1.9 2 2 2m0-6h22v4H5zm18-4H9c-3.31 0-6-2.69-6-6c0-3.05 2.29-5.58 5.25-5.95C9.13 4.55 12.33 2 16 2s6.87 2.55 7.75 6.05C26.71 8.42 29 10.95 29 14c0 3.31-2.69 6-6 6M8.95 10A4.008 4.008 0 0 0 5 14c0 2.21 1.79 4 4 4h14c2.21 0 4-1.79 4-4a4 4 0 0 0-3.94-4l-.12.01l-.88.02l-.12-.88C21.51 6.21 18.96 4 16 4s-5.51 2.21-5.93 5.15l-.12.88z"/></svg>