<svg xmlns="http://www.w3.org/2000/svg" width="1em" height="1em" viewBox="0 0 32 32"><path fill="currentColor" d="M27 30h-8c-2.206 0-4-1.794-4-4a4.008 4.008 0 0 1 3.08-3.894C18.502 19.774 20.548 18 23 18s4.498 1.774 4.92 4.106A4.008 4.008 0 0 1 31 26c0 2.206-1.794 4-4 4m-8-2h8c1.103 0 2-.897 2-2s-.897-2-2-2h-1v-1c0-1.654-1.346-3-3-3s-3 1.346-3 3v1h-1c-1.102 0-2 .898-2 2s.898 2 2 2m-7-1h-2c-3.86 0-7-3.14-7-7v-2h2v2c0 2.757 2.243 5 5 5h2zm15-12v-4c0-3.86-3.14-7-7-7h-7v2h7c2.757 0 5 2.243 5 5v4zM10 8V4a2 2 0 0 0-2-2H2v13h2v-5h1.48l2.34 5H10l-2.33-5H8a2 2 0 0 0 2-2M4 4h4v4H4z"/></svg>