<svg xmlns="http://www.w3.org/2000/svg" width="1em" height="1em" viewBox="0 0 32 32"><path fill="currentColor" d="M5.5 23L2 30h7zM26 15v2c1.103 0 2 .898 2 2v5c0 1.103-.897 2-2 2H10v2h16c2.206 0 4-1.794 4-4v-5c0-2.206-1.794-4-4-4"/><path fill="currentColor" d="M14 24a1 1 0 0 1-.961-.725L11.246 17H8v-2h4a1 1 0 0 1 .961.725L14 19.36l3.039-10.635a1 1 0 0 1 1.922 0L20.754 15H24v2h-4a1 1 0 0 1-.961-.725L18 12.64l-3.039 10.635A1 1 0 0 1 14 24"/><path fill="currentColor" d="M4 13V8c0-1.103.897-2 2-2h16V4H6C3.794 4 2 5.794 2 8v5c0 2.206 1.794 4 4 4v-2c-1.103 0-2-.897-2-2"/><circle cx="27" cy="5" r="3" fill="currentColor"/></svg>