<svg xmlns="http://www.w3.org/2000/svg" width="1em" height="1em" viewBox="0 0 32 32"><path fill="currentColor" d="M25 21c-.74 0-1.424.216-2.02.567l-2.03-2.031l-1.415 1.414l2.032 2.031A3.954 3.954 0 0 0 21 25c0 2.206 1.794 4 4 4c.356 0 .694-.061 1.023-.15l-2.437-2.436A1.994 1.994 0 0 1 23 25a2.002 2.002 0 0 1 3.414-1.414l2.437 2.437A3.95 3.95 0 0 0 29 25c0-2.206-1.795-4-4-4m-4.05-8.536L24.714 8.7c.391.187.824.3 1.286.3a3 3 0 1 0-3-3c0 .462.113.895.3 1.286l-3.764 3.764zM26 5c.551 0 1 .449 1 1s-.449 1-1 1s-1-.449-1-1s.449-1 1-1m-10 7a4 4 0 0 0-4 4c0 .74.215 1.425.566 2.02l-5.28 5.28A2.971 2.971 0 0 0 6 23a3 3 0 1 0 3 3c0-.462-.113-.895-.3-1.286l5.28-5.28A3.96 3.96 0 0 0 16 20a4 4 0 0 0 0-8M6 27a1.001 1.001 0 0 1 0-2a1.001 1.001 0 0 1 0 2m10-9c-1.103 0-2-.897-2-2s.897-2 2-2s2 .897 2 2s-.897 2-2 2m-9-7c.74 0 1.424-.215 2.02-.567l2.03 2.031l1.414-1.414l-2.03-2.031C10.783 8.424 11 7.739 11 7c0-2.206-1.794-4-4-4c-.356 0-.694.062-1.023.15l2.437 2.436A2.002 2.002 0 0 1 7 9a1.993 1.993 0 0 1-1.414-.586L3.149 5.977A3.95 3.95 0 0 0 3 7c0 2.206 1.794 4 4 4"/></svg>