<svg xmlns="http://www.w3.org/2000/svg" width="1em" height="1em" viewBox="0 0 32 32"><path fill="currentColor" d="M23.414 22L10 8.586V2H2v8h6.586L22 23.414V30h8v-8zM8 8H4V4h4zm20 20h-4v-4h4z"/><path fill="currentColor" d="M30 6c0-2.206-1.794-4-4-4c-1.858 0-3.41 1.28-3.858 3H13v2h9.142A3.994 3.994 0 0 0 25 9.858V19h2V9.858c1.72-.447 3-2 3-3.858m-4 2c-1.103 0-2-.897-2-2s.897-2 2-2s2 .898 2 2s-.897 2-2 2m-7 17H9.858A3.994 3.994 0 0 0 7 22.142V13H5v9.142c-1.72.447-3 2-3 3.858c0 2.206 1.794 4 4 4c1.858 0 3.41-1.28 3.858-3H19zM6 28c-1.103 0-2-.897-2-2s.897-2 2-2s2 .898 2 2s-.897 2-2 2"/></svg>