<svg xmlns="http://www.w3.org/2000/svg" width="1em" height="1em" viewBox="0 0 32 32"><path fill="currentColor" d="M25 16c0-1.5-1.2-2.8-2.7-3c-1.1-2.4-3.5-4-6.3-4c-.2 0-.5 0-.7.1C14.7 8.4 13.9 8 13 8c-1.7 0-3 1.3-3 3c0 .4.1.7.2 1.1C9.4 13.2 9 14.5 9 16s.4 2.8 1.2 3.9c-.1.4-.2.7-.2 1.1c0 1.7 1.3 3 3 3c.9 0 1.7-.4 2.3-1.1c.2 0 .5.1.7.1c2.8 0 5.2-1.7 6.3-4c1.5-.2 2.7-1.5 2.7-3m-12-6c.6 0 1 .4 1 1s-.4 1-1 1s-1-.4-1-1s.4-1 1-1m0 12c-.6 0-1-.4-1-1s.4-1 1-1s1 .4 1 1s-.4 1-1 1m3-1c0-1.7-1.3-3-3-3c-.5 0-1 .1-1.4.4c-.4-.7-.6-1.5-.6-2.4s.2-1.7.6-2.4c.4.3.9.4 1.4.4c1.7 0 3-1.3 3-3c1.9 0 3.4 1 4.3 2.5c-.8.6-1.3 1.5-1.3 2.5s.5 1.9 1.3 2.5C19.4 20 17.9 21 16 21m6-4c-.6 0-1-.4-1-1s.4-1 1-1s1 .4 1 1s-.4 1-1 1"/><path fill="currentColor" d="M16 31c-.2 0-.3 0-.5-.1l-12-7c-.3-.2-.5-.5-.5-.9V9c0-.4.2-.7.5-.9l12-7c.3-.2.7-.2 1 0l12 7l-1 1.7L16 3.2L5 9.6v12.9l11 6.4l11-6.4V15h2v8c0 .4-.2.7-.5.9l-12 7c-.2.1-.3.1-.5.1"/><path fill="none" d="M0 0h32v32H0z"/></svg>