<svg xmlns="http://www.w3.org/2000/svg" width="1em" height="1em" viewBox="0 0 32 32"><path fill="currentColor" d="M27.925 19.428A6.009 6.009 0 0 1 23 22a5.96 5.96 0 0 1-5.144-2.91l-1.713 1.033A7.944 7.944 0 0 0 23 24a7.985 7.985 0 0 0 3.992-1.083C24.648 26.612 20.511 29 16 29c-5.71 0-10.835-3.818-12.462-9.285l-1.917.57C3.5 26.594 9.411 31 16 31s12.501-4.406 14.379-10.715z"/><circle cx="30" cy="16" r="2" fill="currentColor"/><circle cx="2" cy="16" r="2" fill="currentColor"/><circle cx="16" cy="16" r="2" fill="currentColor"/><path fill="currentColor" d="M16 1C9.411 1 3.499 5.406 1.621 11.715l2.454.857C5.198 10.962 7.04 10 9 10s3.802.961 4.925 2.572l1.64-1.144A8.01 8.01 0 0 0 9 8a7.985 7.985 0 0 0-3.992 1.084C7.352 5.388 11.489 3 16 3c5.71 0 10.835 3.818 12.462 9.285l1.917-.57C28.5 5.406 22.589 1 16 1"/></svg>