<svg xmlns="http://www.w3.org/2000/svg" width="1em" height="1em" viewBox="0 0 32 32"><path fill="currentColor" d="M13 27h-3c-3.86 0-7-3.14-7-7v-2h2v2c0 2.757 2.243 5 5 5h3zm12 0h-4c-1.102 0-2-.897-2-2v-4c0-1.102.898-2 2-2h4c1.103 0 2 .898 2 2v4c0 1.103-.897 2-2 2m-4-6h-.002L21 25h4v-4zm4-6h2v2h-2zm4 4h2v2h-2zm0 4h2v2h-2zm-14-2h2v2h-2zm0 4h2v2h-2zm0 4h2v2h-2zm4 0h2v2h-2zm8-16v-2c0-3.86-3.14-7-7-7h-7v2h7c2.757 0 5 2.243 5 5v2zM10 8V4a2 2 0 0 0-2-2H2v13h2v-5h1.48l2.34 5H10l-2.33-5H8a2 2 0 0 0 2-2M4 4h4v4H4z"/></svg>