<svg xmlns="http://www.w3.org/2000/svg" width="1em" height="1em" viewBox="0 0 32 32"><path fill="currentColor" d="M3.6 22.5c-1-2-1.6-4.2-1.6-6.5C2 8.3 8.3 2 16 2v2C9.4 4 4 9.4 4 16c0 2 .5 3.8 1.4 5.5zM28 16c0 6.6-5.4 12-12 12c-2.9 0-5.6-1-7.7-2.8l5.7-5.7l-1.4-1.5l-6.5 6.5c-.4.4-.4 1 0 1.4C8.7 28.5 12.3 30 16 30c7.7 0 14-6.3 14-14z"/><path fill="currentColor" d="M18 25c-.1 0-.3 0-.4-.1c-.3-.1-.6-.4-.6-.8l-.7-5l2-.3l.4 3.3l2.2-1.7V15c0-.3.1-.5.3-.7l3.2-3.2c.9-.9 1.5-2.2 1.5-3.5V6h-1.5c-1.3 0-2.6.5-3.5 1.5l-3.2 3.2c-.2.2-.4.3-.7.3h-5.5l-1.7 2.2l3.3.4l-.3 2l-5-.7c-.4 0-.7-.3-.8-.6s-.1-.7.1-1l3-4c.3-.2.6-.3.9-.3h5.6l3-3c1.3-1.3 3.1-2 4.9-2H26c1.1 0 2 .9 2 2v1.5c0 1.9-.7 3.6-2 4.9l-3 3V21c0 .3-.1.6-.4.8l-4 3c-.2.1-.4.2-.6.2"/></svg>