<svg xmlns="http://www.w3.org/2000/svg" width="1em" height="1em" viewBox="0 0 32 32"><path fill="currentColor" d="M14 29.991L3.496 23.864A1 1 0 0 1 3 23V9h2v13.426l10.008 5.838z"/><path fill="currentColor" d="M7 6h2v10H7zm22 7h-2V9.574L16 3.158l-3 1.75V13h-2V4.333a1 1 0 0 1 .496-.863l4-2.334a1 1 0 0 1 1.008 0l12 7A1 1 0 0 1 29 9zm-2 10l-1.42 1.41L27.17 26H20v-3.142c1.72-.447 3-2 3-3.858c0-2.206-1.794-4-4-4s-4 1.794-4 4c0 1.858 1.28 3.41 3 3.858V26c0 1.103.897 2 2 2h7.17l-1.58 1.58L27 31l4-4zm-10-4c0-1.102.897-2 2-2s2 .898 2 2s-.897 2-2 2s-2-.897-2-2"/></svg>