<svg xmlns="http://www.w3.org/2000/svg" width="1em" height="1em" viewBox="0 0 32 32"><path fill="currentColor" d="M28 26c-.738 0-1.376.405-1.723 1H21l7.8-10.4A.999.999 0 0 0 28 15H17.816A2.995 2.995 0 0 0 15 13c-1.654 0-3 1.346-3 3s1.346 3 3 3a2.995 2.995 0 0 0 2.816-2H26l-7.8 10.4A.999.999 0 0 0 19 29h7.277c.347.595.985 1 1.723 1a2 2 0 1 0 0-4m-13-9a1 1 0 0 1 0-2a1 1 0 0 1 0 2"/><path fill="currentColor" d="M16 21h-2v4.586L4.414 16L14 6.414V11h2V5h10v8h2V5a2 2 0 0 0-2-2H4a2 2 0 0 0-2 2v22a2 2 0 0 0 2 2h12zM4 5h8.586L4 13.586zm0 22v-8.586L12.586 27z"/></svg>