<svg xmlns="http://www.w3.org/2000/svg" width="1em" height="1em" viewBox="0 0 32 32"><path fill="currentColor" d="m32 23l-5 5l-1.4-1.4l2.6-2.6H20v-2h8.2l-2.6-2.6L27 18z"/><path fill="currentColor" d="M25.5 2.7c-.4-.4-.9-.7-1.5-.7h-2.7c-.6 0-1.1.3-1.3.8L19.4 4H18v-.5c0-.8-.7-1.5-1.5-1.5h-5c-.8 0-1.5.7-1.5 1.5V4H8.6L8 2.8c-.2-.5-.7-.8-1.3-.8H4c-.6 0-1.1.3-1.5.7c-.4.5-.6 1.1-.5 1.7l.7 4.1C3 9.9 4.2 11 5.7 11H6v12c-1.7 0-3 1.3-3 3v4h19v-2h-5v-7c0-1.7-1.3-3-3-3s-3 1.3-3 3v7H5v-2c0-.6.4-1 1-1h2V11h12v7h2v-7h.3c1.5 0 2.7-1.1 3-2.5l.7-4.1c.1-.6-.1-1.2-.5-1.7M13 21c0-.6.4-1 1-1s1 .4 1 1v7h-2zM23.3 8.2c-.1.5-.5.8-1 .8H5.7c-.5 0-.9-.4-1-.8L4 4h2.4l1 2H12V4h4v2h4.6l1-2H24z"/></svg>