<svg xmlns="http://www.w3.org/2000/svg" width="1em" height="1em" viewBox="0 0 32 32"><path fill="currentColor" d="M28 2H18c-1.103 0-2 .897-2 2v6c0 1.104.897 2 2 2h2.423l1.731 3l1.733-1l-2.31-4H18V4h10v6h-3v2h3c1.103 0 2-.896 2-2V4c0-1.103-.897-2-2-2M14.69 31l-1.732-1l3.465-6H22a2 2 0 0 0 2-2v-5h2v5a4 4 0 0 1-4 4h-4.423z"/><circle cx="10" cy="17" r="1" fill="currentColor"/><circle cx="14" cy="17" r="1" fill="currentColor"/><circle cx="18" cy="17" r="1" fill="currentColor"/><path fill="currentColor" d="M12 26H6a4 4 0 0 1-4-4V12a4 4 0 0 1 4-4h8v2H6a2 2 0 0 0-2 2v10a2 2 0 0 0 2 2h6z"/></svg>