<svg xmlns="http://www.w3.org/2000/svg" width="1em" height="1em" viewBox="0 0 32 32"><path fill="currentColor" d="M16 26h5c3.86 0 7-3.14 7-7v-2h-2v2c0 2.76-2.24 5-5 5h-5zm4.25-12A4.26 4.26 0 0 1 16 9.75a4.28 4.28 0 0 1 2.78-3.99C19.52 3.55 21.62 2 24 2s4.48 1.55 5.22 3.76C30.87 6.37 32 7.95 32 9.75c0 2.29-1.86 4.19-4.14 4.25zM24 4c-1.64 0-3.08 1.17-3.42 2.77l-.14.64l-.64.13c-1.04.21-1.8 1.14-1.8 2.2c0 1.24 1.01 2.26 2.25 2.26h7.58c1.18-.03 2.17-1.05 2.17-2.26c0-1.06-.76-1.99-1.8-2.2l-.64-.13l-.14-.64A3.518 3.518 0 0 0 24 4M4 14h2v-2c0-2.76 2.24-5 5-5h4V5h-4c-3.86 0-7 3.14-7 7zm6 3H4c-1.1 0-2 .9-2 2v10c0 1.1.9 2 2 2h6c1.1 0 2-.9 2-2V19c0-1.1-.9-2-2-2m0 2v2H4v-2zm0 4v2H4v-2zm-6 6v-2h6v2z"/></svg>