<svg xmlns="http://www.w3.org/2000/svg" width="1em" height="1em" viewBox="0 0 32 32"><path fill="currentColor" d="M24 16a2.995 2.995 0 0 0-2.816 2H12v-2H6v6h6v-2h9.184A2.995 2.995 0 0 0 24 22c1.654 0 3-1.346 3-3s-1.346-3-3-3m-14 4H8v-2h2zm14 0a1 1 0 1 1 .001-2.001A1 1 0 0 1 24 20"/><path fill="currentColor" d="M25.832 11.22C24.99 6.554 20.905 3 16 3s-8.99 3.553-9.832 8.22C2.638 12.052 0 15.22 0 19c0 4.411 3.589 8 8 8h4v-2H8c-3.309 0-6-2.691-6-6s2.691-6 6-6c0-4.411 3.589-8 8-8s8 3.589 8 8c3.309 0 6 2.691 6 6s-2.691 6-6 6h-8v2h8c4.411 0 8-3.589 8-8c0-3.78-2.638-6.948-6.168-7.78"/></svg>