<svg xmlns="http://www.w3.org/2000/svg" width="1em" height="1em" viewBox="0 0 32 32"><path fill="currentColor" d="M24 24v6h6v-6zm4 4h-2v-2h2zM2 30h6v-6H2zm2-4h2v2H4z"/><path fill="currentColor" d="M26 15h-9V8.837c1.44-.434 2.5-1.757 2.5-3.337C19.5 3.57 17.93 2 16 2s-3.5 1.57-3.5 3.5c0 1.58 1.06 2.903 2.5 3.337V15H6c-1.102 0-2 .897-2 2v5h2v-5h9v7h-2v6h6v-6h-2v-7h9v5h2v-5c0-1.103-.897-2-2-2M14.5 5.5c0-.827.673-1.5 1.5-1.5s1.5.673 1.5 1.5S16.827 7 16 7s-1.5-.673-1.5-1.5M17 28h-2v-2h2zm9.5-19C28.43 9 30 7.43 30 5.5S28.43 2 26.5 2S23 3.57 23 5.5S24.57 9 26.5 9m0-5c.827 0 1.5.673 1.5 1.5S27.327 7 26.5 7S25 6.327 25 5.5S25.673 4 26.5 4m-21 5C7.43 9 9 7.43 9 5.5S7.43 2 5.5 2S2 3.57 2 5.5S3.57 9 5.5 9m0-5C6.327 4 7 4.673 7 5.5S6.327 7 5.5 7S4 6.327 4 5.5S4.673 4 5.5 4"/></svg>