<svg xmlns="http://www.w3.org/2000/svg" width="1em" height="1em" viewBox="0 0 32 32"><circle cx="29" cy="5" r="2" fill="currentColor"/><circle cx="29" cy="27" r="2" fill="currentColor"/><path fill="currentColor" d="M7 13H1v6h6zm-2 4H3v-2h2z"/><path fill="currentColor" d="M17.5 6.677A7.023 7.023 0 0 0 12 4a7.027 7.027 0 0 0-6.063 3.499L4.772 9.518l1.732 1L7.669 8.5C8.56 6.958 10.22 6 12 6s3.439.958 4.331 2.5l.016.023l-1.933 3.348A6.275 6.275 0 0 1 9 15v2a6.275 6.275 0 0 1 5.414 3.129l1.933 3.347c-.005.008-.012.016-.016.024C15.439 25.042 13.779 26 12 26s-3.439-.958-4.33-2.5l-1.166-2.018l-1.732 1l1.165 2.02A7.027 7.027 0 0 0 12 28a7.028 7.028 0 0 0 5.5-2.677A7.02 7.02 0 0 0 23 28h2v-2h-2a5.01 5.01 0 0 1-4.261-2.397A5.008 5.008 0 0 1 22.393 22H25v-2h-2.607a7.01 7.01 0 0 0-4.69 1.824l-1.557-2.696a8.248 8.248 0 0 0-3.246-3.13a8.249 8.249 0 0 0 3.246-3.128l1.557-2.696a7.008 7.008 0 0 0 4.69 1.824H25v-2h-2.607a5.01 5.01 0 0 1-3.655-1.601A5.01 5.01 0 0 1 23 6h2V4h-2a7.022 7.022 0 0 0-5.5 2.677"/></svg>