<svg xmlns="http://www.w3.org/2000/svg" width="1em" height="1em" viewBox="0 0 32 32"><path fill="currentColor" d="M22 13h2v2h-2zm4 0h2v2h-2zm4 0h2v2h-2zm0 4h2v2h-2zm-15 3h2v2h-2zm5 8h2v2h-2zm4 0h2v2h-2zm-5-2h9v-9h-9zm2-7h5v5h-5z"/><path fill="currentColor" d="M16 3h-.006c-4.7.003-8.903 3.33-9.824 8.115A7.504 7.504 0 0 0 0 18.482A7.505 7.505 0 0 0 7.491 26H17v-2H7.495A5.511 5.511 0 0 1 2 18.486a5.502 5.502 0 0 1 4.526-5.402l1.349-.245l.259-1.345A8.026 8.026 0 0 1 16 5a7.965 7.965 0 0 1 7.79 6.169l1.947-.456A9.957 9.957 0 0 0 16 3"/></svg>