<svg xmlns="http://www.w3.org/2000/svg" width="1em" height="1em" viewBox="0 0 32 32"><path fill="currentColor" d="M24 21v2h1.748A11.96 11.96 0 0 1 16 28C9.383 28 4 22.617 4 16H2c0 7.72 6.28 14 14 14c4.355 0 8.374-2.001 11-5.345V26h2v-5z"/><path fill="currentColor" d="m22.505 11.637l-5.989-3.5a1 1 0 0 0-1.008-.001l-6.011 3.5A1 1 0 0 0 9 12.5v7a1 1 0 0 0 .497.864l6.011 3.5A.96.96 0 0 0 16 24c.174 0 .36-.045.516-.137l5.989-3.5A1 1 0 0 0 23 19.5v-7a1 1 0 0 0-.495-.863m-6.494-1.48l4.007 2.343l-4.007 2.342l-4.023-2.342zM11 14.24l4 2.33v4.685l-4-2.33zm6 7.025v-4.683l4-2.338v4.683z"/><path fill="currentColor" d="M16 2A13.952 13.952 0 0 0 5 7.345V6H3v5h5V9H6.252A11.96 11.96 0 0 1 16 4c6.617 0 12 5.383 12 12h2c0-7.72-6.28-14-14-14"/></svg>