<svg xmlns="http://www.w3.org/2000/svg" width="1em" height="1em" viewBox="0 0 32 32"><path fill="currentColor" d="M9 21H3c-1.103 0-2-.897-2-2v-6c0-1.103.897-2 2-2h6c1.103 0 2 .897 2 2v6c0 1.103-.897 2-2 2m-6-8v6h6v-6zm8.693 16.325A14.05 14.05 0 0 1 4.2 23.539l1.685-1.078a12.043 12.043 0 0 0 6.421 4.96z"/><circle cx="19" cy="27" r="1" fill="currentColor"/><path fill="currentColor" d="M29 31H16c-1.103 0-2-.897-2-2v-4c0-1.103.897-2 2-2h13c1.103 0 2 .897 2 2v4c0 1.103-.897 2-2 2m-13-6v4h13v-4zm10.89-4h2.184A14.07 14.07 0 0 0 30 16c0-.672-.064-1.338-.16-2h-2.026c.11.66.186 1.326.186 2c0 1.755-.387 3.43-1.11 5M28 7c0-.37-.067-.721-.161-1.061l1.857-1.073l-1-1.732L26.85 4.2A3.995 3.995 0 0 0 25 3.142V1h-2v2.142c-.711.185-1.35.55-1.85 1.058l-1.846-1.066l-1 1.732L20.16 5.94c-.093.339-.16.689-.16 1.06s.067.721.161 1.062l-1.857 1.072l1 1.732L21.15 9.8c.5.509 1.14.872 1.85 1.057V13h2v-2.143A4.002 4.002 0 0 0 26.85 9.8l1.846 1.066l1-1.732l-1.857-1.072C27.933 7.722 28 7.37 28 7m-4 2c-1.103 0-2-.897-2-2s.897-2 2-2s2 .898 2 2s-.897 2-2 2m-18.114.54L4.201 8.46A13.955 13.955 0 0 1 16 2v2A11.96 11.96 0 0 0 5.886 9.54"/></svg>