<svg xmlns="http://www.w3.org/2000/svg" width="1em" height="1em" viewBox="0 0 32 32"><path fill="currentColor" d="M16 32c-5.08 0-9.745-2.332-12.8-6.398l1.6-1.201C7.472 27.959 11.554 30 16 30s8.528-2.042 11.201-5.601l1.6 1.2C25.746 29.669 21.08 32 16 32m14-10h-5v-2h5v-3h-3c-1.103 0-2-.897-2-2v-3c0-1.103.897-2 2-2h5v2h-5v3h3c1.103 0 2 .897 2 2v3c0 1.103-.897 2-2 2m-9 0h-4c-1.103 0-2-.897-2-2v-8c0-1.103.897-2 2-2h4c1.103 0 2 .897 2 2v8c0 1.103-.897 2-2 2m-4-10v8h4v-8zm-5.554-2l-4 12h2.108l4-12zM6 22H0v-2.303L3.798 14H0v-2h6v2.303L2.202 20H6zM16 0C10.92 0 6.255 2.332 3.2 6.398l1.6 1.201C7.472 4.041 11.555 2 16 2s8.528 2.042 11.202 5.6L28.8 6.4C25.746 2.332 21.08 0 16 0"/></svg>