<svg xmlns="http://www.w3.org/2000/svg" width="1em" height="1em" viewBox="0 0 32 32"><path fill="currentColor" d="M22.364 21.364L20.95 19.95a7 7 0 0 0 0-9.899l1.414-1.415a9 9 0 0 1 0 12.728"/><path fill="currentColor" d="m19.536 18.535l-1.414-1.414a3.004 3.004 0 0 0 0-4.242l1.414-1.414a5.005 5.005 0 0 1 0 7.07M17 26h-2V15a1 1 0 0 1 1-1a1 1 0 0 1 1 1zm-4.536-7.465a5.005 5.005 0 0 1 0-7.07l1.414 1.414a3.004 3.004 0 0 0 0 4.242z"/><path fill="currentColor" d="M9.636 21.364a9 9 0 0 1 0-12.728l1.414 1.415a7 7 0 0 0 0 9.898Z"/><path fill="currentColor" d="M16 31a.999.999 0 0 1-.504-.136l-12-7A1 1 0 0 1 3 23V9a1 1 0 0 1 .496-.864l12-7a1 1 0 0 1 1.008 0l12 7l-1.008 1.728L16 3.158L5 9.574v12.852l11 6.417l11-6.417V15h2v8a1 1 0 0 1-.496.864l-12 7A.999.999 0 0 1 16 31"/></svg>