<svg xmlns="http://www.w3.org/2000/svg" width="1em" height="1em" viewBox="0 0 32 32"><path fill="currentColor" d="M20 25h7v2h-7zm2 4h3v2h-3zm5-6h-2c0-1.1.4-2 1.2-2.8l.5-.5c.8-.8 1.3-2 1.3-3.2c0-2.5-2-4.5-4.5-4.5S19 14 19 16.5c0 1.2.5 2.3 1.3 3.2l.5.5c.8.8 1.2 1.7 1.2 2.8h-2c0-.5-.2-1-.6-1.4l-.5-.5c-1.2-1.2-1.9-2.9-1.9-4.6c0-3.6 2.9-6.5 6.5-6.5s6.5 2.9 6.5 6.5c0 1.7-.7 3.4-1.9 4.6l-.5.5c-.4.4-.6.9-.6 1.4M6 22h8v2H6z"/><circle cx="12" cy="19" r="1" fill="currentColor"/><path fill="currentColor" d="M6 18h3v2H6zm0-4h7v2H6zm4-4h7v2h-7z"/><circle cx="7" cy="11" r="1" fill="currentColor"/><path fill="currentColor" d="M16 6h4v2h-4z"/><circle cx="13" cy="7" r="1" fill="currentColor"/><path fill="currentColor" d="M6 6h4v2H6z"/><path fill="currentColor" d="M18 28H4V4h18v4h2V4c0-1.1-.9-2-2-2H4c-1.1 0-2 .9-2 2v24c0 1.1.9 2 2 2h14z"/></svg>