<svg xmlns="http://www.w3.org/2000/svg" width="1em" height="1em" viewBox="0 0 32 32"><path fill="currentColor" d="M23 26h2v4h-2z"/><path fill="currentColor" d="m28 21.586l-3.293-3.293a.997.997 0 0 0-1.414 0l-5 5A1 1 0 0 0 18 24v6h2v-5.586l4-4l4 4V30h2V20h-2z"/><circle cx="9" cy="20" r="1" fill="currentColor"/><circle cx="23" cy="12" r="1" fill="currentColor"/><circle cx="9" cy="5" r="1" fill="currentColor"/><circle cx="16" cy="16" r="2" fill="currentColor"/><path fill="currentColor" d="M9 16c0-3.86 3.14-7 7-7c1.702 0 3.264.612 4.478 1.626l1.282-1.538A9 9 0 0 0 7 16c0 .522.054 1.032.14 1.53l1.97-.34A6.988 6.988 0 0 1 9 16"/><path fill="currentColor" d="M4 16c0-3.308 1.346-6.308 3.519-8.481L6.1 6.1A13.956 13.956 0 0 0 2 16c0 7.732 6.268 14 14 14v-2C9.383 28 4 22.617 4 16M16 4c6.617 0 12 5.383 12 12h2c0-7.732-6.268-14-14-14c-1.681 0-3.286.312-4.78.855l.684 1.88A11.916 11.916 0 0 1 16 4"/></svg>