<svg xmlns="http://www.w3.org/2000/svg" width="1em" height="1em" viewBox="0 0 32 32"><path fill="currentColor" d="m22.504 17.636l-6-3.5a1 1 0 0 0-1.008 0l-6 3.5A1 1 0 0 0 9 18.5v7a1 1 0 0 0 .496.864l6 3.5a1 1 0 0 0 1.008 0l6-3.5A1 1 0 0 0 23 25.5v-7a1 1 0 0 0-.496-.864M21 23.834l-2.532-1.519c.013-.104.032-.207.032-.315a2.502 2.502 0 0 0-1.5-2.288v-2.97l4 2.332zm-6-7.093v2.97A2.502 2.502 0 0 0 13.5 22c0 .108.019.21.032.315L11 23.834v-4.76zm1 11.101l-3.952-2.305l2.507-1.504c.41.291.906.467 1.445.467s1.036-.176 1.445-.467l2.507 1.504z"/><path fill="currentColor" d="M24.8 9.14C23.93 5.02 20.28 2 16 2S8.07 5.02 7.2 9.14C4.23 9.74 2 12.4 2 15.5c0 3.07 2.14 5.63 5 6.31V19.7c-1.74-.62-3-2.24-3-4.2c0-2.33 1.82-4.31 4.14-4.49l.82-.06l.1-.81C9.49 6.64 12.47 4 16 4s6.51 2.64 6.94 6.14l.1.81l.82.06c2.32.19 4.14 2.16 4.14 4.49c0 1.95-1.26 3.59-3 4.21v2.11c2.86-.68 5-3.26 5-6.32c0-3.11-2.23-5.76-5.2-6.36"/></svg>