<svg xmlns="http://www.w3.org/2000/svg" width="1em" height="1em" viewBox="0 0 32 32"><path fill="currentColor" d="M28.8 23.4c-1 2.3-6 4.6-12.8 4.6c-7.7 0-13-2.9-13-5.5c0-2.1 3.6-4.5 9.1-5.2l-.3-2C5.5 16.2 1 19 1 22.5C1 26.7 7.6 30 16 30c7.1 0 12.9-2.4 14.5-5.6z"/><path fill="currentColor" d="M24.5 20.9c-1.2 1-4.2 2.1-8.5 2.1s-7.3-1.1-8.5-2.1l-1.8 1c1.7 2 6.1 3.1 10.2 3.1c4.2 0 8.5-1.1 10.2-3.1z"/><circle cx="16" cy="16" r="2" fill="currentColor"/><path fill="currentColor" d="M16 7c-4.2 0-8.5 1.1-10.2 3.1l1.8 1C8.7 10.1 11.8 9 16 9s7.3 1.1 8.5 2.1l1.8-1C24.5 8.1 20.2 7 16 7"/><path fill="currentColor" d="M31 9.5C31 5.3 24.4 2 16 2C8.9 2 3.1 4.4 1.5 7.6l1.7 1C4.2 6.3 9.2 4 16 4c7.7 0 13 2.9 13 5.5c0 2.1-3.6 4.5-9.1 5.2l.3 2C26.5 15.8 31 13 31 9.5"/></svg>