<svg xmlns="http://www.w3.org/2000/svg" width="1em" height="1em" viewBox="0 0 32 32"><circle cx="9" cy="26" r="1" fill="currentColor"/><path fill="currentColor" d="M26 22h-5v2h5v4H6v-4h9c1.1 0 2-.9 2-2v-9.17l2.59 2.59L21 14l-5-5l-5 5l1.41 1.41L15 12.83V22H6c-1.1 0-2 .9-2 2v4c0 1.1.9 2 2 2h20c1.1 0 2-.9 2-2v-4c0-1.1-.9-2-2-2"/><path fill="currentColor" d="M23.75 8.05C22.87 4.55 19.67 2 16 2S9.13 4.55 8.25 8.05C5.29 8.42 3 10.95 3 14c0 3.31 2.69 6 6 6h2v-2H9c-2.21 0-4-1.79-4-4c0-2.19 1.77-3.97 3.95-4l.99.02l.12-.88C10.49 6.21 13.04 4 16 4s5.51 2.21 5.93 5.15l.12.88l.88-.02l.13-.01A4 4 0 0 1 27 14c0 2.21-1.79 4-4 4h-2v2h2c3.31 0 6-2.69 6-6c0-3.05-2.29-5.58-5.25-5.95"/></svg>