<svg xmlns="http://www.w3.org/2000/svg" width="1em" height="1em" viewBox="0 0 32 32"><path fill="currentColor" d="M16 13c-3.42 0-6 1.505-6 3.5v8c0 1.995 2.58 3.5 6 3.5s6-1.505 6-3.5v-8c0-1.995-2.58-3.5-6-3.5m0 2c2.481 0 4 .971 4 1.5S18.481 18 16 18s-4-.971-4-1.5s1.519-1.5 4-1.5m0 11c-2.481 0-4-.971-4-1.5v-1.352c1.047.534 2.433.852 4 .852s2.953-.318 4-.852V24.5c0 .529-1.519 1.5-4 1.5m0-4c-2.481 0-4-.971-4-1.5v-1.352c1.047.534 2.433.852 4 .852s2.953-.318 4-.852V20.5c0 .529-1.519 1.5-4 1.5"/><path fill="currentColor" d="M30 15.5a6.49 6.49 0 0 1-5.01 6.32v-2.07A4.507 4.507 0 0 0 28 15.5c0-2.33-1.83-4.29-4.15-4.48l-.81-.06l-.1-.81C22.51 6.65 19.52 4 16 4c-3.53 0-6.52 2.65-6.95 6.15l-.1.81l-.81.06C5.82 11.21 4 13.17 4 15.5a4.5 4.5 0 0 0 2.99 4.24v2.08A6.5 6.5 0 0 1 2 15.5c0-3.1 2.22-5.75 5.2-6.36A8.999 8.999 0 0 1 16 2c4.27 0 7.93 3.02 8.8 7.14c2.97.61 5.2 3.26 5.2 6.36"/></svg>