<svg xmlns="http://www.w3.org/2000/svg" width="1em" height="1em" viewBox="0 0 32 32"><path fill="currentColor" d="M26 22c-1.858 0-3.41 1.28-3.858 3H9.858A4.003 4.003 0 0 0 7 22.142V19c0-1.102.897-2 2-2h14c2.206 0 4-1.794 4-4V9.858c1.72-.447 3-2 3-3.858c0-2.206-1.794-4-4-4s-4 1.794-4 4c0 1.858 1.28 3.41 3 3.858V13c0 1.103-.897 2-2 2H9c-2.206 0-4 1.794-4 4v3.142c-1.72.447-3 2-3 3.858c0 2.206 1.794 4 4 4c1.858 0 3.41-1.28 3.858-3h12.284c.447 1.72 2 3 3.858 3c2.206 0 4-1.794 4-4s-1.794-4-4-4M24 6c0-1.102.897-2 2-2s2 .898 2 2s-.897 2-2 2s-2-.897-2-2M6 28c-1.103 0-2-.897-2-2s.897-2 2-2s2 .898 2 2s-.897 2-2 2m20 0c-1.103 0-2-.897-2-2s.897-2 2-2s2 .898 2 2s-.897 2-2 2"/><path fill="currentColor" d="M6 10c.74 0 1.424-.215 2.019-.567L11.586 13L13 11.586L9.433 8.019A3.95 3.95 0 0 0 10 6c0-2.206-1.794-4-4-4S2 3.794 2 6s1.794 4 4 4m0-6c1.103 0 2 .898 2 2s-.897 2-2 2s-2-.897-2-2s.897-2 2-2"/></svg>