<svg xmlns="http://www.w3.org/2000/svg" width="1em" height="1em" viewBox="0 0 32 32"><path fill="currentColor" d="m29.17 25l-2.58 2.58L28 29l4-4l-4-4l-1.42 1.41zM23 30l-1.915-.577L24 20l1.915.577zm-5.17-5l2.58-2.58L19 21l-4 4l4 4l1.42-1.41zm.17-6h-2V5c0-1.103.897-2 2-2h9c1.103 0 2 .897 2 2v11h-2V5h-9zM12 3H3c-1.103 0-2 .898-2 2v22c0 1.103.897 2 2 2h9c1.103 0 2-.897 2-2V5c0-1.102-.897-2-2-2m0 7.037L5.075 5H12zM11.3 12L3 18.036V5.964zm.7 1.963l.001 11.817l-8.28-5.796zm-9 7.958L10.256 27H3zM12 27l.001-.002z"/></svg>