<svg xmlns="http://www.w3.org/2000/svg" width="1em" height="1em" viewBox="0 0 32 32"><path fill="currentColor" d="m25 30l-2.1-1c-1.7-.8-2.9-2.6-2.9-4.5V18h10v6.5c0 1.9-1.1 3.7-2.9 4.5zm-3-10v4.5c0 1.2.7 2.2 1.7 2.7l1.3.6l1.3-.6c1-.5 1.7-1.6 1.7-2.7V20z"/><circle cx="22" cy="10" r="2" fill="currentColor"/><path fill="currentColor" d="M21 2c-5 0-9 4-9 9c0 .9.1 1.8.4 2.6L2 24v6h6l10-10l-1.4-1.4l-2.8 2.8l-1.4-1.4l-1.4 1.4l1.4 1.4l-1.6 1.6L9.4 23L8 24.4l1.4 1.4L7.2 28H4v-3.2l9.8-9.8l.8-.8l-.3-1.2c-.2-.7-.3-1.3-.3-2c0-3.9 3.1-7 7-7s7 3.1 7 7c0 1.5-.5 2.9-1.3 4H29c.6-1.2.9-2.6.9-4C30 6 26 2 21 2"/></svg>