<svg xmlns="http://www.w3.org/2000/svg" width="1em" height="1em" viewBox="0 0 32 32"><path fill="currentColor" d="m30.51 17.69l-6-3.55a.996.996 0 0 0-1.02 0l-6 3.55a.999.999 0 0 0-.49.86v6.9a1 1 0 0 0 .49.86l6 3.55a.996.996 0 0 0 1.02 0l6-3.55a.999.999 0 0 0 .49-.86v-6.9a1 1 0 0 0-.49-.86M29 24.88l-5 2.958l-5-2.958v-5.76l5-2.958l5 2.958z"/><path fill="currentColor" d="M14 26H9c-4.411 0-8-3.589-8-8c0-3.718 2.599-6.936 6.158-7.778A9.967 9.967 0 0 1 17 2c5.514 0 10 4.486 10 10h-2c0-4.411-3.589-8-8-8a7.973 7.973 0 0 0-7.957 7.174l-.08.782l-.78.107A6.015 6.015 0 0 0 3 18c0 3.309 2.691 6 6 6h5z"/></svg>