<svg xmlns="http://www.w3.org/2000/svg" width="1em" height="1em" viewBox="0 0 32 32"><path fill="currentColor" d="M16 25c-2 0-4-.7-5.6-2l1.3-1.6c1.3 1 2.8 1.5 4.4 1.5c3.9 0 7-3.1 7-7c0-.3 0-.7-.1-1l2-.3V16c0 5-4 9-9 9m-8.9-7.7C7 16.9 7 16.4 7 16c0-5 4-9 9-9c2 0 4 .7 5.6 2l-1.3 1.6C19.1 9.5 17.6 9 16 9c-3.9 0-7 3.1-7 7c0 .3 0 .7.1 1z"/><circle cx="23" cy="27" r="1" fill="currentColor"/><circle cx="9" cy="20" r="1" fill="currentColor"/><circle cx="23" cy="12" r="1" fill="currentColor"/><circle cx="16" cy="16" r="2" fill="currentColor"/><circle cx="9" cy="5" r="1" fill="currentColor"/><path fill="currentColor" d="M16 30C8.3 30 2 23.7 2 16c0-3.7 1.5-7.3 4.1-9.9l1.4 1.4C5.2 9.8 4 12.8 4 16c0 6.6 5.4 12 12 12c1.4 0 2.8-.2 4.1-.7l.7 1.9c-1.5.5-3.2.8-4.8.8m9.9-4.1l-1.4-1.4c2.3-2.3 3.5-5.3 3.5-8.5c0-6.6-5.4-12-12-12c-1.4 0-2.8.2-4.1.7l-.7-1.9c1.5-.5 3.2-.8 4.8-.8c7.7 0 14 6.3 14 14c0 3.7-1.5 7.3-4.1 9.9"/></svg>