<svg xmlns="http://www.w3.org/2000/svg" width="1em" height="1em" viewBox="0 0 32 32"><path fill="currentColor" d="M22 30H10c-1.1 0-2-.9-2-2v-3h2v3h12v-3h2v3c0 1.1-.9 2-2 2m-7-15.2V25h2V14.8l2.6 2.6L21 16l-5-5l-5 5l1.4 1.4z"/><path fill="currentColor" d="M24.8 9.1C23.9 5 20.3 2 16 2S8.1 5 7.2 9.1c-3 .6-5.2 3.3-5.2 6.4C2 19.1 4.9 22 8.5 22H12v-2H8.5C6 20 4 18 4 15.5c0-2.3 1.8-4.3 4.1-4.5H9l.1-.8C9.5 6.6 12.5 4 16 4c3.5 0 6.5 2.6 6.9 6.1l.1.9l.8.1c2.3.2 4.1 2.2 4.1 4.5c0 2.5-2 4.5-4.5 4.5H20v2h3.5c3.6 0 6.5-2.9 6.5-6.5c0-3.2-2.2-5.9-5.2-6.5"/></svg>