<svg xmlns="http://www.w3.org/2000/svg" width="1em" height="1em" viewBox="0 0 32 32"><path fill="currentColor" d="m23.5 9.2l-1 1.7c2.2 1.2 3.5 3.6 3.5 6.1c0 5.2-3.8 8.7-6 10.2V24h-1c-2.5 0-4.9-1.4-6.1-3.6l-1.7 1c1.4 2.6 4 4.2 6.9 4.6v3c0 .3.2.7.5.9c0 .1.2.1.4.1s.3 0 .4-.1c.4-.2 8.6-4.4 8.6-12.9c0-3.2-1.7-6.2-4.5-7.8"/><path fill="currentColor" d="M20 13.1V7.8c1.2-.4 2-1.5 2-2.8c0-1.7-1.3-3-3-3s-3 1.3-3 3c0 1.3.8 2.4 2 2.8v5.3c-.4.1-.7.2-1 .4l-5.3-5.3c.2-.3.3-.7.3-1.2c0-1.7-1.3-3-3-3S6 5.3 6 7s1.3 3 3 3c.5 0 .9-.1 1.3-.3l5.3 5.3c-.2.3-.3.7-.4 1H9.8c-.4-1.2-1.5-2-2.8-2c-1.7 0-3 1.3-3 3s1.3 3 3 3c1.3 0 2.4-.8 2.8-2h5.3c.4 1.7 2 3 3.9 3c2.2 0 4-1.8 4-4c0-1.9-1.3-3.4-3-3.9M19 4c.6 0 1 .4 1 1s-.4 1-1 1s-1-.4-1-1s.4-1 1-1M9 8c-.6 0-1-.4-1-1s.4-1 1-1s1 .4 1 1s-.4 1-1 1M7 18c-.6 0-1-.4-1-1s.4-1 1-1s1 .4 1 1s-.4 1-1 1m12 1c-1.1 0-2-.9-2-2s.9-2 2-2s2 .9 2 2s-.9 2-2 2"/></svg>