<svg xmlns="http://www.w3.org/2000/svg" width="1em" height="1em" viewBox="0 0 32 32"><path fill="currentColor" d="M29 23v-2c0-1.65-1.35-3-3-3s-3 1.35-3 3v2c-1.1 0-2 .9-2 2v4c0 1.1.9 2 2 2h6c1.1 0 2-.9 2-2v-4c0-1.1-.9-2-2-2m-4-2c0-.55.45-1 1-1s1 .45 1 1v2h-2zm4 8h-6v-4h6zM7 22.14V13H5v9.14c-1.72.45-3 2-3 3.86c0 2.21 1.79 4 4 4c1.86 0 3.41-1.28 3.86-3H18v-2H9.86A4.017 4.017 0 0 0 7 22.14M6 28c-1.1 0-2-.9-2-2s.9-2 2-2s2 .9 2 2s-.9 2-2 2M30 6c0-2.21-1.79-4-4-4c-1.86 0-3.41 1.28-3.86 3H13v2h9.14c.37 1.4 1.46 2.49 2.86 2.86V15h2V9.86c1.72-.45 3-2 3-3.86m-4 2c-1.1 0-2-.9-2-2s.9-2 2-2s2 .9 2 2s-.9 2-2 2"/><path fill="currentColor" d="M10 8.59V2H2v8h6.59l10.996 11L21 19.586zM8 8H4V4h4z"/></svg>