<svg xmlns="http://www.w3.org/2000/svg" width="1em" height="1em" viewBox="0 0 32 32"><path fill="currentColor" d="M27 22c-.7 0-1.4.3-1.9.7l-5.2-3.1c0-.2.1-.4.1-.6s0-.4-.1-.6l5.2-3.1c.5.4 1.2.7 1.9.7c1.7 0 3-1.3 3-3s-1.3-3-3-3s-3 1.3-3 3c0 .2 0 .4.1.6l-5.2 3.1c-.5-.4-1.2-.7-1.9-.7c-1.7 0-3 1.3-3 3s1.3 3 3 3c.7 0 1.4-.3 1.9-.7l5.2 3.1c0 .2-.1.4-.1.6c0 1.7 1.3 3 3 3s3-1.3 3-3s-1.3-3-3-3m0-10c.6 0 1 .4 1 1s-.4 1-1 1s-1-.4-1-1s.4-1 1-1m-10 8c-.6 0-1-.4-1-1s.4-1 1-1s1 .4 1 1s-.4 1-1 1m10 6c-.6 0-1-.4-1-1s.4-1 1-1s1 .4 1 1s-.4 1-1 1"/><path fill="currentColor" d="M19 25H8.5c-3 0-5.5-2.5-5.5-5.5c0-2.7 1.9-4.9 4.5-5.4l1.3-.2l.3-1.3C9.9 8.7 13.2 6 17 6c.5 0 1 0 1.5.1c1.6.3 3 1.1 4.2 2.2l1.4-1.4c-1.4-1.4-3.2-2.4-5.2-2.7c-.6-.1-1.3-.2-1.9-.2c-4.7 0-8.9 3.3-9.8 8.1c-3.6.7-6.2 3.8-6.2 7.4C1 23.6 4.3 27 8.5 27H19z"/></svg>