<svg xmlns="http://www.w3.org/2000/svg" width="1em" height="1em" viewBox="0 0 32 32"><circle cx="16" cy="29" r="2" fill="currentColor"/><path fill="currentColor" d="M22.5 30H20v-2h2.5c3.033 0 5.5-2.467 5.5-5.5a5.477 5.477 0 0 0-4.23-5.353l.46-1.946A7.47 7.47 0 0 1 30 22.5c0 4.135-3.364 7.5-7.5 7.5m-2.086-15.414l-3-3C17.037 11.208 16.534 11 16 11s-1.037.208-1.414.586l-3 3c-.39.39-.586.902-.586 1.414s.196 1.024.586 1.414l3 3c.377.378.88.586 1.414.586s1.037-.208 1.414-.586l3-3c.39-.39.586-.902.586-1.414s-.196-1.024-.586-1.414M16 19l-3-3l3-3l3 3z"/><circle cx="16" cy="3" r="2" fill="currentColor"/><path fill="currentColor" d="M7.77 16.8A7.47 7.47 0 0 1 2 9.5C2 5.365 5.364 2 9.5 2H12v2H9.5A5.506 5.506 0 0 0 4 9.5a5.477 5.477 0 0 0 4.23 5.353z"/></svg>