<svg xmlns="http://www.w3.org/2000/svg" width="1em" height="1em" viewBox="0 0 32 32"><path fill="currentColor" d="m20.17 16l-2.58 2.58L19 20l4-4l-4-4l-1.42 1.41zm-8.34 0l2.58-2.58L13 12l-4 4l4 4l1.42-1.41z"/><path fill="currentColor" d="M27 22.142V9.858A3.992 3.992 0 1 0 22.142 5H9.858A3.992 3.992 0 1 0 5 9.858v12.284A3.992 3.992 0 1 0 9.858 27h12.284A3.992 3.992 0 1 0 27 22.142M26 4a2 2 0 1 1-2 2a2.002 2.002 0 0 1 2-2M4 6a2 2 0 1 1 2 2a2.002 2.002 0 0 1-2-2m2 22a2 2 0 1 1 2-2a2.002 2.002 0 0 1-2 2m16.142-3H9.858A3.994 3.994 0 0 0 7 22.142V9.858A3.995 3.995 0 0 0 9.858 7h12.284A3.994 3.994 0 0 0 25 9.858v12.284A3.993 3.993 0 0 0 22.142 25M26 28a2 2 0 1 1 2-2a2.003 2.003 0 0 1-2 2"/></svg>