<svg xmlns="http://www.w3.org/2000/svg" width="1em" height="1em" viewBox="0 0 32 32"><path fill="currentColor" d="M20.334 30h-2.667A1.668 1.668 0 0 1 16 28.334V26h2v2h2v-8h2v8.334c0 .918-.748 1.666-1.666 1.666m8 0H24v-2h4v-2h-2c-1.103 0-2-.897-2-2v-2.333c0-.92.748-1.667 1.667-1.667H30v2h-4v2h2c1.103 0 2 .897 2 2v2.334c0 .918-.748 1.666-1.666 1.666M16 18a1.5 1.5 0 1 0 0 3a1.5 1.5 0 0 0 0-3M15 7h2v9h-2z"/><path fill="currentColor" d="M14 26H9.5a1 1 0 0 1-.86-.491l-6.5-11a.999.999 0 0 1 0-1.018l6.5-11A1 1 0 0 1 9.5 2h13a1 1 0 0 1 .86.491l6.5 11a.999.999 0 0 1 0 1.018l-2 3.384l-1.72-1.017L27.837 14L21.93 4H10.071L4.16 14l5.91 10H14z"/></svg>