<svg xmlns="http://www.w3.org/2000/svg" width="1em" height="1em" viewBox="0 0 32 32"><path fill="currentColor" d="M25 10a3.898 3.898 0 0 1-4-3.777a3.902 3.902 0 0 1 .653-2.064L24.17.414a1.038 1.038 0 0 1 1.66 0l2.485 3.696A3.97 3.97 0 0 1 29 6.223A3.898 3.898 0 0 1 25 10m0-7.237l-1.656 2.463a1.89 1.89 0 0 0-.344.997a2.014 2.014 0 0 0 4 0a1.98 1.98 0 0 0-.375-1.047Z"/><path fill="currentColor" d="M29.985 15.83a13.973 13.973 0 0 0-1.814-4.832L26.433 12a12.092 12.092 0 0 1 1.07 2.212A5.408 5.408 0 0 0 26 14a6.544 6.544 0 0 0-3.939 1.333a14.518 14.518 0 0 0-3.046-8.934A13.886 13.886 0 0 0 17 4.4V2h-2v2.046A14.38 14.38 0 0 0 2.015 15.83a1 1 0 0 0 1.495 1.03A4.855 4.855 0 0 1 6 16a4.865 4.865 0 0 1 4.14 2.51a1.04 1.04 0 0 0 1.72 0A5.02 5.02 0 0 1 15 16.126V25.5a2.5 2.5 0 0 1-5 0V25H8v.5a4.5 4.5 0 0 0 9 0v-9.375a5.02 5.02 0 0 1 3.14 2.386a1 1 0 0 0 1.72 0A4.865 4.865 0 0 1 26 16a4.855 4.855 0 0 1 2.49.86a1 1 0 0 0 1.496-1.03ZM9.94 15.333A6.544 6.544 0 0 0 6 14a5.408 5.408 0 0 0-1.503.213A12.441 12.441 0 0 1 12.985 6.4a14.516 14.516 0 0 0-3.046 8.934M16 14a6.553 6.553 0 0 0-4.056 1.43c.037-2.22.608-6.49 4.056-9.176c3.43 2.677 4.009 6.95 4.052 9.173A6.552 6.552 0 0 0 16 14"/></svg>