<svg xmlns="http://www.w3.org/2000/svg" width="1em" height="1em" viewBox="0 0 32 32"><path fill="currentColor" d="m29.223 17.964l-3.304-.754a9.784 9.784 0 0 0-1.525-6.624l2.54-2.026l-1.247-1.564l-2.539 2.024A9.97 9.97 0 0 0 17 6.05V3h-2v3.05a9.97 9.97 0 0 0-6.148 2.97l-2.54-2.024L5.066 8.56l2.54 2.025a9.784 9.784 0 0 0-1.524 6.625l-3.304.754l.446 1.95l3.297-.753a10.036 10.036 0 0 0 4.269 5.358l-1.33 2.763l1.802.867l1.329-2.76a9.811 9.811 0 0 0 6.82 0l1.33 2.76l1.802-.868l-1.33-2.762a10.036 10.036 0 0 0 4.269-5.358l3.297.752ZM24 16c0 .257-.015.511-.039.763l-5-1.142a2.966 2.966 0 0 0-.137-.594l3.996-3.187A7.94 7.94 0 0 1 24 16m-9 0a1 1 0 1 1 1 1a1 1 0 0 1-1-1m6.576-5.726l-3.996 3.187a3.003 3.003 0 0 0-.58-.277V8.07a7.976 7.976 0 0 1 4.576 2.205M15 8.07v5.115a3.003 3.003 0 0 0-.58.277l-3.996-3.187A7.976 7.976 0 0 1 15 8.07M8 16a7.94 7.94 0 0 1 1.18-4.16l3.996 3.187a2.966 2.966 0 0 0-.137.594l-5 1.141A8.072 8.072 0 0 1 8 16m.484 2.712l4.975-1.136a3.013 3.013 0 0 0 .414.537L11.66 22.71a8.031 8.031 0 0 1-3.176-3.998M16 24a7.968 7.968 0 0 1-2.54-.42l2.22-4.612A2.999 2.999 0 0 0 16 19a2.999 2.999 0 0 0 .319-.032l2.221 4.612A7.955 7.955 0 0 1 16 24m4.34-1.29l-2.213-4.598a3.013 3.013 0 0 0 .414-.536l4.976 1.136a8.031 8.031 0 0 1-3.176 3.998"/></svg>