<svg xmlns="http://www.w3.org/2000/svg" width="1em" height="1em" viewBox="0 0 32 32"><circle cx="16" cy="9" r="2" fill="currentColor"/><circle cx="16" cy="16" r="2" fill="currentColor"/><path fill="currentColor" d="M18.816 26A2.996 2.996 0 0 0 17 24.184V22h3a1 1 0 0 0 .768-.36l5-6a1 1 0 0 0 .208-.857l-2-9a.998.998 0 0 0-.582-.702l-7-3a.994.994 0 0 0-.788 0l-7.001 3a.999.999 0 0 0-.583.702l-1.998 9a1 1 0 0 0 .208.857l5 6A1 1 0 0 0 12 22h3v2.185A2.994 2.994 0 0 0 13.184 26H4v2h9.184c.414 1.161 1.514 2 2.816 2s2.402-.839 2.816-2H28v-2zM8.083 14.737l1.78-8.02L16 4.087l6.135 2.63l1.782 8.02L19.532 20h-7.064zM16 28a1.001 1.001 0 0 1 0-2a1.001 1.001 0 0 1 0 2"/></svg>