<svg xmlns="http://www.w3.org/2000/svg" width="1em" height="1em" viewBox="0 0 32 32"><path fill="currentColor" d="M22 14a8 8 0 1 0 8 8a8.01 8.01 0 0 0-8-8m5.91 7h-1.954a12.03 12.03 0 0 0-1.218-4.332A6.01 6.01 0 0 1 27.91 21m-7.854 0A10.014 10.014 0 0 1 22 16.015A10.012 10.012 0 0 1 23.945 21zm3.89 2A10.01 10.01 0 0 1 22 27.985A10.012 10.012 0 0 1 20.055 23zm-4.684-6.332A12.027 12.027 0 0 0 18.044 21H16.09a6.01 6.01 0 0 1 3.172-4.332M16.09 23h1.953a12.027 12.027 0 0 0 1.218 4.332A6.01 6.01 0 0 1 16.09 23m8.648 4.332A12.024 12.024 0 0 0 25.956 23h1.954a6.009 6.009 0 0 1-3.172 4.332M6 14h6v2H6zm0-8h12v2H6zm0 4h12v2H6zm0 14h6v2H6z"/><path fill="currentColor" d="M12 30H4a2.002 2.002 0 0 1-2-2V4a2.002 2.002 0 0 1 2-2h16a2.002 2.002 0 0 1 2 2v8h-2V4H4v24h8Z"/></svg>