<svg xmlns="http://www.w3.org/2000/svg" width="1em" height="1em" viewBox="0 0 32 32"><path fill="currentColor" d="M28.226 22.812a13.966 13.966 0 0 0 0-13.624L28.414 9a2.002 2.002 0 0 0 0-2.828l-2.586-2.586a2.003 2.003 0 0 0-2.828 0l-.188.187a13.969 13.969 0 0 0-13.624 0L9 3.586a2.002 2.002 0 0 0-2.828 0L3.586 6.172a2.002 2.002 0 0 0 0 2.828l.188.188a13.97 13.97 0 0 0 0 13.625L3.586 23a2.002 2.002 0 0 0 0 2.828l2.586 2.586a2.002 2.002 0 0 0 2.828 0l.188-.188a13.969 13.969 0 0 0 13.624 0l.188.188a2.002 2.002 0 0 0 2.828 0l2.586-2.586a2.002 2.002 0 0 0 0-2.828ZM28 16a11.973 11.973 0 0 1-1.255 5.332l-3.894-3.896a6.98 6.98 0 0 0 0-2.873l3.894-3.895A11.973 11.973 0 0 1 28 16m-1-8.414l-4.935 4.934a7.043 7.043 0 0 0-2.585-2.585L24.414 5ZM16 21a5 5 0 1 1 5-5a5.006 5.006 0 0 1-5 5m5.315-15.73l-3.879 3.88a6.98 6.98 0 0 0-2.873 0l-3.878-3.88a12.248 12.248 0 0 1 10.63 0M7.585 5l4.935 4.935a7.045 7.045 0 0 0-2.585 2.585L5 7.587ZM4 16a11.972 11.972 0 0 1 1.255-5.331l3.894 3.895a6.98 6.98 0 0 0 0 2.873L5.255 21.33A11.972 11.972 0 0 1 4 16m3.586 11L5 24.414l4.935-4.934a7.043 7.043 0 0 0 2.585 2.586Zm3.099-.27l3.878-3.879a6.98 6.98 0 0 0 2.873 0l3.88 3.879a12.248 12.248 0 0 1-10.631 0m13.73.27l-4.935-4.935a7.045 7.045 0 0 0 2.585-2.585L27 24.414Z"/></svg>