<svg xmlns="http://www.w3.org/2000/svg" width="1em" height="1em" viewBox="0 0 32 32"><path fill="currentColor" d="m29.895 23.542l-1.724-3.447a2 2 0 0 0-1.789-1.106h-.468a14.887 14.887 0 0 0-1.82-4.597C23.065 12.442 22 10.428 22 8a6 6 0 0 0-12 0a13.004 13.004 0 0 1-2.049 6.215a14.702 14.702 0 0 0-1.87 4.776h-.463a2 2 0 0 0-1.789 1.106l-1.723 3.447a1 1 0 0 0 .097 1.05l4.029 5.326a3 3 0 0 0 3.848.652l1.874-1.124A13.822 13.822 0 0 0 16 30a13.803 13.803 0 0 0 4.049-.553l1.871 1.123a2.982 2.982 0 0 0 1.539.43a3.039 3.039 0 0 0 2.338-1.119l4-5.288a1.001 1.001 0 0 0 .098-1.051m-7.569-8.216a14.831 14.831 0 0 1 1.56 3.663h-2.148a16.66 16.66 0 0 0-.98-2.645a12.708 12.708 0 0 1-.879-2.446a8.805 8.805 0 0 0 1.003-1.427l.039-.072a30.746 30.746 0 0 0 1.405 2.927M12 21a9.396 9.396 0 0 1 1.073-3.852c.256-.582.516-1.175.726-1.799a4.047 4.047 0 0 0 4.402 0c.21.624.47 1.217.726 1.8A9.396 9.396 0 0 1 20 21c0 1.288-.415 3-4 3s-4-1.712-4-3m6.51-8.575A3.627 3.627 0 0 1 16 14a3.627 3.627 0 0 1-2.51-1.576a7.636 7.636 0 0 1 5.02 0ZM12 8a4 4 0 0 1 8 0a10.916 10.916 0 0 0 .467 3.115a7.981 7.981 0 0 0-1.467-.63V8h-2v2.054a9.252 9.252 0 0 0-2 0V8h-2v2.485a7.902 7.902 0 0 0-1.478.637A10.71 10.71 0 0 0 12 8m-2.285 7.16a29.8 29.8 0 0 0 1.354-2.78l.049.09a8.805 8.805 0 0 0 1.003 1.428a12.708 12.708 0 0 1-.879 2.445a16.657 16.657 0 0 0-.98 2.648H8.104a14.057 14.057 0 0 1 1.61-3.832m1.37 12.477l-2.034 1.22a.987.987 0 0 1-1.253-.18l-3.626-4.794l1.446-2.892h3.706l2.166 5.394a1.004 1.004 0 0 1-.405 1.252m2.316.117a2.957 2.957 0 0 0-.056-2.11A9.03 9.03 0 0 0 16 26a9.024 9.024 0 0 0 2.656-.356a2.989 2.989 0 0 0-.054 2.11a13.872 13.872 0 0 1-5.2 0Zm10.83.884a.996.996 0 0 1-1.282.217l-2.034-1.22a1.01 1.01 0 0 1-.396-1.273l2.157-5.373h3.705l1.446 2.892Z"/></svg>