<svg xmlns="http://www.w3.org/2000/svg" width="1em" height="1em" viewBox="0 0 32 32"><path fill="currentColor" d="M22.612 20.522A6.158 6.158 0 0 0 24 16.525C24 13.48 21.981 11 19.5 11a4.244 4.244 0 0 0-3.5 2.06A4.244 4.244 0 0 0 12.5 11C10.019 11 8 13.479 8 16.525a6.16 6.16 0 0 0 1.388 3.997c-.569.368-.939.641-.988.678a1 1 0 0 0-.18 1.425C8.66 23.175 12.616 28 16 28s7.34-4.825 7.78-5.375a1 1 0 0 0-.18-1.425a19.31 19.31 0 0 0-.988-.678M12.5 13c1.355 0 2.5 1.614 2.5 3.525v1.567a9.1 9.1 0 0 0-1.024.231A2.641 2.641 0 0 0 14 18c0-1.104-.672-2-1.5-2s-1.5.896-1.5 2a2.38 2.38 0 0 0 .407 1.362c-.081.042-.169.08-.248.122A4.03 4.03 0 0 1 10 16.525C10 14.615 11.145 13 12.5 13M16 26c-1.57 0-3.965-2.084-5.52-3.806C11.9 21.28 14.266 20 16 20s4.1 1.279 5.52 2.194C19.965 23.916 17.57 26 16 26m4.84-6.516c-.078-.041-.166-.08-.247-.122A2.38 2.38 0 0 0 21 18c0-1.104-.672-2-1.5-2s-1.5.896-1.5 2a2.641 2.641 0 0 0 .024.323A9.1 9.1 0 0 0 17 18.092v-1.567C17 14.615 18.145 13 19.5 13s2.5 1.614 2.5 3.525a4.03 4.03 0 0 1-1.16 2.96"/><path fill="currentColor" d="M30 30a3.888 3.888 0 0 1-4-4V14a10 10 0 0 0-20 0v12a3.888 3.888 0 0 1-4 4v-2a1.88 1.88 0 0 0 2-2V14a12 12 0 0 1 24 0v12a1.883 1.883 0 0 0 2 2Z"/></svg>