<svg xmlns="http://www.w3.org/2000/svg" width="1em" height="1em" viewBox="0 0 32 32"><path fill="none" d="M21 18h-2v-8h-6v8h-2v-8a2.002 2.002 0 0 1 2-2h6a2.002 2.002 0 0 1 2 2Zm-4-2h-2v2h2Zm0-4h-2v2h2Z"/><path fill="currentColor" d="M16 2A11.013 11.013 0 0 0 5 13a10.889 10.889 0 0 0 2.216 6.6s.3.395.349.452L16 30l8.439-9.953c.044-.053.345-.447.345-.447l.001-.003A10.885 10.885 0 0 0 27 13A11.013 11.013 0 0 0 16 2m1 16h-2v-2h2Zm0-4h-2v-2h2Zm4 4h-2v-8h-6v8h-2v-8a2.002 2.002 0 0 1 2-2h6a2.002 2.002 0 0 1 2 2Z"/></svg>