<svg xmlns="http://www.w3.org/2000/svg" width="1em" height="1em" viewBox="0 0 32 32"><path fill="none" d="m16 7l1.912 3.667l4.088.506l-3 2.753l.6 4.074l-3.6-2.292L12.4 18l.6-4.074l-3-2.753l4.2-.506z"/><path fill="currentColor" d="M16 2A11.013 11.013 0 0 0 5 13a10.889 10.889 0 0 0 2.216 6.6s.3.395.349.452L16 30l8.439-9.953c.044-.053.345-.447.345-.447l.001-.003A10.885 10.885 0 0 0 27 13A11.013 11.013 0 0 0 16 2m3.6 16L16 15.709L12.4 18l.6-4.074l-3-2.753l4.2-.507L16 7l1.912 3.667l4.088.506l-3 2.753Z"/></svg>