<svg xmlns="http://www.w3.org/2000/svg" width="1em" height="1em" viewBox="0 0 32 32"><circle cx="16" cy="20.5" r="1.5" fill="currentColor"/><path fill="currentColor" d="M15 7h2v9h-2z"/><path fill="currentColor" d="m16 30l-8.436-9.949a35.076 35.076 0 0 1-.348-.451A10.889 10.889 0 0 1 5 13a11 11 0 0 1 22 0a10.884 10.884 0 0 1-2.215 6.597l-.001.003s-.3.394-.345.447ZM8.813 18.395s.233.308.286.374L16 26.908l6.91-8.15c.044-.055.278-.365.279-.366A8.901 8.901 0 0 0 25 13a9 9 0 0 0-18 0a8.905 8.905 0 0 0 1.813 5.395"/></svg>