<svg xmlns="http://www.w3.org/2000/svg" width="1em" height="1em" viewBox="0 0 32 32"><path fill="currentColor" d="M27.977 9.628a7.33 7.33 0 0 0-.118-1.289a5.246 5.246 0 0 0-.487-1.495a5.187 5.187 0 0 0-1-1.332a4.956 4.956 0 0 0-2.18-1.243a8.844 8.844 0 0 0-2.306-.246l-.004-.012H10.114v.012a12.578 12.578 0 0 0-1.323.059A6.296 6.296 0 0 0 7.38 4.4a5.116 5.116 0 0 0-3.125 3.415a8.8 8.8 0 0 0-.246 2.286L4 21.907a14.92 14.92 0 0 0 .109 1.599A5.53 5.53 0 0 0 4.6 25.12a5.17 5.17 0 0 0 1.443 1.744a4.69 4.69 0 0 0 1.444.783a7.83 7.83 0 0 0 2.374.348c.504.003 1.007.016 1.51.014c3.66-.016 7.319.026 10.978-.023a8.632 8.632 0 0 0 1.44-.153a4.877 4.877 0 0 0 2.411-1.172a4.992 4.992 0 0 0 1.593-2.654a9.665 9.665 0 0 0 .207-2.1v-.141c0-.055-.02-11.98-.023-12.138m-3.213 11.105c-.154.36-.93.657-2.244.86c-.123.02-.175.219-.246.545c-.03.135-.06.267-.1.405a.245.245 0 0 1-.26.195h-.02a2.101 2.101 0 0 1-.374-.047a4.921 4.921 0 0 0-.986-.105a4.37 4.37 0 0 0-.71.06a3.405 3.405 0 0 0-1.349.689a3.912 3.912 0 0 1-2.366.933c-.05 0-.098-.002-.134-.004a1.063 1.063 0 0 1-.088.004a3.906 3.906 0 0 1-2.365-.932a3.412 3.412 0 0 0-1.35-.69a4.361 4.361 0 0 0-.71-.06a4.858 4.858 0 0 0-.985.111a2.187 2.187 0 0 1-.374.054a.257.257 0 0 1-.28-.202a5.135 5.135 0 0 1-.1-.408c-.072-.328-.124-.528-.247-.547c-1.313-.203-2.09-.501-2.244-.863a.335.335 0 0 1-.027-.114a.21.21 0 0 1 .176-.22a4.585 4.585 0 0 0 2.757-1.639a6.168 6.168 0 0 0 .94-1.461l.004-.01a.943.943 0 0 0 .09-.79c-.169-.4-.73-.577-1.1-.695a3.842 3.842 0 0 1-.25-.084c-.328-.13-.868-.404-.796-.783a.733.733 0 0 1 .712-.468a.505.505 0 0 1 .216.043a2.157 2.157 0 0 0 .892.235a.747.747 0 0 0 .513-.157q-.014-.263-.032-.525a8.874 8.874 0 0 1 .212-3.545a4.607 4.607 0 0 1 4.278-2.758l.354-.003a4.615 4.615 0 0 1 4.286 2.76a8.884 8.884 0 0 1 .211 3.548l-.003.057l-.028.467a.722.722 0 0 0 .466.156a2.232 2.232 0 0 0 .84-.234a.663.663 0 0 1 .275-.055a.832.832 0 0 1 .313.06l.005.002a.583.583 0 0 1 .44.478c.004.184-.132.458-.803.723a4.055 4.055 0 0 1-.249.084c-.371.118-.931.296-1.1.695a.942.942 0 0 0 .09.789l.004.01a5.431 5.431 0 0 0 3.697 3.1a.211.211 0 0 1 .176.22a.34.34 0 0 1-.027.116"/><path fill="none" d="M24.764 20.733c-.154.36-.93.657-2.244.86c-.123.02-.175.219-.246.545c-.03.135-.06.267-.1.405a.245.245 0 0 1-.26.195h-.02a2.101 2.101 0 0 1-.374-.047a4.921 4.921 0 0 0-.986-.105a4.37 4.37 0 0 0-.71.06a3.405 3.405 0 0 0-1.349.689a3.912 3.912 0 0 1-2.366.933c-.05 0-.098-.002-.134-.004a1.063 1.063 0 0 1-.088.004a3.906 3.906 0 0 1-2.365-.932a3.412 3.412 0 0 0-1.35-.69a4.361 4.361 0 0 0-.71-.06a4.858 4.858 0 0 0-.985.111a2.187 2.187 0 0 1-.374.054a.257.257 0 0 1-.28-.202a5.135 5.135 0 0 1-.1-.408c-.072-.328-.124-.528-.247-.547c-1.313-.203-2.09-.501-2.244-.863a.335.335 0 0 1-.027-.114a.21.21 0 0 1 .176-.22a4.585 4.585 0 0 0 2.757-1.639a6.168 6.168 0 0 0 .94-1.461l.004-.01a.943.943 0 0 0 .09-.79c-.169-.4-.73-.577-1.1-.695a3.842 3.842 0 0 1-.25-.084c-.328-.13-.868-.404-.796-.783a.733.733 0 0 1 .712-.468a.505.505 0 0 1 .216.043a2.157 2.157 0 0 0 .892.235a.747.747 0 0 0 .513-.157q-.014-.263-.032-.525a8.874 8.874 0 0 1 .212-3.545a4.607 4.607 0 0 1 4.278-2.758l.354-.003a4.615 4.615 0 0 1 4.286 2.76a8.884 8.884 0 0 1 .211 3.548l-.003.057l-.028.467a.722.722 0 0 0 .466.156a2.232 2.232 0 0 0 .84-.234a.663.663 0 0 1 .275-.055a.832.832 0 0 1 .313.06l.005.002a.583.583 0 0 1 .44.478c.004.184-.132.458-.803.723a4.055 4.055 0 0 1-.249.084c-.371.118-.931.296-1.1.695a.942.942 0 0 0 .09.789l.004.01a5.431 5.431 0 0 0 3.697 3.1a.211.211 0 0 1 .176.22a.34.34 0 0 1-.027.116"/></svg>