<svg xmlns="http://www.w3.org/2000/svg" width="1em" height="1em" viewBox="0 0 32 32"><path fill="currentColor" d="M26.461 15.797a12.135 12.135 0 0 0-1.179-4.317L29 10.13a11.988 11.988 0 0 0-1.028-1.738l-1.743.635a11.988 11.988 0 0 0-21.71 7.913l1.747-.642a12.19 12.19 0 0 0 .331 1.985l-3.713 1.355A12.145 12.145 0 0 0 4.757 23.7l1.966-.716l.002.004a11.886 11.886 0 0 0 4.67 3.89a12.013 12.013 0 0 0 15.945-5.804a11.873 11.873 0 0 0 1.08-5.992Zm-2.92 3.496a7.8 7.8 0 0 1-10.353 3.775a7.72 7.72 0 0 1-2.271-1.613l-1.985.724a7.84 7.84 0 0 1-2.074-3.99l3.725-1.357a7.818 7.818 0 0 1-.123-2.066l-1.752.637A7.773 7.773 0 0 1 19.765 8.94h.006a7.744 7.744 0 0 1 2.265 1.615l1.744-.634a7.801 7.801 0 0 1 1.229 1.656l-3.71 1.36a7.825 7.825 0 0 1 .977 4.388l1.968-.716a7.671 7.671 0 0 1-.703 2.685Z"/></svg>