<svg xmlns="http://www.w3.org/2000/svg" width="1em" height="1em" viewBox="0 0 32 32"><path fill="currentColor" fill-rule="evenodd" d="M27.086 24.78A6.618 6.618 0 0 0 30 19.465c0-3.88-3.776-7.027-8.434-7.027s-8.434 3.147-8.434 7.027s3.777 7.028 8.434 7.028a9.955 9.955 0 0 0 2.754-.385l.247-.037a.892.892 0 0 1 .448.13l1.847 1.066l.162.053a.281.281 0 0 0 .281-.282l-.045-.205l-.38-1.417l-.03-.18a.56.56 0 0 1 .236-.458M12.12 4.68C6.53 4.68 2 8.455 2 13.114a7.939 7.939 0 0 0 3.497 6.374a.671.671 0 0 1 .283.55l-.035.215l-.456 1.701l-.055.246a.338.338 0 0 0 .337.338l.196-.063l2.216-1.28a1.058 1.058 0 0 1 .536-.155l.298.044a11.967 11.967 0 0 0 3.304.464l.555-.014a6.515 6.515 0 0 1-.34-2.067c0-4.247 4.133-7.691 9.23-7.691l.55.014c-.762-4.029-4.947-7.11-9.995-7.11m6.633 13.663a1.125 1.125 0 1 1 1.125-1.125a1.124 1.124 0 0 1-1.125 1.125m5.624 0a1.125 1.125 0 1 1 1.123-1.125a1.125 1.125 0 0 1-1.123 1.125m-15.631-6.58a1.35 1.35 0 1 1 1.35-1.348a1.349 1.349 0 0 1-1.35 1.349m6.747 0a1.35 1.35 0 1 1 1.35-1.348a1.349 1.349 0 0 1-1.35 1.349"/></svg>