<svg xmlns="http://www.w3.org/2000/svg" width="1em" height="1em" viewBox="0 0 32 32"><path fill="currentColor" d="M14.123 26.933a1.112 1.112 0 1 1-1.112-1.112a1.112 1.112 0 0 1 1.112 1.112m6.903 0a1.112 1.112 0 1 1-1.112-1.112a1.112 1.112 0 0 1 1.112 1.112M9.97 6.74l.06-.972l.972.06l-.06.972z"/><path fill="currentColor" d="M26.428 16.383h-.002a13.087 13.087 0 0 0-5.143-4.182a14.12 14.12 0 0 0-1.135-.445c.012-.032.027-.062.04-.094a4.83 4.83 0 0 0-2.986-6.319a5.937 5.937 0 0 0-1.997-.355c-.036-.126-.116-.675.58-2.158L14.375 2l-.338.466c-.384.531-.755 1.044-1.103 1.55a2.166 2.166 0 0 0-1.448-.677l-1.632-.101H9.85a2.233 2.233 0 0 0-.13-.004a2.188 2.188 0 0 0-2.18 2.048l-.101 1.635v.006A2.188 2.188 0 0 0 9.485 9.23l1.168.072a5.171 5.171 0 0 0 .47 2.688a13.195 13.195 0 0 0-4.264 2.9C3 18.788 3 23.06 3 26.492v2.07l1.524-1.616A12.33 12.33 0 0 0 5.854 30h1.983a10.71 10.71 0 0 1-1.959-4.49l2.235-2.37l-1.15 3.605l2.03-1.477c3.586-2.61 7.868-3.21 12.726-1.783a4.628 4.628 0 0 0 5.22-1.468c.043-.063.082-.128.122-.193a9.614 9.614 0 0 1 .164 1.746a12.421 12.421 0 0 1-1.61 6.43h1.877a14.402 14.402 0 0 0 1.378-6.43a12.267 12.267 0 0 0-2.443-7.187M13.844 5.926a1.587 1.587 0 0 0 1.399.706a4.211 4.211 0 0 1 1.44.272a3.17 3.17 0 0 1 1.028 5.464l-.475-.585l-.004-.004a1.705 1.705 0 0 0-3.023.987a3.214 3.214 0 0 1-1.9-3.541a8.482 8.482 0 0 1 1.438-3.466a1.642 1.642 0 0 0 .098.167m3.49 9.259l-.607.496a.268.268 0 0 1-.376-.038l-.126-.155a.28.28 0 0 1 .04-.393l.6-.49l-1.236-1.516a.362.362 0 1 1 .561-.457l3.455 4.252a.362.362 0 0 1-.199.581a.357.357 0 0 1-.081.01a.36.36 0 0 1-.281-.134l-.344-.424l-1.222.997a.282.282 0 0 1-.396-.04l-.553-.677a.279.279 0 0 1 .04-.392l1.227-1.002ZM9.08 7.018l.101-1.634a.54.54 0 0 1 .539-.506l.033.001l1.633.101a.539.539 0 0 1 .505.572l-.008.118a10.674 10.674 0 0 0-.902 2.005l-1.395-.086a.54.54 0 0 1-.506-.57M25.594 21.07a2.988 2.988 0 0 1-3.41.837c-4.532-1.33-8.63-1.053-12.213.82l1.907-5.978l-7.203 7.64a11.67 11.67 0 0 1 3.353-8.342a11.495 11.495 0 0 1 4.107-2.691a5.42 5.42 0 0 0 2.241 1.221a4.714 4.714 0 0 0 .563.12a1.626 1.626 0 0 0 .245 1.642l.085.104a1.625 1.625 0 0 0 .259 1.605l.553.677a1.628 1.628 0 0 0 2.29.232l.332-.27a1.708 1.708 0 0 0 1.986-2.654l-1.942-2.391a4.88 4.88 0 0 0 .486-.456a12.449 12.449 0 0 1 1.383.518a11.419 11.419 0 0 1 4.508 3.684c.975 1.34 1.15 2.716.47 3.682"/></svg>