<svg xmlns="http://www.w3.org/2000/svg" width="1em" height="1em" viewBox="0 0 32 32"><path fill="currentColor" d="m25 11.6l-.9-.3c0-.2.1-.4.1-.6c.7-3.3.2-6-1.3-6.9c-1.5-.8-3.9 0-6.3 2.1c-.2.2-.5.4-.7.6c-.2-.1-.3-.3-.5-.4C13 3.9 10.5 3 9 3.9c-1.5.8-1.9 3.4-1.3 6.5c.1.3.1.6.2.9c-.4.1-.7.2-1 .3c-3 1-4.9 2.7-4.9 4.3c0 1.7 2 3.5 5.1 4.5c.2.1.5.2.8.2c-.1.3-.2.7-.2 1c-.6 3.1-.1 5.5 1.3 6.4c1.5.9 4 0 6.5-2.2c.2-.2.4-.4.6-.5c.2.2.5.5.8.7c2.4 2.1 4.7 2.9 6.2 2c1.5-.9 2-3.5 1.4-6.7c0-.2-.1-.5-.2-.8c.2-.1.4-.1.5-.2c3.2-1.1 5.3-2.8 5.3-4.5c-.1-1.5-2.1-3.1-5.1-4.2m-7.5-4.7c2.1-1.8 4-2.5 4.9-2c.9.5 1.3 2.7.7 5.6c0 .2-.1.4-.1.6c-1.2-.3-2.5-.5-3.7-.6c-.7-1-1.5-2-2.4-3zm-7.2 10.5c.3.5.5 1 .8 1.5c.3.5.6 1 .9 1.4c-.9-.1-1.7-.2-2.6-.4c.2-.8.5-1.6.9-2.5m0-2.8c-.4-.8-.6-1.6-.9-2.4c.8-.2 1.7-.3 2.5-.4c-.3.5-.6.9-.9 1.4c-.2.4-.5.9-.7 1.4m.6 1.4c.4-.8.8-1.5 1.2-2.3c.4-.7.9-1.5 1.4-2.2c.8-.1 1.7-.1 2.6-.1c.9 0 1.7 0 2.6.1c.5.7.9 1.4 1.3 2.2c.4.7.8 1.5 1.2 2.3c-.4.8-.8 1.5-1.2 2.3c-.4.7-.9 1.5-1.3 2.2c-.8.1-1.7.1-2.6.1c-.9 0-1.7 0-2.5-.1c-.5-.7-.9-1.4-1.4-2.2c-.5-.8-.9-1.5-1.3-2.3m10 2.9c.3-.5.6-1 .8-1.5c.4.8.7 1.6.9 2.5c-.9.2-1.7.3-2.6.4c.4-.5.7-1 .9-1.4m.8-4.3c-.3-.5-.5-1-.8-1.5c-.3-.5-.6-.9-.8-1.4c.9.1 1.7.3 2.6.4c-.3.9-.6 1.7-1 2.5M16 8.3c.6.6 1.1 1.3 1.6 2c-1.1-.1-2.2-.1-3.3 0c.6-.7 1.2-1.4 1.7-2M9.6 4.9c.9-.5 3 .2 5.2 2.2l.4.4c-.9.9-1.7 1.9-2.4 3c-1.3.1-2.5.3-3.7.6c-.1-.3-.1-.6-.2-.9c-.6-2.7-.2-4.8.7-5.3M8.2 19.6c-.2-.1-.5-.1-.7-.2c-1.4-.5-2.5-1.1-3.3-1.7c-.7-.6-1-1.2-1-1.7c0-1 1.5-2.3 4.1-3.2c.3-.1.6-.2 1-.3c.3 1.2.7 2.4 1.3 3.5c-.6 1.2-1 2.4-1.4 3.6m6.5 5.5c-1.1 1-2.2 1.6-3.1 2c-.9.3-1.5.3-2 .1c-.9-.5-1.3-2.5-.8-5.1c.1-.4.2-.7.2-1.1c1.2.3 2.5.5 3.8.5c.7 1 1.5 2 2.4 3c-.2.2-.3.4-.5.6m1.3-1.4c-.6-.6-1.1-1.3-1.7-2h3.3c-.4.7-1 1.4-1.6 2m7.3 1.7c-.2.9-.5 1.5-.9 1.7c-.9.5-2.8-.2-4.8-1.9c-.2-.2-.5-.4-.7-.6c.8-.9 1.6-1.9 2.3-3c1.3-.1 2.5-.3 3.8-.6c.1.2.1.5.2.7c.3 1.4.3 2.7.1 3.7m1-6c-.2 0-.3.1-.5.1c-.4-1.2-.9-2.4-1.4-3.6c.5-1.1 1-2.3 1.4-3.5c.3.1.6.2.8.3c2.6.9 4.2 2.2 4.2 3.2c0 1.2-1.7 2.6-4.5 3.5"/><path fill="currentColor" d="M16 18.5c.5 0 1-.1 1.4-.4c.4-.3.7-.7.9-1.1c.2-.5.2-1 .1-1.5s-.3-.9-.7-1.3c-.3-.4-.8-.6-1.3-.7c-.5-.1-1 0-1.5.1c-.5.2-.9.5-1.1.9c-.3.4-.4.9-.4 1.4c0 .3.1.7.2 1c.1.3.3.6.5.8c.2.2.5.4.8.5c.4.2.8.3 1.1.3"/></svg>