<svg xmlns="http://www.w3.org/2000/svg" width="1em" height="1em" viewBox="0 0 32 32"><path fill="currentColor" fill-rule="evenodd" d="M30 14.784c0-5.178-6.268-9.376-14-9.376S2 9.606 2 14.784c0 4.615 4.981 8.442 11.536 9.223v2.991l4.776-.001v-2.974a19.381 19.381 0 0 0 3.342-.665L23.593 27l5.398-.002l-3.253-5.485C28.363 19.809 30 17.426 30 14.784m-22.498.7c0-3.54 4.764-6.41 10.641-6.41s10.214 1.963 10.214 6.41a5.47 5.47 0 0 1-3.398 5.126a3.225 3.225 0 0 0-.298-.175a10.474 10.474 0 0 0-1.34-.505s4.174-.31 4.174-4.466s-4.368-4.234-4.368-4.234h-9.59v10.025c-3.567-1.035-6.035-3.227-6.035-5.771m13.742 1.845l-2.893.001l.001-2.68h2.892a1.248 1.248 0 0 1 1.34 1.316a1.323 1.323 0 0 1-1.34 1.363m-2.933 3.495h1.283a.879.879 0 0 1 .64.291a3.292 3.292 0 0 1 .51.63a22.403 22.403 0 0 1-2.432.145Z"/></svg>