<svg xmlns="http://www.w3.org/2000/svg" width="1em" height="1em" viewBox="0 0 32 32"><path fill="currentColor" d="m15.134 17.189l.865.416l.863-.415l.214-.931l-.597-.747h-.961l-.599.745zm-.917-3.309l.002.002a.524.524 0 0 0 .832-.401v-.003l.013-.007l.178-3.141a6.52 6.52 0 0 0-.633.11a6.2 6.2 0 0 0-2.973 1.617l2.575 1.826zm-1.382 2.382h.003a.524.524 0 0 0 .206-.902l-.003-.002l.003-.012l-2.351-2.104a6.178 6.178 0 0 0-.875 3.9l3.014-.87zm1.03 2.239a.523.523 0 0 0-.606-.399h-.004l-.005-.006l-3.09.525a6.205 6.205 0 0 0 2.486 3.11l1.197-2.893l-.009-.012l.001-.003a.518.518 0 0 0 .03-.322m2.597 1.142l-.001-.002a.53.53 0 0 0-.48-.276a.527.527 0 0 0-.444.277l-.001.003h-.003l-1.52 2.748a6.228 6.228 0 0 0 3.38.172a6.6 6.6 0 0 0 .604-.168l-1.523-2.754zm2.275-1.553h-.003a.51.51 0 0 0-.12-.009a.526.526 0 0 0-.455.732v.002l-.003.006l1.21 2.923a6.185 6.185 0 0 0 2.494-3.134l-3.118-.527zm2.552-4.846l-2.338 2.092l.001.007l-.002.002a.525.525 0 0 0 .206.901h.003l.002.014l3.03.872a6.292 6.292 0 0 0-.902-3.888m-4.35.223v.003a.516.516 0 0 0 .114.304a.524.524 0 0 0 .719.097l.002-.002l.01.004l2.558-1.814a6.23 6.23 0 0 0-3.584-1.729l.177 3.136z"/><path fill="currentColor" d="M30.38 19.038L27.903 8.27a1.906 1.906 0 0 0-1.038-1.292L16.83 2.19a1.933 1.933 0 0 0-1.666 0L5.133 6.982a1.907 1.907 0 0 0-1.038 1.29L1.619 19.04a1.89 1.89 0 0 0 .261 1.459a1.836 1.836 0 0 0 .109.151l6.944 8.634a1.924 1.924 0 0 0 1.5.716l11.135-.002a1.925 1.925 0 0 0 1.5-.715l6.942-8.635a1.891 1.891 0 0 0 .37-1.61m-3.81-.13a.643.643 0 0 1-.782.443h-.004l-.005-.001l-.007-.002l-.005-.002l-.057-.012a1.785 1.785 0 0 1-.098-.022a2.464 2.464 0 0 1-.359-.132c-.057-.025-.117-.052-.18-.076l-.018-.006a5.52 5.52 0 0 0-1.028-.301a.412.412 0 0 0-.296.098l-.037.025l-.002.002h-.002a8.946 8.946 0 0 0-.252-.045a7.817 7.817 0 0 1-3.459 4.351c.01.022.02.05.031.081a.935.935 0 0 0 .067.157l.002.002l-.001.003l-.017.042a.415.415 0 0 0-.03.309a5.69 5.69 0 0 0 .533.951c.037.057.075.109.112.16a2.4 2.4 0 0 1 .21.32c.016.03.037.075.055.113l.023.049a.608.608 0 1 1-1.095.517l-.022-.045a2.518 2.518 0 0 1-.052-.11a2.506 2.506 0 0 1-.121-.365c-.017-.06-.034-.121-.054-.185l-.006-.016a5.544 5.544 0 0 0-.405-.993a.418.418 0 0 0-.263-.17l-.041-.013h-.002l-.001-.002l-.06-.108l-.066-.12a7.887 7.887 0 0 1-1.027.31a7.759 7.759 0 0 1-4.51-.324l-.135.244l-.002.001a.481.481 0 0 0-.256.124a2.283 2.283 0 0 0-.336.721c-.04.117-.08.238-.128.357a3.74 3.74 0 0 0-.054.188a2.475 2.475 0 0 1-.12.362a1.57 1.57 0 0 1-.05.103l-.024.05v.002l-.002.002a.677.677 0 0 1-.595.394a.548.548 0 0 1-.24-.054a.643.643 0 0 1-.258-.86l.027-.058l.05-.104a2.53 2.53 0 0 1 .21-.322c.037-.05.075-.103.112-.158a5.82 5.82 0 0 0 .543-.976a.589.589 0 0 0-.053-.336v-.004l.107-.257a7.822 7.822 0 0 1-3.46-4.32l-.26.044v-.001l-.027-.015a.596.596 0 0 0-.316-.106a5.545 5.545 0 0 0-1.028.301l-.017.007a5.321 5.321 0 0 0-.178.073a2.495 2.495 0 0 1-.362.133c-.03.008-.07.017-.11.025l-.045.01l-.005.002l-.007.002h-.009a.608.608 0 1 1-.27-1.18h.005l.005-.002h.006l.046-.012c.04-.01.081-.02.114-.026a2.413 2.413 0 0 1 .38-.035c.064-.003.129-.006.196-.011l.015-.002a5.554 5.554 0 0 0 1.062-.177a.72.72 0 0 0 .231-.227l.024-.032l.001-.001h.002l.247-.072a7.777 7.777 0 0 1 1.224-5.413l-.19-.17v-.002l-.004-.027a.598.598 0 0 0-.115-.316a5.617 5.617 0 0 0-.892-.627a4.398 4.398 0 0 0-.171-.094a2.473 2.473 0 0 1-.327-.197a2.327 2.327 0 0 1-.09-.072l-.035-.028l-.005-.003l-.005-.004a.705.705 0 0 1-.26-.435a.573.573 0 0 1 .112-.457A.584.584 0 0 1 8 9.529a.723.723 0 0 1 .421.159l.037.028l.097.078a2.525 2.525 0 0 1 .267.276c.04.047.082.095.128.144l.01.01a5.522 5.522 0 0 0 .8.72a.416.416 0 0 0 .31.041l.042-.007h.002l.001.001c.036.026.149.107.214.151a7.727 7.727 0 0 1 3.923-2.24a7.967 7.967 0 0 1 1.082-.166l.014-.251V8.47a.649.649 0 0 0 .195-.308a5.578 5.578 0 0 0-.066-1.079l-.001-.008a3.799 3.799 0 0 0-.033-.192a2.561 2.561 0 0 1-.05-.38V6.4l.001-.05v-.017a.609.609 0 1 1 1.21 0l.002.06v.11a2.535 2.535 0 0 1-.05.38a3.938 3.938 0 0 0-.032.192l-.004.032a5.448 5.448 0 0 0-.064 1.056a.413.413 0 0 0 .162.267l.033.03l.002.001v.002c.001.044.008.184.013.264a7.79 7.79 0 0 1 2.718.756a7.881 7.881 0 0 1 2.263 1.65l.226-.161h.002l.031.002a.591.591 0 0 0 .33-.041a5.489 5.489 0 0 0 .787-.71l.022-.022c.045-.048.086-.095.127-.142a2.57 2.57 0 0 1 .27-.278c.026-.023.062-.05.097-.078l.036-.029a.609.609 0 1 1 .755.948l-.044.035c-.03.026-.063.052-.088.071a2.473 2.473 0 0 1-.327.197c-.056.03-.114.06-.173.095a5.689 5.689 0 0 0-.892.627a.415.415 0 0 0-.108.293l-.004.044v.001l-.001.001l-.091.082a9.443 9.443 0 0 0-.119.107a7.798 7.798 0 0 1 1.25 5.4l.24.07h.001l.017.026a.601.601 0 0 0 .24.233a5.595 5.595 0 0 0 1.063.176h.012c.068.007.133.01.197.012a2.462 2.462 0 0 1 .38.035c.03.006.07.016.11.026l.064.015a.643.643 0 0 1 .512.74"/></svg>