<svg xmlns="http://www.w3.org/2000/svg" width="1em" height="1em" viewBox="0 0 32 32"><path fill="currentColor" d="M29.058 11.193c0-6.074-3.98-7.855-3.98-7.855C23.072 2.417 19.626 2.03 16.047 2h-.088c-3.58.03-7.023.417-9.03 1.338c0 0-3.98 1.78-3.98 7.855c0 1.391-.027 3.054.017 4.817c.145 5.94 1.09 11.795 6.581 13.248c2.532.67 4.707.81 6.458.715c3.175-.176 4.958-1.133 4.958-1.133l-.105-2.304s-2.27.715-4.818.628c-2.525-.087-5.19-.272-5.598-3.372a6.334 6.334 0 0 1-.057-.87s2.479.607 5.62.75c1.92.088 3.722-.112 5.551-.33c3.508-.42 6.563-2.581 6.947-4.556c.605-3.112.555-7.593.555-7.593m-4.694 7.826H21.45V11.88c0-1.505-.633-2.268-1.9-2.268c-1.4 0-2.102.906-2.102 2.697v3.908h-2.896v-3.908c0-1.791-.702-2.697-2.102-2.697c-1.267 0-1.9.763-1.9 2.268v7.139H7.636v-7.355c0-1.503.383-2.698 1.152-3.581c.792-.884 1.83-1.337 3.12-1.337c1.49 0 2.62.573 3.366 1.72L16 9.681l.726-1.217c.746-1.146 1.876-1.719 3.367-1.719c1.288 0 2.326.453 3.12 1.337c.768.883 1.15 2.078 1.15 3.581z"/></svg>