<svg xmlns="http://www.w3.org/2000/svg" width="1em" height="1em" viewBox="0 0 32 32"><circle cx="22.406" cy="9.594" r="1.44" fill="currentColor"/><path fill="currentColor" d="M16 9.838A6.162 6.162 0 1 0 22.162 16A6.162 6.162 0 0 0 16 9.838M16 20a4 4 0 1 1 4-4a4 4 0 0 1-4 4"/><path fill="currentColor" d="M16 6.162c3.204 0 3.584.012 4.849.07a6.642 6.642 0 0 1 2.228.413a3.975 3.975 0 0 1 2.278 2.278a6.642 6.642 0 0 1 .413 2.228c.058 1.265.07 1.645.07 4.85s-.012 3.583-.07 4.848a6.642 6.642 0 0 1-.413 2.228a3.975 3.975 0 0 1-2.278 2.278a6.642 6.642 0 0 1-2.228.413c-1.265.058-1.645.07-4.849.07s-3.584-.012-4.849-.07a6.642 6.642 0 0 1-2.228-.413a3.975 3.975 0 0 1-2.278-2.278a6.642 6.642 0 0 1-.413-2.228c-.058-1.265-.07-1.645-.07-4.849s.012-3.584.07-4.849a6.642 6.642 0 0 1 .413-2.228a3.975 3.975 0 0 1 2.278-2.278a6.642 6.642 0 0 1 2.228-.413c1.265-.058 1.645-.07 4.849-.07M16 4c-3.259 0-3.668.014-4.948.072a8.807 8.807 0 0 0-2.912.558a6.136 6.136 0 0 0-3.51 3.51a8.807 8.807 0 0 0-.558 2.913C4.014 12.333 4 12.74 4 16s.014 3.668.072 4.948a8.807 8.807 0 0 0 .558 2.912a6.136 6.136 0 0 0 3.51 3.51a8.807 8.807 0 0 0 2.913.558c1.28.058 1.688.072 4.947.072s3.668-.014 4.948-.072a8.807 8.807 0 0 0 2.913-.558a6.136 6.136 0 0 0 3.51-3.51a8.807 8.807 0 0 0 .557-2.913C27.986 19.667 28 19.26 28 16s-.014-3.668-.072-4.948a8.807 8.807 0 0 0-.558-2.912a6.136 6.136 0 0 0-3.51-3.51a8.807 8.807 0 0 0-2.913-.557C19.667 4.013 19.26 4 16 4"/></svg>