<svg xmlns="http://www.w3.org/2000/svg" width="1em" height="1em" viewBox="0 0 32 32"><path fill="currentColor" d="m22.413 19.11l-1.915-5.536a2 2 0 0 1-.1-.541c0-.511.41-1.013 1.072-1.013c.552 0 .923.351 1.083.863l1.204 3.98l1.233-3.97c.16-.532.572-.893 1.143-.893h.13c.572 0 .984.371 1.144.893l1.244 3.98l1.233-4.01c.15-.472.481-.853 1.073-.853c.612 0 1.043.471 1.043 1.023c0 .15-.04.351-.07.451l-2.006 5.626c-.23.692-.692.993-1.233.993h-.07c-.542 0-.993-.311-1.204-.953l-1.243-3.95l-1.264 3.95c-.2.642-.662.953-1.203.953h-.07c-.532 0-.993-.311-1.224-.993m-20.32-6.465c-.246-.553-.868-.8-1.451-.543c-.583.256-.79.899-.533 1.452l2.43 5.284c.385.83.79 1.265 1.54 1.265c.81 0 1.166-.474 1.541-1.265c0 0 2.124-4.623 2.144-4.672a.306.306 0 0 1 .306-.198c.188 0 .336.149.336.346v4.524c0 .692.385 1.265 1.126 1.265s1.146-.573 1.146-1.265v-3.694c0-.711.513-1.176 1.205-1.176s1.155.475 1.155 1.176v3.694c0 .692.386 1.265 1.127 1.265s1.145-.573 1.145-1.265v-3.694c0-.711.514-1.176 1.205-1.176s1.156.475 1.156 1.176v3.694c0 .692.385 1.265 1.126 1.265s1.146-.573 1.146-1.265V14.63c0-1.55-1.245-2.627-2.736-2.627s-2.43 1.037-2.43 1.037c-.494-.642-1.185-1.037-2.341-1.037c-1.225 0-2.301 1.037-2.301 1.037c-.504-.642-1.344-1.037-2.045-1.037c-1.087 0-1.946.474-2.47 1.679l-1.55 3.665z"/></svg>