<svg xmlns="http://www.w3.org/2000/svg" width="1em" height="1em" viewBox="0 0 32 32"><path d="M25 32h7v-7h-2v5h-5v2z" fill="currentColor"/><path d="M25 27h-3V17h3a3.003 3.003 0 0 1 3 3v4a3.003 3.003 0 0 1-3 3zm-1-2h1a1 1 0 0 0 1-1v-4a1 1 0 0 0-1-1h-1z" fill="currentColor"/><path d="M20 27h-6v-4a2.002 2.002 0 0 1 2-2h2v-2h-4v-2h4a2.002 2.002 0 0 1 2 2v2a2.002 2.002 0 0 1-2 2h-2v2h4z" fill="currentColor"/><path d="M25 15h-3V5h3a3.003 3.003 0 0 1 3 3v4a3.003 3.003 0 0 1-3 3zm-1-2h1a1 1 0 0 0 1-1V8a1 1 0 0 0-1-1h-1z" fill="currentColor"/><path d="M18 5h-4v2h4v2h-3v2h3v2h-4v2h4a2.003 2.003 0 0 0 2-2V7a2.002 2.002 0 0 0-2-2z" fill="currentColor"/><path d="M10 27H8v-3.046c-4.715-.442-6-4.01-6-5.954c0-3.015 2.082-4.502 3.919-5.814C7.572 11.006 9 9.986 9 8V5h2v3c0 3.015-2.082 4.502-3.919 5.814C5.428 14.994 4 16.014 4 18c.005.403.191 4 5 4a1 1 0 0 1 1 1z" fill="currentColor"/><path d="M7 0H0v7h2V2h5V0z" fill="currentColor"/></svg>