<svg xmlns="http://www.w3.org/2000/svg" width="1em" height="1em" viewBox="0 0 32 32"><path fill="currentColor" d="M32 25a2.996 2.996 0 0 0-2-2.816V18h-2v4.185c-1.162.414-2 1.513-2 2.815s.838 2.401 2 2.815V30h2v-2.184A2.996 2.996 0 0 0 32 25m-3 1a1.001 1.001 0 0 1 0-2a1.001 1.001 0 0 1 0 2m-5-3a2.996 2.996 0 0 0-2-2.816V18h-2v2.185c-1.162.414-2 1.513-2 2.815s.838 2.401 2 2.815V30h2v-4.184A2.996 2.996 0 0 0 24 23m-3 1a1.001 1.001 0 0 1 0-2a1.001 1.001 0 0 1 0 2"/><path fill="currentColor" d="M.716 11.045L13.676 26l1.512-1.308L4.19 12h5.256L15 20.887L20.554 12h5.256l-2.332 2.69L24.99 16l4.294-4.955L22.5 2h-15zM20.554 10l-3.75-6H21.5l4.5 6zm-2.358 0h-6.392L15 4.887zm-6.392 2h6.392L15 17.113zM4 10l4.5-6h4.696l-3.75 6z"/></svg>