<svg xmlns="http://www.w3.org/2000/svg" width="1em" height="1em" viewBox="0 0 32 32"><path fill="currentColor" d="M29.844 15.035a1.517 1.517 0 0 0-1.23-.866a5.355 5.355 0 0 1-3.41-1.716a6.465 6.465 0 0 1-1.286-6.392a1.603 1.603 0 0 0-.299-1.546a1.454 1.454 0 0 0-1.36-.493l-.019.003a7.927 7.927 0 0 0-6.22 7.431A7.364 7.364 0 0 0 13.5 11a7.551 7.551 0 0 0-7.15 5.244A5.993 5.993 0 0 0 8 28h11a5.977 5.977 0 0 0 5.615-8.088a7.505 7.505 0 0 0 5.132-3.357a1.537 1.537 0 0 0 .097-1.52M19 26H8a3.993 3.993 0 0 1-.673-7.93l.663-.112l.145-.656a5.496 5.496 0 0 1 10.73 0l.145.656l.663.113A3.993 3.993 0 0 1 19 26m4.465-8.001h-.021a5.958 5.958 0 0 0-2.795-1.755a7.507 7.507 0 0 0-2.6-3.677c-.01-.101-.036-.197-.041-.3a6.078 6.078 0 0 1 3.79-6.05a8.458 8.458 0 0 0 1.94 7.596a7.4 7.4 0 0 0 3.902 2.228a5.429 5.429 0 0 1-4.175 1.958"/></svg>