<svg xmlns="http://www.w3.org/2000/svg" width="1em" height="1em" viewBox="0 0 32 32"><path fill="currentColor" d="M16 20a4 4 0 1 1 4-4a4.005 4.005 0 0 1-4 4m0-6a2 2 0 1 0 2 2a2.002 2.002 0 0 0-2-2"/><path fill="currentColor" d="M24 24H8a2.002 2.002 0 0 1-2-2V10a2.002 2.002 0 0 1 2-2h16a2.002 2.002 0 0 1 2 2v12a2.002 2.002 0 0 1-2 2M8 10v12h16V10Z"/><path fill="currentColor" d="M28 28H4a2.002 2.002 0 0 1-2-2V6a2.002 2.002 0 0 1 2-2h24a2.002 2.002 0 0 1 2 2v20a2.002 2.002 0 0 1-2 2M4 6v20h24V6Z"/></svg>