<svg xmlns="http://www.w3.org/2000/svg" width="1em" height="1em" viewBox="0 0 32 32"><path d="M25 23h-6a3 3 0 0 0-3 3v2h2v-2a1 1 0 0 1 1-1h6a1 1 0 0 1 1 1v2h2v-2a3 3 0 0 0-3-3z" fill="currentColor"/><path d="M18 18a4 4 0 1 0 4-4a4 4 0 0 0-4 4zm6 0a2 2 0 1 1-2-2a2 2 0 0 1 2 2z" fill="currentColor"/><path d="M10 18.59L7.41 16L6 17.41l4 4l7-7L15.59 13L10 18.59z" fill="currentColor"/><path d="M14 26H4V6h7.172l3.414 3.414l.586.586H28v8h2v-8a2 2 0 0 0-2-2H16l-3.414-3.414A2 2 0 0 0 11.172 4H4a2 2 0 0 0-2 2v20a2 2 0 0 0 2 2h10z" fill="currentColor"/></svg>