<svg xmlns="http://www.w3.org/2000/svg" width="1em" height="1em" viewBox="0 0 32 32"><path fill="currentColor" d="M26 16.586V13a9.922 9.922 0 0 0-1.083-4.502L30 3.414L28.586 2L2 28.586L3.414 30l6-6H11v1a5 5 0 0 0 10 0v-1h7a1 1 0 0 0 1-1v-3a1 1 0 0 0-.293-.707zM19 25a3 3 0 0 1-6 0v-1h6zm8-3H11.414l11.998-11.998A7.949 7.949 0 0 1 24 13v4a1 1 0 0 0 .293.707L27 20.414zM7.707 17.707A1 1 0 0 0 8 17v-4a8.01 8.01 0 0 1 8-8a7.925 7.925 0 0 1 4.986 1.768l1.426-1.426A9.934 9.934 0 0 0 17 3.05V1h-2v2.05A10.014 10.014 0 0 0 6 13v3.586l-3 3L4.414 21z"/></svg>