<svg xmlns="http://www.w3.org/2000/svg" width="1em" height="1em" viewBox="0 0 32 32"><path fill="none" d="M15.125 19h1.75v5.5h-1.75ZM17 27a1 1 0 1 0-1 1a1 1 0 0 0 1-1"/><path fill="currentColor" d="m24.908 28.94l-8.076-14.452a.953.953 0 0 0-1.664 0L7.092 28.94A.712.712 0 0 0 7.713 30h16.574a.712.712 0 0 0 .621-1.06M15.125 19h1.75v5.5h-1.75ZM16 28a1 1 0 1 1 1-1a1 1 0 0 1-1 1"/><path fill="currentColor" d="M24.8 9.136a8.994 8.994 0 0 0-17.6 0a6.493 6.493 0 0 0 .915 12.845L9.222 20H8.5a4.48 4.48 0 0 1-3.37-7.456l5.298 5.297l1.013-1.814l-4.66-4.66a4.402 4.402 0 0 1 1.363-.348l.816-.064l.099-.812c.023-.194.058-.385.097-.573l3.78 3.78l1.014-1.814l-4.014-4.014a7.021 7.021 0 0 1 1.975-2.197L25.886 19.3a4.46 4.46 0 0 1-2.386.7h-.724l1.107 1.98a6.493 6.493 0 0 0 .918-12.844Zm2.5 8.75L13.782 4.368a6.974 6.974 0 0 1 9.16 5.775l.099.812l.815.064A4.517 4.517 0 0 1 28 15.5a4.46 4.46 0 0 1-.7 2.386"/></svg>