<svg xmlns="http://www.w3.org/2000/svg" width="1em" height="1em" viewBox="0 0 32 32"><path fill="currentColor" d="M26 19c-2.206 0-4 1.794-4 4c0 .684.188 1.317.492 1.88A10.988 10.988 0 0 1 16 27C9.935 27 5 22.065 5 16H3c0 7.168 5.832 13 13 13a12.98 12.98 0 0 0 7.843-2.642A3.967 3.967 0 0 0 26 27c2.206 0 4-1.794 4-4s-1.794-4-4-4m0 6c-1.103 0-2-.897-2-2s.897-2 2-2s2 .898 2 2s-.897 2-2 2M16 3a12.98 12.98 0 0 0-7.843 2.642A3.967 3.967 0 0 0 6 5C3.794 5 2 6.794 2 9s1.794 4 4 4s4-1.794 4-4c0-.684-.188-1.317-.492-1.88A10.988 10.988 0 0 1 16 5c6.065 0 11 4.935 11 11h2c0-7.168-5.832-13-13-13M6 11c-1.103 0-2-.897-2-2s.897-2 2-2s2 .898 2 2s-.897 2-2 2"/></svg>