<svg xmlns="http://www.w3.org/2000/svg" width="1em" height="1em" viewBox="0 0 32 32"><path fill="currentColor" d="M30 19a4.974 4.974 0 0 0-3.206-4.658A6.971 6.971 0 0 0 13.758 12.9a13.142 13.142 0 0 1 .131-8.52A1.015 1.015 0 0 0 12.98 3a.983.983 0 0 0-.175.016a13.096 13.096 0 0 0 1.825 25.981c.164.006.328 0 .49 0a13.041 13.041 0 0 0 10.29-5.038A4.99 4.99 0 0 0 30 19m-15.297 7.998a11.095 11.095 0 0 1-3.2-21.584a15.182 15.182 0 0 0 .844 9.367A4.988 4.988 0 0 0 15 24h7.677a11.1 11.1 0 0 1-7.556 2.998c-.138 0-.278.004-.418 0M25 22H15a2.995 2.995 0 0 1-.696-5.908l.658-.157l.099-.67a4.992 4.992 0 0 1 9.878 0l.099.67l.658.157A2.995 2.995 0 0 1 25 22"/></svg>