<svg xmlns="http://www.w3.org/2000/svg" width="1em" height="1em" viewBox="0 0 32 32"><path fill="currentColor" d="M26 18c-1.858 0-3.41 1.28-3.858 3h-2.728L14 15.586A1.986 1.986 0 0 0 12.586 15H2v2h10.586L18 22.414c.378.378.88.586 1.414.586h2.728c.447 1.72 2 3 3.858 3c2.206 0 4-1.794 4-4s-1.794-4-4-4m0 6c-1.103 0-2-.897-2-2s.897-2 2-2s2 .898 2 2s-.897 2-2 2m0-18c-1.858 0-3.41 1.28-3.858 3h-2.728c-.534 0-1.036.208-1.414.586l-3.586 3.586l1.414 1.414L19.414 11h2.728c.447 1.72 2 3 3.858 3c2.206 0 4-1.794 4-4s-1.794-4-4-4m0 6c-1.103 0-2-.897-2-2s.897-2 2-2s2 .898 2 2s-.897 2-2 2"/></svg>