<svg xmlns="http://www.w3.org/2000/svg" width="1em" height="1em" viewBox="0 0 32 32"><path fill="currentColor" d="m21.677 14l-1.245-3.114A2.986 2.986 0 0 0 17.646 9h-4.092a3.002 3.002 0 0 0-1.544.428L7 12.434V18h2v-4.434l3-1.8v11.931l-3.462 5.194L10.202 30L14 24.303V11h3.646a.995.995 0 0 1 .928.629L20.323 16H26v-2Z"/><path fill="currentColor" d="M17.051 18.316L19 24.162V30h2v-6.162l-2.051-6.154zM16.5 8A3.5 3.5 0 1 1 20 4.5A3.504 3.504 0 0 1 16.5 8m0-5A1.5 1.5 0 1 0 18 4.5A1.502 1.502 0 0 0 16.5 3"/></svg>