<svg xmlns="http://www.w3.org/2000/svg" width="1em" height="1em" viewBox="0 0 32 32"><path fill="currentColor" d="M10 31H6a2.006 2.006 0 0 1-2-2v-7a2.006 2.006 0 0 1-2-2v-6a2.947 2.947 0 0 1 3-3h6a2.947 2.947 0 0 1 3 3v6a2.006 2.006 0 0 1-2 2v7a2.006 2.006 0 0 1-2 2M5 13a.945.945 0 0 0-1 1v6h2v9h4v-9h2v-6a.945.945 0 0 0-1-1zm3-3a4 4 0 1 1 4-4a4.005 4.005 0 0 1-4 4m0-6a2 2 0 1 0 2 2a2.002 2.002 0 0 0-2-2m20.766.256A4.212 4.212 0 0 0 23 4.032a4.212 4.212 0 0 0-5.766.224a4.319 4.319 0 0 0 0 6.044l5.764 5.84l.002-.002l.002.001l5.764-5.839a4.319 4.319 0 0 0 0-6.044m-1.424 4.639l-4.34 4.397L23 13.29l-.002.002l-4.34-4.397a2.309 2.309 0 0 1 0-3.234a2.264 2.264 0 0 1 3.156 0l1.181 1.207l.005-.005l.005.005l1.18-1.207a2.264 2.264 0 0 1 3.157 0a2.309 2.309 0 0 1 0 3.234"/></svg>