<svg xmlns="http://www.w3.org/2000/svg" width="1em" height="1em" viewBox="0 0 32 32"><path d="M11 29h2v3h-2z" fill="currentColor"/><path d="M11 8h2v3h-2z" fill="currentColor"/><path d="M0 19h3v2H0z" fill="currentColor"/><path d="M21 19h3v2h-3z" fill="currentColor"/><path d="M2.82 12.233l1.4-1.4l2.122 2.122l-1.4 1.4z" fill="currentColor"/><path d="M17.674 27.066l1.4-1.4l2.122 2.121l-1.4 1.4z" fill="currentColor"/><path d="M2.83 27.79l2.122-2.12l1.4 1.4l-2.121 2.121z" fill="currentColor"/><path d="M17.664 12.937l2.121-2.121l1.4 1.4l-2.121 2.121z" fill="currentColor"/><path d="M12 13a7 7 0 1 0 7 7a7 7 0 0 0-7-7zm0 12a5 5 0 0 1 0-10z" fill="currentColor"/><path d="M2 2h7V0H0v9h2V2z" fill="currentColor"/><path d="M30 0h-4a2 2 0 0 0-2 2v10a2 2 0 0 0 2 2h4a2 2 0 0 0 2-2V2a2 2 0 0 0-2-2zm-4 12V2h4v10z" fill="currentColor"/></svg>