<svg xmlns="http://www.w3.org/2000/svg" width="1em" height="1em" viewBox="0 0 32 32"><path fill="currentColor" d="m20.333 21.482l2.24-2.24a2.167 2.167 0 0 1 2.337-.48l2.728 1.092A2.167 2.167 0 0 1 29 21.866v4.961a2.167 2.167 0 0 1-2.284 2.169C7.594 27.806 3.732 11.61 3.015 5.408A2.162 2.162 0 0 1 5.169 3h4.873a2.167 2.167 0 0 1 2.012 1.362l1.091 2.728a2.167 2.167 0 0 1-.48 2.337l-2.24 2.24s1.242 8.732 9.908 9.815"/><path fill="currentColor" d="M24.41 9L28 5.41L26.59 4L23 7.59L19.41 4L18 5.41L21.59 9L18 12.59L19.41 14L23 10.41L26.59 14L28 12.59z"/></svg>