<svg xmlns="http://www.w3.org/2000/svg" width="1em" height="1em" viewBox="0 0 32 32"><path fill="currentColor" d="M31 17c0-1.654-1.346-3-3-3s-3 1.346-3 3c0 1.302.838 2.401 2 2.815v2.61l-11 6.417L5.985 23L28.504 9.864a1 1 0 0 0 0-1.728l-12-7a1 1 0 0 0-1.008 0l-12 7A1 1 0 0 0 3 9v3.185A2.995 2.995 0 0 0 1 15c0 1.654 1.346 3 3 3s3-1.346 3-3a2.996 2.996 0 0 0-2-2.816v-2.61l11-6.416L26.015 9L3.496 22.136a1 1 0 0 0 0 1.728l12 7a1 1 0 0 0 1.008 0l12-7A1 1 0 0 0 29 23v-3.184A2.996 2.996 0 0 0 31 17M4 16a1.001 1.001 0 0 1 0-2a1.001 1.001 0 0 1 0 2m24 2a1.001 1.001 0 0 1 0-2a1.001 1.001 0 0 1 0 2"/></svg>