<svg xmlns="http://www.w3.org/2000/svg" width="1em" height="1em" viewBox="0 0 32 32"><path fill="currentColor" d="M31.5 23c-.827 0-1.5-.673-1.5-1.5V20c0-1.102-.897-2-2-2h-2v2h2v1.5c0 .98.407 1.864 1.058 2.5A3.485 3.485 0 0 0 28 26.5V28h-2v2h2c1.103 0 2-.897 2-2v-1.5c0-.827.673-1.5 1.5-1.5h.5v-2zM16 20v1.5c0 .827-.673 1.5-1.5 1.5H14v2h.5c.827 0 1.5.673 1.5 1.5V28c0 1.103.897 2 2 2h2v-2h-2v-1.5c0-.98-.407-1.864-1.058-2.5A3.485 3.485 0 0 0 18 21.5V20h2v-2h-2c-1.103 0-2 .898-2 2m12-5h2V5c0-1.103-.897-2-2-2h-3v2h3z"/><circle cx="23" cy="13" r="2" fill="currentColor"/><circle cx="16" cy="13" r="2" fill="currentColor"/><circle cx="9" cy="13" r="2" fill="currentColor"/><path fill="currentColor" d="M7 23H4c-1.103 0-2-.897-2-2V5c0-1.103.897-2 2-2h3v2H4v16h3z"/></svg>