<svg xmlns="http://www.w3.org/2000/svg" width="1em" height="1em" viewBox="0 0 32 32"><path fill="currentColor" d="M22 20h8v2h-8zm0 4h8v2h-8zm0 4h8v2h-8zm-4-4h2v2h-2zm0-4h2v2h-2zm0 8h2v2h-2zM6.815 8.293a12.078 12.078 0 0 1 3.192-2.673l-1-1.73a14.085 14.085 0 0 0-3.723 3.118zm18.37 0l1.53-1.285a14.085 14.085 0 0 0-3.723-3.118l-.999 1.73a12.078 12.078 0 0 1 3.192 2.673M4.737 11.9l-1.878-.683A13.902 13.902 0 0 0 2 16h2a11.917 11.917 0 0 1 .737-4.1m2.078 11.807A11.998 11.998 0 0 1 4.737 20.1l-1.878.683a13.99 13.99 0 0 0 2.425 4.21zM27.263 11.9A11.917 11.917 0 0 1 28 16h2a13.897 13.897 0 0 0-.86-4.783zM13.918 27.807a11.89 11.89 0 0 1-3.911-1.427l-1 1.73a13.867 13.867 0 0 0 4.564 1.664zm0-23.614a11.301 11.301 0 0 1 4.164 0l.347-1.967a13.187 13.187 0 0 0-4.858 0z"/></svg>