<svg xmlns="http://www.w3.org/2000/svg" width="1em" height="1em" viewBox="0 0 32 32"><path fill="currentColor" d="M30 3.415L28.585 2L17.293 13.293a1 1 0 1 0 1.414 1.414l3.455-3.455A4.982 4.982 0 0 1 18 19a5.039 5.039 0 0 1-.607-.05a8.043 8.043 0 0 0-4.342-4.342A4.9 4.9 0 0 1 18 9V7a7.008 7.008 0 0 0-7 7c0 .023.006.047.006.07A8.047 8.047 0 0 0 10 14a7.95 7.95 0 0 0-1.988.26C8.009 14.173 8 14.088 8 14A10.011 10.011 0 0 1 18 4V2A12.014 12.014 0 0 0 6 14c0 .355.017.706.047 1.054a7.994 7.994 0 1 0 10.9 10.898c.35.03.701.048 1.053.048a11.985 11.985 0 0 0 9.154-19.74ZM15.91 21h-1.954a12.029 12.029 0 0 0-1.218-4.332A6.01 6.01 0 0 1 15.91 21M4.09 23h1.954a12.032 12.032 0 0 0 1.218 4.333A6.01 6.01 0 0 1 4.09 23m1.953-2H4.09a6.01 6.01 0 0 1 3.171-4.332A12.032 12.032 0 0 0 6.043 21M10 27.986A10.015 10.015 0 0 1 8.055 23h3.89A10.015 10.015 0 0 1 10 27.986M8.055 21A10.012 10.012 0 0 1 10 16.015A10.01 10.01 0 0 1 11.945 21Zm4.683 6.333A12.032 12.032 0 0 0 13.957 23h1.953a6.01 6.01 0 0 1-3.172 4.333M28 14a10.011 10.011 0 0 1-10 10c-.087 0-.173-.01-.26-.012a7.553 7.553 0 0 0 .19-2.994c.024 0 .047.006.07.006a7 7 0 0 0 5.605-11.191l2.132-2.132A9.95 9.95 0 0 1 28 14"/></svg>