<svg xmlns="http://www.w3.org/2000/svg" width="1em" height="1em" viewBox="0 0 32 32"><path fill="currentColor" d="M30 3.415L28.585 2L17.293 13.293a1 1 0 1 0 1.414 1.414l3.455-3.455a4.965 4.965 0 0 1-3.881 7.72a7.049 7.049 0 0 0-5.144-3.873A4.943 4.943 0 0 1 18 9V7a6.955 6.955 0 0 0-6.909 8.08a6.93 6.93 0 0 0-2.852 1.06A9.97 9.97 0 0 1 18 4V2A11.976 11.976 0 0 0 6.573 17.636a6.93 6.93 0 0 0-1.367 2.706A4.995 4.995 0 0 0 7 30h10a4.992 4.992 0 0 0 4.968-4.68A12.04 12.04 0 0 0 30 14a11.868 11.868 0 0 0-2.839-7.747ZM17 28H7a2.995 2.995 0 0 1-.696-5.908l.658-.157l.099-.67a4.992 4.992 0 0 1 9.878 0l.099.67l.658.156A2.995 2.995 0 0 1 17 28m11-14a10.035 10.035 0 0 1-6.312 9.291a4.958 4.958 0 0 0-2.02-2.5a6.992 6.992 0 0 0 3.938-10.982l2.131-2.132A9.887 9.887 0 0 1 28 14"/></svg>