<svg xmlns="http://www.w3.org/2000/svg" width="1em" height="1em" viewBox="0 0 32 32"><path fill="currentColor" d="M11 30a1 1 0 0 1-.894-1.447l2-4a1 1 0 1 1 1.788.894l-2 4A.998.998 0 0 1 11 30"/><path fill="currentColor" d="M24.8 9.136a8.994 8.994 0 0 0-17.6 0A6.497 6.497 0 0 0 8.5 22h10.881l-1.276 2.553a1 1 0 0 0 1.789.894L21.618 22H23.5a6.497 6.497 0 0 0 1.3-12.864M23.5 20h-15a4.498 4.498 0 0 1-.356-8.981l.816-.064l.099-.812a6.994 6.994 0 0 1 13.883 0l.099.812l.815.064A4.498 4.498 0 0 1 23.5 20"/></svg>