<svg xmlns="http://www.w3.org/2000/svg" width="1em" height="1em" viewBox="0 0 32 32"><path fill="currentColor" d="M14 12a3.898 3.898 0 0 1-4-3.777a3.902 3.902 0 0 1 .653-2.064l2.517-3.745a1.038 1.038 0 0 1 1.66 0l2.485 3.696A3.97 3.97 0 0 1 18 8.223A3.898 3.898 0 0 1 14 12m0-7.237l-1.656 2.463a1.89 1.89 0 0 0-.344.997A1.9 1.9 0 0 0 14 10a1.9 1.9 0 0 0 2-1.777a1.98 1.98 0 0 0-.375-1.047zM7.5 26A5.385 5.385 0 0 1 2 20.751a5.384 5.384 0 0 1 .874-2.831l3.616-5.382a1.217 1.217 0 0 1 2.02 0l3.55 5.277a5.492 5.492 0 0 1 .94 2.936A5.385 5.385 0 0 1 7.5 26m0-11.38l-2.935 4.367A3.359 3.359 0 0 0 4 20.75A3.386 3.386 0 0 0 7.5 24a3.386 3.386 0 0 0 3.5-3.249a3.435 3.435 0 0 0-.63-1.867zM25 2l-5 5l1.414 1.414L24 5.828V16a4.005 4.005 0 0 1-4 4h-4v2h4a6.007 6.007 0 0 0 6-6V5.828l2.586 2.586L30 7zM2 28h28v2H2z"/></svg>