<svg xmlns="http://www.w3.org/2000/svg" width="1em" height="1em" viewBox="0 0 32 32"><circle cx="18" cy="26" r="1" fill="currentColor"/><path fill="currentColor" d="M28 20c1.103 0 2-.897 2-2v-4c0-1.102-.897-2-2-2h-1V7c0-1.102-.897-2-2-2h-5V4c0-1.102-.897-2-2-2h-4c-1.103 0-2 .898-2 2v1H7c-1.103 0-2 .898-2 2v5.142c-1.72.447-3 2-3 3.858s1.28 3.41 3 3.858V25c0 1.103.897 2 2 2h7v1c0 1.103.897 2 2 2h12c1.103 0 2-.897 2-2v-4c0-1.102-.897-2-2-2h-1v-2zm0-2h-4v-4h4zM14 4h4v4h-4zm-2 3v1c0 1.103.897 2 2 2h4c1.103 0 2-.897 2-2V7h5v5h-1c-1.103 0-2 .898-2 2v1H9.858A3.994 3.994 0 0 0 7 12.142V7zm-8 9c0-1.102.897-2 2-2s2 .898 2 2s-.897 2-2 2s-2-.897-2-2m24 12H16v-4h12zm-3-6h-9c-1.103 0-2 .898-2 2v1H7v-5.142A3.994 3.994 0 0 0 9.858 17H22v1c0 1.103.897 2 2 2h1z"/></svg>