<svg xmlns="http://www.w3.org/2000/svg" width="1em" height="1em" viewBox="0 0 32 32"><path fill="currentColor" d="M16 31h-2v-.228a3.014 3.014 0 0 0-1.947-2.81l-3.532-1.324A3.903 3.903 0 0 1 6 23h2a1.895 1.895 0 0 0 1.224 1.766l3.531 1.324A5.023 5.023 0 0 1 16 30.772zm14 0h-2v-.228a3.014 3.014 0 0 0-1.947-2.81l-3.532-1.324A3.903 3.903 0 0 1 20 23h2a1.895 1.895 0 0 0 1.224 1.766l3.531 1.324A5.023 5.023 0 0 1 30 30.772zM11 13h6v2h-6z"/><path fill="currentColor" d="m23.44 8l-1.27-4.55A2.009 2.009 0 0 0 20.246 2H7.754a2.009 2.009 0 0 0-1.923 1.45L4.531 8H2v2h2v7a2.003 2.003 0 0 0 2 2v2h2v-2h12v2h2v-2a2.003 2.003 0 0 0 2-2v-7h2V8ZM7.755 4h12.492l1.428 5H6.326ZM22 13h-2v2h2v2H6v-2h2v-2H6v-2h16Z"/></svg>