<svg xmlns="http://www.w3.org/2000/svg" width="1em" height="1em" viewBox="0 0 32 32"><path fill="currentColor" d="m21 25l-5 5l-5-5l1.409-1.419L15 26.153V19h2v7.206l2.591-2.625zm3-14l-5 5l5 5l1.419-1.409L22.847 17H30v-2h-7.206l2.625-2.591zM8 11l5 5l-5 5l-1.419-1.409L9.153 17H2v-2h7.206l-2.625-2.591zm4.429-5.177v1.63a1.127 1.127 0 0 1-.677 1.026l-1.39.596a1.122 1.122 0 0 1-1.222-.233L7.32 7.023a1.117 1.117 0 0 1 .013-1.579l.035-.032c7.393-6.527 14.691-2.038 17.213-.048a1.117 1.117 0 0 1 .174 1.57a1.101 1.101 0 0 1-.087.097l-1.757 1.757a1.111 1.111 0 0 1-1.223.233l-1.39-.597a1.111 1.111 0 0 1-.68-1.022v-1.63s-3.645-2.707-7.19.05"/></svg>