<svg xmlns="http://www.w3.org/2000/svg" width="1em" height="1em" viewBox="0 0 32 32"><path fill="currentColor" d="m21.707 20.293l-5-5a.996.996 0 0 0-1.414 0L2 28.586L3.414 30L16 17.414L19.586 21L14 26.586L15.414 28l2.292-2.292l4.001-4.001a.997.997 0 0 0 0-1.414"/><path fill="currentColor" d="M28.586 9L23 14.586l-6.001-6.002A1.994 1.994 0 0 0 15.577 8a1.994 1.994 0 0 0-1.407.584L8 14.76l1.414 1.414l6.17-6.175l6.71 6.708a.997.997 0 0 0 1.413 0L30 10.414z"/><path fill="currentColor" d="M22.5 9C20.57 9 19 7.43 19 5.5S20.57 2 22.5 2S26 3.57 26 5.5S24.43 9 22.5 9m0-5c-.827 0-1.5.673-1.5 1.5S21.673 7 22.5 7S24 6.327 24 5.5S23.327 4 22.5 4"/></svg>