<svg xmlns="http://www.w3.org/2000/svg" width="1em" height="1em" viewBox="0 0 32 32"><path fill="currentColor" d="M30 6V4h-3V2h-2v2h-1c-1.103 0-2 .898-2 2v2c0 1.103.897 2 2 2h4v2h-6v2h3v2h2v-2h1c1.103 0 2-.897 2-2v-2c0-1.102-.897-2-2-2h-4V6zm-6 14v2h2.586L23 25.586l-2.292-2.293a1 1 0 0 0-.706-.293H20a.997.997 0 0 0-.706.293L14 28.586L15.414 30l4.587-4.586l2.292 2.293a1 1 0 0 0 1.414 0L28 23.414V26h2v-6zM4 30H2v-5c0-3.86 3.14-7 7-7h6c1.989 0 3.89.85 5.217 2.333l-1.49 1.334A5.008 5.008 0 0 0 15 20H9c-2.757 0-5 2.243-5 5zm8-14a7 7 0 1 0 0-14a7 7 0 0 0 0 14m0-12a5 5 0 1 1 0 10a5 5 0 0 1 0-10"/></svg>