<svg xmlns="http://www.w3.org/2000/svg" width="1em" height="1em" viewBox="0 0 32 32"><path fill="currentColor" d="M26.5 12H19a4 4 0 0 1 0-8h.084A4.786 4.786 0 0 1 23 2a4.982 4.982 0 0 1 4.654 3.203A3.467 3.467 0 0 1 30 8.5a3.504 3.504 0 0 1-3.5 3.5M19 6a2 2 0 0 0 0 4h7.5A1.502 1.502 0 0 0 28 8.5a1.486 1.486 0 0 0-1.278-1.474l-.661-.099l-.162-.649a2.957 2.957 0 0 0-5.487-.712L20.114 6zm-6 22v-3.112a7.936 7.936 0 0 0 4.707-2.282a1 1 0 0 0 0-1.414l-4.243-4.242L16 14.414L14.586 13l-2.536 2.536l-4.242-4.243a1 1 0 0 0-1.414 0a8 8 0 0 0 0 11.313c.162.163.332.313.505.46L4.432 28H2v2h28v-2zm-2 0H6.669l1.921-3.843a7.893 7.893 0 0 0 2.41.716zm-3.192-6.808a6.004 6.004 0 0 1-.65-7.72l8.37 8.369a6.003 6.003 0 0 1-7.72-.649"/></svg>