<svg xmlns="http://www.w3.org/2000/svg" width="1em" height="1em" viewBox="0 0 32 32"><path fill="currentColor" d="m22.914 16.5l2.793-2.793a1 1 0 0 0 0-1.414L23.414 10L25.5 7.914L28.586 11L30 9.586L22.414 2L21 3.414L24.086 6.5L22 8.586l-2.293-2.293a1 1 0 0 0-1.414 0L15.5 9.086L8.707 2.293a1 1 0 0 0-1.414 0l-5 5a1 1 0 0 0 0 1.414L9.086 15.5l-2.793 2.793a1 1 0 0 0 0 1.414L8.586 22L6.5 24.086L3.414 21L2 22.414L9.586 30L11 28.586L7.914 25.5L10 23.414l2.293 2.293a1 1 0 0 0 1.414 0l2.793-2.793l6.793 6.793a1 1 0 0 0 1.414 0l5-5a1 1 0 0 0 0-1.414ZM4.414 8L8 4.414L10.086 6.5L6.5 10.086Zm3.5 3.5L11.5 7.914l2.586 2.586l-3.586 3.586ZM13 23.586L8.414 19L19 8.414L23.586 13Zm4.914-2.086l3.586-3.586l2.586 2.586l-3.586 3.586ZM24 27.586L21.914 25.5l3.586-3.586L27.586 24Z"/></svg>