<svg xmlns="http://www.w3.org/2000/svg" width="1em" height="1em" viewBox="0 0 32 32"><path d="M28.828 7.172a4.094 4.094 0 0 0-5.656 0L.343 30H9.59a4.968 4.968 0 0 0 3.536-1.465l15.703-15.707a3.998 3.998 0 0 0 0-5.656zM12.293 20.879l2.086-2.086l2.83 2.83l-2.087 2.085zm-.583 6.242A2.982 2.982 0 0 1 9.589 28H5.17l5.708-5.707l2.83 2.83zm15.704-15.707l-8.792 8.794l-2.83-2.83l8.793-8.792a2.047 2.047 0 0 1 2.829 0a2 2 0 0 1 0 2.828z" fill="currentColor"/><path d="M15 2a2.995 2.995 0 0 0-2.816 2H7.816A2.993 2.993 0 1 0 4 7.815v4.37a3 3 0 1 0 2 0v-4.37A2.996 2.996 0 0 0 7.816 6h4.368A2.995 2.995 0 1 0 15 2zM5 16a1 1 0 1 1 1-1a1 1 0 0 1-1 1zM5 6a1 1 0 1 1 1-1a1 1 0 0 1-1 1zm10 0a1 1 0 1 1 1-1a1 1 0 0 1-1 1z" fill="currentColor"/></svg>