<svg xmlns="http://www.w3.org/2000/svg" width="1em" height="1em" viewBox="0 0 32 32"><path fill="currentColor" d="M20 13a5 5 0 0 0 10 0a1 1 0 0 0-.105-.447l-4-8a1 1 0 0 0-1.211-.502l-6.331 2.11A3.032 3.032 0 0 0 17 5.184V2h-2v3.184a2.995 2.995 0 0 0-1.996 2.76l-6.32 2.107a1 1 0 0 0-.578.501l-4 8A1 1 0 0 0 2 19a5 5 0 0 0 10 0a1 1 0 0 0-.105-.447L8.41 11.584l5.237-1.746a3.029 3.029 0 0 0 1.353.977V28H6v2h20v-2h-9V10.816a2.995 2.995 0 0 0 1.996-2.76l4.03-1.344l-2.92 5.84A1 1 0 0 0 20 13M7 22a2.996 2.996 0 0 1-2.815-2h5.63A2.996 2.996 0 0 1 7 22m2.382-4H4.618L7 13.236ZM16 9a1 1 0 1 1 1-1a1 1 0 0 1-1 1m9 7a2.996 2.996 0 0 1-2.815-2h5.63A2.996 2.996 0 0 1 25 16m0-8.764L27.382 12h-4.764Z"/></svg>