<svg xmlns="http://www.w3.org/2000/svg" width="1em" height="1em" viewBox="0 0 32 32"><path d="M28.828 7.134a4.094 4.094 0 0 0-5.656 0L.343 29.962H9.59a4.968 4.968 0 0 0 3.536-1.465L28.828 12.79a3.998 3.998 0 0 0 0-5.656zM12.293 20.84l2.086-2.086l2.83 2.83l-2.087 2.085zm-.583 6.242a2.982 2.982 0 0 1-2.122.879H5.171l5.708-5.707l2.83 2.83zm15.704-15.707l-8.792 8.794l-2.83-2.83l8.794-8.792a2.047 2.047 0 0 1 2.828 0a2 2 0 0 1 0 2.828z" fill="currentColor"/><path d="M11 2H7a4.984 4.984 0 0 0-3.863 8.153A2.959 2.959 0 0 0 3 11a2.994 2.994 0 0 0 2 2.815V14a2.002 2.002 0 0 1-2 2H2v2h1a4.005 4.005 0 0 0 4-4v-.184A2.996 2.996 0 0 0 8.816 12H11a5 5 0 0 0 0-10zM6 12a1 1 0 1 1 1-1a1 1 0 0 1-1 1zm5-2H8.816a2.974 2.974 0 0 0-4.422-1.525A2.99 2.99 0 0 1 7 4h4a3 3 0 0 1 0 6z" fill="currentColor"/></svg>