<svg xmlns="http://www.w3.org/2000/svg" width="1em" height="1em" viewBox="0 0 32 32"><path fill="currentColor" d="M23 23v3H8.5a4.5 4.5 0 0 1 0-9H9v-2h-.5a6.5 6.5 0 0 0 0 13H23v3h8v-8Zm6 6h-4v-4h4Z"/><path fill="currentColor" d="M21 22h-2v-3h-6v3h-2v-3a2.002 2.002 0 0 1 2-2h6a2.002 2.002 0 0 1 2 2zm-5-6a3 3 0 1 1 3-3a3.003 3.003 0 0 1-3 3m0-4a1 1 0 1 0 1 1a1.001 1.001 0 0 0-1-1"/><path fill="currentColor" d="M23.5 4H9V1H1v8h8V6h14.5a4.5 4.5 0 0 1 0 9H23v2h.5a6.5 6.5 0 0 0 0-13M7 7H3V3h4Z"/></svg>