<svg xmlns="http://www.w3.org/2000/svg" width="1em" height="1em" viewBox="0 0 32 32"><path fill="currentColor" d="M27 19c-.3 0-.7.1-1 .2L20.4 12c1-1.1 1.6-2.5 1.6-4c0-3.3-2.7-6-6-6s-6 2.7-6 6c0 1.6.6 3 1.6 4L6 19.2c-.3-.1-.7-.2-1-.2c-1.7 0-3 1.3-3 3s1.3 3 3 3s3-1.3 3-3c0-.6-.2-1.1-.5-1.6l5.6-7.1c.6.3 1.2.5 1.9.6v10.3c-1.2.4-2 1.5-2 2.8c0 1.7 1.3 3 3 3s3-1.3 3-3c0-1.3-.8-2.4-2-2.8V13.9c.7-.1 1.3-.3 1.9-.6l5.6 7.1c-.3.5-.5 1-.5 1.6c0 1.7 1.3 3 3 3s3-1.3 3-3s-1.3-3-3-3M16 4c2.2 0 4 1.8 4 4s-1.8 4-4 4s-4-1.8-4-4s1.8-4 4-4M5 23c-.6 0-1-.4-1-1s.4-1 1-1s1 .4 1 1s-.4 1-1 1m11 5c-.6 0-1-.4-1-1s.4-1 1-1s1 .4 1 1s-.4 1-1 1m11-5c-.6 0-1-.4-1-1s.4-1 1-1s1 .4 1 1s-.4 1-1 1"/></svg>