<svg xmlns="http://www.w3.org/2000/svg" width="1em" height="1em" viewBox="0 0 32 32"><path fill="currentColor" d="M30 24v-2h-2.101a4.968 4.968 0 0 0-.732-1.753l1.49-1.49l-1.414-1.414l-1.49 1.49A4.968 4.968 0 0 0 24 18.101V16h-2v2.101a4.968 4.968 0 0 0-1.753.732l-1.49-1.49l-1.414 1.414l1.49 1.49A4.968 4.968 0 0 0 18.101 22H16v2h2.101a4.968 4.968 0 0 0 .732 1.753l-1.49 1.49l1.414 1.414l1.49-1.49a4.968 4.968 0 0 0 1.753.732V30h2v-2.101a4.968 4.968 0 0 0 1.753-.732l1.49 1.49l1.414-1.414l-1.49-1.49A4.968 4.968 0 0 0 27.899 24Zm-7 2a3 3 0 1 1 3-3a3.003 3.003 0 0 1-3 3"/><path fill="currentColor" d="m14 26.667l-3.234-1.725A8.986 8.986 0 0 1 6 17V4h20v10h2V4a2.002 2.002 0 0 0-2-2H6a2.002 2.002 0 0 0-2 2v13a10.981 10.981 0 0 0 5.824 9.707L14 28.934Z"/></svg>