<svg xmlns="http://www.w3.org/2000/svg" width="1em" height="1em" viewBox="0 0 32 32"><path fill="currentColor" d="M30 24v-2h-2.101a4.961 4.961 0 0 0-.732-1.753l1.49-1.49l-1.414-1.414l-1.49 1.49A4.961 4.961 0 0 0 24 18.101V16h-2v2.101a4.961 4.961 0 0 0-1.753.732l-1.49-1.49l-1.414 1.414l1.49 1.49A4.961 4.961 0 0 0 18.101 22H16v2h2.101c.13.637.384 1.229.732 1.753l-1.49 1.49l1.414 1.414l1.49-1.49a4.961 4.961 0 0 0 1.753.732V30h2v-2.101a4.961 4.961 0 0 0 1.753-.732l1.49 1.49l1.414-1.414l-1.49-1.49A4.961 4.961 0 0 0 27.899 24zm-7 2c-1.654 0-3-1.346-3-3s1.346-3 3-3s3 1.346 3 3s-1.346 3-3 3M12 6h4v2h-4z"/><path fill="currentColor" d="M6 28V4h16v9h2V4c0-1.103-.897-2-2-2H6c-1.103 0-2 .897-2 2v24c0 1.103.897 2 2 2h8v-2z"/></svg>