<svg xmlns="http://www.w3.org/2000/svg" width="1em" height="1em" viewBox="0 0 32 32"><path fill="currentColor" d="M16 22a6 6 0 1 1 6-6a5.936 5.936 0 0 1-6 6m0-10a3.912 3.912 0 0 0-4 4a3.912 3.912 0 0 0 4 4a3.912 3.912 0 0 0 4-4a3.912 3.912 0 0 0-4-4"/><path fill="currentColor" d="m29.305 11.044l-2.36-4.088a1.998 1.998 0 0 0-2.374-.894l-2.434.823a11.042 11.042 0 0 0-1.312-.758l-.503-2.519A2 2 0 0 0 18.36 2h-4.72a2 2 0 0 0-1.962 1.608l-.503 2.519a10.967 10.967 0 0 0-1.327.753l-2.42-.818a1.998 1.998 0 0 0-2.372.894l-2.36 4.088a2 2 0 0 0 .411 2.503l1.931 1.696C5.021 15.495 5 15.745 5 16c0 .258.01.513.028.766l-1.92 1.688a2 2 0 0 0-.413 2.502l2.36 4.088a1.998 1.998 0 0 0 2.374.895l2.434-.824a10.974 10.974 0 0 0 1.312.759l.503 2.518A2 2 0 0 0 13.64 30H18v-2h-4.36l-.71-3.55a9.095 9.095 0 0 1-2.695-1.572l-3.447 1.166l-2.36-4.088l2.725-2.395a8.926 8.926 0 0 1-.007-3.128l-2.718-2.389l2.36-4.088l3.427 1.16A9.03 9.03 0 0 1 12.93 7.55L13.64 4h4.72l.71 3.55a9.098 9.098 0 0 1 2.695 1.572l3.447-1.166l2.36 4.088l-2.798 2.452L26.092 16l2.8-2.454a2 2 0 0 0 .413-2.502"/><path fill="currentColor" d="m23 26.18l-2.59-2.59L19 25l4 4l7-7l-1.41-1.41z"/></svg>