<svg xmlns="http://www.w3.org/2000/svg" width="1em" height="1em" viewBox="0 0 32 32"><path fill="currentColor" d="M27.001 28a.998.998 0 0 1-.8-.4l-.815-1.086a8.998 8.998 0 0 1-1.6-7.286l1.473-6.876a6.996 6.996 0 0 0-1.245-5.667L23.2 5.6a1 1 0 1 1 1.6-1.2l.815 1.086a8.998 8.998 0 0 1 1.6 7.285l-1.474 6.876a6.996 6.996 0 0 0 1.245 5.667L27.8 26.4a1 1 0 0 1-.799 1.6m-5 0a.998.998 0 0 1-.8-.4l-.815-1.086a8.998 8.998 0 0 1-1.6-7.286l1.473-6.876a6.996 6.996 0 0 0-1.245-5.667L18.2 5.6a1 1 0 1 1 1.6-1.2l.815 1.086a8.998 8.998 0 0 1 1.6 7.285l-1.474 6.876a6.996 6.996 0 0 0 1.245 5.667L22.8 26.4a1 1 0 0 1-.799 1.6m-5 0a.998.998 0 0 1-.8-.4l-.815-1.086a8.998 8.998 0 0 1-1.6-7.286l1.473-6.876a6.996 6.996 0 0 0-1.245-5.667L13.2 5.6a1 1 0 1 1 1.6-1.2l.814 1.086a8.998 8.998 0 0 1 1.601 7.285l-1.474 6.876a6.996 6.996 0 0 0 1.245 5.667L17.8 26.4a1 1 0 0 1-.799 1.6m-5 0a.998.998 0 0 1-.8-.4l-.815-1.086a8.998 8.998 0 0 1-1.6-7.286l1.473-6.876a6.996 6.996 0 0 0-1.245-5.666L8.2 5.6a1 1 0 1 1 1.6-1.2l.815 1.086a8.998 8.998 0 0 1 1.6 7.285l-1.474 6.876a6.996 6.996 0 0 0 1.245 5.667L12.8 26.4a1 1 0 0 1-.799 1.6m-5 0a.998.998 0 0 1-.801-.4l-.814-1.086a8.998 8.998 0 0 1-1.6-7.286l1.473-6.876a6.996 6.996 0 0 0-1.245-5.666L3.2 5.6a1 1 0 1 1 1.6-1.2l.815 1.086a8.998 8.998 0 0 1 1.6 7.285l-1.474 6.876a6.996 6.996 0 0 0 1.245 5.667L7.8 26.4a1 1 0 0 1-.799 1.6"/></svg>