<svg xmlns="http://www.w3.org/2000/svg" width="1em" height="1em" viewBox="0 0 32 32"><path fill="currentColor" d="M23.5 22h-15A6.5 6.5 0 0 1 7.2 9.14a9 9 0 0 1 17.6 0A6.5 6.5 0 0 1 23.5 22M16 4a7 7 0 0 0-6.94 6.14L9 11h-.86a4.5 4.5 0 0 0 .36 9h15a4.5 4.5 0 0 0 .36-9H23l-.1-.82A7 7 0 0 0 16 4m-4 21.05L10.95 24L9.5 25.45L8.05 24L7 25.05l1.45 1.45L7 27.95L8.05 29l1.45-1.45L10.95 29L12 27.95l-1.45-1.45zm14 0L24.95 24l-1.45 1.45L22.05 24L21 25.05l1.45 1.45L21 27.95L22.05 29l1.45-1.45L24.95 29L26 27.95l-1.45-1.45zm-7 2L17.95 26l-1.45 1.45L15.05 26L14 27.05l1.45 1.45L14 29.95L15.05 31l1.45-1.45L17.95 31L19 29.95l-1.45-1.45z"/></svg>