<svg xmlns="http://www.w3.org/2000/svg" width="1em" height="1em" viewBox="0 0 32 32"><path fill="currentColor" d="M13 10h2v2h-2zm2 2h2v2h-2zm2 2h2v2h-2zm0-4h2v2h-2zm-4 4h2v2h-2zM3 26h2v2H3zm2 2h2v2H5zm2 2h2v2H7zm0-4h2v2H7zm-4 4h2v2H3zm20-4h2v2h-2zm2 2h2v2h-2zm2 2h2v2h-2zm0-4h2v2h-2zm-4 4h2v2h-2zM8 18h2v2H8zm2 2h2v2h-2zm2 2h2v2h-2zm0-4h2v2h-2zm-4 4h2v2H8zm10-4h2v2h-2zm2 2h2v2h-2zm2 2h2v2h-2zm0-4h2v2h-2zm-4 4h2v2h-2zm-5 4h2v2h-2zm2 2h2v2h-2zm2 2h2v2h-2zm0-4h2v2h-2zm-4 4h2v2h-2z"/><path fill="currentColor" d="M24.8 9.136a8.994 8.994 0 0 0-17.6 0A6.496 6.496 0 0 0 6 21.5v-2.26a4.494 4.494 0 0 1 2.144-8.22l.816-.064l.099-.812a6.994 6.994 0 0 1 13.883 0l.099.812l.815.064A4.494 4.494 0 0 1 26 19.239v2.26a6.496 6.496 0 0 0-1.2-12.363"/></svg>