<svg xmlns="http://www.w3.org/2000/svg" width="1em" height="1em" viewBox="0 0 32 32"><path fill="currentColor" d="M2 26h2v2H2zm2 2h2v2H4zm2 2h2v2H6zm0-4h2v2H6zm-4 4h2v2H2zm18-4h2v2h-2zm2 2h2v2h-2zm2 2h2v2h-2zm0-4h2v2h-2zm-4 4h2v2h-2zm-9-4h2v2h-2zm2 2h2v2h-2zm2 2h2v2h-2zm0-4h2v2h-2zm-4 4h2v2h-2zm18.844-16.965a1.517 1.517 0 0 0-1.23-.866a5.355 5.355 0 0 1-3.41-1.716a6.466 6.466 0 0 1-1.286-6.392a1.603 1.603 0 0 0-.299-1.546a1.454 1.454 0 0 0-1.36-.493l-.019.003A7.769 7.769 0 0 0 16.356 7.6A7.37 7.37 0 0 0 13.5 7a7.551 7.551 0 0 0-7.15 5.244A5.993 5.993 0 0 0 8 24h11a6.007 6.007 0 0 0 6-6c0-.057-.012-.111-.014-.168a7.508 7.508 0 0 0 4.761-3.277a1.537 1.537 0 0 0 .097-1.52M19 22H8a3.993 3.993 0 0 1-.673-7.93l.663-.112l.145-.656a5.496 5.496 0 0 1 10.73 0l.145.656l.663.113A3.993 3.993 0 0 1 19 22m5.597-6.129a5.966 5.966 0 0 0-3.948-3.627a7.49 7.49 0 0 0-2.489-3.58a5.902 5.902 0 0 1 3.638-4.447a8.458 8.458 0 0 0 1.94 7.597a7.4 7.4 0 0 0 3.902 2.227a5.449 5.449 0 0 1-3.043 1.83"/></svg>