<svg xmlns="http://www.w3.org/2000/svg" width="1em" height="1em" viewBox="0 0 32 32"><path fill="currentColor" d="M2 26h2v2H2zm2 2h2v2H4zm2 2h2v2H6zm0-4h2v2H6zm-4 4h2v2H2zm18-4h2v2h-2zm2 2h2v2h-2zm2 2h2v2h-2zm0-4h2v2h-2zm-4 4h2v2h-2zm-9-4h2v2h-2zm2 2h2v2h-2zm2 2h2v2h-2zm0-4h2v2h-2zm-4 4h2v2h-2zm9-30h2v3h-2zm9 10.001h3v2h-3zm-2.536-4.879L28.586 3L30 4.414l-2.122 2.122zM28.586 19l-2.122-2.12l1.414-1.415L30 17.587zM14.122 6.536L12 4.414L13.414 3l2.122 2.122z"/><path fill="currentColor" d="M27 11a5.985 5.985 0 0 0-10.857-3.492A7.374 7.374 0 0 0 13.5 7a7.551 7.551 0 0 0-7.15 5.244A5.993 5.993 0 0 0 8 24h11a5.967 5.967 0 0 0 5.567-8.2A5.972 5.972 0 0 0 27 11m-8 11H8a3.993 3.993 0 0 1-.673-7.93l.663-.112l.145-.656a5.496 5.496 0 0 1 10.73 0l.145.656l.663.113A3.993 3.993 0 0 1 19 22m4.522-7.913a5.96 5.96 0 0 0-2.873-1.843a7.521 7.521 0 0 0-2.722-3.78a3.987 3.987 0 1 1 5.595 5.623"/></svg>