<svg xmlns="http://www.w3.org/2000/svg" width="1em" height="1em" viewBox="0 0 32 32"><path d="M25.14 23.764l1.532 1.285a13.976 13.976 0 0 0 2.441-4.182l-1.878-.683a11.973 11.973 0 0 1-2.094 3.58z" fill="currentColor"/><path d="M18 27.81l.413 1.968a13.889 13.889 0 0 0 4.541-1.638L22 26.409a12.52 12.52 0 0 1-4 1.401z" fill="currentColor"/><path d="M10 26.409L9 28.14a14.14 14.14 0 0 0 4.587 1.638l.347-1.967A12.152 12.152 0 0 1 10 26.409z" fill="currentColor"/><path d="M4.765 20.184l-1.878.683a13.976 13.976 0 0 0 2.44 4.182l1.532-1.285a11.973 11.973 0 0 1-2.094-3.58z" fill="currentColor"/><path d="M16 22a1.5 1.5 0 1 0 1.5 1.5A1.5 1.5 0 0 0 16 22z" fill="currentColor"/><path d="M15 8h2v11h-2z" fill="currentColor"/><path d="M30 16h-2a12 12 0 0 0-24 0H2a14 14 0 0 1 28 0z" fill="currentColor"/></svg>