<svg xmlns="http://www.w3.org/2000/svg" width="1em" height="1em" viewBox="0 0 32 32"><path fill="currentColor" d="M16 2a1 1 0 0 0-.974.771l-1.722 7.322a10.065 10.065 0 1 0 8.603 8.603l7.322-1.722A1 1 0 0 0 30 16A14.016 14.016 0 0 0 16 2m-4.707 18.707A1 1 0 0 0 12 21a1.013 1.013 0 0 0 .229-.026l3.762-.886a3.996 3.996 0 1 1-4.08-4.08l-.885 3.763a1 1 0 0 0 .267.936m2.05-2.05l2.271-9.65a7.502 7.502 0 0 1 7.38 7.38ZM20 20a8 8 0 1 1-8-8a8.102 8.102 0 0 1 .844.047l-.464 1.972c-.127-.008-.253-.019-.38-.019a6 6 0 1 0 6 6c0-.127-.011-.253-.019-.38l1.972-.464A8.105 8.105 0 0 1 20 20m4.97-4.08a9.498 9.498 0 0 0-8.89-8.89l.706-3.005a12.02 12.02 0 0 1 11.189 11.189Z"/></svg>