<svg xmlns="http://www.w3.org/2000/svg" width="1em" height="1em" viewBox="0 0 32 32"><path fill="currentColor" d="M9 10h2v2H9zm0 4h2v2H9zm4-2h2v2h-2z"/><path fill="currentColor" d="M9 28a5.169 5.169 0 0 1-.744-.054A5.094 5.094 0 0 1 4 22.866V11.2a7.162 7.162 0 0 1 6.31-7.166a6.96 6.96 0 0 1 4.464 1.07l7.97 4.981a6.98 6.98 0 0 1-.69 12.19l-10.88 5.229A4.977 4.977 0 0 1 9 28m2.002-22q-.248 0-.5.024A5.146 5.146 0 0 0 6 11.198v11.669a3.084 3.084 0 0 0 2.544 3.1a3.027 3.027 0 0 0 1.762-.265l10.883-5.23a4.98 4.98 0 0 0 .488-8.696l-7.972-4.982A4.969 4.969 0 0 0 11.002 6M26 7h-4a4.005 4.005 0 0 1-4-4V2h2v1a2.002 2.002 0 0 0 2 2h4z"/></svg>