<svg xmlns="http://www.w3.org/2000/svg" width="1em" height="1em" viewBox="0 0 32 32"><circle cx="26" cy="18" r="4" fill="currentColor"/><circle cx="18" cy="26" r="4" fill="currentColor"/><path fill="currentColor" d="M2 28.586L28.586 2L30 3.414L3.414 30zM14 10c-2.206 0-4-1.794-4-4s1.794-4 4-4s4 1.794 4 4s-1.794 4-4 4m0-6c-1.103 0-2 .897-2 2s.897 2 2 2s2-.897 2-2s-.897-2-2-2M6 18c-2.206 0-4-1.794-4-4s1.794-4 4-4s4 1.794 4 4s-1.794 4-4 4m0-6c-1.103 0-2 .897-2 2s.897 2 2 2s2-.897 2-2s-.897-2-2-2"/></svg>