<svg xmlns="http://www.w3.org/2000/svg" width="1em" height="1em" viewBox="0 0 32 32"><path fill="currentColor" d="M30 26h-2a4.932 4.932 0 0 1-4-1.987a5.02 5.02 0 0 1-8 0a5.02 5.02 0 0 1-8 0A4.932 4.932 0 0 1 4 26H2v-2h2a3.44 3.44 0 0 0 3.053-2.321A.971.971 0 0 1 8 21a1.007 1.007 0 0 1 .949.684A3.438 3.438 0 0 0 12 24a3.44 3.44 0 0 0 3.053-2.321A.99.99 0 0 1 16 21a1.007 1.007 0 0 1 .949.684A3.438 3.438 0 0 0 20 24a3.44 3.44 0 0 0 3.053-2.321a1 1 0 0 1 1.896.005A3.438 3.438 0 0 0 28 24h2zm-7-8.414l-8.707-8.707A2.98 2.98 0 0 0 12.171 8H4v2h8.171a.993.993 0 0 1 .708.293L15.586 13L10 18.586L11.414 20L17 14.414L21.586 19zM20 10a4 4 0 1 1 4 4a4.004 4.004 0 0 1-4-4m2 0a2 2 0 1 0 2-2a2.002 2.002 0 0 0-2 2"/></svg>