<svg xmlns="http://www.w3.org/2000/svg" width="1em" height="1em" viewBox="0 0 32 32"><circle cx="24" cy="21" r="2" fill="currentColor"/><path fill="currentColor" d="m24 31l-4.779-6.402A5.935 5.935 0 0 1 18 21a6 6 0 0 1 12 0a5.94 5.94 0 0 1-1.225 3.603Zm0-14a4.005 4.005 0 0 0-4 4a3.957 3.957 0 0 0 .82 2.397l3.18 4.26l3.176-4.255A3.963 3.963 0 0 0 28 21a4.005 4.005 0 0 0-4-4"/><path fill="currentColor" d="M25 5h-3V4a2.006 2.006 0 0 0-2-2h-8a2.006 2.006 0 0 0-2 2v1H7a2.006 2.006 0 0 0-2 2v21a2.006 2.006 0 0 0 2 2h9v-2H7V7h3v3h12V7h3v5h2V7a2.006 2.006 0 0 0-2-2m-5 3h-8V4h8Z"/></svg>