<svg xmlns="http://www.w3.org/2000/svg" width="1em" height="1em" viewBox="0 0 32 32"><path fill="currentColor" d="M26 13h4v2h-4zm-3-5.414l2.828-2.828l1.414 1.414L24.414 9zm0 12.828L24.414 19l2.828 2.828l-1.414 1.414zM17 2h2v4h-2zm1 6a6.037 6.037 0 0 0-1 .09v2.052A3.957 3.957 0 0 1 18 10a4 4 0 0 1 0 8v2a6 6 0 0 0 0-12m-8 12.184V7H8v13.184a3 3 0 1 0 2 0"/><path fill="currentColor" d="M9 30a6.993 6.993 0 0 1-5-11.89V7a5 5 0 0 1 10 0v11.11A6.993 6.993 0 0 1 9 30M9 4a3.003 3.003 0 0 0-3 3v11.983l-.332.299a5 5 0 1 0 6.664 0L12 18.983V7a3.003 3.003 0 0 0-3-3"/></svg>