<svg xmlns="http://www.w3.org/2000/svg" width="1em" height="1em" viewBox="0 0 32 32"><path fill="currentColor" d="M26 30h-4a2.006 2.006 0 0 1-2-2v-7a2.006 2.006 0 0 1-2-2v-6a2.947 2.947 0 0 1 3-3h6a2.947 2.947 0 0 1 3 3v6a2.006 2.006 0 0 1-2 2v7a2.006 2.006 0 0 1-2 2m-5-18a.945.945 0 0 0-1 1v6h2v9h4v-9h2v-6a.945.945 0 0 0-1-1zm3-3a4 4 0 1 1 4-4a4.012 4.012 0 0 1-4 4m0-6a2 2 0 1 0 2 2a2.006 2.006 0 0 0-2-2M10 20.184V12H8v8.184a3 3 0 1 0 2 0"/><path fill="currentColor" d="M9 30a6.993 6.993 0 0 1-5-11.89V7a5 5 0 0 1 10 0v11.11A6.993 6.993 0 0 1 9 30M9 4a3.003 3.003 0 0 0-3 3v11.983l-.332.299a5 5 0 1 0 6.664 0L12 18.983V7a3.003 3.003 0 0 0-3-3"/></svg>