<svg xmlns="http://www.w3.org/2000/svg" width="1em" height="1em" viewBox="0 0 32 32"><path d="M28 12H4a2.002 2.002 0 0 0-2 2v14a2.002 2.002 0 0 0 2 2h24a2.002 2.002 0 0 0 2-2V14a2.003 2.003 0 0 0-2-2zm-8 16h-8v-1a1 1 0 0 1 1-1h6a1 1 0 0 1 1 1zm8 0h-6v-1a3.003 3.003 0 0 0-3-3h-6a3.003 3.003 0 0 0-3 3v1H4V14h24.002z" fill="currentColor"/><path d="M16 23a4 4 0 1 1 4-4a4.004 4.004 0 0 1-4 4zm0-6a2 2 0 1 0 2 2a2.002 2.002 0 0 0-2-2z" fill="currentColor"/><path d="M30 4v4a2.003 2.003 0 0 1-2 2h-4a2.003 2.003 0 0 1-2-2V4a2.003 2.003 0 0 1 2-2h4a2.003 2.003 0 0 1 2 2zm-2 4l.002-4H24v4z" fill="currentColor"/><path d="M20 4v4a2.003 2.003 0 0 1-2 2h-4a2.002 2.002 0 0 1-2-2V4a2.002 2.002 0 0 1 2-2h4a2.003 2.003 0 0 1 2 2zm-2 4l.002-4H14v4z" fill="currentColor"/><path d="M10 4v4a2.002 2.002 0 0 1-2 2H4a2.002 2.002 0 0 1-2-2V4a2.002 2.002 0 0 1 2-2h4a2.002 2.002 0 0 1 2 2zM8 8l.002-4H4v4z" fill="currentColor"/></svg>