<svg xmlns="http://www.w3.org/2000/svg" width="1em" height="1em" viewBox="0 0 32 32"><path fill="currentColor" d="m13.338 30l-1.736-1l2.287-4H10l3.993-7l1.737 1l-2.284 4h3.891z"/><path fill="currentColor" d="M29.844 13.035a1.52 1.52 0 0 0-1.231-.866a5.356 5.356 0 0 1-3.41-1.716A6.465 6.465 0 0 1 23.92 4.06a1.604 1.604 0 0 0-.3-1.546a1.455 1.455 0 0 0-1.36-.492l-.019.004a7.854 7.854 0 0 0-6.105 6.48A7.373 7.373 0 0 0 13.5 8a7.551 7.551 0 0 0-7.15 5.244A5.993 5.993 0 0 0 8 25v-2a3.993 3.993 0 0 1-.673-7.93l.663-.112l.145-.656a5.496 5.496 0 0 1 10.73 0l.145.656l.663.113A3.993 3.993 0 0 1 19 23v2a5.955 5.955 0 0 0 5.88-7.145a7.502 7.502 0 0 0 4.867-3.3a1.537 1.537 0 0 0 .097-1.52m-5.693 2.918a5.966 5.966 0 0 0-3.502-2.709a7.508 7.508 0 0 0-2.62-3.694a6.009 6.009 0 0 1 3.77-5.333a8.458 8.458 0 0 0 1.939 7.596a7.404 7.404 0 0 0 3.902 2.228a5.442 5.442 0 0 1-3.489 1.912"/></svg>