<svg xmlns="http://www.w3.org/2000/svg" width="1em" height="1em" viewBox="0 0 32 32"><path fill="currentColor" d="M21 30a1 1 0 0 1-.894-1.447l2-4a1 1 0 1 1 1.788.894l-2 4A.998.998 0 0 1 21 30M9 32a1 1 0 0 1-.894-1.447l2-4a1 1 0 1 1 1.788.894l-2 4A.998.998 0 0 1 9 32m6.901-1.504l-1.736-.992L17.309 24H11.31l4.855-8.496l1.736.992L14.756 22h6.001zM27.951 15a4.399 4.399 0 0 1 .049.5a4.505 4.505 0 0 1-4.5 4.5H23v2h.5a6.508 6.508 0 0 0 6.5-6.5c0-.17-.031-.333-.044-.5z"/><path fill="none" d="M25.75 8h-1.5V4h1.5ZM25 9a1 1 0 1 0 1 1a1 1 0 0 0-1-1"/><path fill="currentColor" d="M31.912 11.936L25.628.37a.718.718 0 0 0-1.257 0l-6.283 11.564A.72.72 0 0 0 18.72 13h12.56a.72.72 0 0 0 .631-1.065M24.25 4h1.5v4h-1.5zm.75 7a1 1 0 1 1 1-1a1 1 0 0 1-1 1m-16.856.019l.815-.064l.1-.812a6.986 6.986 0 0 1 9.97-5.45L20 2.947a8.978 8.978 0 0 0-12.8 6.19a6.493 6.493 0 0 0 .23 12.767l-1.324 2.649a1 1 0 1 0 1.788.894l2-4a1 1 0 0 0-.447-1.341A.979.979 0 0 0 9 20.01V20h-.5a4.498 4.498 0 0 1-.356-8.981"/></svg>