<svg xmlns="http://www.w3.org/2000/svg" width="1em" height="1em" viewBox="0 0 32 32"><path fill="currentColor" d="M14 7L9 2L4 7l1.413 1.416L8 5.833V14h2V5.833l2.586 2.581zm12.586.586L24 10.167V2h-2v8.167l-2.587-2.583L18 9l5 5l5-5zM20 20a3.438 3.438 0 0 1-3.051-2.316A1.007 1.007 0 0 0 16 17a.99.99 0 0 0-.947.679A3.44 3.44 0 0 1 12 20a3.438 3.438 0 0 1-3.051-2.316A1.007 1.007 0 0 0 8 17a.971.971 0 0 0-.947.679A3.44 3.44 0 0 1 4 20H2v2h2a4.932 4.932 0 0 0 4-1.987a5.02 5.02 0 0 0 8 0A4.932 4.932 0 0 0 20 22h10v-2zm8 8a3.438 3.438 0 0 1-3.051-2.316A1.007 1.007 0 0 0 24 25a.99.99 0 0 0-.947.679A3.44 3.44 0 0 1 20 28a3.438 3.438 0 0 1-3.051-2.316A1.007 1.007 0 0 0 16 25a.971.971 0 0 0-.947.679A3.44 3.44 0 0 1 12 28H2v2h10a4.932 4.932 0 0 0 4-1.987a5.02 5.02 0 0 0 8 0A4.932 4.932 0 0 0 28 30h2v-2z"/></svg>