<svg xmlns="http://www.w3.org/2000/svg" width="1em" height="1em" viewBox="0 0 32 32"><path fill="currentColor" d="M20 24h-2a5 5 0 0 1-10 0H6a7 7 0 0 0 14 0"/><path fill="currentColor" d="M28 14V8a7.009 7.009 0 0 0-7-7h-5a6.146 6.146 0 0 0-4.105 1.566L3.883 9.874a2.999 2.999 0 0 0 3.881 4.55l.001.001L10 12.895V24a3 3 0 0 0 6 0v-5.184a2.939 2.939 0 0 0 3.53-1.217A2.963 2.963 0 0 0 21 18a2.994 2.994 0 0 0 2.53-1.401A2.963 2.963 0 0 0 25 17a3.003 3.003 0 0 0 3-3m-2 0a1 1 0 0 1-2 0v-1h-2v2a1 1 0 0 1-2 0v-2h-2v3a1 1 0 0 1-2 0v-3h-2v11a1 1 0 0 1-2 0V9.105L6.6 12.8a1 1 0 0 1-1.308-1.505l7.95-7.251A4.148 4.148 0 0 1 16 3h5a5.006 5.006 0 0 1 5 5Z"/></svg>