<svg xmlns="http://www.w3.org/2000/svg" width="1em" height="1em" viewBox="0 0 32 32"><path fill="currentColor" d="M26 9.42L24.59 8l-2.585 2.585L22 10.58l-.005.005L19.42 8.01L18 9.42L20.58 12L18 14.58L19.41 16l2.585-2.585l.005.005l.005-.005l2.575 2.575L26 14.58L23.42 12zm-12 8L12.59 16l-2.585 2.585L10 18.58l-.005.005L7.42 16.01L6 17.42L8.58 20L6 22.58L7.41 24l2.585-2.585l.005.005l.005-.005l2.575 2.575L14 22.58L11.42 20zM2 2h2v28H2zm26 0h2v28h-2zM15 2h2v4h-2zm0 8h2v4h-2zm0 8h2v4h-2zm0 8h2v4h-2z"/></svg>