<svg xmlns="http://www.w3.org/2000/svg" width="1em" height="1em" viewBox="0 0 32 32"><path fill="currentColor" d="M2 28h28v2H2zm9.486-14.072l4.242-4.242l1.414 1.414l-4.242 4.242z"/><path fill="currentColor" d="m12.082 23.433l4.116 2.318a2.009 2.009 0 0 0 2.386-.335l8.832-8.832a2.009 2.009 0 0 0 .334-2.386l-2.298-4.136l1.79-1.79l-1.414-1.414l-1.414 1.414l-4.95-4.95a2.003 2.003 0 0 0-2.828 0L14.515 1.2L13.1 2.615l2.121 2.121l-8.485 8.486l-2.12-2.122L3.2 12.515l2.121 2.12a2.003 2.003 0 0 0 0 2.83l4.95 4.95l-1.414 1.413l1.414 1.414Zm13.92-8.264l-8.833 8.833l-4.546-2.525l10.854-10.853ZM9.564 18.88l1.414-1.415l-1.414-1.414l-1.414 1.414l-1.415-1.414L18.05 4.736l1.414 1.415l-1.414 1.414l1.414 1.414l1.415-1.414l1.414 1.414l-11.314 11.314Z"/></svg>