<svg xmlns="http://www.w3.org/2000/svg" width="1em" height="1em" viewBox="0 0 32 32"><path fill="currentColor" d="M10 19h8v2h-8zm0-4h12v2H10zm0-4h12v2H10z"/><path fill="currentColor" d="M16 2v2c6.6 0 12 5.4 12 12s-5.4 12-12 12v2c7.7 0 14-6.3 14-14S23.7 2 16 2M8.2 25.1L7 26.7c1.2 1 2.6 1.9 4.2 2.4l.7-1.9c-1.4-.5-2.6-1.2-3.7-2.1m-4-7.1l-2 .4c.3 1.6.9 3.2 1.7 4.6l1.7-1c-.7-1.2-1.2-2.6-1.4-4m1.4-8L3.9 9c-.8 1.4-1.4 3-1.6 4.6l2 .3c.1-1.4.6-2.7 1.3-3.9m6.2-5.2l-.7-1.9C9.6 3.5 8.2 4.3 7 5.3l1.3 1.5c1-.8 2.2-1.5 3.5-2"/></svg>