<svg xmlns="http://www.w3.org/2000/svg" width="1em" height="1em" viewBox="0 0 32 32"><path fill="currentColor" d="M27.949 25.684a1 1 0 0 0-1.896-.005A3.44 3.44 0 0 1 23 28a3.44 3.44 0 0 1-3.053-2.321a1 1 0 0 0-1.896.005A3.438 3.438 0 0 1 15 28h-.434C13.924 26.794 12 22.312 12 12v-.131l1.117.744a6.46 6.46 0 0 1 1.318 1.177l1-1.842a8.447 8.447 0 0 0-1.209-.998L12.802 10h1.531a6.986 6.986 0 0 1 1.994.307l.975-1.795A9.006 9.006 0 0 0 14.333 8h-1.216A7.033 7.033 0 0 1 18 6h.667l1.087-2H18a9.036 9.036 0 0 0-7 3.364A9.036 9.036 0 0 0 4 4H2v2h2a7.03 7.03 0 0 1 4.883 2H7.667a9.06 9.06 0 0 0-5.4 1.8L.4 11.2l1.2 1.6l1.867-1.4a7.04 7.04 0 0 1 4.2-1.4h1.53l-1.424.95A8.457 8.457 0 0 0 4 18h2a6.46 6.46 0 0 1 2.883-5.387L10 11.87V12c0 8.937 1.4 13.754 2.355 16H2v2h13a4.932 4.932 0 0 0 4-1.987a5.02 5.02 0 0 0 8 0a4.996 4.996 0 0 0 3 1.883v-2.084a3.762 3.762 0 0 1-2.051-2.128"/><path fill="none" d="M23.75 10h-1.5V6h1.5ZM23 11a1 1 0 1 0 1 1a1 1 0 0 0-1-1"/><path fill="currentColor" d="M29.912 13.936L23.628 2.37a.718.718 0 0 0-1.256 0l-6.283 11.564A.72.72 0 0 0 16.72 15h12.56a.72.72 0 0 0 .631-1.065M22.25 6h1.5v4h-1.5Zm.75 7a1 1 0 1 1 1-1a1 1 0 0 1-1 1"/></svg>