<svg xmlns="http://www.w3.org/2000/svg" width="1em" height="1em" viewBox="0 0 32 32"><path fill="currentColor" d="M16 21a5 5 0 1 1 5-5a5.006 5.006 0 0 1-5 5m0-8a3 3 0 1 0 3 3a3.003 3.003 0 0 0-3-3"/><path fill="currentColor" d="m22.652 4.182l-2.177 2.514l-1.404 1.621l1.715 1.288A7.936 7.936 0 0 1 23.996 16l.001.058l.002.041c.018.432.241 10.111-14.654 11.722l2.18-2.517l1.404-1.621l-1.715-1.288A7.936 7.936 0 0 1 8.004 16l-.001-.058L8 15.901c-.018-.431-.24-10.094 14.651-11.719M24.998 2l-.05.001C5.254 2.915 6.005 16 6.005 16a9.975 9.975 0 0 0 4.01 7.995l-3.777 4.36A1.004 1.004 0 0 0 7.002 30l.05-.001C26.747 29.085 25.996 16 25.996 16a9.976 9.976 0 0 0-4.009-7.995l3.776-4.36A1.004 1.004 0 0 0 24.998 2"/></svg>