<svg xmlns="http://www.w3.org/2000/svg" width="1em" height="1em" viewBox="0 0 32 32"><path fill="currentColor" d="M10 17a4 4 0 1 1 4-4a4.005 4.005 0 0 1-4 4m0-6a2 2 0 1 0 2 2a2.002 2.002 0 0 0-2-2"/><path fill="currentColor" d="M14.819 6.65c.116-.121 1.864-1.919 2.888-2.943A1 1 0 0 0 17 2C11.812 2 2 4.299 2 13a7.894 7.894 0 0 0 3.181 6.35a370.02 370.02 0 0 1-2.888 2.943A1 1 0 0 0 3 24c5.188 0 15-2.299 15-11a7.893 7.893 0 0 0-3.181-6.35M9.706 20.793a20.94 20.94 0 0 1-4.093.985c.162-.166 2.769-2.905 2.769-2.905l-1.174-.607A5.906 5.906 0 0 1 4 13c0-3.667 2.118-6.289 6.294-7.793a20.94 20.94 0 0 1 4.093-.985c-.227.232-2.77 2.905-2.77 2.905l1.176.607A5.908 5.908 0 0 1 16 13c0 3.667-2.118 6.289-6.293 7.793M30 17l-5-5l-5 5l1.413 1.416L24 15.832V19a9.01 9.01 0 0 1-9 9h-3v2h3a11.013 11.013 0 0 0 11-11v-3.168l2.586 2.582z"/></svg>