<svg xmlns="http://www.w3.org/2000/svg" width="1em" height="1em" viewBox="0 0 32 32"><path fill="currentColor" d="M16 21a5 5 0 1 1 5-5a5.006 5.006 0 0 1-5 5m0-8a3 3 0 1 0 3 3a3.003 3.003 0 0 0-3-3"/><path fill="currentColor" d="M26.86 12.48a12.928 12.928 0 0 0-4.857-4.999l.442-.459c.82-.848 1.93-1.982 3.262-3.315A1 1 0 0 0 25 2c-.354 0-8.736.049-14.269 4.302a12.15 12.15 0 0 0-3.25 3.696l-.458-.442c-.849-.821-1.983-1.93-3.316-3.263A1 1 0 0 0 2 7c0 .36.05 8.874 4.406 14.402a12.102 12.102 0 0 0 3.592 3.117l-.657.68c-.795.82-1.828 1.874-3.048 3.094A1 1 0 0 0 7 30c.286 0 7.061-.035 12.459-3.105a12.962 12.962 0 0 0 5.06-4.893q.306.294.68.657c.82.795 1.874 1.828 3.094 3.048A1 1 0 0 0 30 25c0-.288-.036-7.112-3.14-12.52m-3.03 6.108l-.547 1.367a10.542 10.542 0 0 1-4.813 5.201a24.351 24.351 0 0 1-8.886 2.658c.44-.45 3.828-3.983 3.828-3.983l-1.368-.547a9.802 9.802 0 0 1-4.067-3.12c-2.54-3.224-3.458-7.762-3.79-10.58c.544.534 3.982 3.827 3.982 3.827l.546-1.367a9.857 9.857 0 0 1 3.235-4.156c3.217-2.473 7.68-3.373 10.466-3.701c-.534.544-3.828 3.982-3.828 3.982l1.368.547a10.52 10.52 0 0 1 5.17 4.76a24.29 24.29 0 0 1 2.688 8.94c-.45-.44-3.984-3.828-3.984-3.828"/></svg>