<svg xmlns="http://www.w3.org/2000/svg" width="1em" height="1em" viewBox="0 0 32 32"><path fill="currentColor" d="m26.96 30l-1.921-6.725a1 1 0 0 1 .336-1.056l4.499-3.599l-1.354-5.419l-2.738 3.424A1.003 1.003 0 0 1 25 17h-5v-2h4.52l3.7-4.625a1 1 0 0 1 1.75.383l2 8a.999.999 0 0 1-.344 1.023l-4.48 3.584l1.738 6.086zM23 5.5A3.5 3.5 0 1 1 26.5 9A3.504 3.504 0 0 1 23 5.5m2 0A1.5 1.5 0 1 0 26.5 4A1.502 1.502 0 0 0 25 5.5"/><path fill="currentColor" d="M20.004 19A2.004 2.004 0 0 1 18 16.996v-1.992A2.004 2.004 0 0 1 20.004 13H22v-3H10v3h1.996A2.004 2.004 0 0 1 14 15.004v1.992A2.004 2.004 0 0 1 11.996 19H10v3h12v-3Z"/><path fill="currentColor" d="m5.04 30l1.922-6.725a1.001 1.001 0 0 0-.337-1.056L2.126 18.62l1.355-5.418l2.738 3.423A1.003 1.003 0 0 0 7 17h5v-2H7.48l-3.699-4.625a1 1 0 0 0-1.75.383l-2 8a.999.999 0 0 0 .344 1.023l4.48 3.584l-1.739 6.086zM5.5 9A3.5 3.5 0 1 1 9 5.5A3.504 3.504 0 0 1 5.5 9m0-5A1.5 1.5 0 1 0 7 5.5A1.502 1.502 0 0 0 5.5 4"/></svg>