<svg xmlns="http://www.w3.org/2000/svg" width="1em" height="1em" viewBox="0 0 32 32"><path fill="currentColor" d="M29.985 15.83A14.38 14.38 0 0 0 17 4.046V2h-2v2.046A14.38 14.38 0 0 0 2.015 15.83a1 1 0 0 0 1.495 1.03A4.855 4.855 0 0 1 6 16a4.865 4.865 0 0 1 4.14 2.51a1.04 1.04 0 0 0 1.72 0A5.02 5.02 0 0 1 15 16.126V25.5a2.5 2.5 0 0 1-5 0V25H8v.5a4.5 4.5 0 0 0 9 0v-9.375a5.02 5.02 0 0 1 3.14 2.386a1 1 0 0 0 1.72 0A4.865 4.865 0 0 1 26 16a4.855 4.855 0 0 1 2.49.86a1 1 0 0 0 1.496-1.03ZM6 14a5.408 5.408 0 0 0-1.503.213A12.441 12.441 0 0 1 12.985 6.4a14.516 14.516 0 0 0-3.046 8.934A6.544 6.544 0 0 0 6 14m10 0a6.553 6.553 0 0 0-4.056 1.43c.037-2.22.608-6.49 4.056-9.176c3.43 2.677 4.009 6.95 4.052 9.173A6.553 6.553 0 0 0 16 14m10 0a6.544 6.544 0 0 0-3.939 1.333a14.516 14.516 0 0 0-3.046-8.934a12.441 12.441 0 0 1 8.488 7.814A5.408 5.408 0 0 0 26 14"/></svg>