<svg xmlns="http://www.w3.org/2000/svg" width="1em" height="1em" viewBox="0 0 32 32"><path fill="currentColor" d="M29.391 14.527L17.473 2.609C17.067 2.203 16.533 2 16 2s-1.067.203-1.473.609L2.609 14.527C2.203 14.933 2 15.466 2 16s.203 1.067.609 1.473L14.526 29.39c.407.407.941.61 1.474.61s1.067-.203 1.473-.609L29.39 17.474c.407-.407.61-.94.61-1.474s-.203-1.067-.609-1.473M16 24a1.5 1.5 0 1 1 0-3a1.5 1.5 0 0 1 0 3m1.125-6.752v1.877h-2.25V15H17c1.034 0 1.875-.841 1.875-1.875S18.034 11.25 17 11.25h-2a1.877 1.877 0 0 0-1.875 1.875v.5h-2.25v-.5A4.13 4.13 0 0 1 15 9h2a4.13 4.13 0 0 1 4.125 4.125a4.13 4.13 0 0 1-4 4.123"/><path fill="none" d="M16 21a1.5 1.5 0 1 1-.001 3.001A1.5 1.5 0 0 1 16 21m1.125-3.752a4.13 4.13 0 0 0 4-4.123A4.13 4.13 0 0 0 17 9h-2a4.13 4.13 0 0 0-4.125 4.125v.5h2.25v-.5c0-1.034.841-1.875 1.875-1.875h2c1.034 0 1.875.841 1.875 1.875S18.034 15 17 15h-2.125v4.125h2.25z"/></svg>