<svg xmlns="http://www.w3.org/2000/svg" width="1em" height="1em" viewBox="0 0 32 32"><path fill="currentColor" d="m16 5.912l1.744 2.933l.783 1.315L20 9.749l3.121-.87l-.87 3.121l-.411 1.473l1.315.782L26.088 16l-2.933 1.744l-1.315.782l.411 1.474l.87 3.121l-3.12-.87l-1.474-.411l-.783 1.315L16 26.088l-1.744-2.933l-.783-1.315l-1.473.411l-3.12.87L9.748 20l.41-1.474l-1.314-.782L5.912 16l2.933-1.745l1.315-.782L9.749 12l-.87-3.12L12 9.748l1.474.41l.782-1.314zM16 2l-3.463 5.822L6 6l1.822 6.537L2 16l5.822 3.463L6 26l6.537-1.822L16 30l3.463-5.822L26 26l-1.822-6.537L30 16l-5.822-3.463L26 6l-6.537 1.822z"/></svg>