<svg xmlns="http://www.w3.org/2000/svg" width="1em" height="1em" viewBox="0 0 32 32"><path fill="currentColor" d="m13 8l-5 5l1.41 1.41L12 11.83V28H9v2h3a2.002 2.002 0 0 0 2-2V11.83l2.59 2.58L18 13z"/><path fill="currentColor" d="M22 30h-3a2.002 2.002 0 0 1-2-2V17h6a4 4 0 0 0 3.981-4.396A4.149 4.149 0 0 0 22.785 9h-1.583l-.177-.779C20.452 5.696 18.031 4 15 4a6.02 6.02 0 0 0-5.442 3.486l-.308.667l-.863-.114A2.776 2.776 0 0 0 8 8a4 4 0 0 0 0 8v2A6 6 0 0 1 8 6l.079.001A8.027 8.027 0 0 1 15 2c3.679 0 6.692 1.978 7.752 5h.033a6.164 6.164 0 0 1 6.187 5.414A6.001 6.001 0 0 1 23 19h-4v9h3z"/></svg>