<svg xmlns="http://www.w3.org/2000/svg" width="1em" height="1em" viewBox="0 0 32 32"><path fill="currentColor" d="M19 20h7v-2h-9v10a2.003 2.003 0 0 0 2 2h3v-2h-3zm-7 10H9v-2h3V15.566l-3.515-2.109l1.03-1.714l3.514 2.108A2.01 2.01 0 0 1 14 15.566V28a2.002 2.002 0 0 1-2 2M30 6.41L28.59 5L25 8.59L21.41 5L20 6.41L23.59 10L20 13.59L21.41 15L25 11.41L28.59 15L30 13.59L26.41 10z"/><path fill="currentColor" d="M17.308 2.285A9.492 9.492 0 0 0 15 2a8.028 8.028 0 0 0-6.921 4.001L8 6a6 6 0 0 0 0 12v-2a4 4 0 0 1 0-8a2.7 2.7 0 0 1 .387.04l.863.113l.309-.667A6.02 6.02 0 0 1 15 4c.608 0 1.182.085 1.731.215z"/></svg>