<svg xmlns="http://www.w3.org/2000/svg" width="1em" height="1em" viewBox="0 0 32 32"><circle cx="24.5" cy="9.5" r="1.5" fill="currentColor"/><path fill="currentColor" d="M17.414 22H12v-5.414l6.03-6.03A5.352 5.352 0 0 1 18 10a6 6 0 1 1 6 6a5.358 5.358 0 0 1-.556-.03ZM14 20h2.586l6.17-6.17l.518.095A3.935 3.935 0 0 0 24 14a4.05 4.05 0 1 0-3.925-3.273l.095.517l-6.17 6.17Z"/><path fill="currentColor" d="M28 18v8H10V6h4V4H4a2.003 2.003 0 0 0-2 2v20a2.003 2.003 0 0 0 2 2h24a2.003 2.003 0 0 0 2-2v-8ZM4 6h4v20H4Z"/></svg>