<svg xmlns="http://www.w3.org/2000/svg" width="1em" height="1em" viewBox="0 0 32 32"><path fill="currentColor" d="M21 16H11a2.002 2.002 0 0 0-2 2v6a2.002 2.002 0 0 0 2 2h4v2h-3v2h8v-2h-3v-2h4a2.002 2.002 0 0 0 2-2v-6a2.002 2.002 0 0 0-2-2m-10 8v-6h10l.002 6Z"/><path fill="currentColor" d="M25.822 10.124a10 10 0 0 0-19.644 0A7.491 7.491 0 0 0 7 24.974v-2a5.495 5.495 0 0 1 .123-10.954l.837-.056l.09-.834a7.998 7.998 0 0 1 15.9 0l.09.834l.837.056A5.495 5.495 0 0 1 25 22.975v2a7.491 7.491 0 0 0 .822-14.851"/></svg>