<svg xmlns="http://www.w3.org/2000/svg" width="1em" height="1em" viewBox="0 0 32 32"><path fill="currentColor" d="M26 30h-2v-3h-4a5.006 5.006 0 0 1-5-5v-1.28l-2.316-.771a1 1 0 0 1-.541-1.463L15 13.723V11a9.01 9.01 0 0 1 9-9h5v2h-5a7.008 7.008 0 0 0-7 7v3a1 1 0 0 1-.143.514L14.5 18.446l1.817.605A1 1 0 0 1 17 20v2a3.003 3.003 0 0 0 3 3h5a1 1 0 0 1 1 1Z"/><path fill="currentColor" d="M19 12h4v2h-4zM9.333 25.217a7 7 0 0 1 0-10.434l1.333 1.49a5 5 0 0 0 0 7.453z"/><path fill="currentColor" d="M6.4 28.8a11.002 11.002 0 0 1 0-17.6l1.2 1.6a9 9 0 0 0 0 14.401Z"/></svg>