<svg xmlns="http://www.w3.org/2000/svg" width="1em" height="1em" viewBox="0 0 32 32"><path fill="currentColor" d="M16 20a1.5 1.5 0 1 0 0 3a1.5 1.5 0 0 0 0-3M15 9h2v9h-2z"/><path fill="currentColor" d="M16 30a2.076 2.076 0 0 1-1.473-.61L2.609 17.474a2.085 2.085 0 0 1 0-2.946L14.527 2.609a2.085 2.085 0 0 1 2.946 0l11.918 11.918a2.085 2.085 0 0 1 0 2.946L17.473 29.39c-.406.407-.94.61-1.473.61m0-26a.084.084 0 0 0-.06.024L4.025 15.94a.084.084 0 0 0 0 .118L15.94 27.976a.084.084 0 0 0 .118 0L27.976 16.06a.084.084 0 0 0 0-.118L16.06 4.024a.084.084 0 0 0-.06-.025"/></svg>