<svg xmlns="http://www.w3.org/2000/svg" width="1em" height="1em" viewBox="0 0 32 32"><path fill="currentColor" d="M26 24a2 2 0 0 0-2 2c0 .076.014.149.023.223A12.91 12.91 0 0 1 16 29C8.832 29 3 23.169 3 16c0-2.115.492-4.133 1.462-5.996l-1.774-.923A15.046 15.046 0 0 0 1 16c0 8.271 6.729 15 15 15c3.374 0 6.582-1.12 9.205-3.166A2 2 0 1 0 26 24"/><path fill="currentColor" d="M13 23v2h-2v-2zm0-14v2h-2V9zm0 7v2h-2v-2z"/><path fill="currentColor" d="M16 1c-3.374 0-6.582 1.12-9.205 3.166A2 2 0 1 0 8 6c0-.076-.014-.149-.023-.223A12.91 12.91 0 0 1 16 3c1.654 0 3 1.346 3 3s-1.346 3-3 3h-1v2h1c2.757 0 5-2.243 5-5c0-.24-.02-.475-.053-.706A6.467 6.467 0 0 1 22.5 9.5c0 3.584-2.916 6.5-6.5 6.5h-1v2h1c4.687 0 8.5-3.813 8.5-8.5c0-.765-.111-1.504-.302-2.21A9.937 9.937 0 0 1 26 13c0 5.514-4.486 10-10 10h-1v2h1c6.617 0 12-5.383 12-12c0-.9-.106-1.774-.294-2.618A12.9 12.9 0 0 1 29 16c0 2.115-.492 4.133-1.462 5.996l1.774.923A15.046 15.046 0 0 0 31 16c0-8.271-6.729-15-15-15"/></svg>