<svg xmlns="http://www.w3.org/2000/svg" width="1em" height="1em" viewBox="0 0 32 32"><path fill="currentColor" d="M26 24a2 2 0 0 0-2 2c0 .076.014.149.023.223A12.91 12.91 0 0 1 16 29c-4.262 0-8-3.972-8-8.5c0-4.687 3.813-8.5 8.5-8.5h.5v-2h-.5C10.71 10 6 14.71 6 20.5c0 1.884.53 3.69 1.437 5.257C4.724 23.371 3 19.886 3 16c0-2.115.492-4.133 1.462-5.996l-1.774-.923A15.046 15.046 0 0 0 1 16c0 8.271 6.729 15 15 15c3.374 0 6.582-1.12 9.205-3.166A2 2 0 1 0 26 24"/><path fill="currentColor" d="M13 20v2h-2v-2zm8-10v2h-2v-2z"/><path fill="currentColor" d="M16 1c-3.374 0-6.582 1.12-9.205 3.166A2 2 0 1 0 8 6c0-.076-.014-.149-.023-.223A12.91 12.91 0 0 1 16 3c4.262 0 8 3.972 8 8.5c0 4.687-3.813 8.5-8.5 8.5H15v2h.5C21.29 22 26 17.29 26 11.5c0-1.885-.532-3.692-1.44-5.26C27.275 8.626 29 12.112 29 16c0 2.115-.492 4.133-1.462 5.996l1.774.923A15.046 15.046 0 0 0 31 16c0-8.271-6.729-15-15-15"/></svg>