<svg xmlns="http://www.w3.org/2000/svg" width="1em" height="1em" viewBox="0 0 32 32"><path fill="currentColor" d="m27.538 21.995l1.773.924A15.028 15.028 0 0 0 31 16c0-8.271-6.728-15-15-15c-3.374 0-6.582 1.12-9.205 3.166A2 2 0 1 0 8 6c0-.075-.014-.146-.022-.22a12.887 12.887 0 0 1 3.536-1.977A4.963 4.963 0 0 0 11 6c0 1.63.796 3.067 2.007 3.98a8.043 8.043 0 0 0-.077 1.05c0 .782.118 1.537.328 2.252a7.965 7.965 0 0 0-2.188-.312c-3.703 0-6.817 2.532-7.725 5.953a12.853 12.853 0 0 1 1.117-8.92l-1.774-.922A15.046 15.046 0 0 0 1 16c0 8.272 6.73 15 15 15c3.374 0 6.582-1.12 9.205-3.166A2 2 0 1 0 24 26c0 .075.013.146.021.22a12.898 12.898 0 0 1-3.535 1.977A4.964 4.964 0 0 0 21 26c0-1.63-.796-3.066-2.007-3.98a8.07 8.07 0 0 0 .077-1.05c0-.782-.117-1.536-.328-2.251a7.961 7.961 0 0 0 2.188.311c3.703 0 6.818-2.533 7.725-5.955a12.846 12.846 0 0 1-1.117 8.92M16 3c1.654 0 3 1.346 3 3s-1.346 3-3 3s-3-1.346-3-3s1.346-3 3-3m0 26c-1.654 0-3-1.346-3-3s1.346-3 3-3s3 1.346 3 3s-1.346 3-3 3m0-8c-2.757 0-5 2.243-5 5c0 .786.186 1.53.51 2.192a13.023 13.023 0 0 1-4.847-3.171A5.956 5.956 0 0 1 5.07 20.97c0-3.309 2.691-6 6-6s6 2.691 6 6c0 .05-.012.098-.013.148A4.981 4.981 0 0 0 16 21m10.93-9.97c0 3.308-2.692 6-6 6s-6-2.692-6-6c0-.05.012-.098.014-.147c.34.074.693.117 1.056.117c2.757 0 5-2.243 5-5a4.96 4.96 0 0 0-.511-2.192c1.85.684 3.5 1.777 4.847 3.17a5.955 5.955 0 0 1 1.594 4.052"/></svg>