<svg xmlns="http://www.w3.org/2000/svg" width="1em" height="1em" viewBox="0 0 32 32"><path fill="currentColor" d="M26 24a2 2 0 0 0-2 2c0 .076.014.149.023.223A12.91 12.91 0 0 1 16 29c-2.775 0-5.343-.881-7.457-2.368c.258.026.517.045.78.045C13.556 26.677 17 23.233 17 19h-2a5.683 5.683 0 0 1-5.677 5.677a5.664 5.664 0 0 1-5.132-3.273c-.136-.297-.26-.6-.373-.91c.66.323 1.4.506 2.182.506c2.757 0 5-2.243 5-5v-2H9v2c0 1.654-1.346 3-3 3s-3-1.346-3-3c0-2.115.492-4.133 1.462-5.996l-1.774-.923A15.046 15.046 0 0 0 1 16c0 8.271 6.729 15 15 15c3.374 0 6.582-1.12 9.205-3.166A2 2 0 1 0 26 24"/><path fill="currentColor" d="M23 21v2h-2v-2zm-6-6v2h-2v-2zm-8-4V9h2v2z"/><path fill="currentColor" d="M16 1c-3.374 0-6.582 1.12-9.205 3.166A2 2 0 1 0 8 6c0-.076-.014-.149-.023-.223A12.91 12.91 0 0 1 16 3c2.77 0 5.336.878 7.448 2.361a7.795 7.795 0 0 0-.755-.038c-4.233 0-7.676 3.444-7.676 7.677h2a5.683 5.683 0 0 1 5.676-5.677a5.642 5.642 0 0 1 4.919 2.865c.215.429.405.87.573 1.324A4.959 4.959 0 0 0 26 11c-2.757 0-5 2.243-5 5v2h2v-2c0-1.654 1.346-3 3-3s3 1.346 3 3c0 2.115-.492 4.133-1.462 5.996l1.775.923A15.046 15.046 0 0 0 31 16c0-8.271-6.729-15-15-15"/></svg>