<svg xmlns="http://www.w3.org/2000/svg" width="1em" height="1em" viewBox="0 0 32 32"><path fill="currentColor" d="M22 30h-5a7.008 7.008 0 0 1-7-7a6.683 6.683 0 0 1 2.024-4.697A6.713 6.713 0 0 0 10.01 18C5.043 18.047 4 24.551 4 30H2c0-11.51 4.345-13.966 7.99-14a10.096 10.096 0 0 1 4.48 1.117a1 1 0 0 1 .06 1.73A4.877 4.877 0 0 0 17 28h5Z"/><path fill="currentColor" d="M18 24v-2a8 8 0 1 0-8-8H8a10 10 0 1 1 10 10"/><circle cx="18" cy="8" r="1" fill="currentColor"/><path fill="currentColor" d="m23 17.586l-2.3-2.3A2.967 2.967 0 0 0 21 14a3.003 3.003 0 0 0-3-3a2.96 2.96 0 0 0-1.285.3l-2.3-2.3L13 10.414l2.3 2.3A2.967 2.967 0 0 0 15 14a3.003 3.003 0 0 0 3 3a2.96 2.96 0 0 0 1.285-.3l2.3 2.3ZM17 14a1 1 0 1 1 1 1a1 1 0 0 1-1-1"/></svg>