<svg xmlns="http://www.w3.org/2000/svg" width="1em" height="1em" viewBox="0 0 32 32"><path fill="currentColor" d="M22 30h-5a7.008 7.008 0 0 1-7-7a6.683 6.683 0 0 1 2.024-4.697A6.794 6.794 0 0 0 10.01 18C5.043 18.047 4 24.551 4 30H2c0-11.51 4.345-13.966 7.99-14a10.072 10.072 0 0 1 4.48 1.117a1 1 0 0 1 .06 1.73A4.877 4.877 0 0 0 17 28h5zM17 8h2v8h-2z"/><path fill="currentColor" d="M28 5.414L26.586 4l-2.262 2.262A9.95 9.95 0 0 0 19 4.05V2h-2v2.05A10.013 10.013 0 0 0 8 14h2a8 8 0 1 1 8 8v2a9.993 9.993 0 0 0 7.738-16.324Z"/></svg>