<svg xmlns="http://www.w3.org/2000/svg" width="1em" height="1em" viewBox="0 0 32 32"><path fill="currentColor" d="M28.166 2a13.029 13.029 0 0 0-12.542 9.58l-1.177 4.315A11.024 11.024 0 0 1 3.835 24H2v2h1.834a12.914 12.914 0 0 0 3.47-.482a3.998 3.998 0 1 0 6.581-4.286a12.967 12.967 0 0 0 1.62-2.527a3.994 3.994 0 1 0 2.378-7.6a10.95 10.95 0 0 1 1.725-3.01a3.983 3.983 0 0 0 6.906-3.964A10.944 10.944 0 0 1 28.166 4H30V2zM11 26a1.998 1.998 0 0 1-1.812-1.165a13.081 13.081 0 0 0 3.297-2.143A1.977 1.977 0 0 1 11 26m8-11a1.993 1.993 0 0 1-2.759 1.847c.044-.143.096-.282.136-.426l.924-3.391A1.998 1.998 0 0 1 19 15m6-9a1.994 1.994 0 0 1-3.901.59a11.051 11.051 0 0 1 3.362-1.94A1.995 1.995 0 0 1 25 6M10 4v4.586L3.414 2L2 3.414L8.586 10H4v2h8V4z"/></svg>