<svg xmlns="http://www.w3.org/2000/svg" width="1em" height="1em" viewBox="0 0 32 32"><path fill="currentColor" d="M28.166 2a12.985 12.985 0 0 0-8.408 3.107a3.995 3.995 0 1 0-4.175 6.621l-1.136 4.167a10.76 10.76 0 0 1-.25.781a3.986 3.986 0 0 0-5.154 6.006A10.954 10.954 0 0 1 3.835 24H2v2h1.834c.298 0 .592-.017.886-.037l7.929 2.974A1 1 0 0 0 14 28v-6.908a12.931 12.931 0 0 0 .912-1.313l6.363-1.818a1 1 0 0 0 .506-1.586l-3.997-4.995a10.927 10.927 0 0 1 1.152-2.347l5.748 1.916A1 1 0 0 0 26 10V4.225A10.896 10.896 0 0 1 28.166 4H30V2zM17 6a1.98 1.98 0 0 1 1.324.53a12.941 12.941 0 0 0-2.084 3.318A1.999 1.999 0 0 1 17 6m-7 14a1.988 1.988 0 0 1 3.337-1.472a11.016 11.016 0 0 1-2.595 3.015A1.998 1.998 0 0 1 10 20m-1.665 5.183A13.047 13.047 0 0 0 12 23.094v3.463zm7.74-7.816c.111-.31.214-.625.302-.946l.732-2.685l2.171 2.715zM24 8.612l-3.741-1.247A11.071 11.071 0 0 1 24 4.831zM22 22v2h4.586L22 28.586L23.414 30L28 25.414V30h2v-8zM2 2v2h4.586L2 8.586L3.414 10L8 5.414V10h2V2z"/></svg>