<svg xmlns="http://www.w3.org/2000/svg" width="1em" height="1em" viewBox="0 0 32 32"><path fill="currentColor" d="m22.505 11.637l-5.989-3.5a1 1 0 0 0-1.008-.001l-6.011 3.5A1 1 0 0 0 9 12.5v7a1 1 0 0 0 .497.864l6.011 3.5A.96.96 0 0 0 16 24c.174 0 .36-.045.516-.137l5.989-3.5A1 1 0 0 0 23 19.5v-7a1 1 0 0 0-.495-.863m-6.494-1.48l4.007 2.343l-4.007 2.342l-4.023-2.342zM11 14.24l4 2.33v4.685l-4-2.33zm6 7.025v-4.683l4-2.338v4.683z"/><path fill="currentColor" d="M16 1a1 1 0 0 0-.504.136l-12 7A1 1 0 0 0 3 9v14a1 1 0 0 0 .496.864l12 7a1 1 0 0 0 1.008 0l11-6.417l-1.008-1.727L16 28.842L5 22.426V9.575l11-6.417l11 6.416V17h2V9a1 1 0 0 0-.496-.864l-12-7A1 1 0 0 0 16 1"/></svg>