<svg xmlns="http://www.w3.org/2000/svg" width="1em" height="1em" viewBox="0 0 32 32"><path fill="currentColor" d="M16 26a.997.997 0 0 1-.707-.293l-3-3a.997.997 0 0 1 0-1.414l3-3a.996.996 0 0 1 1.414 0l3 3a.997.997 0 0 1 0 1.414l-3 3A.997.997 0 0 1 16 26m-1.586-4L16 23.586L17.586 22L16 20.414zM22 20a.997.997 0 0 1-.707-.293l-3-3a.997.997 0 0 1 0-1.414l3-3a.996.996 0 0 1 1.414 0l3 3a.997.997 0 0 1 0 1.414l-3 3A.997.997 0 0 1 22 20m-1.586-4L22 17.586L23.586 16L22 14.414zM16 14a.997.997 0 0 1-.707-.293l-3-3a.997.997 0 0 1 0-1.414l3-3a.996.996 0 0 1 1.414 0l3 3a.997.997 0 0 1 0 1.414l-3 3A.997.997 0 0 1 16 14m-1.586-4L16 11.586L17.586 10L16 8.414zM10 20a.997.997 0 0 1-.707-.293l-3-3a.997.997 0 0 1 0-1.414l3-3a.996.996 0 0 1 1.414 0l3 3a.997.997 0 0 1 0 1.414l-3 3A.997.997 0 0 1 10 20m-1.586-4L10 17.586L11.586 16L10 14.414z"/><path fill="currentColor" d="M16 1a1 1 0 0 0-.504.136l-12 7A1 1 0 0 0 3 9v14a1 1 0 0 0 .496.864l12 7a1 1 0 0 0 1.008 0l11-6.417l-1.008-1.727L16 28.842L5 22.426V9.575l11-6.417l11 6.416V17h2V9a1 1 0 0 0-.496-.864l-12-7A1 1 0 0 0 16 1"/></svg>