<svg xmlns="http://www.w3.org/2000/svg" width="1em" height="1em" viewBox="0 0 32 32"><path fill="currentColor" d="M13 26h-2a5.006 5.006 0 0 0-5-5v-2a7.008 7.008 0 0 1 7 7"/><path fill="currentColor" d="M18 26h-2A10.011 10.011 0 0 0 6 16v-2a12.014 12.014 0 0 1 12 12m8-13a7.008 7.008 0 0 1-7-7h2a5.006 5.006 0 0 0 5 5z"/><path fill="currentColor" d="M26 18A12.014 12.014 0 0 1 14 6h2a10.011 10.011 0 0 0 10 10zM7.707 24.293a1 1 0 0 0-1.414 0L2 28.586L3.414 30l4.293-4.293a1 1 0 0 0 0-1.414M28.586 2l-4.293 4.293a1 1 0 0 0 1.414 1.414L30 3.414z"/></svg>