<svg xmlns="http://www.w3.org/2000/svg" width="1em" height="1em" viewBox="0 0 32 32"><path fill="currentColor" d="M20 20h-6v-3a2 2 0 0 1 4 0h2a4 4 0 0 0-8 0v3a2.003 2.003 0 0 0-2 2v6a2.003 2.003 0 0 0 2 2h8a2.003 2.003 0 0 0 2-2v-6a2.003 2.003 0 0 0-2-2m0 8h-8v-6h8zM16 8a8.97 8.97 0 0 0-6.36 2.64l1.412 1.413a6.989 6.989 0 0 1 9.895 0l1.414-1.414A8.972 8.972 0 0 0 16 8"/><path fill="currentColor" d="m6.105 7.105l1.414 1.414a11.98 11.98 0 0 1 16.962 0l1.414-1.414a13.978 13.978 0 0 0-19.79 0"/></svg>