<svg xmlns="http://www.w3.org/2000/svg" width="1em" height="1em" viewBox="0 0 32 32"><path d="M15 2h2v3h-2z" fill="currentColor"/><path d="M25 13h3v2h-3z" fill="currentColor"/><path d="M15 23h2v3h-2z" fill="currentColor"/><path d="M4 13h3v2H4z" fill="currentColor"/><path d="M6.775 6.188L8.19 4.774l2.12 2.121L8.898 8.31z" fill="currentColor"/><path d="M21.695 6.9l2.122-2.122l1.414 1.414l-2.121 2.122z" fill="currentColor"/><path d="M21.691 21.088l1.415-1.414l2.12 2.121l-1.413 1.414z" fill="currentColor"/><path d="M6.778 21.812L8.9 19.691l1.414 1.414l-2.121 2.122z" fill="currentColor"/><path d="M4 28h24v2H4z" fill="currentColor"/><path d="M16 20a6 6 0 1 0-6-6a6 6 0 0 0 6 6zm0-10v8a4 4 0 0 1 0-8z" fill="currentColor"/></svg>