<svg xmlns="http://www.w3.org/2000/svg" width="1em" height="1em" viewBox="0 0 32 32"><path d="M15 2h2v3h-2z" fill="currentColor"/><path d="M27 15h3v2h-3z" fill="currentColor"/><path d="M15 27h2v3h-2z" fill="currentColor"/><path d="M2 15h3v2H2z" fill="currentColor"/><path d="M5.457 6.877l1.416-1.416l2.123 2.123L7.58 9.001z" fill="currentColor"/><path d="M23 7.58l2.12-2.12l1.415 1.414l-2.122 2.121z" fill="currentColor"/><path d="M23.001 24.416L24.417 23l2.122 2.123l-1.415 1.416z" fill="currentColor"/><path d="M5.47 25.126L7.591 23L9 24.419L6.884 26.54L5.47 25.126z" fill="currentColor"/><path d="M15 13h2v2h-2z" fill="currentColor"/><path d="M19 13h2v2h-2z" fill="currentColor"/><path d="M17 11h2v2h-2z" fill="currentColor"/><path d="M17 15h2v2h-2z" fill="currentColor"/><path d="M17 19h2v2h-2z" fill="currentColor"/><path d="M15 17h2v2h-2z" fill="currentColor"/><path d="M19 17h2v2h-2z" fill="currentColor"/><path d="M16 7a9 9 0 1 0 9 9a9.01 9.01 0 0 0-9-9zm-7 9a7.004 7.004 0 0 1 6-6.92V11h2V9.08a6.923 6.923 0 0 1 2 .605V11h1.89l.11.11V13h1.315a6.931 6.931 0 0 1 .605 2H21v2h1.92a6.931 6.931 0 0 1-.605 2H21v1.89a7.13 7.13 0 0 1-.11.11H19v1.315a6.923 6.923 0 0 1-2 .605V21h-2v1.92A7.004 7.004 0 0 1 9 16z" fill="currentColor"/></svg>