<svg xmlns="http://www.w3.org/2000/svg" width="1em" height="1em" viewBox="0 0 32 32"><path d="M15 4h2v3h-2z" fill="currentColor"/><path d="M25 15h3v2h-3z" fill="currentColor"/><path d="M15 25h2v3h-2z" fill="currentColor"/><path d="M4 15h3v2H4z" fill="currentColor"/><path d="M6.777 8.19L8.19 6.774l2.121 2.121l-1.414 1.415z" fill="currentColor"/><path d="M21.687 8.9l2.121-2.12l1.414 1.413l-2.121 2.122z" fill="currentColor"/><path d="M21.686 23.096l1.414-1.414l2.121 2.122l-1.414 1.414z" fill="currentColor"/><path d="M6.78 23.8L8.9 21.677l1.414 1.414l-2.121 2.122z" fill="currentColor"/><path d="M4 30h24v2H4z" fill="currentColor"/><path d="M4 0h24v2H4z" fill="currentColor"/><path d="M16 10a6 6 0 1 0 6 6a6 6 0 0 0-6-6zm-4 6a4 4 0 0 1 4-4v8a4 4 0 0 1-4-4z" fill="currentColor"/></svg>