<svg xmlns="http://www.w3.org/2000/svg" width="1em" height="1em" viewBox="0 0 32 32"><path fill="currentColor" d="M15 26h2v2h-2zm2 2h2v2h-2zm2 2h2v2h-2zm0-4h2v2h-2zm-4 4h2v2h-2zm-2-14h2v2h-2zm2 2h2v2h-2zm2 2h2v2h-2zm0-4h2v2h-2zm-4 4h2v2h-2zm-3 10a1 1 0 0 1-.894-1.447l2-4a1 1 0 1 1 1.788.894l-2 4A.998.998 0 0 1 10 30"/><path fill="currentColor" d="M24.8 9.136a8.994 8.994 0 0 0-17.6 0A6.532 6.532 0 0 0 2 15.5V22l1 2l1-2v-1.82a6.49 6.49 0 0 0 3.43 1.725l-1.324 2.648a1 1 0 1 0 1.789.894l2-4a1 1 0 0 0-.447-1.341a.977.977 0 0 0-.49-.09V20H8.5a4.498 4.498 0 0 1-.356-8.981l.816-.064l.099-.812a6.994 6.994 0 0 1 13.883 0l.099.812l.815.064A4.498 4.498 0 0 1 23.5 20h-.542v.008A.996.996 0 0 0 22 21v3l1 2l1-2v-2.025a6.447 6.447 0 0 0 2-.477V26l1 2l1-2v-5.82a6.488 6.488 0 0 0-3.2-11.044"/></svg>