<svg xmlns="http://www.w3.org/2000/svg" width="1em" height="1em" viewBox="0 0 32 32"><path fill="currentColor" d="M24 10h4a2 2 0 0 0 2-2V4a2 2 0 0 0-2-2h-4a2 2 0 0 0-2 2v1h-3a2 2 0 0 0-2 2v8h-3V5a2 2 0 0 0-2-2H4a2 2 0 0 0-2 2v22a2 2 0 0 0 2 2h8a2 2 0 0 0 2-2V17h3v8a2 2 0 0 0 2 2h3v1a2 2 0 0 0 2 2h4a2 2 0 0 0 2-2v-4a2 2 0 0 0-2-2h-4a2 2 0 0 0-2 2v1h-3v-8h3v1a2 2 0 0 0 2 2h4a2 2 0 0 0 2-2v-4a2 2 0 0 0-2-2h-4a2 2 0 0 0-2 2v1h-3V7h3v1a2 2 0 0 0 2 2m0-6h4v4h-4zm-12.6 8L4 17.92V6.08zm.6 2.08l.001 11.84l-7.4-5.92zm0-4.16L5.85 5H12zM4 22.08L10.15 27H4zM24 24h4v4h-4zm0-10h4v4h-4z"/></svg>