<svg xmlns="http://www.w3.org/2000/svg" width="1em" height="1em" viewBox="0 0 256 256"><path fill="currentColor" d="M204.41 51.63a108 108 0 1 0 0 152.74a107.38 107.38 0 0 0 0-152.74m-17 17A83.85 83.85 0 0 1 196.26 79L169 111.09l-23.3-65.21a83.52 83.52 0 0 1 41.73 22.72Zm-118.85 0a83.44 83.44 0 0 1 51.11-24.2l14.16 39.65l-68.12-12.47c.93-1.02 1.88-2.02 2.87-3.01ZM48 153.7a84.48 84.48 0 0 1 3.4-60.3l41.44 7.6Zm20.55 33.7a83.94 83.94 0 0 1-8.81-10.4L87 144.91l23.3 65.21a83.53 83.53 0 0 1-41.72-22.72Zm36.36-63.61l15.18-17.85l23.06 4.21l7.88 22.06l-15.17 17.85l-23.06-4.21Zm82.49 63.61a83.49 83.49 0 0 1-51.11 24.2L122.15 172l68.14 12.44c-.93.97-1.88 1.97-2.86 2.96ZM163.16 155L208 102.3a84.43 84.43 0 0 1-3.41 60.3Z"/></svg>