<svg xmlns="http://www.w3.org/2000/svg" width="1em" height="1em" viewBox="0 0 256 256"><path fill="currentColor" d="M200.12 55.88A102 102 0 0 0 55.87 200.12A102 102 0 1 0 200.12 55.88m-102 66.67l19.65-23.14l29.86 5.46l10.21 28.58l-19.65 23.14l-29.86-5.46Zm111.81-31.86a90.24 90.24 0 0 1-2 78.63l-56.14-10.24Zm-6.16-11.28l-36.94 43.48l-30.17-84.47a89.31 89.31 0 0 1 55 25.94a91.33 91.33 0 0 1 12.11 15.05m-139.41-15a89.37 89.37 0 0 1 59.45-26.31L143 91.82L54.75 75.71a91.2 91.2 0 0 1 9.61-11.35ZM48 86.68l56.14 10.24l-58.07 68.39a90.24 90.24 0 0 1 2-78.63Zm4.21 89.91l36.94-43.48l30.17 84.47a89.31 89.31 0 0 1-55-25.94a91.33 91.33 0 0 1-12.09-15.05Zm139.41 15a89.32 89.32 0 0 1-59.45 26.26L113 164.18l88.24 16.11a91.2 91.2 0 0 1-9.6 11.35Z"/></svg>