<svg xmlns="http://www.w3.org/2000/svg" width="1em" height="1em" viewBox="0 0 256 256"><path fill="currentColor" d="M248 96v16a8 8 0 0 1-8 8h-80a8 8 0 0 1-8-8V96a8 8 0 0 1 8-8h80a8 8 0 0 1 8 8m-8 40h-80a8 8 0 0 0-8 8v16a8 8 0 0 0 8 8h80a8 8 0 0 0 8-8v-16a8 8 0 0 0-8-8m0 48H72a8 8 0 0 0-8 8v16a8 8 0 0 0 8 8h168a8 8 0 0 0 8-8v-16a8 8 0 0 0-8-8M80 168a56.06 56.06 0 0 1-56-56a55.49 55.49 0 0 1 4.11-21A28 28 0 0 1 44 40a8 8 0 0 1 3.89 1l69.93 38.85A12 12 0 0 0 116 56a8 8 0 0 1 0-16a28 28 0 0 1 0 56a8 8 0 0 1-3.89-1l-40-22.21A40 40 0 0 0 72 151.2V112a8 8 0 0 1 16 0v39.19a40.09 40.09 0 0 0 29.73-25.86a8 8 0 0 1 15.08 5.34A56.09 56.09 0 0 1 80 168M36.23 77.14a56.33 56.33 0 0 1 17.5-14.58l-11.55-6.42a12 12 0 0 0-6 21Z"/></svg>