<svg xmlns="http://www.w3.org/2000/svg" width="1em" height="1em" viewBox="0 0 256 256"><path fill="currentColor" d="m242.83 45.17l-32-32a4 4 0 0 0-5.66 5.66l4.74 4.74l-59.58 44.69l-39.11 7.82a4 4 0 0 0-2 1.09l-83.36 83.32a20 20 0 0 0 0 28.28l41.37 41.37a20 20 0 0 0 28.28 0l83.32-83.31a4 4 0 0 0 1.09-2.05l7.82-39.11l44.69-59.58l4.74 4.74a4 4 0 1 0 5.66-5.66m-153 179.31a12 12 0 0 1-17 0l-41.32-41.37a12 12 0 0 1 0-17l8.49-8.45L98.34 216ZM104 210.34L45.66 152L96 101.66L154.34 160Zm76.8-108.74a3.89 3.89 0 0 0-.72 1.62L172.32 142L160 154.34L101.66 96L114 83.68l38.81-7.76a3.89 3.89 0 0 0 1.62-.72l61.22-45.92l11.1 11.1Z"/></svg>