<svg xmlns="http://www.w3.org/2000/svg" width="1em" height="1em" viewBox="0 0 256 256"><path fill="currentColor" d="M241 150.65v-.05a51.33 51.33 0 0 0-2.53-5.9l-41.54-94.52a12 12 0 0 0-2.5-3.65a36 36 0 0 0-50.92 0A12 12 0 0 0 140 55v21h-24V55a12 12 0 0 0-3.51-8.48a36 36 0 0 0-50.92 0a12 12 0 0 0-2.5 3.65L17.53 144.7a51.33 51.33 0 0 0-2.53 5.9s0 0 0 .05A52 52 0 1 0 116 168v-68h24v68a52 52 0 1 0 101-17.35M80 62.28a12 12 0 0 1 12-1.22v63.15a51.9 51.9 0 0 0-35.9-7.62ZM64 196a28 28 0 1 1 28-28a28 28 0 0 1-28 28M164 61.06a12.06 12.06 0 0 1 12 1.22l23.87 54.31a51.9 51.9 0 0 0-35.9 7.62ZM192 196a28 28 0 1 1 28-28a28 28 0 0 1-28 28"/></svg>