<svg xmlns="http://www.w3.org/2000/svg" width="1em" height="1em" viewBox="0 0 256 256"><path fill="currentColor" d="M213.38 221.92a8 8 0 0 1-11.3-.54l-26.45-29.1l-50.83 38.12a8 8 0 0 1-8.91.46a8.32 8.32 0 0 1-3.89-7.18V144l-51.2 38.4a8 8 0 0 1-11.16-1.55a8.27 8.27 0 0 1 1.8-11.43l61.48-46.11l-70.84-77.93a8 8 0 1 1 11.84-10.76l160 176a8 8 0 0 1-.54 11.3m-68.83-111.39a8 8 0 0 0 10.72 1l33.35-25a8.31 8.31 0 0 0 3-4.08a8 8 0 0 0-2.82-8.85l-64-48a8 8 0 0 0-10 .3a8.24 8.24 0 0 0-2.8 6.34v39.39a8 8 0 0 0 2.08 5.37Z"/></svg>