<svg xmlns="http://www.w3.org/2000/svg" width="1em" height="1em" viewBox="0 0 256 256"><path fill="currentColor" d="M224 48h-64a40 40 0 0 0-32 16a40 40 0 0 0-32-16H32a16 16 0 0 0-16 16v128a16 16 0 0 0 16 16h64a24 24 0 0 1 24 24a8 8 0 0 0 16 0a24 24 0 0 1 24-24h64a16 16 0 0 0 16-16V64a16 16 0 0 0-16-16M96 192H32V64h64a24 24 0 0 1 24 24v112a39.81 39.81 0 0 0-24-8m128 0h-64a39.81 39.81 0 0 0-24 8V88a24 24 0 0 1 24-24h64ZM160 88h40a8 8 0 0 1 0 16h-40a8 8 0 0 1 0-16m48 40a8 8 0 0 1-8 8h-40a8 8 0 0 1 0-16h40a8 8 0 0 1 8 8m0 32a8 8 0 0 1-8 8h-40a8 8 0 0 1 0-16h40a8 8 0 0 1 8 8"/></svg>