<svg xmlns="http://www.w3.org/2000/svg" width="1em" height="1em" viewBox="0 0 256 256"><path fill="currentColor" d="M224 50h-64a38 38 0 0 0-32 17.55A38 38 0 0 0 96 50H32a14 14 0 0 0-14 14v128a14 14 0 0 0 14 14h64a26 26 0 0 1 26 26a6 6 0 0 0 12 0a26 26 0 0 1 26-26h64a14 14 0 0 0 14-14V64a14 14 0 0 0-14-14M96 194H32a2 2 0 0 1-2-2V64a2 2 0 0 1 2-2h64a26 26 0 0 1 26 26v116.31A37.86 37.86 0 0 0 96 194m130-2a2 2 0 0 1-2 2h-64a37.87 37.87 0 0 0-26 10.32V88a26 26 0 0 1 26-26h64a2 2 0 0 1 2 2Zm-20-96a6 6 0 0 1-6 6h-40a6 6 0 0 1 0-12h40a6 6 0 0 1 6 6m0 32a6 6 0 0 1-6 6h-40a6 6 0 0 1 0-12h40a6 6 0 0 1 6 6m0 32a6 6 0 0 1-6 6h-40a6 6 0 0 1 0-12h40a6 6 0 0 1 6 6"/></svg>