<svg xmlns="http://www.w3.org/2000/svg" width="1em" height="1em" viewBox="0 0 256 256"><path d="M216.008 68H172V56a20.022 20.022 0 0 0-20-20h-48a20.022 20.022 0 0 0-20 20v12H40.008a12.013 12.013 0 0 0-12 12v128a12.013 12.013 0 0 0 12 12h176a12.013 12.013 0 0 0 12-12V80a12.013 12.013 0 0 0-12-12zM92 56a12.013 12.013 0 0 1 12-12h48a12.013 12.013 0 0 1 12 12v12H92zm128.008 152a4.004 4.004 0 0 1-4 4h-176a4.004 4.004 0 0 1-4-4V80a4.004 4.004 0 0 1 4-4h176a4.004 4.004 0 0 1 4 4z" fill="currentColor"/></svg>