<svg xmlns="http://www.w3.org/2000/svg" width="1em" height="1em" viewBox="0 0 256 256"><path fill="currentColor" d="M216 204h-44v-16a72.08 72.08 0 0 0 72-72a32 32 0 0 0-64 0a8 8 0 0 1-8 8V56a44 44 0 0 0-88 0v28a8 8 0 0 1-8-8a32 32 0 0 0-64 0a72.08 72.08 0 0 0 72 72v56H40a12 12 0 0 0 0 24h176a12 12 0 0 0 0-24M96 124H84a48.05 48.05 0 0 1-48-48a8 8 0 0 1 16 0a32 32 0 0 0 32 32h12a12 12 0 0 0 12-12V56a20 20 0 0 1 40 0v80a12 12 0 0 0 12 12h12a32 32 0 0 0 32-32a8 8 0 0 1 16 0a48.05 48.05 0 0 1-48 48h-12a12 12 0 0 0-12 12v28h-40v-68a12 12 0 0 0-12-12"/></svg>