<svg xmlns="http://www.w3.org/2000/svg" width="1em" height="1em" viewBox="0 0 256 256"><g fill="currentColor"><path d="M232 116a60 60 0 0 1-60 60h-12v40H96v-80H84a60 60 0 0 1-60-60a20 20 0 0 1 20-20a20 20 0 0 1 20 20a20 20 0 0 0 20 20h12V56a32 32 0 0 1 32-32a32 32 0 0 1 32 32v80h12a20 20 0 0 0 20-20a20 20 0 0 1 20-20a20 20 0 0 1 20 20" opacity=".2"/><path d="M216 208h-48v-24h4a68.07 68.07 0 0 0 68-68a28 28 0 0 0-56 0a12 12 0 0 1-12 12h-4V56a40 40 0 0 0-80 0v32h-4a12 12 0 0 1-12-12a28 28 0 0 0-56 0a68.07 68.07 0 0 0 68 68h4v64H40a8 8 0 0 0 0 16h176a8 8 0 0 0 0-16M96 128H84a52.06 52.06 0 0 1-52-52a12 12 0 0 1 24 0a28 28 0 0 0 28 28h12a8 8 0 0 0 8-8V56a24 24 0 0 1 48 0v80a8 8 0 0 0 8 8h12a28 28 0 0 0 28-28a12 12 0 0 1 24 0a52.06 52.06 0 0 1-52 52h-12a8 8 0 0 0-8 8v32h-48v-72a8 8 0 0 0-8-8"/></g></svg>