<svg xmlns="http://www.w3.org/2000/svg" width="1em" height="1em" viewBox="0 0 256 256"><path fill="currentColor" d="M208 60h-29.87l-14.81-22.22A4 4 0 0 0 160 36H96a4 4 0 0 0-3.32 1.78L77.85 60H48a20 20 0 0 0-20 20v112a20 20 0 0 0 20 20h160a20 20 0 0 0 20-20V80a20 20 0 0 0-20-20m12 132a12 12 0 0 1-12 12H48a12 12 0 0 1-12-12V80a12 12 0 0 1 12-12h32a4 4 0 0 0 3.33-1.78L98.13 44h59.72l14.82 22.22A4 4 0 0 0 176 68h32a12 12 0 0 1 12 12Zm-56-56a4 4 0 0 1-4 4h-28v28a4 4 0 0 1-8 0v-28H96a4 4 0 0 1 0-8h28v-28a4 4 0 0 1 8 0v28h28a4 4 0 0 1 4 4"/></svg>