<svg xmlns="http://www.w3.org/2000/svg" width="1em" height="1em" viewBox="0 0 256 256"><g fill="currentColor"><path d="M184 184h40v24a8 8 0 0 1-8 8h-24a8 8 0 0 1-8-8ZM32 208a8 8 0 0 0 8 8h24a8 8 0 0 0 8-8v-24H32ZM194.11 52.75A8 8 0 0 0 186.8 48H69.2a8 8 0 0 0-7.31 4.75L32 120h192Z" opacity=".2"/><path d="M240 112h-10.8l-27.78-62.5A16 16 0 0 0 186.8 40H69.2a16 16 0 0 0-14.62 9.5L26.8 112H16a8 8 0 0 0 0 16h8v80a16 16 0 0 0 16 16h24a16 16 0 0 0 16-16v-16h96v16a16 16 0 0 0 16 16h24a16 16 0 0 0 16-16v-80h8a8 8 0 0 0 0-16M69.2 56h117.6l24.89 56H44.31ZM64 208H40v-16h24Zm128 0v-16h24v16Zm24-32H40v-48h176ZM56 152a8 8 0 0 1 8-8h16a8 8 0 0 1 0 16H64a8 8 0 0 1-8-8m112 0a8 8 0 0 1 8-8h16a8 8 0 0 1 0 16h-16a8 8 0 0 1-8-8"/></g></svg>