<svg xmlns="http://www.w3.org/2000/svg" width="1em" height="1em" viewBox="0 0 256 256"><g fill="currentColor"><path d="M224 64v128a8 8 0 0 1-8 8H82.5a8 8 0 0 0-5.15 1.88l-32.2 28.23A8 8 0 0 1 32 224V64a8 8 0 0 1 8-8h176a8 8 0 0 1 8 8" opacity=".2"/><path d="M216 48H40a16 16 0 0 0-16 16v160a15.85 15.85 0 0 0 9.24 14.5A16.13 16.13 0 0 0 40 240a15.89 15.89 0 0 0 10.25-3.78a.69.69 0 0 0 .13-.11L82.5 208H216a16 16 0 0 0 16-16V64a16 16 0 0 0-16-16m0 144H82.5a16 16 0 0 0-10.3 3.75l-.12.11L40 224V64h176ZM88 112a8 8 0 0 1 8-8h64a8 8 0 0 1 0 16H96a8 8 0 0 1-8-8m0 32a8 8 0 0 1 8-8h64a8 8 0 1 1 0 16H96a8 8 0 0 1-8-8"/></g></svg>