<svg xmlns="http://www.w3.org/2000/svg" width="1em" height="1em" viewBox="0 0 256 256"><path fill="currentColor" d="M243.84 76.19a12.08 12.08 0 0 0-13.34-1.7l-50.21 25l-41.92-69.63a12.11 12.11 0 0 0-20.74 0L75.71 99.52l-50.19-25a12.11 12.11 0 0 0-16.9 14.6l37 113.36a8 8 0 0 0 11.68 4.4c.25-.15 25.82-14.88 70.7-14.88s70.45 14.73 70.68 14.87a8 8 0 0 0 11.71-4.39l37-113.33a12.06 12.06 0 0 0-3.55-12.96M198 188.83c-12-5.09-35.92-12.83-70-12.83s-58 7.74-70 12.83L26.71 93l45.07 22.47a12.17 12.17 0 0 0 15.78-4.59L128 43.66l40.44 67.2a12.17 12.17 0 0 0 15.77 4.59L229.29 93Z"/></svg>