<svg xmlns="http://www.w3.org/2000/svg" width="1em" height="1em" viewBox="0 0 256 256"><g fill="currentColor"><path d="M50 136h52l-26 64Zm52 0h52l-26-64Zm52 0l26 64l26-64Z" opacity=".2"/><path d="M240 128h-22.11l21.52-53a8 8 0 1 0-14.82-6l-24 59h-41.21l-24-59a8 8 0 0 0-14.82 0l-24 59H55.38l-24-59a8 8 0 0 0-14.82 6l21.52 53H16a8 8 0 0 0 0 16h28.61l24 59a8 8 0 0 0 14.82 0l24-59h41.24l24 59a8 8 0 0 0 14.82 0l24-59H240a8 8 0 0 0 0-16M76 178.75L61.88 144h28.24ZM113.88 128L128 93.26L142.12 128ZM180 178.75L165.88 144h28.24Z"/></g></svg>