<svg xmlns="http://www.w3.org/2000/svg" width="1em" height="1em" viewBox="0 0 256 256"><path fill="currentColor" d="m128 110.78l6.46 17.22h-12.92Zm-36 50.44L98.46 144H85.54ZM232 128A104 104 0 1 1 128 24a104.11 104.11 0 0 1 104 104m-16 8a8 8 0 0 0-8-8h-14.46l14-37.19a8 8 0 0 0-15-5.62l-16 42.81h-25l-16-42.81a8 8 0 0 0-15 0L104.46 128H79.54L63.49 85.19a8 8 0 1 0-15 5.62l14 37.19H48a8 8 0 0 0 0 16h20.46l16.05 42.81a8 8 0 0 0 15 0L115.54 144h24.92l16 42.81a8 8 0 0 0 15 0l16-42.81H208a8 8 0 0 0 8-8m-52 25.22l6.46-17.22h-12.92Z"/></svg>