<svg xmlns="http://www.w3.org/2000/svg" width="1em" height="1em" viewBox="0 0 256 256"><path fill="currentColor" d="M119 104.27a12.75 12.75 0 0 0 18 0L168.27 73a12.71 12.71 0 0 0 0-18L137 23.72a12.75 12.75 0 0 0-18 0L87.73 55a12.71 12.71 0 0 0 0 18ZM93.38 60.66l31.28-31.28a4.73 4.73 0 0 1 6.68 0l31.28 31.28a4.73 4.73 0 0 1 0 6.68l-31.28 31.27a4.71 4.71 0 0 1-6.68 0L93.38 67.34a4.73 4.73 0 0 1 0-6.68M232.27 119L201 87.72a12.75 12.75 0 0 0-18 0L151.73 119a12.72 12.72 0 0 0 0 18L183 168.28a12.75 12.75 0 0 0 18 0L232.27 137a12.72 12.72 0 0 0 0-18m-5.65 12.34l-31.28 31.28a4.73 4.73 0 0 1-6.68 0l-31.28-31.28a4.73 4.73 0 0 1 0-6.68l31.28-31.28a4.73 4.73 0 0 1 6.68 0l31.28 31.28a4.73 4.73 0 0 1 0 6.68M108 128a12.63 12.63 0 0 0-3.73-9L73 87.72a12.75 12.75 0 0 0-18 0L23.73 119a12.72 12.72 0 0 0 0 18L55 168.28a12.75 12.75 0 0 0 18 0L104.27 137a12.63 12.63 0 0 0 3.73-9m-9.38 3.34l-31.28 31.28a4.73 4.73 0 0 1-6.68 0l-31.28-31.28a4.73 4.73 0 0 1 0-6.68l31.28-31.28a4.73 4.73 0 0 1 6.68 0l31.28 31.28a4.73 4.73 0 0 1 0 6.68M137 151.73a12.75 12.75 0 0 0-18 0L87.73 183a12.71 12.71 0 0 0 0 18L119 232.28a12.75 12.75 0 0 0 18 0L168.27 201a12.71 12.71 0 0 0 0-18Zm25.62 43.61l-31.28 31.28a4.73 4.73 0 0 1-6.68 0l-31.28-31.28a4.73 4.73 0 0 1 0-6.68l31.28-31.27a4.72 4.72 0 0 1 6.68 0l31.28 31.28a4.73 4.73 0 0 1 0 6.68Z"/></svg>