<svg xmlns="http://www.w3.org/2000/svg" width="1em" height="1em" viewBox="0 0 256 256"><path fill="currentColor" d="M192 36H64a28 28 0 0 0-28 28v128a28 28 0 0 0 28 28h128a28 28 0 0 0 28-28V64a28 28 0 0 0-28-28m20 156a20 20 0 0 1-20 20H64a20 20 0 0 1-20-20V64a20 20 0 0 1 20-20h128a20 20 0 0 1 20 20ZM100 84a8 8 0 1 1-8-8a8 8 0 0 1 8 8m72 0a8 8 0 1 1-8-8a8 8 0 0 1 8 8m-72 44a8 8 0 1 1-8-8a8 8 0 0 1 8 8m72 0a8 8 0 1 1-8-8a8 8 0 0 1 8 8m-72 44a8 8 0 1 1-8-8a8 8 0 0 1 8 8m72 0a8 8 0 1 1-8-8a8 8 0 0 1 8 8"/></svg>