<svg xmlns="http://www.w3.org/2000/svg" width="1em" height="1em" viewBox="0 0 256 256"><path fill="currentColor" d="M247.51 174.39L218 58a16.08 16.08 0 0 0-13-11.88l-36.06-5.92a16.22 16.22 0 0 0-18.26 11.88l-.21.85a4 4 0 0 0 3.27 4.93a155.62 155.62 0 0 1 24.41 5.62a8.2 8.2 0 0 1 5.62 9.7a8 8 0 0 1-10.19 5.64a155.4 155.4 0 0 0-90.8-.1a8.22 8.22 0 0 1-10.28-4.81a8 8 0 0 1 5.08-10.33a156.85 156.85 0 0 1 24.72-5.72a4 4 0 0 0 3.27-4.93l-.21-.85a16.21 16.21 0 0 0-18.28-11.87L51 46.13A16.08 16.08 0 0 0 38 58L8.49 174.39a15.94 15.94 0 0 0 9.06 18.51l67 29.71a16.17 16.17 0 0 0 21.71-9.1l3.49-9.45a4 4 0 0 0-3.27-5.35a158.13 158.13 0 0 1-28.63-6.2a8.2 8.2 0 0 1-5.61-9.67a8 8 0 0 1 10.2-5.66a155.59 155.59 0 0 0 91.12 0a8 8 0 0 1 10.19 5.65a8.19 8.19 0 0 1-5.61 9.68a157.84 157.84 0 0 1-28.62 6.2a4 4 0 0 0-3.27 5.35l3.49 9.45a16.18 16.18 0 0 0 21.71 9.1l67-29.71a15.94 15.94 0 0 0 9.06-18.51M92 152a12 12 0 1 1 12-12a12 12 0 0 1-12 12m72 0a12 12 0 1 1 12-12a12 12 0 0 1-12 12"/></svg>