<svg xmlns="http://www.w3.org/2000/svg" width="1em" height="1em" viewBox="0 0 256 256"><g fill="currentColor"><path d="M152 128a24 24 0 1 1-24-24a24 24 0 0 1 24 24M48 104a24 24 0 1 0 24 24a24 24 0 0 0-24-24m160 0a24 24 0 1 0 24 24a24 24 0 0 0-24-24" opacity=".2"/><path d="M128 96a32 32 0 1 0 32 32a32 32 0 0 0-32-32m0 48a16 16 0 1 1 16-16a16 16 0 0 1-16 16M48 96a32 32 0 1 0 32 32a32 32 0 0 0-32-32m0 48a16 16 0 1 1 16-16a16 16 0 0 1-16 16m160-48a32 32 0 1 0 32 32a32 32 0 0 0-32-32m0 48a16 16 0 1 1 16-16a16 16 0 0 1-16 16"/></g></svg>