<svg xmlns="http://www.w3.org/2000/svg" width="1em" height="1em" viewBox="0 0 256 256"><path fill="currentColor" d="M128 24a104 104 0 1 0 104 104A104.11 104.11 0 0 0 128 24m87.65 96.18q-3.82-.18-7.65-.18a168.58 168.58 0 0 0-43.94 5.84A166.52 166.52 0 0 0 150.61 96a168.32 168.32 0 0 0 38.2-31.55a87.78 87.78 0 0 1 26.84 55.73m-39.37-65.72A151.75 151.75 0 0 1 142 82.52a169.22 169.22 0 0 0-38.63-39a88 88 0 0 1 73 10.94Zm-90.63-3.58a153.13 153.13 0 0 1 42 39.18A151.82 151.82 0 0 1 64 104a154.19 154.19 0 0 1-20.28-1.35a88.39 88.39 0 0 1 41.93-51.77M40 128a87.73 87.73 0 0 1 .53-9.64A168.85 168.85 0 0 0 64 120a167.84 167.84 0 0 0 72.52-16.4a150.82 150.82 0 0 1 12.31 27.13a167.11 167.11 0 0 0-24.59 11.6a169.22 169.22 0 0 0-55.07 51.06A87.8 87.8 0 0 1 40 128m42 75a152.91 152.91 0 0 1 50.24-46.79a148.81 148.81 0 0 1 20.95-10a152.48 152.48 0 0 1 3.73 33.47a152.93 152.93 0 0 1-3.49 32.56A87.92 87.92 0 0 1 82 203m89.06 1.73a170 170 0 0 0 1.86-25a168.69 168.69 0 0 0-4.45-38.47A152.31 152.31 0 0 1 208 136q3.8 0 7.61.19a88.13 88.13 0 0 1-44.55 68.53Z"/></svg>