<svg xmlns="http://www.w3.org/2000/svg" width="1em" height="1em" viewBox="0 0 256 256"><g fill="currentColor"><path d="M24 128h48v64H24Zm80 64h48v-32h-48Zm80-96v96h48V96Z" opacity=".2"/><path d="M80 96a8 8 0 0 1-8 8H24a8 8 0 0 1 0-16h48a8 8 0 0 1 8 8m72 24h-48a8 8 0 0 0 0 16h48a8 8 0 0 0 0-16m32-48h48a8 8 0 0 0 0-16h-48a8 8 0 0 0 0 16M80 128v64a8 8 0 0 1-8 8H24a8 8 0 0 1-8-8v-64a8 8 0 0 1 8-8h48a8 8 0 0 1 8 8m-16 8H32v48h32Zm96 24v32a8 8 0 0 1-8 8h-48a8 8 0 0 1-8-8v-32a8 8 0 0 1 8-8h48a8 8 0 0 1 8 8m-16 8h-32v16h32Zm96-72v96a8 8 0 0 1-8 8h-48a8 8 0 0 1-8-8V96a8 8 0 0 1 8-8h48a8 8 0 0 1 8 8m-16 8h-32v80h32Z"/></g></svg>