<svg xmlns="http://www.w3.org/2000/svg" width="1em" height="1em" viewBox="0 0 256 256"><path fill="currentColor" d="M170.34 85.66a8 8 0 0 1 11.32-11.32L192 84.69V48a8 8 0 0 1 16 0v36.69l10.34-10.35a8 8 0 0 1 11.32 11.32l-24 24a8 8 0 0 1-11.32 0ZM240 160v40a16 16 0 0 1-16 16h-52.5a16.06 16.06 0 0 1-11.76-5.15L68.5 112H32a16 16 0 0 1-16-16V56a16 16 0 0 1 16-16h52.5a16.06 16.06 0 0 1 11.76 5.15L187.5 144H224a16 16 0 0 1 16 16m-16 0h-36.5a16.06 16.06 0 0 1-11.76-5.15L84.5 56H32v40h36.5a16.06 16.06 0 0 1 11.76 5.15L171.5 200H224Z"/></svg>