<svg xmlns="http://www.w3.org/2000/svg" width="1em" height="1em" viewBox="0 0 256 256"><path fill="currentColor" d="M172 104a4 4 0 0 1-4 4H88a4 4 0 0 1 0-8h80a4 4 0 0 1 4 4m-4 28H88a4 4 0 0 0 0 8h80a4 4 0 0 0 0-8m84-28v24a28 28 0 0 1-28 28h-7.8c-5.84 14.64-18.33 27.51-37 37.86c-20.53 11.41-42.54 16.57-48.8 17.89a11.93 11.93 0 0 1-4.86 0c-6.26-1.32-28.27-6.48-48.8-17.89c-18.64-10.35-31.13-23.22-37-37.86H32a28 28 0 0 1-28-28v-24a28 28 0 0 1 28-28h4.06a12 12 0 0 1 7.84-10.19l80-29.09a12 12 0 0 1 8.2 0l80 29.09A12 12 0 0 1 219.94 76H224a28 28 0 0 1 28 28M37.32 148A53.6 53.6 0 0 1 36 136.15V84h-4a20 20 0 0 0-20 20v24a20 20 0 0 0 20 20Zm172.16 3.27a4.07 4.07 0 0 1 .34-1a46 46 0 0 0 2.18-14.12V77.09a4 4 0 0 0-2.63-3.76l-80-29.09a4 4 0 0 0-2.74 0l-80 29.09A4 4 0 0 0 44 77.09v59.06a45.85 45.85 0 0 0 2.18 14.11a4.29 4.29 0 0 1 .34 1c4.74 13.68 16.16 25.61 34.14 35.6c19.55 10.86 40.57 15.79 46.55 17a3.82 3.82 0 0 0 1.58 0c6-1.26 27-6.19 46.55-17c17.99-9.98 29.41-21.86 34.14-35.59M244 104a20 20 0 0 0-20-20h-4v52.15a53.6 53.6 0 0 1-1.32 11.85H224a20 20 0 0 0 20-20Z"/></svg>