<svg xmlns="http://www.w3.org/2000/svg" width="1em" height="1em" viewBox="0 0 256 256"><path fill="currentColor" d="M176 104a8 8 0 0 1-8 8H88a8 8 0 0 1 0-16h80a8 8 0 0 1 8 8m-8 24H88a8 8 0 0 0 0 16h80a8 8 0 0 0 0-16m88-24v24a32 32 0 0 1-32 32h-5.13c-6.54 14.44-19.26 27.12-37.7 37.36c-21 11.68-43.52 17-49.92 18.3a15.7 15.7 0 0 1-6.5 0c-6.4-1.34-28.9-6.62-49.92-18.3c-18.44-10.24-31.16-22.92-37.7-37.36H32a32 32 0 0 1-32-32v-24a32 32 0 0 1 32-32h.85a16 16 0 0 1 9.68-10l80-29.09a16.06 16.06 0 0 1 10.94 0l80 29.09a16 16 0 0 1 9.68 10h.85a32 32 0 0 1 32 32M32.53 144a59.94 59.94 0 0 1-.53-7.85V88a16 16 0 0 0-16 16v24a16 16 0 0 0 16 16ZM208 136.15V77.09L128 48L48 77.09v59.06c0 45.76 71.84 62.13 80 63.85c8.16-1.72 80-18.09 80-63.85M240 104a16 16 0 0 0-16-16v48.15a59.94 59.94 0 0 1-.53 7.85h.53a16 16 0 0 0 16-16Z"/></svg>