<svg xmlns="http://www.w3.org/2000/svg" width="1em" height="1em" viewBox="0 0 256 256"><path fill="currentColor" d="M124 152a4 4 0 0 1-4 4h-12v52a4 4 0 0 1-8 0v-52H88a4 4 0 0 1 0-8h32a4 4 0 0 1 4 4m-60-4a4 4 0 0 0-4 4v24H36v-24a4 4 0 0 0-8 0v56a4 4 0 0 0 8 0v-24h24v24a4 4 0 0 0 8 0v-56a4 4 0 0 0-4-4m176 56h-16v-52a4 4 0 0 0-8 0v56a4 4 0 0 0 4 4h20a4 4 0 0 0 0-8m-46.93-55.85a4 4 0 0 0-4.5 1.79L168 184.23l-20.57-34.29A4 4 0 0 0 140 152v56a4 4 0 0 0 8 0v-41.56l16.57 27.62a4 4 0 0 0 6.86 0L188 166.44V208a4 4 0 0 0 8 0v-56a4 4 0 0 0-2.93-3.85m17.76-63A4 4 0 0 1 212 88v24a4 4 0 0 1-8 0V92h-52a4 4 0 0 1-4-4V36H56a4 4 0 0 0-4 4v72a4 4 0 0 1-8 0V40a12 12 0 0 1 12-12h96a4 4 0 0 1 2.83 1.17ZM198.34 84L156 41.65V84Z"/></svg>