<svg xmlns="http://www.w3.org/2000/svg" width="1em" height="1em" viewBox="0 0 256 256"><path fill="currentColor" d="M224 152a8 8 0 0 1-8 8h-12v48a8 8 0 0 1-16 0v-48h-12a8 8 0 0 1 0-16h40a8 8 0 0 1 8 8M92 172a28 28 0 0 1-28 28h-8v8a8 8 0 0 1-16 0v-56a8 8 0 0 1 8-8h16a28 28 0 0 1 28 28m-16 0a12 12 0 0 0-12-12h-8v24h8a12 12 0 0 0 12-12m84 0a28 28 0 0 1-28 28h-8v8a8 8 0 0 1-16 0v-56a8 8 0 0 1 8-8h16a28 28 0 0 1 28 28m-16 0a12 12 0 0 0-12-12h-8v24h8a12 12 0 0 0 12-12M40 112V40a16 16 0 0 1 16-16h96a8 8 0 0 1 5.66 2.34l56 56A8 8 0 0 1 216 88v24a8 8 0 0 1-8 8H48a8 8 0 0 1-8-8m112-24h44l-44-44Z"/></svg>