<svg xmlns="http://www.w3.org/2000/svg" width="1em" height="1em" viewBox="0 0 256 256"><path fill="currentColor" d="m210.8 85.1l-56-55.9l-.6-.4h-.2l-.5-.3H56A12 12 0 0 0 44 40v176a12 12 0 0 0 12 12h144a12 12 0 0 0 12-12V88.1a4.5 4.5 0 0 0-1.2-3ZM156 41.7L198.3 84H156ZM204 216a4 4 0 0 1-4 4H56a4 4 0 0 1-4-4V40a4 4 0 0 1 4-4h92v52a4 4 0 0 0 4 4h52Zm-57.4-90.6A32 32 0 1 0 124 180a32 32 0 0 0 19.6-6.7l13.4 13.3a3.8 3.8 0 0 0 2.8 1.2a3.9 3.9 0 0 0 2.8-1.2a3.9 3.9 0 0 0 0-5.6l-13.3-13.4A32 32 0 0 0 156 148a31.5 31.5 0 0 0-9.4-22.6ZM141 165a24.1 24.1 0 1 1 7-17a24.2 24.2 0 0 1-7 17Z"/></svg>