<svg xmlns="http://www.w3.org/2000/svg" width="1em" height="1em" viewBox="0 0 256 256"><path fill="currentColor" d="M48 120h160a8 8 0 0 0 8-8V88a8 8 0 0 0-2.34-5.66l-56-56A8 8 0 0 0 152 24H56a16 16 0 0 0-16 16v72a8 8 0 0 0 8 8m104-76l44 44h-44Zm4 164a8 8 0 0 1-8 8h-28a8 8 0 0 1-8-8v-56a8 8 0 0 1 16 0v48h20a8 8 0 0 1 8 8m-61.49-51.35L77.83 180l16.68 23.35a8 8 0 0 1-13 9.3L68 193.76l-13.49 18.89a8 8 0 1 1-13-9.3L58.17 180l-16.68-23.35a8 8 0 1 1 13-9.3L68 166.24l13.49-18.89a8 8 0 0 1 13 9.3Zm121.28 39.66a20.81 20.81 0 0 1-9.18 15.23c-5.19 3.46-11.67 4.46-17.49 4.46a60.63 60.63 0 0 1-15.19-2a8 8 0 0 1 4.31-15.41c4.38 1.21 14.94 2.71 19.54-.35c.89-.6 1.84-1.52 2.15-3.93c.34-2.67-.72-4.1-12.78-7.59c-9.35-2.7-25-7.23-23-23.12a20.58 20.58 0 0 1 8.95-14.94c11.84-8 30.72-3.31 32.83-2.76a8 8 0 0 1-4.07 15.48c-4.48-1.17-15.22-2.56-19.82.56a4.54 4.54 0 0 0-2 3.67c-.11.9-.13 1.08 1.12 1.9c2.31 1.49 6.45 2.68 10.45 3.84c9.87 2.82 26.39 7.65 24.18 24.96"/></svg>