<svg xmlns="http://www.w3.org/2000/svg" width="1em" height="1em" viewBox="0 0 256 256"><path fill="currentColor" d="m213.6 82.3l-55.9-56l-.3-.2l-.3-.3l-.3-.2l-.3-.2c-.1-.1-.2-.1-.2-.2l-.5-.3h-.2l-.5-.3h-.1l-.7-.3H56A16 16 0 0 0 40 40v176a16 16 0 0 0 16 16h144a16 16 0 0 0 16-16V88a7.8 7.8 0 0 0-2.4-5.7Zm-48.2 107.2a8 8 0 0 1-5.6 2.3a8.3 8.3 0 0 1-5.7-2.3l-10.9-11A36.8 36.8 0 0 1 124 184a36 36 0 1 1 36-36a35.8 35.8 0 0 1-5.5 19.2l10.9 10.9a8 8 0 0 1 0 11.4ZM152 88V43.3L196.7 88Z"/><path fill="currentColor" d="M124 128a19.9 19.9 0 0 0-14.1 5.9a19.8 19.8 0 0 0 0 28.2a19.9 19.9 0 0 0 28.2 0a19.8 19.8 0 0 0 0-28.2A19.9 19.9 0 0 0 124 128Z"/></svg>