<svg xmlns="http://www.w3.org/2000/svg" width="1em" height="1em" viewBox="0 0 256 256"><path fill="currentColor" d="m213.65 82.34l-56-56A8 8 0 0 0 152 24H56a16 16 0 0 0-16 16v72a8 8 0 0 0 8 8h160a8 8 0 0 0 8-8V88a8 8 0 0 0-2.35-5.66M152 88V44l44 44ZM48 180c0 11 7.18 20 16 20a14.24 14.24 0 0 0 10.22-4.66a8 8 0 0 1 11.56 11.06A30.06 30.06 0 0 1 64 216c-17.64 0-32-16.15-32-36s14.36-36 32-36a30.06 30.06 0 0 1 21.78 9.6a8 8 0 0 1-11.56 11.06A14.17 14.17 0 0 0 64 160c-8.82 0-16 9-16 20m103.81 16.31a20.82 20.82 0 0 1-9.19 15.23C137.43 215 131 216 125.13 216a61.34 61.34 0 0 1-15.19-2a8 8 0 0 1 4.31-15.41c4.38 1.2 14.95 2.7 19.55-.36c.88-.59 1.83-1.52 2.14-3.93c.34-2.67-.72-4.1-12.78-7.59c-9.35-2.7-25-7.23-23-23.11a20.58 20.58 0 0 1 9-14.95c11.85-8 30.72-3.31 32.84-2.76a8 8 0 0 1-4.07 15.48c-4.49-1.17-15.23-2.56-19.83.56a4.57 4.57 0 0 0-2 3.67c-.11.9-.13 1.09 1.12 1.9c2.31 1.49 6.45 2.68 10.45 3.84c9.82 2.83 26.33 7.66 24.14 24.97m63.72-41.62l-20 56a8 8 0 0 1-15.07 0l-20-56a8 8 0 0 1 15.07-5.38l12.47 34.9l12.46-34.9a8 8 0 0 1 15.07 5.38"/></svg>