<svg xmlns="http://www.w3.org/2000/svg" width="1em" height="1em" viewBox="0 0 256 256"><path fill="currentColor" d="M70 128a132.68 132.68 0 0 1-14 59.58a6 6 0 0 1-5.38 3.33a6 6 0 0 1-5.36-8.67A120.74 120.74 0 0 0 58 128a69.72 69.72 0 0 1 26.25-54.64a6 6 0 0 1 7.51 9.37A57.73 57.73 0 0 0 70 128m58-6a6 6 0 0 0-6 6a186.07 186.07 0 0 1-23.23 90.07a6 6 0 0 0 10.5 5.82A198.14 198.14 0 0 0 134 128a6 6 0 0 0-6-6m0-32a38 38 0 0 0-38 38a6 6 0 0 0 12 0a26 26 0 0 1 52 0a216.06 216.06 0 0 1-20.71 92.85a6 6 0 1 0 10.87 5.15A227.94 227.94 0 0 0 166 128a38 38 0 0 0-38-38m0-64A102.11 102.11 0 0 0 26 128a90 90 0 0 1-5.12 30a6 6 0 1 0 11.31 4A101.83 101.83 0 0 0 38 128a90 90 0 0 1 180 0a284.7 284.7 0 0 1-5.33 54.84a6 6 0 0 0 4.72 7.05a6.8 6.8 0 0 0 1.17.11a6 6 0 0 0 5.88-4.84A295.92 295.92 0 0 0 230 128A102.12 102.12 0 0 0 128 26M94 154.13a6 6 0 0 0-7.07 4.69a152.82 152.82 0 0 1-17.44 46a6 6 0 0 0 10.4 6a164.77 164.77 0 0 0 18.8-49.65a6 6 0 0 0-4.69-7.04M128 58a70.76 70.76 0 0 0-8.75.54a6 6 0 1 0 1.49 11.91A58 58 0 0 1 186 128a252.27 252.27 0 0 1-1.94 31.26a6 6 0 0 0 5.21 6.69a6.59 6.59 0 0 0 .75 0a6 6 0 0 0 5.95-5.26A266.46 266.46 0 0 0 198 128a70.08 70.08 0 0 0-70-70m57.44 128.2a6 6 0 0 0-7.31 4.31c-1.47 5.74-3.18 11.49-5.06 17.09a6 6 0 0 0 11.38 3.82c2-5.88 3.75-11.9 5.3-17.92a6 6 0 0 0-4.31-7.3"/></svg>