<svg xmlns="http://www.w3.org/2000/svg" width="1em" height="1em" viewBox="0 0 256 256"><path fill="currentColor" d="M216 68h-44V56a20 20 0 0 0-20-20h-48a20 20 0 0 0-20 20v12H40a12 12 0 0 0-12 12v128a12 12 0 0 0 12 12h176a12 12 0 0 0 12-12V80a12 12 0 0 0-12-12M92 56a12 12 0 0 1 12-12h48a12 12 0 0 1 12 12v12H92Zm128 152a4 4 0 0 1-4 4H40a4 4 0 0 1-4-4V80a4 4 0 0 1 4-4h176a4 4 0 0 1 4 4Zm-64-64a4 4 0 0 1-4 4h-20v20a4 4 0 0 1-8 0v-20h-20a4 4 0 0 1 0-8h20v-20a4 4 0 0 1 8 0v20h20a4 4 0 0 1 4 4"/></svg>