<svg xmlns="http://www.w3.org/2000/svg" width="1em" height="1em" viewBox="0 0 256 256"><path fill="currentColor" d="M216 66h-42V56a22 22 0 0 0-22-22h-48a22 22 0 0 0-22 22v10H40a14 14 0 0 0-14 14v128a14 14 0 0 0 14 14h176a14 14 0 0 0 14-14V80a14 14 0 0 0-14-14M94 56a10 10 0 0 1 10-10h48a10 10 0 0 1 10 10v10H94Zm124 152a2 2 0 0 1-2 2H40a2 2 0 0 1-2-2V80a2 2 0 0 1 2-2h176a2 2 0 0 1 2 2Zm-60-64a6 6 0 0 1-6 6h-18v18a6 6 0 0 1-12 0v-18h-18a6 6 0 0 1 0-12h18v-18a6 6 0 0 1 12 0v18h18a6 6 0 0 1 6 6"/></svg>