<svg xmlns="http://www.w3.org/2000/svg" width="1em" height="1em" viewBox="0 0 256 256"><path fill="currentColor" d="M166.05 75.94a10 10 0 1 1-10-10a10 10 0 0 1 10 10m40.3 79.79c-20.57 26.13-53.59 40.27-98.18 42.05l-22.53 52.58a6 6 0 0 1-5.52 3.64h-.38a6 6 0 0 1-5.39-4.34l-15.11-52.9l-52.89-15.15a6 6 0 0 1-.71-11.29l52.58-22.49c1.78-44.6 15.94-77.61 42.08-98.18c42.5-33.45 103.41-22.42 115.18-19.86a14 14 0 0 1 10.73 10.72c2.55 11.79 13.59 72.72-19.86 115.22M167 172.27a50.09 50.09 0 0 1-36.95-46.35A50.12 50.12 0 0 1 83.73 89c-8.46 16.94-13 38-13.64 63a6 6 0 0 1-3.63 5.38l-40.58 17.34l39.87 11.42a6 6 0 0 1 4.12 4.12l11.38 39.86l17.39-40.58a6 6 0 0 1 5.36-3.64c25-.59 46.08-5.16 63-13.63m47.48-129.22a2 2 0 0 0-1.54-1.53C202.09 39.17 146 29 107.72 59.08a83.55 83.55 0 0 0-13.53 13.45a38 38 0 0 0 41.48 41.25a6 6 0 0 1 6.55 6.55a38 38 0 0 0 41.28 41.47a83.18 83.18 0 0 0 13.42-13.5C227 110 216.83 53.92 214.48 43.05"/></svg>