<svg xmlns="http://www.w3.org/2000/svg" width="1em" height="1em" viewBox="0 0 256 256"><path fill="currentColor" d="M164 76a8 8 0 1 1-8-8a8 8 0 0 1 8 8m32.71 88c-27 26.91-69.93 37.74-128.08 32.37q2.43 20.2 7.37 42.82a4 4 0 0 1-3 4.77a4.19 4.19 0 0 1-.86.09a4 4 0 0 1-3.9-3.15a453.52 453.52 0 0 1-7.7-45.37a456 456 0 0 1-45.34-7.71a4 4 0 1 1 1.66-7.82q22.59 4.95 42.78 7.38C54.3 129.21 65.13 86.26 92 59.3c42.31-42.41 109.88-30.4 123-27.56a12.09 12.09 0 0 1 9.26 9.26c2.84 13.08 14.85 80.64-27.55 123m-5.65-5.66c.81-.82 1.6-1.66 2.38-2.5a100 100 0 0 1-93.23-93.24c-.85.79-1.69 1.58-2.51 2.4c-25.43 25.43-35.45 66.78-29.95 123.22c56.45 5.51 97.81-4.5 123.31-29.93Zm25.38-115.69a4 4 0 0 0-3.09-3.09a173.25 173.25 0 0 0-50.46-2.82c-21.79 2.12-40.19 8.64-54.89 19.4A92 92 0 0 0 199.86 148c10.76-14.7 17.28-33.1 19.4-54.9a173.21 173.21 0 0 0-2.82-50.45"/></svg>