<svg xmlns="http://www.w3.org/2000/svg" width="1em" height="1em" viewBox="0 0 256 256"><path fill="currentColor" d="M221 37a12 12 0 0 0-12.85 1.84c-24.71 21.41-44.53 13.31-74.82-1.68c-28.14-13.89-63.16-31.22-101.19 1.72A12 12 0 0 0 28 48v168a12 12 0 0 0 24 0v-42.29c22.84-17.13 42.1-9.11 70.68 5c16.23 8 34.74 17.2 54.8 17.2c14.72 0 30.28-4.94 46.38-18.88A12 12 0 0 0 228 168V48a12 12 0 0 0-7-11m-43.52 38.91A63 63 0 0 0 204 70.08v36.16c-11 8.25-21.2 10.66-32 9.36V75.66c1.81.15 3.64.25 5.48.25M148 70.08v38.09c-4.64-2-9.5-4.4-14.68-7A255.21 255.21 0 0 0 108 89.83V51.75c4.64 2 9.5 4.4 14.68 7A252.91 252.91 0 0 0 148 70.08M84 44.32v39.92a63.33 63.33 0 0 0-32 5.61V53.68C63 45.42 73.2 43 84 44.32M78.52 140A63 63 0 0 0 52 145.86v-28.15c11-8.26 21.2-10.67 32-9.37v31.94c-1.81-.15-3.64-.28-5.48-.28m29.48 5.86v-30.09c4.64 2 9.5 4.4 14.68 7A252.91 252.91 0 0 0 148 134.1v30.09c-4.64-2.05-9.5-4.4-14.68-7A250.66 250.66 0 0 0 108 145.86m64 25.76v-31.94c1.81.14 3.64.24 5.48.24a62.85 62.85 0 0 0 26.52-5.85v28.19c-11 8.26-21.2 10.66-32 9.36"/></svg>