<svg xmlns="http://www.w3.org/2000/svg" width="1em" height="1em" viewBox="0 0 256 256"><g fill="currentColor"><path d="M216 48v64c-19.89 17.23-38.23 18.39-56 13.48v-64c17.76 4.91 36.11 3.75 56-13.48M96 98.52v-64C78.24 29.61 59.89 30.77 40 48v64c19.89-17.22 38.23-18.39 56-13.48v56c21.62 6 42.38 21 64 27v-56c-21.62-6-42.38-21-64-27" opacity=".2"/><path d="M219.32 40.75a8 8 0 0 0-8.56 1.25c-28 24.22-51.72 12.48-79.21-1.13C103.07 26.76 70.78 10.79 34.76 42A8 8 0 0 0 32 48v168a8 8 0 0 0 16 0v-44.23c26.79-21.16 49.87-9.75 76.45 3.41c28.49 14.09 60.77 30.06 96.79-1.13a8 8 0 0 0 2.76-6V48a8 8 0 0 0-4.68-7.25M88 144.7a65.5 65.5 0 0 0-9.42-.71A60.06 60.06 0 0 0 48 152.43v-36.65c14-11.06 27-13.22 40-10.88Zm0-56a60.06 60.06 0 0 0-40 7.75V51.78c14-11.06 27-13.21 40-10.87Zm64 81.63c-6.66-2.67-13.43-6-20.45-9.48c-8.82-4.37-18-8.9-27.55-12.17v-39c6.66 2.66 13.43 6 20.45 9.48c8.82 4.37 18 8.9 27.55 12.17Zm0-56c-6.66-2.67-13.43-6-20.45-9.49c-8.82-4.36-18-8.9-27.55-12.17v-47c6.66 2.66 13.43 6 20.45 9.48c8.82 4.36 18 8.9 27.55 12.17Zm56 49.92c-14 11.06-27 13.21-40 10.87v-39.8a65.5 65.5 0 0 0 9.42.72a60.11 60.11 0 0 0 30.58-8.47Zm0-56c-14 11.06-27 13.22-40 10.88V71.34a60.05 60.05 0 0 0 40-7.74Z"/></g></svg>