<svg xmlns="http://www.w3.org/2000/svg" width="1em" height="1em" viewBox="0 0 256 256"><path fill="currentColor" d="M218.49 42.5a6 6 0 0 0-6.42.92c-29 25.11-53.28 13.08-81.41-.84c-27.92-13.82-59.57-29.49-94.59.84A6 6 0 0 0 34 48v168a6 6 0 0 0 12 0v-45.22c28.08-22.79 51.88-11 79.34 2.59c27.92 13.82 59.58 29.48 94.59-.85A6 6 0 0 0 222 168V48a6 6 0 0 0-3.51-5.5M210 60v49.2c-15.53 12.6-29.75 14.65-44 11.65V68.88c14 2.45 28.64.9 44-8.88m-56 5.87v51.4c-7.6-2.85-15.31-6.66-23.34-10.64c-9.16-4.57-18.66-9.3-28.66-12.54V42.71a255.17 255.17 0 0 1 23.34 10.63c9.16 4.53 18.71 9.25 28.66 12.49ZM90 39.13V91c-14-2.45-28.64-.89-44 8.93V50.75c15.53-12.6 29.75-14.62 44-11.62M78.63 146c-10.5 0-21.39 2.79-32.63 10v-41.21c15.53-12.61 29.75-14.65 44-11.65v43.93A66.32 66.32 0 0 0 78.63 146m23.37 4.11v-43.39c7.6 2.84 15.31 6.66 23.34 10.63c9.16 4.53 18.71 9.26 28.66 12.5v43.39c-7.6-2.85-15.31-6.66-23.34-10.63c-9.16-4.54-18.66-9.26-28.66-12.5m64 26.7v-43.92a66.32 66.32 0 0 0 11.37 1c10.5 0 21.39-2.78 32.63-10v41.23c-15.53 12.67-29.75 14.69-44 11.69"/></svg>