<svg xmlns="http://www.w3.org/2000/svg" width="1em" height="1em" viewBox="0 0 256 256"><g fill="currentColor"><path d="M208 40H91.31a8 8 0 0 0-5.65 2.34L42.34 85.66A8 8 0 0 0 40 91.31V208a8 8 0 0 0 8 8h160a8 8 0 0 0 8-8V48a8 8 0 0 0-8-8m-80 144a32 32 0 1 1 32-32a32 32 0 0 1-32 32" opacity=".2"/><path d="M208 32H91.31A15.86 15.86 0 0 0 80 36.69L36.69 80A15.86 15.86 0 0 0 32 91.31V208a16 16 0 0 0 16 16h160a16 16 0 0 0 16-16V48a16 16 0 0 0-16-16m0 176H48V91.31L91.31 48H168v32H88a8 8 0 0 0 0 16h80a16 16 0 0 0 16-16V48h24Zm-80-96a40 40 0 1 0 40 40a40 40 0 0 0-40-40m0 64a24 24 0 1 1 24-24a24 24 0 0 1-24 24"/></g></svg>