<svg xmlns="http://www.w3.org/2000/svg" width="1em" height="1em" viewBox="0 0 256 256"><path fill="currentColor" d="M96 208a8 8 0 0 1-8 8H39.4A15.4 15.4 0 0 1 24 200.6V192a8 8 0 0 1 16 0v8h48a8 8 0 0 1 8 8ZM32 88h96a8 8 0 0 0 7.4-4.9a8.4 8.4 0 0 0-1.7-8.8L104 44.7A15.9 15.9 0 0 0 92.7 40H40a16 16 0 0 0-16 16v24a8 8 0 0 0 8 8Zm0 72a8 8 0 0 0 8-8v-32a8 8 0 0 0-16 0v32a8 8 0 0 0 8 8Zm184-88h-48a8 8 0 0 0 0 16h48v24a8 8 0 0 0 16 0V88a16 16 0 0 0-16-16Zm8 72a8 8 0 0 0-8 8v48h-16a8 8 0 0 0 0 16h16.9a15.2 15.2 0 0 0 15.1-15.1V152a8 8 0 0 0-8-8Zm-64 56h-32a8 8 0 0 0 0 16h32a8 8 0 0 0 0-16Z"/></svg>