<svg xmlns="http://www.w3.org/2000/svg" width="1em" height="1em" viewBox="0 0 256 256"><path fill="currentColor" d="M120 208a12 12 0 0 1-12 12H40a20 20 0 0 1-20-20V64a20 20 0 0 1 20-20h53.33a20.12 20.12 0 0 1 12 4L132 68h84a20 20 0 0 1 20 20v20a12 12 0 0 1-24 0V92h-81.33a20.12 20.12 0 0 1-12-4L92 68H44v128h64a12 12 0 0 1 12 12m119.64-37.13l-20.58 17l6.25 25.26a12 12 0 0 1-17.73 13.22L184 212.46l-23.58 13.88a12 12 0 0 1-17.73-13.22l6.25-25.26l-20.58-17a12 12 0 0 1 6.72-21.22l27.42-2.12l10.5-24.28a12 12 0 0 1 22 0l10.48 24.29l27.42 2.12a12 12 0 0 1 6.72 21.22Zm-38.2.42l-5-.39a12 12 0 0 1-10.09-7.21l-2.33-5.4l-2.33 5.4a12 12 0 0 1-10.1 7.21l-5 .39l3.48 2.87a12 12 0 0 1 4 12.13l-1.21 4.89l5.07-3a12 12 0 0 1 12.18 0l5.07 3l-1.18-4.89a12 12 0 0 1 4-12.13Z"/></svg>