<svg xmlns="http://www.w3.org/2000/svg" width="1em" height="1em" viewBox="0 0 256 256"><path fill="currentColor" d="M100 208a12 12 0 0 1-12 12H39.4A19.4 19.4 0 0 1 20 200.6V192a12 12 0 0 1 24 0v4h44a12 12 0 0 1 12 12Zm60-12h-32a12 12 0 0 0 0 24h32a12 12 0 0 0 0-24Zm64-56a12 12 0 0 0-12 12v44h-12a12 12 0 0 0 0 24h16.9a19.2 19.2 0 0 0 19.1-19.1V152a12 12 0 0 0-12-12Zm-8-72h-48a12 12 0 0 0 0 24h44v20a12 12 0 0 0 24 0V88a20.1 20.1 0 0 0-20-20ZM32 164a12 12 0 0 0 12-12v-32a12 12 0 0 0-24 0v32a12 12 0 0 0 12 12ZM20 80V52a20.1 20.1 0 0 1 20-20h52.4a20 20 0 0 1 15 6.7L137 72a12.1 12.1 0 0 1-9 20H32a12 12 0 0 1-12-12Zm24-12h57.3L90.6 56H44Z"/></svg>