<svg xmlns="http://www.w3.org/2000/svg" width="1em" height="1em" viewBox="0 0 256 256"><path fill="currentColor" d="M245 110.64a16 16 0 0 0-13-6.64h-16V88a16 16 0 0 0-16-16h-69.33l-27.73-20.8a16.14 16.14 0 0 0-9.6-3.2H40a16 16 0 0 0-16 16v144a8 8 0 0 0 8 8h179.1a8 8 0 0 0 7.59-5.47l28.49-85.47a16.05 16.05 0 0 0-2.18-14.42M93.34 64l27.73 20.8a16.12 16.12 0 0 0 9.6 3.2H200v16h-53.57a16 16 0 0 0-8.88 2.69l-20 13.31H69.42a15.94 15.94 0 0 0-14.86 10.06L40 166.46V64Zm112 136H43.82l25.6-64h48.16a16 16 0 0 0 8.88-2.69l20-13.31H232Z"/></svg>