<svg xmlns="http://www.w3.org/2000/svg" width="1em" height="1em" viewBox="0 0 256 256"><path fill="currentColor" d="M124.4 84.8L94.5 62.4a1.6 1.6 0 0 0-1.2-.4H40a2 2 0 0 0-2 2v16a6 6 0 0 1-12 0V64a14 14 0 0 1 14-14h53.3a14.1 14.1 0 0 1 8.4 2.8l29.9 22.4a6 6 0 0 1-7.2 9.6ZM88 202H39.4a1.4 1.4 0 0 1-1.4-1.4V192a6 6 0 0 0-12 0v8.6A13.4 13.4 0 0 0 39.4 214H88a6 6 0 0 0 0-12Zm72 0h-32a6 6 0 0 0 0 12h32a6 6 0 0 0 0-12Zm64-56a6 6 0 0 0-6 6v48.9a1.1 1.1 0 0 1-1.1 1.1H200a6 6 0 0 0 0 12h16.9a13.1 13.1 0 0 0 13.1-13.1V152a6 6 0 0 0-6-6Zm-8-72h-48a6 6 0 0 0 0 12h48a2 2 0 0 1 2 2v24a6 6 0 0 0 12 0V88a14 14 0 0 0-14-14ZM32 158a6 6 0 0 0 6-6v-32a6 6 0 0 0-12 0v32a6 6 0 0 0 6 6Z"/></svg>