<svg xmlns="http://www.w3.org/2000/svg" width="1em" height="1em" viewBox="0 0 256 256"><path fill="currentColor" d="M233.06 53.18a37 37 0 0 0-30.24-30.24c-15.24-2.58-38.75-4.78-64.26-.61c-30.9 5.06-57 18.06-77.56 38.67s-33.59 46.68-38.65 77.58c-4.17 25.51-2 49 .61 64.26a37 37 0 0 0 30.24 30.24A209.43 209.43 0 0 0 87.9 236a184.13 184.13 0 0 0 29.54-2.33c30.9-5.06 57-18.06 77.58-38.65s33.59-46.68 38.65-77.58c4.17-25.51 1.97-49.02-.61-64.26m-23.66 4a192 192 0 0 1 2.6 25.88L172.93 44a190.57 190.57 0 0 1 25.88 2.64a13 13 0 0 1 10.59 10.55ZM46.6 198.81a191.79 191.79 0 0 1-2.6-25.87L83.06 212a191.79 191.79 0 0 1-25.87-2.63a13 13 0 0 1-10.59-10.56m131.45-20.76c-11 11-31.31 26.16-63.2 31.83l-68.73-68.73C51.79 109.26 67 88.93 78 78s31.3-26.16 63.2-31.83l68.73 68.73c-5.72 31.84-20.93 52.17-31.88 63.15m-13.56-86.54a12 12 0 0 1 0 17L157 116l3.52 3.51a12 12 0 0 1-17 17L140 133l-7 7l3.52 3.52a12 12 0 0 1-17 17L116 157l-7.52 7.52a12 12 0 0 1-17-17L99 140l-3.52-3.51a12 12 0 1 1 17-17L116 123l7-7l-3.52-3.52a12 12 0 1 1 17-17L140 99l7.52-7.52a12 12 0 0 1 16.97.03"/></svg>