<svg xmlns="http://www.w3.org/2000/svg" width="1em" height="1em" viewBox="0 0 256 256"><path fill="currentColor" d="M200 24h-76.69A15.86 15.86 0 0 0 112 28.69L101.66 39L91.31 28.69a16 16 0 0 0-22.62 0l-24 24a16 16 0 0 0 0 22.62L55 85.66L44.69 96A15.86 15.86 0 0 0 40 107.31V216a16 16 0 0 0 16 16h144a16 16 0 0 0 16-16V40a16 16 0 0 0-16-16M56 64l24-24l10.34 10.34l-24 24Zm124.8 121.6a8 8 0 1 1-9.6 12.8L128 166l-43.2 32.4a8 8 0 0 1-9.6-12.8l39.47-29.6l-39.47-29.6a8 8 0 0 1 9.6-12.8L128 146l43.2-32.4a8 8 0 0 1 9.6 12.8L141.33 156ZM176 72h-40a8 8 0 0 1 0-16h40a8 8 0 0 1 0 16"/></svg>