<svg xmlns="http://www.w3.org/2000/svg" width="1em" height="1em" viewBox="0 0 256 256"><path fill="currentColor" d="m243.32 116.69l-16-16a16 16 0 0 0-20.84-1.53l-49.64-49.64a16 16 0 0 0-1.52-20.84l-16-16a16 16 0 0 0-22.63 0l-64 64a16 16 0 0 0 0 22.63l16 16a16 16 0 0 0 20.83 1.52l7.17 7.17l-65.38 65.38a25 25 0 0 0 35.32 35.32L132 159.32l7.17 7.16a16 16 0 0 0 1.52 20.84l16 16a16 16 0 0 0 22.63 0l64-64a16 16 0 0 0 0-22.63M80 104L64 88l64-64l16 16ZM55.32 213.38a9 9 0 0 1-12.69 0a9 9 0 0 1 0-12.68L108 135.32L120.69 148ZM101 105.66L145.66 61L195 110.34L150.35 155ZM168 192l-16-16l4-4l56-56l4-4l16 16Z"/></svg>