<svg xmlns="http://www.w3.org/2000/svg" width="1em" height="1em" viewBox="0 0 256 256"><path fill="currentColor" d="M234 116.09L214.13 40a15.94 15.94 0 0 0-30.42-1.48L167 84H89L72.29 38.49A15.94 15.94 0 0 0 41.87 40L22 116.09a61.19 61.19 0 0 0 23.57 65.23l73.27 51.77a15.93 15.93 0 0 0 18.36 0l73.27-51.77A61.19 61.19 0 0 0 234 116.09M58.61 70.86l10.76 29.28A12 12 0 0 0 80.64 108h94.72a12 12 0 0 0 11.27-7.86l10.76-29.28l9.14 35L128 161.31l-78.53-55.48ZM44 131.37L107.2 176l-13.79 9.74l-34-24A36.86 36.86 0 0 1 44 131.37m84 78.82l-13.79-9.75L128 190.7l13.79 9.74Zm68.6-48.47l-34 24l-13.8-9.72l63.2-44.63a36.86 36.86 0 0 1-15.4 30.35"/></svg>