<svg xmlns="http://www.w3.org/2000/svg" width="1em" height="1em" viewBox="0 0 256 256"><g fill="currentColor"><path d="M213.09 172.48a96 96 0 0 1-80.41 51.41l3.17-16.44a8 8 0 0 0-2-6.95l-19.74-20.33a8 8 0 0 1-1.44-8.69l13.7-30.74a8 8 0 0 1 8.38-4.67l22.82 3.08a8.11 8.11 0 0 1 3.12 1.11ZM116.71 95L129 88.24a7.46 7.46 0 0 0 1.5-1.07l26.91-24.33A8 8 0 0 0 159 53l-10.5-18.81A96.62 96.62 0 0 0 128 32a95.61 95.61 0 0 0-60.22 21.23L56 81.08a8 8 0 0 0-.12 5.92l11.5 30.67a8 8 0 0 0 5.81 5l2.69.58L89.2 100a8 8 0 0 1 6.94-4h16.71a7.9 7.9 0 0 0 3.86-1" opacity=".2"/><path d="M128 24a104 104 0 1 0 104 104A104.11 104.11 0 0 0 128 24m88 104a87.62 87.62 0 0 1-6.4 32.94l-44.7-27.49a15.92 15.92 0 0 0-6.24-2.23l-22.82-3.08a16.11 16.11 0 0 0-16 7.86h-8.72l-3.8-7.86a15.91 15.91 0 0 0-11-8.67l-8-1.73L96.14 104h16.71a16.06 16.06 0 0 0 7.73-2l12.25-6.76a16.62 16.62 0 0 0 3-2.14l26.91-24.34A15.93 15.93 0 0 0 166 49.1l-.36-.65A88.11 88.11 0 0 1 216 128m-72.69-86.66L152 56.9l-26.91 24.34L112.85 88H96.14a16 16 0 0 0-13.88 8l-8.73 15.23l-10.15-27.04l10.94-25.87a87.87 87.87 0 0 1 69-17ZM40 128a87.53 87.53 0 0 1 8.54-37.8l11.34 30.27a16 16 0 0 0 11.62 10l21.43 4.61l3.81 7.92a16.09 16.09 0 0 0 14.4 9h1.48l-7.23 16.23a16 16 0 0 0 2.86 17.37l.14.14l19.61 20.2l-1.94 10A88.11 88.11 0 0 1 40 128m102.58 86.78l1.13-5.81a16.09 16.09 0 0 0-4-13.9a1.85 1.85 0 0 1-.14-.14L120 174.74L133.7 144l22.82 3.08l45.72 28.12a88.18 88.18 0 0 1-59.66 39.58"/></g></svg>