<svg xmlns="http://www.w3.org/2000/svg" width="1em" height="1em" viewBox="0 0 256 256"><path fill="currentColor" d="M224 44H32a20 20 0 0 0-20 20v128a20 20 0 0 0 20 20h60.69a19.86 19.86 0 0 0 14.14-5.86L128 185l21.17 21.17a19.86 19.86 0 0 0 14.14 5.83H224a20 20 0 0 0 20-20V64a20 20 0 0 0-20-20m-4 144h-55l-22.83-22.83a20 20 0 0 0-28.28 0L91 188H36V68h184ZM82 160a34 34 0 1 0-34-34a34 34 0 0 0 34 34m0-44a10 10 0 1 1-10 10a10 10 0 0 1 10-10m92 44a34 34 0 1 0-34-34a34 34 0 0 0 34 34m0-44a10 10 0 1 1-10 10a10 10 0 0 1 10-10"/></svg>