<svg xmlns="http://www.w3.org/2000/svg" width="1em" height="1em" viewBox="0 0 256 256"><path fill="currentColor" d="M234.19 153.86L165.74 41.64A11.94 11.94 0 0 0 155.56 36h-55.13a11.93 11.93 0 0 0-10.17 5.64L21.83 153.82a12 12 0 0 0-.25 12.32L48.91 214a12 12 0 0 0 10.41 6h137.35a12 12 0 0 0 10.42-6l27.32-47.81a12 12 0 0 0-.22-12.33m-8.06 2.14h-55.87l-37.6-62.67l27.39-45.65Zm-131.07 0L128 101.11L160.93 156Zm70.67 8l28.8 48H61.47l28.79-48ZM128 85.56L103.06 44h49.87ZM95.94 47.68l27.39 45.65L85.74 156H29.87ZM29.58 164h51.36l-26.31 43.85Zm171.79 43.85L175.06 164h51.36Z"/></svg>