<svg xmlns="http://www.w3.org/2000/svg" width="1em" height="1em" viewBox="0 0 256 256"><path fill="currentColor" d="M117.82 217.45A6 6 0 0 1 112 222a6.14 6.14 0 0 1-1.46-.18l-32-8a6.15 6.15 0 0 1-1.87-.83l-24-16a6 6 0 0 1 6.66-10l23.13 15.42l31 7.75a6 6 0 0 1 4.36 7.29m132.73-96.6a13.89 13.89 0 0 1-7 8.09l-24 12l-55.31 55.31A6 6 0 0 1 160 198a6.08 6.08 0 0 1-1.46-.18l-64-16a6 6 0 0 1-2-.94L36.9 141.16l-24.43-12.22a14 14 0 0 1-6.26-18.78l24.85-49.69a14 14 0 0 1 18.78-6.26L72.6 65.59l53.75-15.36a6 6 0 0 1 3.3 0l53.75 15.36l22.76-11.38a14 14 0 0 1 18.78 6.26l24.85 49.69a13.93 13.93 0 0 1 .76 10.69m-232.71-2.64L37.32 128L64 74.68l-19.53-9.74a2 2 0 0 0-2.68.9l-24.85 49.69a2 2 0 0 0-.1 1.52a1.92 1.92 0 0 0 1 1.16M191 152.49l-30.73-24.61c-19 16.38-43.58 18.8-63.8 5.88a14 14 0 0 1-2.39-21.71l45.72-44.36a6 6 0 0 1 2.35-1.4L128 62.24L76.19 77l-28.53 57.1l50.9 36.35l59.6 14.9Zm17.68-17.68L180.29 78h-33.86l-43.91 42.6a1.9 1.9 0 0 0-.51 1.55a2 2 0 0 0 .94 1.5c13.29 8.49 34.14 10.87 52.79-7.92a6 6 0 0 1 8-.45L199.56 144Zm30.36-19.28l-24.83-49.69a2 2 0 0 0-2.68-.9l-19.48 9.74L218.68 128l19.48-9.74a1.92 1.92 0 0 0 1-1.16a2 2 0 0 0-.1-1.57Z"/></svg>