<svg xmlns="http://www.w3.org/2000/svg" width="1em" height="1em" viewBox="0 0 256 256"><path fill="currentColor" d="M188.14 31a4 4 0 0 1 4.9-2.83c14.87 4 27.1 13.17 34.42 25.86a4 4 0 1 1-6.92 4C214.28 47.16 203.77 39.3 191 35.86a4 4 0 0 1-2.86-4.86M77.1 228.86c-9.79-7.72-17.94-17.53-25.64-30.86a4 4 0 0 0-6.92 4c8.22 14.24 17 24.77 27.61 33.14a4 4 0 0 0 2.47.86a4 4 0 0 0 2.48-7.14m148-63.13a84.09 84.09 0 0 1-81 62.29a84.37 84.37 0 0 1-21.87-2.9a83.41 83.41 0 0 1-51-39.13l-38-65.82a24 24 0 0 1 25.7-35.49l-7.05-12.22A24 24 0 0 1 92.48 47a24 24 0 0 1 43.61-4.64l19.08 33a24 24 0 0 1 43.56-4.54l18 31.18a83.43 83.43 0 0 1 8.39 63.73ZM209.8 106l-18-31.18a16 16 0 1 0-27.71 16l10 17.32a4 4 0 0 1-1.46 5.47a36 36 0 0 0-13.18 49.17a4 4 0 1 1-6.93 4a44.07 44.07 0 0 1 12.73-58l-36.09-62.47a16 16 0 0 0-27.71 16l26 45a4 4 0 0 1-6.93 4l-34-58.89a16 16 0 1 0-27.71 16l38 65.81a4 4 0 1 1-6.93 4l-22-38.1a16 16 0 1 0-27.71 16l38 65.82A76 76 0 1 0 209.8 106"/></svg>