<svg xmlns="http://www.w3.org/2000/svg" width="1em" height="1em" viewBox="0 0 256 256"><path fill="currentColor" d="M115.88 217a4 4 0 0 1-3.88 3a4.09 4.09 0 0 1-1-.12l-32-8a4 4 0 0 1-1.25-.55l-24-16a4 4 0 0 1 4.44-6.66l23.42 15.62l31.39 7.83a4 4 0 0 1 2.88 4.88m132.77-96.75a11.88 11.88 0 0 1-6 6.93l-24.26 12.14l-55.54 55.54a4 4 0 0 1-3.8 1l-64-16a3.84 3.84 0 0 1-1.36-.63l-55.76-39.79l-24.56-12.29A12 12 0 0 1 8 111.05l24.84-49.68A12 12 0 0 1 48.94 56L72.4 67.73l54.5-15.58a4.11 4.11 0 0 1 2.2 0l54.5 15.58L207.06 56a12 12 0 0 1 16.1 5.37L248 111.06a11.9 11.9 0 0 1 .65 9.16ZM16.94 120l21.27 10.63l28.42-56.84l-21.26-10.63A4 4 0 0 0 40 64.94l-24.84 49.69a4 4 0 0 0 1.78 5.37M194 152.33l-33.78-27.06c-18.53 16.76-42.78 19.51-62.66 6.81a12 12 0 0 1-2.06-18.62l45.7-44.33A4 4 0 0 1 144 68h11.44L128 60.16l-53.21 15.2l-29.68 59.37l52.6 37.57l61.06 15.27Zm17.12-17.12L181.53 76h-35.91l-44.49 43.16a3.89 3.89 0 0 0-1.11 3.2a4.07 4.07 0 0 0 1.85 3c13.95 8.91 35.8 11.44 55.29-8.2a4 4 0 0 1 5.34-.3l37.21 29.8Zm29.71-20.58L216 64.94a4 4 0 0 0-5.37-1.78l-21.26 10.63l28.42 56.84L239.06 120a4 4 0 0 0 1.78-5.37Z"/></svg>