<svg xmlns="http://www.w3.org/2000/svg" width="1em" height="1em" viewBox="0 0 256 256"><path fill="currentColor" d="M172 24V8a4 4 0 0 1 8 0v16a4 4 0 0 1-8 0m33.92 13.55a4 4 0 0 0 2.08.58a4 4 0 0 0 3.41-1.91l8-13.11a4 4 0 1 0-6.82-4.17l-8 13.11a4 4 0 0 0 1.33 5.5m41.54 17.23a4 4 0 0 0-5-2.58l-15 4.85a4 4 0 0 0 1.22 7.8a4 4 0 0 0 1.23-.19l15-4.85a4 4 0 0 0 2.55-5.03m-29.65 40.71a75.73 75.73 0 0 1-12.68 92.34A76 76 0 0 1 66 206l-35-60.62a22 22 0 0 1 22.7-32.69l-7.52-13a22 22 0 0 1 21.11-32.9l-.94-1.64A22 22 0 0 1 104 42.37A22 22 0 0 1 143.63 39l15.52 26.88a22 22 0 0 1 39.66-3.31ZM112.45 57l6.29 10.89a21.71 21.71 0 0 1 4.67 5.62l15.53 26.85a21.94 21.94 0 0 1 22.7-14.16L136.7 43a14 14 0 1 0-24.25 14M79.56 72a21.71 21.71 0 0 1 4.17 4.85a21.89 21.89 0 0 1 22.74-14.24l-9-15.5a14 14 0 1 0-24.24 14Zm117.89 113.61a67.59 67.59 0 0 0-6.79-51.61l-19-32.91A14 14 0 0 0 152.53 96a14 14 0 0 0-5.53 18.31l11.4 19.7a4 4 0 1 1-6.93 4l-35-60.5a14 14 0 0 0-24.3 13.89L116.8 134a4 4 0 1 1-6.93 4L77.3 81.66a14 14 0 1 0-24.24 14l36 62.36a4 4 0 0 1-6.93 4l-20-34.64a14 14 0 1 0-24.25 14l35 60.63a68 68 0 0 0 124.57-16.4m13.43-86.12l-19-32.91a14 14 0 1 0-24.25 14l6.27 10.87a22.11 22.11 0 0 1 4.69 5.64l19 32.91a75.5 75.5 0 0 1 10.06 42.62a67.76 67.76 0 0 0 3.23-73.13"/></svg>