<svg xmlns="http://www.w3.org/2000/svg" width="1em" height="1em" viewBox="0 0 256 256"><path fill="currentColor" d="M188 88a27.75 27.75 0 0 0-12 2.71V60a28 28 0 0 0-41.36-24.6A28 28 0 0 0 80 44v6.71A27.75 27.75 0 0 0 68 48a28 28 0 0 0-28 28v76a88 88 0 0 0 176 0v-36a28 28 0 0 0-28-28m12 64a72 72 0 0 1-144 0V76a12 12 0 0 1 24 0v36a8 8 0 0 0 16 0V44a12 12 0 0 1 24 0v60a8 8 0 0 0 16 0V60a12 12 0 0 1 24 0v60a8 8 0 0 0 16 0v-4a12 12 0 0 1 24 0Zm-72-24c-36.52 0-54.41 34.94-55.16 36.42a8 8 0 0 0 0 7.16C73.59 173.06 91.48 208 128 208s54.41-34.94 55.16-36.42a8 8 0 0 0 0-7.16C182.41 162.94 164.52 128 128 128m0 56a16 16 0 1 1 16-16a16 16 0 0 1-16 16"/></svg>