<svg xmlns="http://www.w3.org/2000/svg" width="1em" height="1em" viewBox="0 0 256 256"><g fill="currentColor"><path d="M186.48 72L128 128L69.52 72Z" opacity=".2"/><path d="M211.18 196.56L139.57 128l71.61-68.56a1.59 1.59 0 0 1 .13-.13A16 16 0 0 0 200 32H56a16 16 0 0 0-11.31 27.31a1.59 1.59 0 0 1 .13.13L116.43 128l-71.61 68.56a1.59 1.59 0 0 1-.13.13A16 16 0 0 0 56 224h144a16 16 0 0 0 11.32-27.31a1.59 1.59 0 0 1-.14-.13M89.43 80h77.14L128 116.92ZM200 48l-16.7 16H72.72L56 48ZM56 208l72-68.92L200 208Z"/></g></svg>