<svg xmlns="http://www.w3.org/2000/svg" width="1em" height="1em" viewBox="0 0 256 256"><g fill="currentColor"><path d="M216 115.54V208a8 8 0 0 1-8 8h-48a8 8 0 0 1-8-8v-48a8 8 0 0 0-8-8h-32a8 8 0 0 0-8 8v48a8 8 0 0 1-8 8H48a8 8 0 0 1-8-8v-92.46a8 8 0 0 1 2.62-5.92l80-75.54a8 8 0 0 1 10.77 0l80 75.54a8 8 0 0 1 2.61 5.92" opacity=".2"/><path d="m218.83 103.77l-80-75.48a1.14 1.14 0 0 1-.11-.11a16 16 0 0 0-21.53 0l-.11.11l-79.91 75.48A16 16 0 0 0 32 115.55V208a16 16 0 0 0 16 16h48a16 16 0 0 0 16-16v-48h32v48a16 16 0 0 0 16 16h48a16 16 0 0 0 16-16v-92.45a16 16 0 0 0-5.17-11.78M208 208h-48v-48a16 16 0 0 0-16-16h-32a16 16 0 0 0-16 16v48H48v-92.45l.11-.1L128 40l79.9 75.43l.11.1Z"/></g></svg>