<svg xmlns="http://www.w3.org/2000/svg" width="1em" height="1em" viewBox="0 0 256 256"><path fill="currentColor" d="M160 56v96a8 8 0 0 1-8 8h-40a8 8 0 0 1-8-8V56a8 8 0 0 1 8-8h40a8 8 0 0 1 8 8m64-8h-40a8 8 0 0 0-8 8v48a8 8 0 0 0 8 8h40a8 8 0 0 0 8-8V56a8 8 0 0 0-8-8m0 80h-40a8 8 0 0 0-8 8v40a16 16 0 0 0 16 16h24a16 16 0 0 0 16-16v-40a8 8 0 0 0-8-8M80 48H40a8 8 0 0 0-8 8v48a8 8 0 0 0 8 8h40a8 8 0 0 0 8-8V56a8 8 0 0 0-8-8m0 80H40a8 8 0 0 0-8 8v72a16 16 0 0 0 16 16h24a16 16 0 0 0 16-16v-72a8 8 0 0 0-8-8"/></svg>