<svg xmlns="http://www.w3.org/2000/svg" width="1em" height="1em" viewBox="0 0 256 256"><path fill="currentColor" d="M223.51 44h-191A20.51 20.51 0 0 0 12 64.49v127A20.51 20.51 0 0 0 32.49 212h191A20.51 20.51 0 0 0 244 191.51v-127A20.51 20.51 0 0 0 223.51 44M220 188H36V68h184ZM52 128a12 12 0 0 1 12-12h128a12 12 0 0 1 0 24H64a12 12 0 0 1-12-12m0-36a12 12 0 0 1 12-12h128a12 12 0 0 1 0 24H64a12 12 0 0 1-12-12m0 72a12 12 0 0 1 12-12h8a12 12 0 0 1 0 24h-8a12 12 0 0 1-12-12m108 0a12 12 0 0 1-12 12h-40a12 12 0 0 1 0-24h40a12 12 0 0 1 12 12m44 0a12 12 0 0 1-12 12h-8a12 12 0 0 1 0-24h8a12 12 0 0 1 12 12"/></svg>