<svg xmlns="http://www.w3.org/2000/svg" width="1em" height="1em" viewBox="0 0 256 256"><g fill="currentColor"><path d="M232 64.49v127a8.49 8.49 0 0 1-8.49 8.49h-191a8.49 8.49 0 0 1-8.51-8.47v-127A8.49 8.49 0 0 1 32.49 56h191a8.49 8.49 0 0 1 8.51 8.49" opacity=".2"/><path d="M223.51 48h-191A16.51 16.51 0 0 0 16 64.49v127A16.51 16.51 0 0 0 32.49 208h191A16.51 16.51 0 0 0 240 191.51v-127A16.51 16.51 0 0 0 223.51 48m.49 143.51a.49.49 0 0 1-.49.49h-191a.49.49 0 0 1-.49-.49v-127a.49.49 0 0 1 .49-.49h191a.49.49 0 0 1 .49.49ZM208 128a8 8 0 0 1-8 8H56a8 8 0 0 1 0-16h144a8 8 0 0 1 8 8m0-32a8 8 0 0 1-8 8H56a8 8 0 0 1 0-16h144a8 8 0 0 1 8 8M72 160a8 8 0 0 1-8 8h-8a8 8 0 0 1 0-16h8a8 8 0 0 1 8 8m96 0a8 8 0 0 1-8 8H96a8 8 0 0 1 0-16h64a8 8 0 0 1 8 8m40 0a8 8 0 0 1-8 8h-8a8 8 0 0 1 0-16h8a8 8 0 0 1 8 8"/></g></svg>