<svg xmlns="http://www.w3.org/2000/svg" width="1em" height="1em" viewBox="0 0 256 256"><g fill="currentColor"><path d="M156 176h-56a4 4 0 0 1-3.71-5.48l13-32.58a32 32 0 1 1 37.48 0l13 32.58A4 4 0 0 1 156 176" opacity=".2"/><path d="M128 24a104 104 0 1 0 104 104A104.11 104.11 0 0 0 128 24m0 192a88 88 0 1 1 88-88a88.1 88.1 0 0 1-88 88m0-144a40 40 0 0 0-28.28 68.28l-10.86 27.28A12 12 0 0 0 100 184h56a12 12 0 0 0 11.14-16.44l-10.86-27.28A40 40 0 0 0 128 72m11.31 68.9L150.1 168h-44.2l10.79-27.1a8 8 0 0 0-2.74-9.44a24 24 0 1 1 28.1 0a8 8 0 0 0-2.74 9.44"/></g></svg>