<svg xmlns="http://www.w3.org/2000/svg" width="1em" height="1em" viewBox="0 0 256 256"><path fill="currentColor" d="M224 56v16a8 8 0 0 1-8 8H96a8 8 0 0 1-8-8V56a8 8 0 0 1 8-8h120a8 8 0 0 1 8 8M56 48H40a8 8 0 0 0-8 8v16a8 8 0 0 0 8 8h16a8 8 0 0 0 8-8V56a8 8 0 0 0-8-8m160 64H96a8 8 0 0 0-8 8v16a8 8 0 0 0 8 8h120a8 8 0 0 0 8-8v-16a8 8 0 0 0-8-8m-160 0H40a8 8 0 0 0-8 8v16a8 8 0 0 0 8 8h16a8 8 0 0 0 8-8v-16a8 8 0 0 0-8-8m160 64H96a8 8 0 0 0-8 8v16a8 8 0 0 0 8 8h120a8 8 0 0 0 8-8v-16a8 8 0 0 0-8-8m-160 0H40a8 8 0 0 0-8 8v16a8 8 0 0 0 8 8h16a8 8 0 0 0 8-8v-16a8 8 0 0 0-8-8"/></svg>