<svg xmlns="http://www.w3.org/2000/svg" width="1em" height="1em" viewBox="0 0 256 256"><g fill="currentColor"><path d="M144 80v96a8 8 0 0 1-8 8H40a8 8 0 0 1-8-8V80a8 8 0 0 1 8-8h96a8 8 0 0 1 8 8" opacity=".2"/><path d="M88 96a32 32 0 1 0 32 32a32 32 0 0 0-32-32m0 48a16 16 0 1 1 16-16a16 16 0 0 1-16 16m128-40h-8V48a16 16 0 0 0-16-16h-80a16 16 0 0 0-16 16v16H40a16 16 0 0 0-16 16v96a16 16 0 0 0 16 16h32v16a16 16 0 0 0 16 16h128a16 16 0 0 0 16-16v-88a16 16 0 0 0-16-16M112 48h80v77.24l-40 28.89V80a16 16 0 0 0-16-16h-24ZM40 176V80h96v96zm48 32v-16h48a16 16 0 0 0 16-16v-2.13L199.26 208Zm128-7.65L165.66 164L216 127.65Z"/></g></svg>