<svg xmlns="http://www.w3.org/2000/svg" width="1em" height="1em" viewBox="0 0 256 256"><path fill="currentColor" d="M164 128a4 4 0 0 1-4 4H96a4 4 0 0 1 0-8h64a4 4 0 0 1 4 4m-4 28H96a4 4 0 0 0 0 8h64a4 4 0 0 0 0-8m52-108v152a28 28 0 0 1-28 28H72a28 28 0 0 1-28-28V48a12 12 0 0 1 12-12h20V24a4 4 0 0 1 8 0v12h40V24a4 4 0 0 1 8 0v12h40V24a4 4 0 0 1 8 0v12h20a12 12 0 0 1 12 12m-8 0a4 4 0 0 0-4-4h-20v12a4 4 0 0 1-8 0V44h-40v12a4 4 0 0 1-8 0V44H84v12a4 4 0 0 1-8 0V44H56a4 4 0 0 0-4 4v152a20 20 0 0 0 20 20h112a20 20 0 0 0 20-20Z"/></svg>