<svg xmlns="http://www.w3.org/2000/svg" width="1em" height="1em" viewBox="0 0 256 256"><path fill="currentColor" d="M233 161.75a8 8 0 0 0-10 0c-.94.76-23 18.68-23 42.25a28 28 0 0 0 56 0c0-23.57-22.06-41.49-23-42.25M228 216a12 12 0 0 1-12-12c0-10.18 7-19.53 12-24.93c5 5.42 12 14.8 12 24.93a12 12 0 0 1-12 12m1.66-98.17L122.17 10.34a8 8 0 0 0-11.31 0L70.25 51l-24.6-24.66a8 8 0 0 0-11.31 11.32l24.6 24.6L15 106.17a24 24 0 0 0 0 33.94L99.89 225a24 24 0 0 0 33.94 0l95.83-95.83a8 8 0 0 0 0-11.34m-107.15 95.83a8 8 0 0 1-11.31 0L26.34 128.8a8 8 0 0 1 0-11.31l43.91-43.92l29.12 29.12a28 28 0 1 0 11.31-11.32L81.57 62.26l35-34.95l96.17 96.17ZM124 104a12 12 0 1 1-8.49 3.5A12 12 0 0 1 124 104"/></svg>