<svg xmlns="http://www.w3.org/2000/svg" width="1em" height="1em" viewBox="0 0 256 256"><path fill="currentColor" d="M227.8 28.2a28 28 0 0 0-39.6 0l-.15.16l-54.9 61.17a4 4 0 0 1-5.81.16l-9.2-9.2a20 20 0 0 0-28.28 0l-76.69 76.68a4 4 0 0 0 0 5.66l80 80a4 4 0 0 0 5.66 0l76.68-76.69a20 20 0 0 0 0-28.28l-9.2-9.2a4 4 0 0 1-1.17-2.94a4 4 0 0 1 1.33-2.87L227.64 68l.16-.15a28 28 0 0 0 0-39.65M96 234.34L73.66 212l25.17-25.17a4 4 0 0 0-5.66-5.66L68 206.34L49.66 188l25.17-25.17a4 4 0 0 0-5.66-5.66L44 182.34L21.66 160L72 109.66L146.34 184ZM222.21 62.07l-61.09 54.83a12 12 0 0 0-.46 17.41l9.2 9.2a12 12 0 0 1 0 17L152 178.34L77.66 104l17.85-17.86a12 12 0 0 1 17 0l9.2 9.2a12 12 0 0 0 17.41-.46l54.83-61.09a20 20 0 0 1 28.28 28.28Z"/></svg>