<svg xmlns="http://www.w3.org/2000/svg" width="1em" height="1em" viewBox="0 0 256 256"><circle cx="127.887" cy="44" r="28" opacity=".2" fill="currentColor"/><path d="M153.91 134.715l34.747 27.025a12 12 0 1 0 16.97-16.97L166.03 93.858A19.937 19.937 0 0 0 151.887 88h-48a19.937 19.937 0 0 0-14.142 5.858L50.147 144.77a12 12 0 1 0 16.97 16.97l34.747-27.025l-27.733 87.594a12 12 0 0 0 21.751 10.143l32.005-50.371l32.006 50.37a12 12 0 0 0 21.751-10.142z" opacity=".2" fill="currentColor"/><path d="M163.887 44a36 36 0 1 0-36 36a36.04 36.04 0 0 0 36-36zm-36 20a20 20 0 1 1 20-20a20.023 20.023 0 0 1-20 20z" fill="currentColor"/><path d="M211.675 139.514l-39.33-50.568a7.933 7.933 0 0 0-.658-.745a27.819 27.819 0 0 0-19.8-8.201h-48a27.819 27.819 0 0 0-19.8 8.201a7.933 7.933 0 0 0-.657.745L44.1 139.514a20 20 0 0 0 28.274 28.274l14.1-10.968l-19.833 62.64a20 20 0 0 0 36.238 16.897l25.008-39.359l25.01 39.36a20 20 0 0 0 36.237-16.898l-19.832-62.64l14.1 10.968a20 20 0 0 0 28.273-28.274zm-11.704 16.569a4.006 4.006 0 0 1-5.658 0a8.009 8.009 0 0 0-.745-.658L158.822 128.4a8 8 0 0 0-12.538 8.73l27.733 87.594a7.95 7.95 0 0 0 .377.966a4 4 0 0 1-7.25 3.38a8.1 8.1 0 0 0-.5-.909L134.64 177.79a8 8 0 0 0-13.504 0l-32.004 50.371a8.1 8.1 0 0 0-.5.91a4 4 0 0 1-7.25-3.381a7.951 7.951 0 0 0 .377-.966l27.733-87.595a8 8 0 0 0-12.538-8.73l-34.746 27.026a8.008 8.008 0 0 0-.745.658a4 4 0 1 1-5.658-5.657a7.933 7.933 0 0 0 .658-.745l39.254-50.47A11.916 11.916 0 0 1 103.887 96h48a11.916 11.916 0 0 1 8.172 3.212l39.254 50.47a7.931 7.931 0 0 0 .657.744a4 4 0 0 1 .001 5.657z" fill="currentColor"/></svg>