<svg xmlns="http://www.w3.org/2000/svg" width="1em" height="1em" viewBox="0 0 256 256"><path fill="currentColor" d="M96 56a32 32 0 1 1 32 32a32 32 0 0 1-32-32m125 43.36c-1.5-1.2-37.22-29-89.51 6.57c-45.49 30.91-71.92 20.3-72.17 20.19a8 8 0 1 0-6.63 14.56c.61.28 7.49 3.27 19.67 3.27c14.21 0 35.64-4.11 62.77-21.29c-2.28 29.41-12.73 83.47-73.43 101.68a8 8 0 1 0 4.6 15.32c34.83-10.45 59.45-32.34 73.2-65.08a141.86 141.86 0 0 0 5.1-14.33l22.08 18.4l-14.27 42.82a8 8 0 0 0 15.18 5.06l16-48a8 8 0 0 0-2.47-8.68l-32.42-27a215.91 215.91 0 0 0 3-30.34c36.18-18.57 59-.85 59.28-.65a8 8 0 1 0 10-12.48ZM64 112a16 16 0 1 0-16-16a16 16 0 0 0 16 16"/></svg>