<svg xmlns="http://www.w3.org/2000/svg" width="1em" height="1em" viewBox="0 0 256 256"><g fill="currentColor"><path d="M223.94 174.08A48.33 48.33 0 0 1 176 216A136 136 0 0 1 40 80a48.33 48.33 0 0 1 41.92-47.94a8 8 0 0 1 8.3 4.8l21.13 47.2a8 8 0 0 1-.66 7.53L89.32 117a7.93 7.93 0 0 0-.54 7.81c8.27 16.93 25.77 34.22 42.75 42.41a7.92 7.92 0 0 0 7.83-.59l25-21.3a8 8 0 0 1 7.59-.69l47.16 21.13a8 8 0 0 1 4.83 8.31" opacity=".2"/><path d="M152.27 37.93a8 8 0 0 1 9.8-5.66a86.22 86.22 0 0 1 61.66 61.66a8 8 0 0 1-5.66 9.8a8.23 8.23 0 0 1-2.07.27a8 8 0 0 1-7.73-5.94a70.35 70.35 0 0 0-50.33-50.33a8 8 0 0 1-5.67-9.8m-2.33 41.8c13.79 3.68 22.65 12.54 26.33 26.33A8 8 0 0 0 184 112a8.23 8.23 0 0 0 2.07-.27a8 8 0 0 0 5.66-9.8c-5.12-19.16-18.5-32.54-37.66-37.66a8 8 0 1 0-4.13 15.46m81.94 95.35A56.26 56.26 0 0 1 176 224C96.6 224 32 159.4 32 80a56.26 56.26 0 0 1 48.92-55.88a16 16 0 0 1 16.62 9.52l21.12 47.15v.12A16 16 0 0 1 117.39 96c-.18.27-.37.52-.57.77L96 121.45c7.49 15.22 23.41 31 38.83 38.51l24.34-20.71a8.12 8.12 0 0 1 .75-.56a16 16 0 0 1 15.17-1.4l.13.06l47.11 21.11a16 16 0 0 1 9.55 16.62m-15.88-2h-.11l-47-21.05l-24.35 20.71a8.44 8.44 0 0 1-.74.56a16 16 0 0 1-15.75 1.14c-18.73-9.05-37.4-27.58-46.46-46.11a16 16 0 0 1 1-15.7a6.13 6.13 0 0 1 .57-.77L104 87.15l-21-47a.61.61 0 0 1 0-.12A40.2 40.2 0 0 0 48 80a128.14 128.14 0 0 0 128 128a40.21 40.21 0 0 0 40-34.93Z"/></g></svg>