<svg xmlns="http://www.w3.org/2000/svg" width="1em" height="1em" viewBox="0 0 256 256"><path fill="currentColor" d="M240 116h-13.68l-28.54-49.95a12 12 0 0 0-10.42-6H68.64a12 12 0 0 0-10.42 6L29.68 116H16a4 4 0 0 0 0 8h12v84a12 12 0 0 0 12 12h24a12 12 0 0 0 12-12v-20h104v20a12 12 0 0 0 12 12h24a12 12 0 0 0 12-12v-84h12a4 4 0 0 0 0-8M65.17 70a4 4 0 0 1 3.47-2h118.72a4 4 0 0 1 3.47 2l26.28 46H38.89ZM68 208a4 4 0 0 1-4 4H40a4 4 0 0 1-4-4v-20h32Zm148 4h-24a4 4 0 0 1-4-4v-20h32v20a4 4 0 0 1-4 4m4-32H36v-56h184ZM60 152a4 4 0 0 1 4-4h16a4 4 0 0 1 0 8H64a4 4 0 0 1-4-4m112 0a4 4 0 0 1 4-4h16a4 4 0 0 1 0 8h-16a4 4 0 0 1-4-4M100 32a4 4 0 0 1 4-4h48a4 4 0 0 1 0 8h-48a4 4 0 0 1-4-4"/></svg>