<svg xmlns="http://www.w3.org/2000/svg" width="1em" height="1em" viewBox="0 0 256 256"><path fill="currentColor" d="M227.81 52.19a28 28 0 0 0-39.6 0a27.84 27.84 0 0 0-5.88 8.65l-34.56-9.42a28 28 0 0 0-47.57-23.23a28.05 28.05 0 0 0-3.48 35.37L57.91 98.49a28 28 0 0 0-37.72 1.71a28 28 0 0 0 39.6 39.6l.18-.19l75.32 55.24A28 28 0 1 0 173 183.2l29.56-83.75a28.52 28.52 0 0 0 5.44.55a28 28 0 0 0 19.8-47.79ZM105.86 33.85a20 20 0 1 1 0 28.29a20 20 0 0 1 0-28.29m-80 100.29a20 20 0 1 1 28.28 0a20 20 0 0 1-28.29 0Zm148.3 88a20 20 0 1 1 0-28.28a20 20 0 0 1-.01 28.29Zm-8.7-41.6a28 28 0 0 0-25.25 7.66l-.18.19l-75.32-55.23a28.13 28.13 0 0 0-1.44-28.73l38.81-34.93a28 28 0 0 0 43.6-10.36l34.56 9.43a28 28 0 0 0 8 23.22a27.64 27.64 0 0 0 6.8 5Zm56.7-94.41a20 20 0 1 1 0-28.29a20 20 0 0 1-.01 28.3Z"/></svg>