<svg xmlns="http://www.w3.org/2000/svg" width="1em" height="1em" viewBox="0 0 256 256"><path fill="currentColor" d="M200 44h-60V16a12 12 0 0 0-24 0v28H56a36 36 0 0 0-36 36v112a36 36 0 0 0 36 36h144a36 36 0 0 0 36-36V80a36 36 0 0 0-36-36m12 148a12 12 0 0 1-12 12H56a12 12 0 0 1-12-12V80a12 12 0 0 1 12-12h144a12 12 0 0 1 12 12Zm-48-64H92a32 32 0 0 0 0 64h72a32 32 0 0 0 0-64m-28 24v16h-16v-16Zm-52 8a8 8 0 0 1 8-8h4v16h-4a8 8 0 0 1-8-8m80 8h-4v-16h4a8 8 0 0 1 0 16m-96-68a16 16 0 1 1 16 16a16 16 0 0 1-16-16m88 0a16 16 0 1 1 16 16a16 16 0 0 1-16-16"/></svg>