<svg xmlns="http://www.w3.org/2000/svg" width="1em" height="1em" viewBox="0 0 256 256"><path fill="currentColor" d="M97.5 158.5A69.54 69.54 0 0 1 118 208a6 6 0 0 1-12 0a58 58 0 0 0-58-58a6 6 0 0 1 0-12a69.54 69.54 0 0 1 49.5 20.5M48 90a6 6 0 0 0 0 12a106 106 0 0 1 106 106a6 6 0 0 0 12 0A118 118 0 0 0 48 90m117.38.62A164.92 164.92 0 0 0 48 42a6 6 0 0 0 0 12a153 153 0 0 1 108.89 45.11A153 153 0 0 1 202 208a6 6 0 0 0 12 0a164.92 164.92 0 0 0-48.62-117.38M52 194a10 10 0 1 0 10 10a10 10 0 0 0-10-10"/></svg>