<svg xmlns="http://www.w3.org/2000/svg" width="1em" height="1em" viewBox="0 0 256 256"><g fill="currentColor"><path d="M216 56v58.77c0 84.18-71.31 112.07-85.54 116.8a7.54 7.54 0 0 1-4.92 0C111.31 226.86 40 199 40 114.79V56a8 8 0 0 1 8-8h160a8 8 0 0 1 8 8" opacity=".2"/><path d="M208 40H48a16 16 0 0 0-16 16v58.77c0 89.62 75.82 119.34 91 124.38a15.44 15.44 0 0 0 10 0c15.2-5.05 91-34.77 91-124.39V56a16 16 0 0 0-16-16m0 74.79c0 78.42-66.34 104.62-80 109.18c-13.53-4.5-80-30.68-80-109.18V56h160ZM120 136V96a8 8 0 0 1 16 0v40a8 8 0 0 1-16 0m-4 36a12 12 0 1 1 12 12a12 12 0 0 1-12-12"/></g></svg>