<svg xmlns="http://www.w3.org/2000/svg" width="1em" height="1em" viewBox="0 0 256 256"><path fill="currentColor" d="M60 236a8 8 0 1 1-8-8a8 8 0 0 1 8 8m24-40a8 8 0 1 0 8 8a8 8 0 0 0-8-8m-64 0a8 8 0 1 0 8 8a8 8 0 0 0-8-8m32-32a8 8 0 1 0 8 8a8 8 0 0 0-8-8M252 40a4 4 0 0 1-4 4h-28.69a4 4 0 0 0-2.82 1.17l-28.76 28.76L165.86 202a12 12 0 0 1-8.17 9.44a12.09 12.09 0 0 1-3.69.56a12 12 0 0 1-8.46-3.52l-98-98A12 12 0 0 1 54 90.14l128-21.87l28.76-28.76a11.93 11.93 0 0 1 8.55-3.51H248a4 4 0 0 1 4 4m-72.89 36.89L55.37 98a4 4 0 0 0-2.19 6.78l98 98a4 4 0 0 0 6.78-2.17Z"/></svg>