<svg xmlns="http://www.w3.org/2000/svg" width="1em" height="1em" viewBox="0 0 256 256"><path fill="currentColor" d="M232 164H70.35c2.2-4.42 4.41-8.94 6.59-13.53c.24-.49.47-1 .7-1.46c13.56-1.6 28.78-11.26 45.52-28.9c5.33 12.06 14.07 24.87 27.65 27.44c5.25 1 13.49.79 22.9-5.81a57.35 57.35 0 0 0 9.08-8.06C191.12 141.3 205.87 148 232 148a12 12 0 0 0 0-24c-32.66 0-35.81-11.61-36-12.6a12 12 0 0 0-23.06-4c-9.37 13.93-15.6 17-17.66 16.6c-4.91-.93-12.45-15.7-15.52-30.39a12 12 0 0 0-22.09-3.68c-10 12.38-18.56 20.93-25.68 26.5c21.31-53.19 17.15-72.52 11.47-82.57c-5-8.87-14-13.78-25.36-13.83h-.32c-18 .13-32.43 16.66-38.73 44.27c-3.45 15.13-4 31.88-1.46 45.94c2.64 14.69 8.33 25.67 16.61 32.22c-3.57 7.38-7.2 14.63-10.75 21.54H24a12 12 0 0 0 0 24h6.68c-9.68 17.67-16.84 29.6-17 29.81a12 12 0 0 0 4.1 16.47A11.85 11.85 0 0 0 24 236a12 12 0 0 0 10.29-5.81C34.91 229.14 45.22 212 58 188h174a12 12 0 0 0 0-24m-36-52v-.54a3.19 3.19 0 0 1 0 .54M62.44 69.61C65.77 55 72.44 44 78 44c3.67 0 4.25 1 4.6 1.64c1.43 2.54 6.55 17.09-17.42 72.8A44.79 44.79 0 0 1 61.2 106a94.89 94.89 0 0 1 1.24-36.39"/></svg>