<svg xmlns="http://www.w3.org/2000/svg" width="1em" height="1em" viewBox="0 0 256 256"><g fill="currentColor"><path d="m194.82 151.43l-51.66 19a7.88 7.88 0 0 0-4.69 4.69l-19 51.66a7.92 7.92 0 0 1-14.86 0l-19-51.66a7.88 7.88 0 0 0-4.69-4.69l-51.66-19a7.92 7.92 0 0 1 0-14.86l51.66-19a7.88 7.88 0 0 0 4.69-4.69l19-51.66a7.92 7.92 0 0 1 14.86 0l19 51.66a7.88 7.88 0 0 0 4.69 4.69l51.66 19a7.92 7.92 0 0 1 0 14.86" opacity=".2"/><path d="m197.58 129.06l-51.61-19l-19-51.65a15.92 15.92 0 0 0-29.88 0L78.07 110l-51.65 19a15.92 15.92 0 0 0 0 29.88L78 178l19 51.62a15.92 15.92 0 0 0 29.88 0l19-51.61l51.65-19a15.92 15.92 0 0 0 0-29.88ZM140.39 163a15.87 15.87 0 0 0-9.43 9.43l-19 51.46L93 172.39a15.87 15.87 0 0 0-9.39-9.39l-51.46-19l51.46-19a15.87 15.87 0 0 0 9.39-9.39l19-51.46l19 51.46a15.87 15.87 0 0 0 9.43 9.43l51.46 19ZM144 40a8 8 0 0 1 8-8h16V16a8 8 0 0 1 16 0v16h16a8 8 0 0 1 0 16h-16v16a8 8 0 0 1-16 0V48h-16a8 8 0 0 1-8-8m104 48a8 8 0 0 1-8 8h-8v8a8 8 0 0 1-16 0v-8h-8a8 8 0 0 1 0-16h8v-8a8 8 0 0 1 16 0v8h8a8 8 0 0 1 8 8"/></g></svg>