<svg xmlns="http://www.w3.org/2000/svg" width="1em" height="1em" viewBox="0 0 256 256"><path fill="currentColor" d="M208 144a15.78 15.78 0 0 1-10.42 14.94l-51.65 19l-19 51.61a15.92 15.92 0 0 1-29.88 0L78 178l-51.62-19a15.92 15.92 0 0 1 0-29.88l51.65-19l19-51.61a15.92 15.92 0 0 1 29.88 0l19 51.65l51.61 19A15.78 15.78 0 0 1 208 144m-56-96h16v16a8 8 0 0 0 16 0V48h16a8 8 0 0 0 0-16h-16V16a8 8 0 0 0-16 0v16h-16a8 8 0 0 0 0 16m88 32h-8v-8a8 8 0 0 0-16 0v8h-8a8 8 0 0 0 0 16h8v8a8 8 0 0 0 16 0v-8h8a8 8 0 0 0 0-16"/></svg>