<svg xmlns="http://www.w3.org/2000/svg" width="1em" height="1em" viewBox="0 0 256 256"><path fill="currentColor" d="M250 138a12 12 0 0 1-24 0a94.11 94.11 0 0 0-94-94a84.09 84.09 0 0 0-84 84a74.09 74.09 0 0 0 74 74a64.07 64.07 0 0 0 64-64a54.06 54.06 0 0 0-54-54a44.05 44.05 0 0 0-44 44a34 34 0 0 0 34 34a24 24 0 0 0 24-24a14 14 0 0 0-14-14a4 4 0 0 0-2.82 1.17A12 12 0 0 1 124 148a20 20 0 0 1-20-20a28 28 0 0 1 28-28a38 38 0 0 1 38 38a48.05 48.05 0 0 1-48 48a58.07 58.07 0 0 1-58-58a68.07 68.07 0 0 1 68-68a78.09 78.09 0 0 1 78 78a88.1 88.1 0 0 1-88 88a98.11 98.11 0 0 1-98-98A108.12 108.12 0 0 1 132 20a118.13 118.13 0 0 1 118 118"/></svg>