<svg xmlns="http://www.w3.org/2000/svg" width="1em" height="1em" viewBox="0 0 256 256"><path fill="currentColor" d="M248 144a8 8 0 0 1-16 0a96.11 96.11 0 0 0-96-96a88.1 88.1 0 0 0-88 88a80.09 80.09 0 0 0 80 80a72.08 72.08 0 0 0 72-72a64.07 64.07 0 0 0-64-64a56.06 56.06 0 0 0-56 56a48.05 48.05 0 0 0 48 48a40 40 0 0 0 40-40a32 32 0 0 0-32-32a24 24 0 0 0-24 24a16 16 0 0 0 16 16a8 8 0 0 0 8-8a8 8 0 0 1 0-16a16 16 0 0 1 16 16a24 24 0 0 1-24 24a32 32 0 0 1-32-32a40 40 0 0 1 40-40a48.05 48.05 0 0 1 48 48a56.06 56.06 0 0 1-56 56a64.07 64.07 0 0 1-64-64a72.08 72.08 0 0 1 72-72a80.09 80.09 0 0 1 80 80a88.1 88.1 0 0 1-88 88a96.11 96.11 0 0 1-96-96A104.11 104.11 0 0 1 136 32a112.12 112.12 0 0 1 112 112"/></svg>