<svg xmlns="http://www.w3.org/2000/svg" width="1em" height="1em" viewBox="0 0 256 256"><path fill="currentColor" d="M157.46 195.72a76 76 0 0 1 0-135.44a12 12 0 0 0 0-21.37a100 100 0 1 0 0 178.18a12 12 0 0 0 0-21.37M112 204a76 76 0 0 1 0-152a77.2 77.2 0 0 1 13.57 1.19a100.14 100.14 0 0 0 0 149.62A77.2 77.2 0 0 1 112 204m136.75-87l-24.28-10.5l-2.12-27.42a12 12 0 0 0-21.22-6.72l-17 20.58l-25.26-6.25a12 12 0 0 0-13.22 17.73L159.54 128l-13.88 23.58a12 12 0 0 0 13.22 17.73l25.26-6.25l17 20.58a12 12 0 0 0 9.26 4.36a11.88 11.88 0 0 0 3.62-.56a12 12 0 0 0 8.34-10.52l2.12-27.42l24.27-10.5a12 12 0 0 0 0-22m-40.44 13.35a12 12 0 0 0-7.21 10.09l-.39 5l-2.87-3.44a12 12 0 0 0-9.25-4.36a11.76 11.76 0 0 0-2.88.35l-4.89 1.21l3-5.07a12 12 0 0 0 0-12.18l-3-5.07l4.89 1.21a12 12 0 0 0 12.13-4l2.87-3.48l.39 5a12 12 0 0 0 7.21 10.09l5.4 2.33Z"/></svg>