<svg xmlns="http://www.w3.org/2000/svg" width="1em" height="1em" viewBox="0 0 256 256"><path fill="currentColor" d="M154.73 201.06a82 82 0 0 1 0-146.12a6 6 0 0 0 0-10.69A93 93 0 0 0 112 34a94 94 0 0 0 0 188a93 93 0 0 0 42.73-10.25a6 6 0 0 0 0-10.69M112 210a82 82 0 1 1 26.81-159.53a94 94 0 0 0 0 155.06A81.4 81.4 0 0 1 112 210m138.38-87.51l-27.61-11.91l-2.4-31a6 6 0 0 0-10.61-3.36l-19.39 23.45l-28.93-7.16a6 6 0 0 0-6.61 8.87L170.5 128l-15.67 26.62a6 6 0 0 0 6.61 8.87l28.93-7.16l19.39 23.49a6 6 0 0 0 10.61-3.36l2.4-31l27.61-11.91a6 6 0 0 0 0-11Zm-35.69 13.35a6 6 0 0 0-3.61 5l-1.53 19.83l-12.33-14.94a6 6 0 0 0-4.63-2.18a5.92 5.92 0 0 0-1.44.18l-18.74 4.63L182.64 131a6 6 0 0 0 0-6.08l-10.23-17.37l18.74 4.63a6 6 0 0 0 6.07-2l12.33-14.94l1.53 19.83a6 6 0 0 0 3.61 5l18.17 7.93Z"/></svg>