<svg xmlns="http://www.w3.org/2000/svg" width="1em" height="1em" viewBox="0 0 256 256"><path fill="currentColor" d="M235.38 98.53A11.82 11.82 0 0 0 225 90.29l-59.45-5.14a4 4 0 0 1-3.32-2.44L139 27.36a11.95 11.95 0 0 0-22.06 0l-23.2 55.35a4 4 0 0 1-3.32 2.44L31 90.29a12 12 0 0 0-6.83 21.07l45.1 39.35a4 4 0 0 1 1.28 4L57 213.22a11.88 11.88 0 0 0 4.67 12.48a11.76 11.76 0 0 0 13.19.53l51.1-31a3.89 3.89 0 0 1 4.08 0l51.1 31a12 12 0 0 0 17.86-13l-13.52-58.54a4 4 0 0 1 1.28-4l45.1-39.35a11.89 11.89 0 0 0 3.52-12.81m-8.78 6.8l-45.1 39.35a12 12 0 0 0-3.82 11.8L191.2 215a4 4 0 0 1-1.56 4.2a3.86 3.86 0 0 1-4.35.17l-51.1-31a11.88 11.88 0 0 0-12.38 0l-51.1 31a3.86 3.86 0 0 1-4.35-.17a4 4 0 0 1-1.56-4.2l13.52-58.54a12 12 0 0 0-3.82-11.8l-45.1-39.33a4 4 0 0 1-1.18-4.33a4 4 0 0 1 3.44-2.75l59.45-5.14a12 12 0 0 0 10-7.31l23.22-55.36a4 4 0 0 1 7.32 0l23.22 55.36a12 12 0 0 0 10 7.31l59.45 5.14a4 4 0 0 1 3.44 2.75a4 4 0 0 1-1.16 4.33"/></svg>