<svg xmlns="http://www.w3.org/2000/svg" width="1em" height="1em" viewBox="0 0 256 256"><g fill="currentColor"><path d="M224 96v16a32 32 0 0 1-64 0V96H96v16a32 32 0 0 1-64 0V96l14.34-50.2A8 8 0 0 1 54 40h148a8 8 0 0 1 7.69 5.8Z" opacity=".2"/><path d="M232 96a7.89 7.89 0 0 0-.3-2.2l-14.35-50.2A16.07 16.07 0 0 0 202 32H54a16.07 16.07 0 0 0-15.35 11.6L24.31 93.8A7.89 7.89 0 0 0 24 96v16a40 40 0 0 0 16 32v64a16 16 0 0 0 16 16h144a16 16 0 0 0 16-16v-64a40 40 0 0 0 16-32ZM54 48h148l11.42 40H42.61Zm50 56h48v8a24 24 0 0 1-48 0Zm-16 0v8a24 24 0 0 1-48 0v-8Zm112 104H56v-56.8a40.57 40.57 0 0 0 8 .8a40 40 0 0 0 32-16a40 40 0 0 0 64 0a40 40 0 0 0 32 16a40.57 40.57 0 0 0 8-.8Zm-8-72a24 24 0 0 1-24-24v-8h48v8a24 24 0 0 1-24 24"/></g></svg>