<svg xmlns="http://www.w3.org/2000/svg" width="1em" height="1em" viewBox="0 0 256 256"><path fill="currentColor" d="m237.66 66.34l-48-48a8 8 0 0 0-11.32 11.32L196.69 48L168 76.69l-34.34-34.35a8 8 0 0 0-11.32 11.32l6.35 6.34l-84 84A15.86 15.86 0 0 0 40 155.31v49.38l-21.66 21.65a8 8 0 0 0 11.32 11.32L51.31 216h49.38a15.86 15.86 0 0 0 11.31-4.69l84-84l6.34 6.35a8 8 0 0 0 11.32-11.32L179.31 88L208 59.31l18.34 18.35a8 8 0 0 0 11.32-11.32M100.69 200H56v-44.69l18-18l20.34 20.35a8 8 0 0 0 11.32-11.32L85.31 126L98 113.31l20.34 20.35a8 8 0 0 0 11.32-11.32L109.31 102L140 71.31L184.69 116Z"/></svg>