<svg xmlns="http://www.w3.org/2000/svg" width="1em" height="1em" viewBox="0 0 256 256"><g fill="currentColor"><path d="M232 164c0 15.46-14.33 28-32 28s-32-12.54-32-28s14.33-28 32-28s32 12.54 32 28M34.82 152h90.36L80 56Z" opacity=".2"/><path d="M87.24 52.59a8 8 0 0 0-14.48 0l-64 136a8 8 0 1 0 14.48 6.81L39.9 160h80.2l16.66 35.4a8 8 0 1 0 14.48-6.81ZM47.43 144L80 74.79L112.57 144ZM200 96c-12.76 0-22.73 3.47-29.63 10.32a8 8 0 0 0 11.26 11.36c3.8-3.77 10-5.68 18.37-5.68c13.23 0 24 9 24 20v3.22a42.76 42.76 0 0 0-24-7.22c-22.06 0-40 16.15-40 36s17.94 36 40 36a42.73 42.73 0 0 0 24-7.25a8 8 0 0 0 16-.75v-60c0-19.85-17.94-36-40-36m0 88c-13.23 0-24-9-24-20s10.77-20 24-20s24 9 24 20s-10.77 20-24 20"/></g></svg>