<svg xmlns="http://www.w3.org/2000/svg" width="1em" height="1em" viewBox="0 0 256 256"><path fill="currentColor" d="m253.66 101.66l-36 36a8 8 0 0 1-11.32 0l-36-36l-.34-.38l-.34.38L135.31 136l34.35 34.34a8 8 0 0 1 0 11.32l-36 36a8 8 0 0 1-11.32 0l-36-36a8 8 0 0 1 0-11.32L120.69 136l-34.35-34.34l-.34-.38l-.34.38l-36 36a8 8 0 0 1-11.32 0l-36-36a8 8 0 0 1 0-11.32l36-36a8 8 0 0 1 11.32 0l36 36l.34.38l.34-.38l36-36a8 8 0 0 1 11.32 0l36 36l.34.38l.34-.38l36-36a8 8 0 0 1 11.32 0l36 36a8 8 0 0 1 0 11.32"/></svg>