<svg xmlns="http://www.w3.org/2000/svg" width="1em" height="1em" viewBox="0 0 256 256"><path fill="currentColor" d="M164.38 181.1a52 52 0 1 0-72.76 0a75.89 75.89 0 0 0-30 28.89a12 12 0 0 0 20.78 12a53 53 0 0 1 91.22 0a12 12 0 1 0 20.78-12a75.89 75.89 0 0 0-30.02-28.89M100 144a28 28 0 1 1 28 28a28 28 0 0 1-28-28m147.21 9.59a12 12 0 0 1-16.81-2.39c-8.33-11.09-19.85-19.59-29.33-21.64a12 12 0 0 1-1.82-22.91a20 20 0 1 0-24.78-28.3a12 12 0 1 1-21-11.6a44 44 0 1 1 73.28 48.35a92.18 92.18 0 0 1 22.85 21.69a12 12 0 0 1-2.39 16.8m-192.28-24c-9.48 2.05-21 10.55-29.33 21.65a12 12 0 0 1-19.19-14.45a92.37 92.37 0 0 1 22.85-21.69a44 44 0 1 1 73.28-48.35a12 12 0 1 1-21 11.6a20 20 0 1 0-24.78 28.3a12 12 0 0 1-1.82 22.91Z"/></svg>