<svg xmlns="http://www.w3.org/2000/svg" width="1em" height="1em" viewBox="0 0 256 256"><path fill="currentColor" d="M24.79 121.59a12 12 0 0 0 16.81-2.38a48 48 0 0 1 76.81 0a12 12 0 0 0 16.8 2.39a12.24 12.24 0 0 0 2.38-2.39a48 48 0 0 1 76.81 0a12 12 0 1 0 19.19-14.41a72 72 0 0 0-25.3-21.22a40 40 0 1 0-64.58 0A71 71 0 0 0 128 94.31a71 71 0 0 0-15.71-10.74a40 40 0 1 0-64.58 0a72 72 0 0 0-25.3 21.22a12 12 0 0 0 2.38 16.8M176 44a16 16 0 1 1-16 16a16 16 0 0 1 16-16m-96 0a16 16 0 1 1-16 16a16 16 0 0 1 16-16m128.29 151.57a40 40 0 1 0-64.58 0A71.31 71.31 0 0 0 128 206.3a71.31 71.31 0 0 0-15.71-10.73a40 40 0 1 0-64.58 0a72 72 0 0 0-25.3 21.22a12 12 0 0 0 19.19 14.42a48 48 0 0 1 76.81 0a12 12 0 0 0 16.8 2.39a12.24 12.24 0 0 0 2.38-2.39a48 48 0 0 1 76.81 0a12 12 0 1 0 19.19-14.41a71.91 71.91 0 0 0-25.3-21.23M80 156a16 16 0 1 1-16 16a16 16 0 0 1 16-16m96 0a16 16 0 1 1-16 16a16 16 0 0 1 16-16"/></svg>