<svg xmlns="http://www.w3.org/2000/svg" width="1em" height="1em" viewBox="0 0 256 256"><path fill="currentColor" d="M27.2 126.4a8 8 0 0 0 11.2-1.6a52 52 0 0 1 83.2 0a8 8 0 0 0 11.2 1.59a7.73 7.73 0 0 0 1.59-1.59a52 52 0 0 1 83.2 0a8 8 0 0 0 12.8-9.61A67.85 67.85 0 0 0 203 93.51a40 40 0 1 0-53.94 0a67.27 67.27 0 0 0-21 14.31a67.27 67.27 0 0 0-21-14.31a40 40 0 1 0-53.94 0A67.88 67.88 0 0 0 25.6 115.2a8 8 0 0 0 1.6 11.2M176 40a24 24 0 1 1-24 24a24 24 0 0 1 24-24m-96 0a24 24 0 1 1-24 24a24 24 0 0 1 24-24m123 157.51a40 40 0 1 0-53.94 0a67.27 67.27 0 0 0-21 14.31a67.27 67.27 0 0 0-21-14.31a40 40 0 1 0-53.94 0A67.88 67.88 0 0 0 25.6 219.2a8 8 0 1 0 12.8 9.6a52 52 0 0 1 83.2 0a8 8 0 0 0 11.2 1.59a7.73 7.73 0 0 0 1.59-1.59a52 52 0 0 1 83.2 0a8 8 0 0 0 12.8-9.61A67.85 67.85 0 0 0 203 197.51M80 144a24 24 0 1 1-24 24a24 24 0 0 1 24-24m96 0a24 24 0 1 1-24 24a24 24 0 0 1 24-24"/></svg>