<svg xmlns="http://www.w3.org/2000/svg" width="1em" height="1em" viewBox="0 0 256 256"><path fill="currentColor" d="M208 34H48a14 14 0 0 0-14 14v160a14 14 0 0 0 14 14h160a14 14 0 0 0 14-14V48a14 14 0 0 0-14-14M94 120a34 34 0 1 1 34 34a34 34 0 0 1-34-34m-28.23 90a66.43 66.43 0 0 1 20.77-29.36a66 66 0 0 1 82.92 0A66.43 66.43 0 0 1 190.23 210ZM210 208a2 2 0 0 1-2 2h-5.17a77.85 77.85 0 0 0-49.38-51.71a46 46 0 1 0-50.9 0A77.85 77.85 0 0 0 53.17 210H48a2 2 0 0 1-2-2V48a2 2 0 0 1 2-2h160a2 2 0 0 1 2 2Z"/></svg>