<svg xmlns="http://www.w3.org/2000/svg" width="1em" height="1em" viewBox="0 0 256 256"><path fill="currentColor" d="M112.6 158.43a58 58 0 1 0-57.2 0a93.83 93.83 0 0 0-50.19 38.29a6 6 0 0 0 10.05 6.56a82 82 0 0 1 137.48 0a6 6 0 0 0 10-6.56a93.83 93.83 0 0 0-50.14-38.29M38 108a46 46 0 1 1 46 46a46.06 46.06 0 0 1-46-46m211 97a6 6 0 0 1-8.3-1.74A81.8 81.8 0 0 0 172 166a6 6 0 0 1 0-12a46 46 0 1 0-17.08-88.73a6 6 0 1 1-4.46-11.14a58 58 0 0 1 50.14 104.3a93.83 93.83 0 0 1 50.19 38.29A6 6 0 0 1 249 205"/></svg>