<svg xmlns="http://www.w3.org/2000/svg" width="1em" height="1em" viewBox="0 0 256 256"><g fill="currentColor"><path d="M216.25 165.8A96 96 0 0 1 80 211.15a95.75 95.75 0 0 1-28.86-25.58A96 96 0 0 1 105.47 89L80 44.86a95.55 95.55 0 0 1 36.58-12.2A96 96 0 0 1 173.06 128H128l-22.53 39a96 96 0 0 0 110.78-1.22Z" opacity=".2"/><path d="M128 24a104 104 0 1 0 104 104A104.11 104.11 0 0 0 128 24m81.74 136.58a88 88 0 0 1-93.49 3.78L132.62 136h83a87.16 87.16 0 0 1-5.88 24.58M91.12 48.11a87.57 87.57 0 0 1 24.22-7.2a88 88 0 0 1 50 79.09h-32.72ZM215.63 120h-34.26a104.18 104.18 0 0 0-35.78-78.23A88.18 88.18 0 0 1 215.63 120M77.27 56.13l17.12 29.65a104.14 104.14 0 0 0-49.86 70.09a87.95 87.95 0 0 1 32.74-99.74M58.9 182.43a88 88 0 0 1 43.49-82.79L118.76 128l-41.49 71.87a88.62 88.62 0 0 1-18.37-17.44M128 216a87.5 87.5 0 0 1-36.88-8.11l17.13-29.67a104.23 104.23 0 0 0 85.53 8.17A87.81 87.81 0 0 1 128 216"/></g></svg>