<svg xmlns="http://www.w3.org/2000/svg" width="1em" height="1em" viewBox="0 0 256 256"><path fill="currentColor" d="m186.68 146.63l-32-16a6 6 0 0 0-6 .38L133 141.46A42.49 42.49 0 0 1 114.54 123L125 107.33a6 6 0 0 0 .38-6l-16-32A6 6 0 0 0 104 66a38 38 0 0 0-38 38a86.1 86.1 0 0 0 86 86a38 38 0 0 0 38-38a6 6 0 0 0-3.32-5.37M152 178a74.09 74.09 0 0 1-74-74a26 26 0 0 1 22.42-25.75l12.66 25.32l-10.39 15.58a6 6 0 0 0-.54 5.63a54.43 54.43 0 0 0 29.07 29.07a6 6 0 0 0 5.63-.54l15.58-10.39l25.32 12.66A26 26 0 0 1 152 178M128 26a102 102 0 0 0-89.65 150.69l-11.62 34.87a14 14 0 0 0 17.71 17.71l34.87-11.62A102 102 0 1 0 128 26m0 192a90 90 0 0 1-45.06-12.08a6.09 6.09 0 0 0-3-.81a6.2 6.2 0 0 0-1.9.31l-37.39 12.46a2 2 0 0 1-2.53-2.53L50.58 178a6 6 0 0 0-.5-4.91A90 90 0 1 1 128 218"/></svg>