<svg xmlns="http://www.w3.org/2000/svg" width="1em" height="1em" viewBox="0 0 256 256"><path fill="currentColor" d="M112 144v51.64a8 8 0 0 1-8 8a8.54 8.54 0 0 1-1.43-.13l-64-11.64A8 8 0 0 1 32 184v-40a8 8 0 0 1 8-8h64a8 8 0 0 1 8 8m-2.87-89.78a8 8 0 0 0-6.56-1.73l-64 11.64A8 8 0 0 0 32 72v40a8 8 0 0 0 8 8h64a8 8 0 0 0 8-8V60.36a8 8 0 0 0-2.87-6.14M216 136h-80a8 8 0 0 0-8 8v57.45a8 8 0 0 0 6.57 7.88l80 14.54a7.61 7.61 0 0 0 1.43.13a8 8 0 0 0 8-8v-72a8 8 0 0 0-8-8m5.13-102.14a8 8 0 0 0-6.56-1.73l-80 14.55a8 8 0 0 0-6.57 7.87V112a8 8 0 0 0 8 8h80a8 8 0 0 0 8-8V40a8 8 0 0 0-2.87-6.14"/></svg>