<svg xmlns="http://www.w3.org/2000/svg" width="1em" height="1em" viewBox="0 0 16 16"><path fill="currentColor" d="M16 8A8 8 0 1 1 0 8a8 8 0 0 1 16 0M8.21 3.855c-1.868 0-3.116 1.395-3.116 4.407c0 1.183.228 2.039.597 2.642c.569.926 1.477 1.254 2.409 1.254c1.629 0 2.847-1.013 2.847-2.783c0-1.676-1.254-2.555-2.508-2.555c-1.125 0-1.752.61-1.98 1.155h-.082c-.012-1.946.727-3.036 1.805-3.036c.802 0 1.213.457 1.312.815h1.29c-.06-.908-.962-1.899-2.573-1.899Zm-.099 4.008c-.92 0-1.564.65-1.564 1.576c0 1.032.703 1.635 1.558 1.635c.868 0 1.553-.533 1.553-1.629c0-1.06-.744-1.582-1.547-1.582"/></svg>