<svg xmlns="http://www.w3.org/2000/svg" width="1em" height="1em" viewBox="0 0 16 16"><path fill="currentColor" d="M1.226 10.88H0l2.056-6.26h1.42l2.047 6.26h-1.29l-.48-1.61H1.707l-.48 1.61ZM2.76 5.818h-.054l-.75 2.532H3.51zm3.217 5.062V4.62h2.56c1.09 0 1.808.582 1.808 1.54c0 .762-.444 1.22-1.05 1.372v.055c.736.074 1.365.587 1.365 1.528c0 1.119-.89 1.766-2.133 1.766zM7.18 5.55v1.675h.8c.812 0 1.171-.308 1.171-.853c0-.51-.328-.822-.898-.822zm0 2.537V9.95h.903c.951 0 1.342-.312 1.342-.909c0-.591-.382-.954-1.095-.954zm5.089-.711v.775c0 1.156.49 1.803 1.347 1.803c.705 0 1.163-.454 1.212-1.096H16v.12C15.942 10.173 14.95 11 13.607 11c-1.648 0-2.573-1.073-2.573-2.849v-.78c0-1.775.934-2.871 2.573-2.871c1.347 0 2.34.849 2.393 2.087v.115h-1.172c-.05-.665-.516-1.156-1.212-1.156c-.849 0-1.347.67-1.347 1.83"/></svg>