<svg xmlns="http://www.w3.org/2000/svg" width="1em" height="1em" viewBox="0 0 16 16"><path fill="currentColor" d="M8 11a3 3 0 1 1 0-6a3 3 0 0 1 0 6m0 1a4 4 0 1 0 0-8a4 4 0 0 0 0 8m.5-9.5a.5.5 0 1 1-1 0a.5.5 0 0 1 1 0m0 11a.5.5 0 1 1-1 0a.5.5 0 0 1 1 0m5-5a.5.5 0 1 1 0-1a.5.5 0 0 1 0 1m-11 0a.5.5 0 1 1 0-1a.5.5 0 0 1 0 1m9.743-4.036a.5.5 0 1 1-.707-.707a.5.5 0 0 1 .707.707m-7.779 7.779a.5.5 0 1 1-.707-.707a.5.5 0 0 1 .707.707m7.072 0a.5.5 0 1 1 .707-.707a.5.5 0 0 1-.707.707M3.757 4.464a.5.5 0 1 1 .707-.707a.5.5 0 0 1-.707.707"/></svg>