<svg xmlns="http://www.w3.org/2000/svg" width="1em" height="1em" viewBox="0 0 16 16"><path fill="currentColor" d="M2.5 3a.5.5 0 0 0 0 1h11a.5.5 0 0 0 0-1zm0 3a.5.5 0 0 0 0 1h6a.5.5 0 0 0 0-1zm0 3a.5.5 0 0 0 0 1h6a.5.5 0 0 0 0-1zm0 3a.5.5 0 0 0 0 1h11a.5.5 0 0 0 0-1zm10.113-5.373a7 7 0 0 0-.445-.275l.21-.352q.183.111.452.287q.27.176.51.428q.234.246.398.562q.164.31.164.692q0 .54-.216.873q-.217.328-.721.328q-.322 0-.504-.211a.7.7 0 0 1-.188-.463q0-.345.211-.521q.205-.182.569-.182h.281a1.7 1.7 0 0 0-.123-.498a1.4 1.4 0 0 0-.252-.37a2 2 0 0 0-.346-.298m-2.168 0A7 7 0 0 0 10 6.352L10.21 6q.183.111.452.287q.27.176.51.428q.234.246.398.562q.164.31.164.692q0 .54-.216.873q-.217.328-.721.328q-.322 0-.504-.211a.7.7 0 0 1-.188-.463q0-.345.211-.521q.206-.182.569-.182h.281a1.8 1.8 0 0 0-.117-.492a1.4 1.4 0 0 0-.258-.375a2 2 0 0 0-.346-.3z"/></svg>