<svg xmlns="http://www.w3.org/2000/svg" width="1em" height="1em" viewBox="0 0 16 16"><path fill="currentColor" fill-rule="evenodd" d="M16 8a8 8 0 1 0-2.697 5.99c-.972-.665-1.632-1.356-1.99-2.062c-.388-.766-.419-1.561-.075-2.23c.496-.97 1.73-1.466 2.762-1.05c.65-.262 1.38-.162 1.957.19Q16 8.425 16 8M7 6.5C7 7.328 6.552 8 6 8s-1-.672-1-1.5S5.448 5 6 5s1 .672 1 1.5m1.512 3.647c-.347.08-.737.198-1.107.319a.5.5 0 1 1-.31-.95c.38-.125.802-.254 1.192-.343c.37-.086.78-.153 1.103-.108c.16.022.394.085.561.286c.188.226.187.497.131.705a1.9 1.9 0 0 1-.31.593q-.115.16-.275.343q.16.186.276.347c.142.197.256.397.31.595c.055.208.056.479-.132.706c-.168.2-.404.262-.563.284c-.323.043-.733-.027-1.102-.113a15 15 0 0 1-1.191-.345a.5.5 0 1 1 .31-.95c.371.12.761.24 1.109.321q.264.062.446.084a6 6 0 0 0-.502-.584a.5.5 0 0 1 .002-.695a5.5 5.5 0 0 0 .5-.577a5 5 0 0 0-.448.082m.766-.086l-.006-.002zm.002 1.867l-.005.001l.006-.002Zm.157-4.685a.5.5 0 0 1-.874-.486A1.93 1.93 0 0 1 10.25 5.75c.73 0 1.356.412 1.687 1.007a.5.5 0 1 1-.874.486a.93.93 0 0 0-.813-.493a.93.93 0 0 0-.813.493M14 9.828c1.11-1.14 3.884.856 0 3.422c-3.884-2.566-1.11-4.562 0-3.421Z"/></svg>