<svg xmlns="http://www.w3.org/2000/svg" width="1em" height="1em" viewBox="0 0 16 16"><path fill="currentColor" fill-rule="evenodd" d="M14 4.5V14a2 2 0 0 1-2 2v-1a1 1 0 0 0 1-1V4.5h-2A1.5 1.5 0 0 1 9.5 3V1H4a1 1 0 0 0-1 1v9H2V2a2 2 0 0 1 2-2h5.5zm-3.76 8.132q.114.23.14.492h-.776a.8.8 0 0 0-.097-.249a.7.7 0 0 0-.17-.19a.7.7 0 0 0-.237-.126a1 1 0 0 0-.299-.044q-.427 0-.665.302q-.234.301-.234.85v.498q0 .351.097.615a.9.9 0 0 0 .304.413a.87.87 0 0 0 .519.146a1 1 0 0 0 .457-.096a.67.67 0 0 0 .272-.264q.09-.164.091-.363v-.255H8.82v-.59h1.576v.798q0 .29-.097.55a1.3 1.3 0 0 1-.293.458a1.4 1.4 0 0 1-.495.313q-.296.111-.697.111a2 2 0 0 1-.753-.132a1.45 1.45 0 0 1-.533-.377a1.6 1.6 0 0 1-.32-.58a2.5 2.5 0 0 1-.105-.745v-.506q0-.543.2-.95q.201-.406.582-.633q.384-.228.926-.228q.357 0 .636.1q.281.1.48.275q.2.176.314.407Zm-8.64-.706H0v4h.791v-1.343h.803q.43 0 .732-.172q.305-.177.463-.475a1.4 1.4 0 0 0 .161-.677q0-.374-.158-.677a1.2 1.2 0 0 0-.46-.477q-.3-.18-.732-.179m.545 1.333a.8.8 0 0 1-.085.381a.57.57 0 0 1-.238.24a.8.8 0 0 1-.375.082H.788v-1.406h.66q.327 0 .512.182q.185.181.185.521m1.964 2.666V13.25h.032l1.761 2.675h.656v-3.999h-.75v2.66h-.032l-1.752-2.66h-.662v4z"/></svg>