<svg xmlns="http://www.w3.org/2000/svg" width="1em" height="1em" viewBox="0 0 16 16"><path fill="currentColor" fill-rule="evenodd" d="M14 4.5V11h-1V4.5h-2A1.5 1.5 0 0 1 9.5 3V1H4a1 1 0 0 0-1 1v9H2V2a2 2 0 0 1 2-2h5.5zm-6.839 9.688v-.522a1.5 1.5 0 0 0-.117-.641a.86.86 0 0 0-.322-.387a.86.86 0 0 0-.469-.129a.87.87 0 0 0-.471.13a.87.87 0 0 0-.32.386a1.5 1.5 0 0 0-.117.641v.522q0 .384.117.641a.87.87 0 0 0 .32.387a.9.9 0 0 0 .471.126a.9.9 0 0 0 .469-.126a.86.86 0 0 0 .322-.386a1.55 1.55 0 0 0 .117-.642m.803-.516v.513q0 .563-.205.973a1.47 1.47 0 0 1-.589.627q-.381.216-.917.216a1.86 1.86 0 0 1-.92-.216a1.46 1.46 0 0 1-.589-.627a2.15 2.15 0 0 1-.205-.973v-.513q0-.569.205-.975q.205-.411.59-.627q.386-.22.92-.22q.535 0 .916.22q.383.219.59.63q.204.406.204.972M1 15.925v-3.999h1.459q.609 0 1.005.235q.396.233.589.68q.196.445.196 1.074q0 .634-.196 1.084q-.197.451-.595.689q-.396.237-.999.237zm1.354-3.354H1.79v2.707h.563q.277 0 .483-.082a.8.8 0 0 0 .334-.252q.132-.17.196-.422a2.3 2.3 0 0 0 .068-.592q0-.45-.118-.753a.9.9 0 0 0-.354-.454q-.237-.152-.61-.152Zm6.756 1.116q0-.373.103-.633a.87.87 0 0 1 .301-.398a.8.8 0 0 1 .475-.138q.225 0 .398.097a.7.7 0 0 1 .273.26a.85.85 0 0 1 .12.381h.765v-.073a1.33 1.33 0 0 0-.466-.964a1.4 1.4 0 0 0-.49-.272a1.8 1.8 0 0 0-.606-.097q-.534 0-.911.223q-.375.222-.571.633q-.197.41-.197.978v.498q0 .568.194.976q.195.406.571.627q.375.216.914.216q.44 0 .785-.164t.551-.454a1.27 1.27 0 0 0 .226-.674v-.076h-.765a.8.8 0 0 1-.117.364a.7.7 0 0 1-.273.248a.9.9 0 0 1-.401.088a.85.85 0 0 1-.478-.131a.83.83 0 0 1-.298-.393a1.7 1.7 0 0 1-.103-.627zm5.092-1.76h.894l-1.275 2.006l1.254 1.992h-.908l-.85-1.415h-.035l-.852 1.415h-.862l1.24-2.015l-1.228-1.984h.932l.832 1.439h.035z"/></svg>