<svg xmlns="http://www.w3.org/2000/svg" width="1em" height="1em" viewBox="0 0 16 16"><g fill="currentColor"><path d="M14 14V4.5L9.5 0H4a2 2 0 0 0-2 2v12a2 2 0 0 0 2 2h8a2 2 0 0 0 2-2M9.5 3A1.5 1.5 0 0 0 11 4.5h2V14a1 1 0 0 1-1 1H4a1 1 0 0 1-1-1V2a1 1 0 0 1 1-1h5.5z"/><path d="M4.603 14.087a.8.8 0 0 1-.438-.42c-.195-.388-.13-.776.08-1.102c.198-.307.526-.568.897-.787a7.7 7.7 0 0 1 1.482-.645a20 20 0 0 0 1.062-2.227a7.3 7.3 0 0 1-.43-1.295c-.086-.4-.119-.796-.046-1.136c.075-.354.274-.672.65-.823c.192-.077.4-.12.602-.077a.7.7 0 0 1 .477.365c.088.164.12.356.127.538c.007.188-.012.396-.047.614c-.084.51-.27 1.134-.52 1.794a11 11 0 0 0 .98 1.686a5.8 5.8 0 0 1 1.334.05c.364.066.734.195.96.465c.12.144.193.32.2.518c.007.192-.047.382-.138.563a1.04 1.04 0 0 1-.354.416a.86.86 0 0 1-.51.138c-.331-.014-.654-.196-.933-.417a5.7 5.7 0 0 1-.911-.95a11.7 11.7 0 0 0-1.997.406a11.3 11.3 0 0 1-1.02 1.51c-.292.35-.609.656-.927.787a.8.8 0 0 1-.58.029m1.379-1.901q-.25.115-.459.238c-.328.194-.541.383-.647.547c-.094.145-.096.25-.04.361q.016.032.026.044l.035-.012c.137-.056.355-.235.635-.572a8 8 0 0 0 .45-.606m1.64-1.33a13 13 0 0 1 1.01-.193a12 12 0 0 1-.51-.858a21 21 0 0 1-.5 1.05zm2.446.45q.226.245.435.41c.24.19.407.253.498.256a.1.1 0 0 0 .07-.015a.3.3 0 0 0 .094-.125a.44.44 0 0 0 .059-.2a.1.1 0 0 0-.026-.063c-.052-.062-.2-.152-.518-.209a4 4 0 0 0-.612-.053zM8.078 7.8a7 7 0 0 0 .2-.828q.046-.282.038-.465a.6.6 0 0 0-.032-.198a.5.5 0 0 0-.145.04c-.087.035-.158.106-.196.283c-.04.192-.03.469.046.822q.036.167.09.346z"/></g></svg>