<svg xmlns="http://www.w3.org/2000/svg" width="1em" height="1em" viewBox="0 0 16 16"><path fill="currentColor" d="M8 0a8 8 0 1 0 0 16A8 8 0 0 0 8 0M3.668 2.501l-.288.646a.847.847 0 0 0 1.479.815l.245-.368a.81.81 0 0 1 1.034-.275a.81.81 0 0 0 .724 0l.261-.13a1 1 0 0 1 .775-.05l.984.34q.118.04.243.054c.784.093.855.377.694.801c-.155.41-.616.617-1.035.487l-.01-.003C8.274 4.663 7.748 4.5 6 4.5C4.8 4.5 3.5 5.62 3.5 7c0 1.96.826 2.166 1.696 2.382c.46.115.935.233 1.304.618c.449.467.393 1.181.339 1.877C6.755 12.96 6.674 14 8.5 14c1.75 0 3-3.5 3-4.5c0-.262.208-.468.444-.7c.396-.392.87-.86.556-1.8c-.097-.291-.396-.568-.641-.756c-.174-.133-.207-.396-.052-.551a.33.33 0 0 1 .42-.042l1.085.724c.11.072.255.058.348-.035c.15-.15.415-.083.489.117c.16.43.445 1.05.849 1.357L15 8A7 7 0 1 1 3.668 2.501"/></svg>