<svg xmlns="http://www.w3.org/2000/svg" width="1em" height="1em" viewBox="0 0 16 16"><path fill="currentColor" d="M8.5 1.5a.5.5 0 1 0-1 0v5.243L7 7.1V4.72C7 3.77 6.23 3 5.28 3c-.524 0-1.023.27-1.443.592c-.431.332-.847.773-1.216 1.229c-.736.908-1.347 1.946-1.58 2.48c-.176.405-.393 1.16-.556 2.011c-.165.857-.283 1.857-.241 2.759c.04.867.233 1.79.838 2.33c.67.6 1.622.556 2.741-.004l1.795-.897A2.5 2.5 0 0 0 7 11.264V10.5a.5.5 0 0 0-1 0v.764a1.5 1.5 0 0 1-.83 1.342l-1.794.897c-.978.489-1.415.343-1.628.152c-.28-.25-.467-.801-.505-1.63c-.037-.795.068-1.71.224-2.525c.157-.82.357-1.491.491-1.8c.19-.438.75-1.4 1.44-2.25c.342-.422.703-.799 1.049-1.065c.358-.276.639-.385.833-.385a.72.72 0 0 1 .72.72v3.094l-1.79 1.28a.5.5 0 0 0 .58.813L8 7.614l3.21 2.293a.5.5 0 1 0 .58-.814L10 7.814V4.72a.72.72 0 0 1 .72-.72c.194 0 .475.11.833.385c.346.266.706.643 1.05 1.066c.688.85 1.248 1.811 1.439 2.249c.134.309.334.98.491 1.8c.156.814.26 1.73.224 2.525c-.038.829-.224 1.38-.505 1.63c-.213.19-.65.337-1.628-.152l-1.795-.897A1.5 1.5 0 0 1 10 11.264V10.5a.5.5 0 0 0-1 0v.764a2.5 2.5 0 0 0 1.382 2.236l1.795.897c1.12.56 2.07.603 2.741.004c.605-.54.798-1.463.838-2.33c.042-.902-.076-1.902-.24-2.759c-.164-.852-.38-1.606-.558-2.012c-.232-.533-.843-1.571-1.579-2.479c-.37-.456-.785-.897-1.216-1.229C11.743 3.27 11.244 3 10.72 3C9.77 3 9 3.77 9 4.72V7.1l-.5-.357z"/></svg>