<svg xmlns="http://www.w3.org/2000/svg" width="1em" height="1em" viewBox="0 0 16 16"><g fill="currentColor"><path d="M13 5.5a.5.5 0 1 1-1 0a.5.5 0 0 1 1 0m-1 1a.5.5 0 1 1-1 0a.5.5 0 0 1 1 0m-1 1a.5.5 0 1 1-1 0a.5.5 0 0 1 1 0m-1 1a.5.5 0 1 1-1 0a.5.5 0 0 1 1 0m-1 1a.5.5 0 1 1-1 0a.5.5 0 0 1 1 0m-1 1a.5.5 0 1 1-1 0a.5.5 0 0 1 1 0m-1 1a.5.5 0 1 1-1 0a.5.5 0 0 1 1 0m-1 1a.5.5 0 1 1-1 0a.5.5 0 0 1 1 0m1 1a.5.5 0 1 1-1 0a.5.5 0 0 1 1 0m.5-.5a.5.5 0 1 0 0-1a.5.5 0 0 0 0 1m1-1a.5.5 0 1 0 0-1a.5.5 0 0 0 0 1m1-1a.5.5 0 1 0 0-1a.5.5 0 0 0 0 1m1-1a.5.5 0 1 0 0-1a.5.5 0 0 0 0 1m1-1a.5.5 0 1 0 0-1a.5.5 0 0 0 0 1m1-1a.5.5 0 1 0 0-1a.5.5 0 0 0 0 1m1-1a.5.5 0 1 0 0-1a.5.5 0 0 0 0 1m-5 7a.5.5 0 1 0 0-1a.5.5 0 0 0 0 1m1.5-1.5a.5.5 0 1 1-1 0a.5.5 0 0 1 1 0m1-1a.5.5 0 1 1-1 0a.5.5 0 0 1 1 0m1-1a.5.5 0 1 1-1 0a.5.5 0 0 1 1 0m1-1a.5.5 0 1 1-1 0a.5.5 0 0 1 1 0m1-1a.5.5 0 1 1-1 0a.5.5 0 0 1 1 0m-3 5a.5.5 0 1 1-1 0a.5.5 0 0 1 1 0m.5-.5a.5.5 0 1 0 0-1a.5.5 0 0 0 0 1m1-1a.5.5 0 1 0 0-1a.5.5 0 0 0 0 1m1-1a.5.5 0 1 0 0-1a.5.5 0 0 0 0 1"/><path d="M8 0a8 8 0 1 0 0 16A8 8 0 0 0 8 0M1 8a7 7 0 0 1 12.83-3.875a.5.5 0 1 0 .15.235q.197.322.359.667a.5.5 0 1 0 .359.932q.201.658.27 1.364a.5.5 0 1 0 .021.282a7 7 0 0 1-.091 1.592a.5.5 0 1 0-.172.75a7 7 0 0 1-.418 1.091a.5.5 0 0 0-.3.555a7 7 0 0 1-.296.454a.5.5 0 0 0-.712.453c0 .111.036.214.098.297a7 7 0 0 1-.3.3a.5.5 0 0 0-.75.614a7 7 0 0 1-.455.298a.5.5 0 0 0-.555.3a7 7 0 0 1-1.092.417a.5.5 0 1 0-.749.172a7 7 0 0 1-1.592.091a.5.5 0 1 0-.282-.021a7 7 0 0 1-1.364-.27A.498.498 0 0 0 5.5 14a.5.5 0 0 0-.473.339a7 7 0 0 1-.668-.36A.5.5 0 0 0 5 13.5a.5.5 0 1 0-.875.33A7 7 0 0 1 1 8"/></g></svg>