<svg xmlns="http://www.w3.org/2000/svg" width="1em" height="1em" viewBox="0 0 16 16"><g fill="currentColor"><path d="M8.05 9.6c.336 0 .504-.24.554-.627c.04-.534.198-.815.847-1.26c.673-.475 1.049-1.09 1.049-1.986c0-1.325-.92-2.227-2.262-2.227c-1.02 0-1.792.492-2.1 1.29A1.7 1.7 0 0 0 6 5.48c0 .393.203.64.545.64c.272 0 .455-.147.564-.51c.158-.592.525-.915 1.074-.915c.61 0 1.03.446 1.03 1.084c0 .563-.208.885-.822 1.325c-.619.433-.926.914-.926 1.64v.111c0 .428.208.745.585.745"/><path d="m10.273 2.513l-.921-.944l.715-.698l.622.637l.89-.011a2.89 2.89 0 0 1 2.924 2.924l-.01.89l.636.622a2.89 2.89 0 0 1 0 4.134l-.637.622l.011.89a2.89 2.89 0 0 1-2.924 2.924l-.89-.01l-.622.636a2.89 2.89 0 0 1-4.134 0l-.622-.637l-.89.011a2.89 2.89 0 0 1-2.924-2.924l.01-.89l-.636-.622a2.89 2.89 0 0 1 0-4.134l.637-.622l-.011-.89a2.89 2.89 0 0 1 2.924-2.924l.89.01l.622-.636a2.89 2.89 0 0 1 4.134 0l-.715.698a1.89 1.89 0 0 0-2.704 0l-.92.944l-1.32-.016a1.89 1.89 0 0 0-1.911 1.912l.016 1.318l-.944.921a1.89 1.89 0 0 0 0 2.704l.944.92l-.016 1.32a1.89 1.89 0 0 0 1.912 1.911l1.318-.016l.921.944a1.89 1.89 0 0 0 2.704 0l.92-.944l1.32.016a1.89 1.89 0 0 0 1.911-1.912l-.016-1.318l.944-.921a1.89 1.89 0 0 0 0-2.704l-.944-.92l.016-1.32a1.89 1.89 0 0 0-1.912-1.911z"/><path d="M7.001 11a1 1 0 1 1 2 0a1 1 0 0 1-2 0"/></g></svg>