<svg xmlns="http://www.w3.org/2000/svg" width="1em" height="1em" viewBox="0 0 16 16"><path fill="currentColor" d="M5.354 5.119L7.538.792A.52.52 0 0 1 8 .5c.183 0 .366.097.465.292l2.184 4.327l4.898.696A.54.54 0 0 1 16 6.32a.55.55 0 0 1-.17.445l-3.523 3.356l.83 4.73c.078.443-.36.79-.746.592L8 13.187l-4.389 2.256a.5.5 0 0 1-.146.05c-.342.06-.668-.254-.6-.642l.83-4.73L.173 6.765a.55.55 0 0 1-.172-.403a.6.6 0 0 1 .085-.302a.51.51 0 0 1 .37-.245zM8 12.027a.5.5 0 0 1 .232.056l3.686 1.894l-.694-3.957a.56.56 0 0 1 .162-.505l2.907-2.77l-4.052-.576a.53.53 0 0 1-.393-.288L8.001 2.223L8 2.226z"/></svg>