<svg xmlns="http://www.w3.org/2000/svg" width="1em" height="1em" viewBox="0 0 16 16"><g fill="currentColor"><path fill-rule="evenodd" d="M15 8a7 7 0 0 1-10.253 6.2l1.658-1.99a4.49 4.49 0 0 0 1.592.29c.652 0 1.273-.139 1.833-.39L8.497 9l-1-2.5l3.826-1.53a4.5 4.5 0 0 0-7.537 4.623l-1.988 1.656A7 7 0 1 1 15 8zm1 0A8 8 0 1 1 0 8a8 8 0 0 1 16 0zm-3.504 0a4.491 4.491 0 0 1-1.703 3.526L9.497 8.5l2.959-1.11c.027.2.04.403.04.61zm-5.791.139a.25.25 0 0 0-.288-.376l-1.5.5l.159.474l.808-.27l-.595.894a.25.25 0 0 0 .287.376l.808-.27l-.595.894a.25.25 0 0 0 .287.376l1.5-.5l-.159-.474l-.808.27l.596-.894a.25.25 0 0 0-.288-.376l-.808.27l.596-.894z"/></g></svg>