<svg xmlns="http://www.w3.org/2000/svg" width="1em" height="1em" viewBox="0 0 16 16"><path fill="currentColor" d="M8.835 3.003c.828-.006 2.688 0 2.688 0l.033.03v.288q0 .12-.133.12c-.433.02-.522.063-.68.29c-.087.126-.258.393-.435.694l-1.52 2.843l-.043.089l1.858 3.801l.113.031l2.926-6.946q.152-.42-.044-.595c-.132-.114-.224-.18-.563-.195l-.275-.014a.16.16 0 0 1-.096-.035a.1.1 0 0 1-.046-.084v-.289l.042-.03h3.306l.034.03v.29q0 .117-.133.117q-.65.03-.962.281a1.64 1.64 0 0 0-.488.704s-2.691 6.16-3.612 8.208c-.353.672-.7.61-1.004-.019A224 224 0 0 1 8.044 8.81c-.623 1.285-1.475 3.026-1.898 3.81c-.411.715-.75.622-1.02.019c-.45-1.065-1.131-2.519-1.817-3.982c-.735-1.569-1.475-3.149-1.943-4.272c-.167-.4-.293-.657-.412-.759q-.18-.15-.746-.18Q0 3.421 0 3.341v-.303l.034-.03c.615-.003 3.594 0 3.594 0l.034.03v.288q0 .119-.15.118l-.375.016q-.483.02-.483.288q-.002.125.109.4c.72 1.753 3.207 6.998 3.207 6.998l.091.023l1.603-3.197l-.32-.71L6.24 5.095s-.213-.433-.286-.577l-.098-.196c-.387-.77-.411-.82-.865-.88c-.137-.017-.208-.035-.208-.102v-.304l.041-.03h2.853l.075.024v.303q0 .104-.15.104l-.206.03c-.523.04-.438.254-.09.946l1.057 2.163l1.17-2.332c.195-.427.155-.534.074-.633c-.046-.055-.202-.144-.54-.158l-.133-.015a.16.16 0 0 1-.096-.034a.1.1 0 0 1-.045-.085v-.288l.041-.03Z"/></svg>