<svg xmlns="http://www.w3.org/2000/svg" width="1em" height="1em" viewBox="0 0 16 16"><path fill="currentColor" fill-rule="evenodd" d="m3 7.5l3.5 2L8 8.75l1.5.75l3.5-2v-6A1.5 1.5 0 0 0 11.5 0h-7A1.5 1.5 0 0 0 3 1.5zM2 3.133l-.941.502A2 2 0 0 0 0 5.4v.313l2 1.173zm12 3.753l2-1.173V5.4a2 2 0 0 0-1.059-1.765L14 3.133zm-3.693 3.324L16 6.873v6.5zm5.634 4.274L8 10.072L.059 14.484A2 2 0 0 0 2 16h12a2 2 0 0 0 1.941-1.516M5.693 10.21L0 13.372v-6.5zM8 1.982C9.664.309 13.825 3.236 8 7C2.175 3.236 6.336.31 8 1.982"/></svg>