<svg xmlns="http://www.w3.org/2000/svg" width="1em" height="1em" viewBox="0 0 16 16"><path fill="currentColor" fill-rule="evenodd" d="M14 4.5V14a2 2 0 0 1-2 2v-1a1 1 0 0 0 1-1V4.5h-2A1.5 1.5 0 0 1 9.5 3V1H4a1 1 0 0 0-1 1v9H2V2a2 2 0 0 1 2-2h5.5zM0 14.841a1.13 1.13 0 0 0 .401.823q.194.162.478.252c.284.09.411.091.665.091q.507 0 .858-.158q.355-.159.54-.44a1.17 1.17 0 0 0 .187-.656q0-.336-.135-.56a1 1 0 0 0-.375-.357a2 2 0 0 0-.565-.21l-.621-.144a1 1 0 0 1-.405-.176a.37.37 0 0 1-.143-.299q0-.234.184-.384q.187-.152.513-.152q.214 0 .37.068a.6.6 0 0 1 .245.181a.56.56 0 0 1 .12.258h.75a1.1 1.1 0 0 0-.199-.566a1.2 1.2 0 0 0-.5-.41a1.8 1.8 0 0 0-.78-.152q-.44 0-.776.15q-.337.149-.528.421q-.19.273-.19.639q0 .302.123.524t.351.367q.229.143.54.213l.618.144q.31.073.462.193a.39.39 0 0 1 .153.325q0 .165-.085.29A.56.56 0 0 1 2 15.31q-.167.07-.413.07q-.176 0-.32-.04a.8.8 0 0 1-.248-.115a.58.58 0 0 1-.255-.384zm6.878 1.489l-.507-.739q.264-.243.401-.6q.138-.358.138-.806v-.501q0-.556-.208-.967a1.5 1.5 0 0 0-.589-.636q-.383-.225-.917-.225q-.527 0-.914.225q-.384.223-.592.636a2.14 2.14 0 0 0-.205.967v.5q0 .554.205.965q.208.41.592.636a1.8 1.8 0 0 0 .914.222a1.8 1.8 0 0 0 .6-.1l.294.422h.788ZM4.262 14.2v-.522q0-.369.114-.63a.9.9 0 0 1 .325-.398a.9.9 0 0 1 .495-.138q.288 0 .495.138a.9.9 0 0 1 .325.398q.115.261.115.63v.522q0 .246-.053.445q-.053.196-.155.34l-.106-.14l-.105-.147h-.733l.451.65a.6.6 0 0 1-.251.047a.87.87 0 0 1-.487-.147a.9.9 0 0 1-.32-.404a1.7 1.7 0 0 1-.11-.644m3.986 1.057h1.696v.674H7.457v-3.999h.79z"/></svg>