<svg xmlns="http://www.w3.org/2000/svg" width="1em" height="1em" viewBox="0 0 16 16"><path fill="currentColor" d="M8 0a8 8 0 1 0 0 16A8 8 0 0 0 8 0M2.04 4.326c.325 1.329 2.532 2.54 3.717 3.19c.48.263.793.434.743.484q-.121.12-.242.234c-.416.396-.787.749-.758 1.266c.035.634.618.824 1.214 1.017c.577.188 1.168.38 1.286.983c.082.417-.075.988-.22 1.52c-.215.782-.406 1.48.22 1.48c1.5-.5 3.798-3.186 4-5c.138-1.243-2-2-3.5-2.5c-.478-.16-.755.081-.99.284c-.172.15-.322.279-.51.216c-.445-.148-2.5-2-1.5-2.5c.78-.39.952-.171 1.227.182c.078.099.163.208.273.318c.609.304.662-.132.723-.633c.039-.322.081-.671.277-.867c.434-.434 1.265-.791 2.028-1.12c.712-.306 1.365-.587 1.579-.88A7 7 0 1 1 2.04 4.327Z"/></svg>