<svg xmlns="http://www.w3.org/2000/svg" width="1em" height="1em" viewBox="0 0 256 256"><path fill="currentColor" d="M208 20H64a20 20 0 0 0-20 20v20H32a12 12 0 0 0 0 24h12v32H32a12 12 0 0 0 0 24h12v32H32a12 12 0 0 0 0 24h12v20a20 20 0 0 0 20 20h144a20 20 0 0 0 20-20V40a20 20 0 0 0-20-20m-4 192H68V44h136Zm-103.2-40.63a48 48 0 0 1 70.4 0a12 12 0 0 0 17.6-16.32a72 72 0 0 0-19.21-14.68a44 44 0 1 0-67.19 0a72.12 72.12 0 0 0-19.2 14.68a12 12 0 0 0 17.6 16.32M116 112a20 20 0 1 1 20 20a20 20 0 0 1-20-20"/></svg>