<svg xmlns="http://www.w3.org/2000/svg" width="1em" height="1em" viewBox="0 0 256 256"><g fill="currentColor"><path d="M216 128a88 88 0 1 1-88-88a88 88 0 0 1 88 88" opacity=".2"/><path d="M128 32a96 96 0 1 0 96 96a96.11 96.11 0 0 0-96-96m0 176a80 80 0 1 1 80-80a80.09 80.09 0 0 1-80 80M61.66 29.66l-32 32a8 8 0 0 1-11.32-11.32l32-32a8 8 0 1 1 11.32 11.32m176 32a8 8 0 0 1-11.32 0l-32-32a8 8 0 0 1 11.32-11.32l32 32a8 8 0 0 1 0 11.32M184 120a8 8 0 0 1 0 16h-56a8 8 0 0 1-8-8V72a8 8 0 0 1 16 0v48Z"/></g></svg>