<svg xmlns="http://www.w3.org/2000/svg" width="1em" height="1em" viewBox="0 0 256 256"><g fill="currentColor"><path d="M152 56a24 24 0 1 1-24-24a24 24 0 0 1 24 24" opacity=".2"/><path d="M216 136a8 8 0 0 0-8 8a40 40 0 0 1-40 40a47.79 47.79 0 0 0-32 12.27V128h32a8 8 0 0 0 0-16h-32V87a32 32 0 1 0-16 0v25H88a8 8 0 0 0 0 16h32v68.27A47.79 47.79 0 0 0 88 184a40 40 0 0 1-40-40a8 8 0 0 0-16 0a56.06 56.06 0 0 0 56 56a32 32 0 0 1 32 32a8 8 0 0 0 16 0a32 32 0 0 1 32-32a56.06 56.06 0 0 0 56-56a8 8 0 0 0-8-8M112 56a16 16 0 1 1 16 16a16 16 0 0 1-16-16"/></g></svg>