<svg xmlns="http://www.w3.org/2000/svg" width="1em" height="1em" viewBox="0 0 256 256"><g fill="currentColor"><path d="M104 120a24 24 0 1 1 24 24a24 24 0 0 1-24-24m39.75 24h-31.5a16.06 16.06 0 0 0-15.76 19.88l12.19 48A16.2 16.2 0 0 0 124.44 224h7.12a16.2 16.2 0 0 0 15.76-12.12l12.19-48A16.06 16.06 0 0 0 143.75 144" opacity=".2"/><path d="M154.2 138.33a32 32 0 1 0-52.4 0a24.18 24.18 0 0 0-8.76 7a23.68 23.68 0 0 0-4.3 20.49l12.18 48A24.18 24.18 0 0 0 124.44 232h7.12a24.18 24.18 0 0 0 23.52-18.15l12.18-48a23.68 23.68 0 0 0-4.3-20.49a24.18 24.18 0 0 0-8.76-7.03M128 104a16 16 0 1 1-16 16a16 16 0 0 1 16-16m23.75 57.91l-12.18 48a8.18 8.18 0 0 1-8 6.09h-7.12a8.18 8.18 0 0 1-8-6.09l-12.18-48a7.71 7.71 0 0 1 1.42-6.73a8.26 8.26 0 0 1 6.58-3.18h31.5a8.26 8.26 0 0 1 6.58 3.18a7.71 7.71 0 0 1 1.4 6.73M72 128a56.27 56.27 0 0 0 1.76 14a8 8 0 1 1-15.49 4a72 72 0 1 1 139.46 0a8 8 0 0 1-7.74 6a8.12 8.12 0 0 1-2-.25a8 8 0 0 1-5.75-9.74A56 56 0 1 0 72 128m160 0a103.86 103.86 0 0 1-46.49 86.66a8 8 0 0 1-8.86-13.32a88 88 0 1 0-97.31 0A8 8 0 0 1 74.91 216a7.92 7.92 0 0 1-4.42-1.34A104 104 0 1 1 232 128"/></g></svg>