<svg xmlns="http://www.w3.org/2000/svg" width="1em" height="1em" viewBox="0 0 256 256"><path fill="currentColor" d="M151 139.2a30 30 0 1 0-46.06 0a22.14 22.14 0 0 0-10.35 7.39a21.68 21.68 0 0 0-3.94 18.77l12.18 48A22.17 22.17 0 0 0 124.44 230h7.12a22.17 22.17 0 0 0 21.58-16.64l12.18-48a21.68 21.68 0 0 0-3.94-18.77A22.14 22.14 0 0 0 151 139.2M128 102a18 18 0 1 1-18 18a18 18 0 0 1 18-18m25.69 60.4l-12.18 48a10.19 10.19 0 0 1-9.95 7.6h-7.12a10.19 10.19 0 0 1-10-7.6l-12.18-48a9.75 9.75 0 0 1 1.78-8.44a10.25 10.25 0 0 1 8.16-4h31.5a10.25 10.25 0 0 1 8.16 4a9.75 9.75 0 0 1 1.83 8.44M186 128a58 58 0 1 0-114.17 14.5a6 6 0 0 1-11.62 3a70 70 0 1 1 135.58 0A6 6 0 0 1 190 150a5.93 5.93 0 0 1-1.5-.19a6 6 0 0 1-4.32-7.31A57.86 57.86 0 0 0 186 128m44 0a101.88 101.88 0 0 1-45.59 85a6 6 0 0 1-6.65-10a90 90 0 1 0-99.52 0a6 6 0 0 1-6.65 10A102 102 0 1 1 230 128"/></svg>