<svg xmlns="http://www.w3.org/2000/svg" width="1em" height="1em" viewBox="0 0 256 256"><path fill="currentColor" d="M208 28H48a20 20 0 0 0-20 20v160a20 20 0 0 0 20 20h160a20 20 0 0 0 20-20V48a20 20 0 0 0-20-20m-4 24v96h-24.69a19.86 19.86 0 0 0-14.14 5.86L147 172h-38l-18.17-18.14A19.86 19.86 0 0 0 76.69 148H52V52ZM52 204v-32h23l18.14 18.14a19.86 19.86 0 0 0 14.17 5.86h41.38a19.86 19.86 0 0 0 14.14-5.86L181 172h23v32Zm35.51-79.51a12 12 0 0 1 17-17L116 119V76a12 12 0 0 1 24 0v43l11.51-11.52a12 12 0 0 1 17 17l-32 32a12 12 0 0 1-17 0Z"/></svg>