<svg xmlns="http://www.w3.org/2000/svg" width="1em" height="1em" viewBox="0 0 256 256"><g fill="currentColor"><path d="m16 128l32-32v64Zm192-32v64l32-32Z" opacity=".2"/><path d="M136 40v176a8 8 0 0 1-16 0V40a8 8 0 0 1 16 0m-32 88a8 8 0 0 1-8 8H56v24a8 8 0 0 1-13.66 5.66l-32-32a8 8 0 0 1 0-11.32l32-32A8 8 0 0 1 56 96v24h40a8 8 0 0 1 8 8m-64-12.69L27.31 128L40 140.69Zm205.66 18.35l-32 32A8 8 0 0 1 200 160v-24h-40a8 8 0 0 1 0-16h40V96a8 8 0 0 1 13.66-5.66l32 32a8 8 0 0 1 0 11.32m-17-5.66L216 115.31v25.38Z"/></g></svg>