<svg xmlns="http://www.w3.org/2000/svg" width="1em" height="1em" viewBox="0 0 256 256"><path fill="currentColor" d="M56 136a8 8 0 0 1-8 8H24a8 8 0 0 1 0-16h8V64h-8a8 8 0 0 1 0-16h16a8 8 0 0 1 6.78 3.74L80 104.91l33.22-53.15A8 8 0 0 1 120 48h16a8 8 0 0 1 0 16h-8v64h8a8 8 0 0 1 0 16h-24a8 8 0 0 1 0-16V83.89l-25.22 40.35a8 8 0 0 1-13.56 0L48 83.89V128a8 8 0 0 1 8 8m112-24h72a8 8 0 0 0 0-16h-72a8 8 0 0 0 0 16m72 16h-72a8 8 0 0 0 0 16h72a8 8 0 0 0 0-16m0 32H72a8 8 0 0 0 0 16h168a8 8 0 0 0 0-16m0 32H72a8 8 0 0 0 0 16h168a8 8 0 0 0 0-16"/></svg>