<svg xmlns="http://www.w3.org/2000/svg" width="1em" height="1em" viewBox="0 0 256 256"><path fill="currentColor" d="M128 28a100 100 0 1 0 100 100A100.11 100.11 0 0 0 128 28m67.31 162.64a90.16 90.16 0 0 1-4.46-5.14a4 4 0 0 0-6.24 5c1.58 2 3.26 3.9 5 5.76a91.82 91.82 0 0 1-123.22 0c1.74-1.86 3.42-3.78 5-5.76a4 4 0 0 0-6.24-5a90.16 90.16 0 0 1-4.46 5.14a91.81 91.81 0 0 1 0-125.28a90.16 90.16 0 0 1 4.46 5.14a4 4 0 0 0 6.24-5c-1.58-2-3.26-3.9-5-5.76a91.82 91.82 0 0 1 123.22 0a97.247 97.247 0 0 0-5 5.76a4 4 0 1 0 6.24 5a90.16 90.16 0 0 1 4.46-5.14a91.81 91.81 0 0 1 0 125.28m-103.37-46a98.57 98.57 0 0 1-4.3 16.67a4 4 0 0 1-3.78 2.69a3.88 3.88 0 0 1-1.33-.23a4 4 0 0 1-2.44-5.1a92.07 92.07 0 0 0 4-15.33a4 4 0 0 1 7.88 1.32Zm0-33.32a4 4 0 0 1-3.28 4.6a3.77 3.77 0 0 1-.66.08a4 4 0 0 1-3.94-3.34a92.07 92.07 0 0 0-4-15.33a4 4 0 0 1 7.55-2.66a98.57 98.57 0 0 1 4.33 16.67Zm84 47.33a4 4 0 0 1-2.44 5.1a3.88 3.88 0 0 1-1.33.23a4 4 0 0 1-3.78-2.67a98.57 98.57 0 0 1-4.3-16.67a4 4 0 0 1 7.88-1.32a92.07 92.07 0 0 0 3.94 15.35Zm0-61.34a92.07 92.07 0 0 0-4 15.33A4 4 0 0 1 168 116a3.68 3.68 0 0 1-.66-.06a4 4 0 0 1-3.28-4.6a98.57 98.57 0 0 1 4.3-16.67a4 4 0 0 1 7.55 2.66Z"/></svg>