<svg xmlns="http://www.w3.org/2000/svg" width="1em" height="1em" viewBox="0 0 256 256"><g fill="currentColor"><path d="M240 112v32a48 48 0 0 1-48 48H64a48 48 0 0 1-48-48v-32a8 8 0 0 1 8-8h112v40h64v-40h32a8 8 0 0 1 8 8" opacity=".2"/><path d="M232 96h-24a8 8 0 0 0-8-8h-64a8 8 0 0 0-8 8H64V52a12 12 0 0 1 12-12a12.44 12.44 0 0 1 12.16 9.59a8 8 0 0 0 15.68-3.18A28.32 28.32 0 0 0 76 24a28 28 0 0 0-28 28v44H24a16 16 0 0 0-16 16v32a56.06 56.06 0 0 0 56 56v16a8 8 0 0 0 16 0v-16h96v16a8 8 0 0 0 16 0v-16a56.06 56.06 0 0 0 56-56v-32a16 16 0 0 0-16-16m-40 8v32h-48v-32Zm40 40a40 40 0 0 1-40 40H64a40 40 0 0 1-40-40v-32h104v32a8 8 0 0 0 8 8h64a8 8 0 0 0 8-8v-32h24Z"/></g></svg>