<svg xmlns="http://www.w3.org/2000/svg" width="1em" height="1em" viewBox="0 0 256 256"><g fill="currentColor"><path d="m184 80l-64 48V32Zm-64 144l64-48l-64-48Z" opacity=".2"/><path d="M188.8 169.6L133.33 128l55.47-41.6a8 8 0 0 0 0-12.8l-64-48A8 8 0 0 0 112 32v80L60.8 73.6a8 8 0 0 0-9.6 12.8l55.47 41.6l-55.47 41.6a8 8 0 1 0 9.6 12.8L112 144v80a8 8 0 0 0 12.8 6.4l64-48a8 8 0 0 0 0-12.8M128 48l42.67 32L128 112Zm0 160v-64l42.67 32Zm-76-68a12 12 0 1 1 12-12a12 12 0 0 1-12 12m156-12a12 12 0 1 1-12-12a12 12 0 0 1 12 12"/></g></svg>