<svg xmlns="http://www.w3.org/2000/svg" width="1em" height="1em" viewBox="0 0 256 256"><g fill="currentColor"><path d="M225.09 102.44a28 28 0 0 1-35.92 5.3a8 8 0 0 0-10 1.07l-70.38 70.38a8 8 0 0 0-1.07 10A28 28 0 1 1 56.3 199.7a28 28 0 1 1 10.51-51.42a8 8 0 0 0 10-1.07l70.38-70.38a8 8 0 0 0 1.07-10a28 28 0 1 1 51.42-10.51a28 28 0 0 1 25.41 46.12" opacity=".2"/><path d="M231.67 60.89a35.82 35.82 0 0 0-23.82-12.74a36 36 0 1 0-66.37 22.92a.25.25 0 0 1 0 .08l-70.31 70.36h-.1a36 36 0 1 0-22.92 66.37a36 36 0 1 0 66.37-22.92a.54.54 0 0 1 0-.08l70.35-70.36h.1a36 36 0 0 0 46.74-53.63ZM219.1 97.16a20 20 0 0 1-25.67 3.8a16 16 0 0 0-19.88 2.19l-70.4 70.4a16 16 0 0 0-2.15 19.88a20 20 0 1 1-36.75 7.5a8 8 0 0 0-7.91-9.24a8.5 8.5 0 0 0-1.23.1A20 20 0 1 1 62.57 155a16 16 0 0 0 19.88-2.19l70.4-70.4A16 16 0 0 0 155 62.57a20 20 0 1 1 36.75-7.5a8 8 0 0 0 9.14 9.14a20 20 0 0 1 18.17 33Z"/></g></svg>