<svg xmlns="http://www.w3.org/2000/svg" width="1em" height="1em" viewBox="0 0 256 256"><path fill="currentColor" d="M224 52h-64a36 36 0 0 0-32 19.54A36 36 0 0 0 96 52H32a12 12 0 0 0-12 12v128a12 12 0 0 0 12 12h64a28 28 0 0 1 28 28a4 4 0 0 0 8 0a28 28 0 0 1 28-28h64a12 12 0 0 0 12-12V64a12 12 0 0 0-12-12M96 196H32a4 4 0 0 1-4-4V64a4 4 0 0 1 4-4h64a28 28 0 0 1 28 28v121.4A35.94 35.94 0 0 0 96 196m132-4a4 4 0 0 1-4 4h-64a35.94 35.94 0 0 0-28 13.41V88a28 28 0 0 1 28-28h64a4 4 0 0 1 4 4Zm-24-96a4 4 0 0 1-4 4h-40a4 4 0 0 1 0-8h40a4 4 0 0 1 4 4m0 32a4 4 0 0 1-4 4h-40a4 4 0 0 1 0-8h40a4 4 0 0 1 4 4m0 32a4 4 0 0 1-4 4h-40a4 4 0 0 1 0-8h40a4 4 0 0 1 4 4"/></svg>