<svg xmlns="http://www.w3.org/2000/svg" width="1em" height="1em" viewBox="0 0 256 256"><path fill="currentColor" d="M224 44h-64a43.86 43.86 0 0 0-32 13.85A43.86 43.86 0 0 0 96 44H32a20 20 0 0 0-20 20v128a20 20 0 0 0 20 20h64a20 20 0 0 1 20 20a12 12 0 0 0 24 0a20 20 0 0 1 20-20h64a20 20 0 0 0 20-20V64a20 20 0 0 0-20-20M96 188H36V68h60a20 20 0 0 1 20 20v104.81A43.79 43.79 0 0 0 96 188m124 0h-60a43.71 43.71 0 0 0-20 4.83V88a20 20 0 0 1 20-20h60Zm-56-92h32a12 12 0 0 1 0 24h-32a12 12 0 0 1 0-24m44 52a12 12 0 0 1-12 12h-32a12 12 0 0 1 0-24h32a12 12 0 0 1 12 12"/></svg>