<svg xmlns="http://www.w3.org/2000/svg" width="1em" height="1em" viewBox="0 0 256 256"><path fill="currentColor" d="M208 96a16 16 0 0 0 16-16V48a16 16 0 0 0-16-16h-32a16 16 0 0 0-16 16v8H96v-8a16 16 0 0 0-16-16H48a16 16 0 0 0-16 16v32a16 16 0 0 0 16 16h8v64h-8a16 16 0 0 0-16 16v32a16 16 0 0 0 16 16h32a16 16 0 0 0 16-16v-8h64v8a16 16 0 0 0 16 16h32a16 16 0 0 0 16-16v-32a16 16 0 0 0-16-16h-8V96Zm-32-48h32v32h-32ZM48 48h32v15.9a.51.51 0 0 0 0 .2V80H48Zm32 160H48v-32h32v15.9a.51.51 0 0 0 0 .2zm128 0h-32v-32h32Zm-24-48h-8a16 16 0 0 0-16 16v8H96v-8a16 16 0 0 0-16-16h-8V96h8a16 16 0 0 0 16-16v-8h64v8a16 16 0 0 0 16 16h8Z"/></svg>