<svg xmlns="http://www.w3.org/2000/svg" width="1em" height="1em" viewBox="0 0 256 256"><rect x="32.008" y="72" width="192" height="144" rx="8" opacity=".2" fill="currentColor"/><path d="M216.008 64H176v-8a24.027 24.027 0 0 0-24-24h-48a24.027 24.027 0 0 0-24 24v8H40.008a16.018 16.018 0 0 0-16 16v128a16.018 16.018 0 0 0 16 16h176a16.018 16.018 0 0 0 16-16V80a16.018 16.018 0 0 0-16-16zM96 56a8.01 8.01 0 0 1 8-8h48a8.01 8.01 0 0 1 8 8v8H96zm120.008 152h-176V80h176l.01 128z" fill="currentColor"/></svg>