<svg xmlns="http://www.w3.org/2000/svg" width="1em" height="1em" viewBox="0 0 256 256"><path fill="currentColor" d="M128 88a40 40 0 1 0 40 40a40 40 0 0 0-40-40m0 64a24 24 0 1 1 24-24a24 24 0 0 1-24 24m73.71 7.14a80 80 0 0 1-14.08 22.2a8 8 0 0 1-11.92-10.67a63.95 63.95 0 0 0 0-85.33a8 8 0 1 1 11.92-10.67a80.08 80.08 0 0 1 14.08 84.47M69 103.09a64 64 0 0 0 11.26 67.58a8 8 0 0 1-11.92 10.67a79.93 79.93 0 0 1 0-106.67a8 8 0 1 1 11.95 10.67A63.77 63.77 0 0 0 69 103.09M248 128a119.58 119.58 0 0 1-34.29 84a8 8 0 1 1-11.42-11.2a103.9 103.9 0 0 0 0-145.56A8 8 0 1 1 213.71 44A119.58 119.58 0 0 1 248 128M53.71 200.78A8 8 0 1 1 42.29 212a119.87 119.87 0 0 1 0-168a8 8 0 1 1 11.42 11.2a103.9 103.9 0 0 0 0 145.56Z"/></svg>