<svg xmlns="http://www.w3.org/2000/svg" width="1em" height="1em" viewBox="0 0 256 256"><path fill="currentColor" d="M235.5 216.81c-22.56-11-35.5-34.58-35.5-64.8v-17.28a15.94 15.94 0 0 0-10.09-14.87L165 110a8 8 0 0 1-4.48-10.34l21.32-53a28 28 0 0 0-16.1-37a28.14 28.14 0 0 0-35.82 16a.61.61 0 0 0 0 .12L108.9 79a8 8 0 0 1-10.37 4.49L73.11 73.14a15.89 15.89 0 0 0-17.37 3.66C34.68 98.45 24 123.75 24 152a111.45 111.45 0 0 0 31.18 77.53A8 8 0 0 0 61 232h171a8 8 0 0 0 3.5-15.19M115.11 216a87.53 87.53 0 0 1-24.34-42a8 8 0 0 0-15.49 4a105.16 105.16 0 0 0 18.36 38h-29.2A95.54 95.54 0 0 1 40 152a85.9 85.9 0 0 1 7.73-36.29l137.8 55.12c3 18 10.56 33.48 21.89 45.16Z"/></svg>