<svg xmlns="http://www.w3.org/2000/svg" width="1em" height="1em" viewBox="0 0 256 256"><path fill="currentColor" d="m189 43.47l15.22-15.23a6 6 0 0 0-8.48-8.48L180 35.54a85.76 85.76 0 0 0-104 0L60.24 19.76a6 6 0 0 0-8.48 8.48L67 43.47A85.7 85.7 0 0 0 42 104v40a86 86 0 0 0 172 0v-40a85.7 85.7 0 0 0-25-60.53M128 30a74.09 74.09 0 0 1 74 74v10H54v-10a74.09 74.09 0 0 1 74-74m0 188a74.09 74.09 0 0 1-74-74v-18h148v18a74.09 74.09 0 0 1-74 74m18-134a10 10 0 1 1 10 10a10 10 0 0 1-10-10m-56 0a10 10 0 1 1 10 10a10 10 0 0 1-10-10"/></svg>