<svg xmlns="http://www.w3.org/2000/svg" width="1em" height="1em" viewBox="0 0 256 256"><path fill="currentColor" d="M239.73 208H224V96a16 16 0 0 0-16-16h-44a4 4 0 0 0-4 4v124h-16V32.41a16.43 16.43 0 0 0-6.16-13a16 16 0 0 0-18.72-.69L39.12 72A16 16 0 0 0 32 85.34V208H16.27A8.18 8.18 0 0 0 8 215.47a8 8 0 0 0 8 8.53h224a8 8 0 0 0 8-8.53a8.18 8.18 0 0 0-8.27-7.47M76 184a8 8 0 0 1-8.53 8a8.18 8.18 0 0 1-7.47-8.28v-15.45a8.19 8.19 0 0 1 7.47-8.27a8 8 0 0 1 8.53 8Zm0-56a8 8 0 0 1-8.53 8a8.19 8.19 0 0 1-7.47-8.28v-15.45a8.19 8.19 0 0 1 7.47-8.27a8 8 0 0 1 8.53 8Zm40 56a8 8 0 0 1-8.53 8a8.18 8.18 0 0 1-7.47-8.26v-15.47a8.19 8.19 0 0 1 7.47-8.26a8 8 0 0 1 8.53 8Zm0-56a8 8 0 0 1-8.53 8a8.19 8.19 0 0 1-7.47-8.26v-15.47a8.19 8.19 0 0 1 7.47-8.26a8 8 0 0 1 8.53 8Z"/></svg>