<svg xmlns="http://www.w3.org/2000/svg" width="1em" height="1em" viewBox="0 0 256 256"><path fill="currentColor" d="M232 112a24 24 0 0 0-24-24h-72v-9a32.06 32.06 0 0 0 24-31c0-28-26.44-45.91-27.56-46.66a8 8 0 0 0-8.88 0C122.44 2.09 96 20 96 48a32.06 32.06 0 0 0 24 31v9H48a24 24 0 0 0-24 24v23.33a40.84 40.84 0 0 0 8 24.24V200a24 24 0 0 0 24 24h144a24 24 0 0 0 24-24v-40.43a40.84 40.84 0 0 0 8-24.24ZM112 48c0-13.57 10-24.46 16-29.79c6 5.33 16 16.22 16 29.79a16 16 0 0 1-32 0m-72 64a8 8 0 0 1 8-8h160a8 8 0 0 1 8 8v23.33c0 13.25-10.46 24.31-23.32 24.66A24 24 0 0 1 168 136a8 8 0 0 0-16 0a24 24 0 0 1-48 0a8 8 0 0 0-16 0a24 24 0 0 1-24.68 24C50.46 159.64 40 148.58 40 135.33Zm160 96H56a8 8 0 0 1-8-8v-27.44A38.77 38.77 0 0 0 62.88 176a39.69 39.69 0 0 0 29-11.31A40.36 40.36 0 0 0 96 160a40 40 0 0 0 64 0a40.36 40.36 0 0 0 4.13 4.67A39.67 39.67 0 0 0 192 176h1.14a38.77 38.77 0 0 0 14.86-3.44V200a8 8 0 0 1-8 8"/></svg>