<svg xmlns="http://www.w3.org/2000/svg" width="1em" height="1em" viewBox="0 0 256 256"><path fill="currentColor" d="M208 58h-28.79L165 36.67a6 6 0 0 0-5-2.67H96a6 6 0 0 0-5 2.67L76.78 58H48a22 22 0 0 0-22 22v112a22 22 0 0 0 22 22h160a22 22 0 0 0 22-22V80a22 22 0 0 0-22-22m10 134a10 10 0 0 1-10 10H48a10 10 0 0 1-10-10V80a10 10 0 0 1 10-10h32a6 6 0 0 0 5-2.67L99.21 46h57.57L171 67.33a6 6 0 0 0 5 2.67h32a10 10 0 0 1 10 10Zm-52-56a6 6 0 0 1-6 6h-26v26a6 6 0 0 1-12 0v-26H96a6 6 0 0 1 0-12h26v-26a6 6 0 0 1 12 0v26h26a6 6 0 0 1 6 6"/></svg>