<svg xmlns="http://www.w3.org/2000/svg" width="1em" height="1em" viewBox="0 0 256 256"><path fill="currentColor" d="M208 56h-27.72l-13.63-20.44A8 8 0 0 0 160 32H96a8 8 0 0 0-6.65 3.56L75.71 56H48a24 24 0 0 0-24 24v112a24 24 0 0 0 24 24h160a24 24 0 0 0 24-24V80a24 24 0 0 0-24-24m8 136a8 8 0 0 1-8 8H48a8 8 0 0 1-8-8V80a8 8 0 0 1 8-8h32a8 8 0 0 0 6.66-3.56L100.28 48h55.43l13.63 20.44A8 8 0 0 0 176 72h32a8 8 0 0 1 8 8Zm-48-56a8 8 0 0 1-8 8h-24v24a8 8 0 0 1-16 0v-24H96a8 8 0 0 1 0-16h24v-24a8 8 0 0 1 16 0v24h24a8 8 0 0 1 8 8"/></svg>