<svg xmlns="http://www.w3.org/2000/svg" width="1em" height="1em" viewBox="0 0 256 256"><path fill="currentColor" d="M208 52h-25.58L170 33.34A12 12 0 0 0 160 28H96a12 12 0 0 0-10 5.34L73.57 52H48a28 28 0 0 0-28 28v112a28 28 0 0 0 28 28h160a28 28 0 0 0 28-28V80a28 28 0 0 0-28-28m4 140a4 4 0 0 1-4 4H48a4 4 0 0 1-4-4V80a4 4 0 0 1 4-4h32a12 12 0 0 0 10-5.34L102.42 52h51.15L166 70.66A12 12 0 0 0 176 76h32a4 4 0 0 1 4 4Zm-40-56a12 12 0 0 1-12 12h-20v20a12 12 0 0 1-24 0v-20H96a12 12 0 0 1 0-24h20v-20a12 12 0 0 1 24 0v20h20a12 12 0 0 1 12 12"/></svg>