<svg xmlns="http://www.w3.org/2000/svg" width="1em" height="1em" viewBox="0 0 256 256"><g fill="currentColor"><path d="M195.88 195.88a96 96 0 1 1 0-135.76a96 96 0 0 1 0 135.76" opacity=".2"/><path d="M201.54 54.46A104 104 0 0 0 54.46 201.54A104 104 0 0 0 201.54 54.46m-11.31 135.77a88 88 0 1 1 0-124.46a88.11 88.11 0 0 1 0 124.46m-16.57-88.57L147.31 128l26.35 26.34a8 8 0 0 1-11.32 11.32l-32-32a8 8 0 0 1 0-11.32l32-32a8 8 0 0 1 11.32 11.32m-56 0L91.31 128l26.35 26.34a8 8 0 0 1-11.32 11.32l-32-32a8 8 0 0 1 0-11.32l32-32a8 8 0 0 1 11.32 11.32"/></g></svg>