<svg xmlns="http://www.w3.org/2000/svg" width="1em" height="1em" viewBox="0 0 256 256"><path fill="currentColor" d="M24.75 115.54a102.31 102.31 0 0 1 23.31-53.76a16 16 0 0 1 23.63-1.1l27.67 28.26a15.87 15.87 0 0 1 1.69 20.48a25.59 25.59 0 0 0-3.7 7.75a4 4 0 0 1-3.82 2.83h-64.8a4 4 0 0 1-3.98-4.46m112.64-91.48A16 16 0 0 0 120 40v40.67a15.86 15.86 0 0 0 13.25 15.76a32 32 0 0 1 5.41 61.76A4.06 4.06 0 0 0 136 162v65.23a4 4 0 0 0 4.46 4A104.34 104.34 0 0 0 232 129.48c.75-54.29-40.81-100.6-94.61-105.42m-20.14 134.1a32 32 0 0 1-19.4-19.42a4.06 4.06 0 0 0-3.8-2.74H28.72a4 4 0 0 0-4 4.45a104.1 104.1 0 0 0 90.82 90.82a4 4 0 0 0 4.45-4V162a4.05 4.05 0 0 0-2.74-3.84"/></svg>