<svg xmlns="http://www.w3.org/2000/svg" width="1em" height="1em" viewBox="0 0 256 256"><g fill="currentColor"><path d="M224 124a92 92 0 0 1-92 92H47.67a7.66 7.66 0 0 1-7.67-7.67V124a92 92 0 0 1 92-92a92 92 0 0 1 92 92" opacity=".2"/><path d="M168 112a8 8 0 0 1-8 8H96a8 8 0 0 1 0-16h64a8 8 0 0 1 8 8m-8 24H96a8 8 0 0 0 0 16h64a8 8 0 0 0 0-16m72-12a100.11 100.11 0 0 1-100 100H47.67A15.69 15.69 0 0 1 32 208.33V124a100 100 0 0 1 200 0m-16 0a84 84 0 0 0-168 0v84h84a84.09 84.09 0 0 0 84-84"/></g></svg>