<svg xmlns="http://www.w3.org/2000/svg" width="1em" height="1em" viewBox="0 0 256 256"><path fill="currentColor" d="M98.19 36.54a6 6 0 0 1 4.3-7.31a102.12 102.12 0 0 1 51 0a6 6 0 0 1-3 11.62a90 90 0 0 0-45 0a6 6 0 0 1-7.3-4.31m-43 20A102.07 102.07 0 0 0 29.7 100.7a6 6 0 0 0 4.19 7.38a5.88 5.88 0 0 0 1.6.22a6 6 0 0 0 5.78-4.4A90 90 0 0 1 63.78 65a6 6 0 1 0-8.56-8.41Zm-13.91 95.55a6 6 0 1 0-11.56 3.2a102 102 0 0 0 25.49 44.18a6 6 0 0 0 8.55-8.41a90.11 90.11 0 0 1-22.48-38.97m109.21 63.06a90 90 0 0 1-45 0a6 6 0 1 0-3 11.62a102.16 102.16 0 0 0 51 0a6 6 0 0 0-3-11.62m71.62-67.23a6 6 0 0 0-7.38 4.18a90 90 0 0 1-22.51 39a6 6 0 1 0 8.56 8.41a102.12 102.12 0 0 0 25.52-44.21a6 6 0 0 0-4.19-7.38m-7.39-44a6 6 0 0 0 5.78 4.4a5.88 5.88 0 0 0 1.6-.22a6 6 0 0 0 4.18-7.38a102 102 0 0 0-25.49-44.18a6 6 0 0 0-8.55 8.41a90.05 90.05 0 0 1 22.48 38.96Z"/></svg>