<svg xmlns="http://www.w3.org/2000/svg" width="1em" height="1em" viewBox="0 0 256 256"><path fill="currentColor" d="M128 24a104 104 0 1 0 104 104A104.11 104.11 0 0 0 128 24m54.59 45a8 8 0 0 1 11.29.7a88 88 0 0 1 17.6 30.47a8 8 0 0 1-15.18 5.08a71.87 71.87 0 0 0-14.4-25a8 8 0 0 1 .69-11.25M73.41 187.05a8 8 0 0 1-11.29-.7a88 88 0 0 1-17.6-30.47a8 8 0 1 1 15.18-5.08a71.87 71.87 0 0 0 14.4 24.95a8 8 0 0 1-.69 11.3m.69-106.8a71.87 71.87 0 0 0-14.4 25a8 8 0 1 1-15.18-5.08a88 88 0 0 1 17.6-30.47a8 8 0 1 1 12 10.6Zm71.49 134a87.8 87.8 0 0 1-35.18 0a8 8 0 0 1 3.18-15.68a72.08 72.08 0 0 0 28.82 0a8 8 0 0 1 3.18 15.68m6.25-163a8 8 0 0 1-7.84 6.36a7.89 7.89 0 0 1-1.6-.16a72.08 72.08 0 0 0-28.82 0a8 8 0 1 1-3.18-15.68a87.92 87.92 0 0 1 35.18 0a8 8 0 0 1 6.26 9.43Zm59.64 104.68a88 88 0 0 1-17.6 30.47a8 8 0 1 1-12-10.6a71.87 71.87 0 0 0 14.4-24.95a8 8 0 0 1 15.18 5.08Z"/></svg>