<svg xmlns="http://www.w3.org/2000/svg" width="1em" height="1em" viewBox="0 0 256 256"><path fill="currentColor" d="M155.87 36.06a4 4 0 0 1-3.87 3a4.29 4.29 0 0 1-1-.13a92 92 0 0 0-46 0a4 4 0 0 1-2-7.74a100.09 100.09 0 0 1 50 0a4 4 0 0 1 2.87 4.87M56.65 57.94a100.18 100.18 0 0 0-25 43.29a4 4 0 0 0 7.71 2.14a92.06 92.06 0 0 1 23-39.82a4 4 0 1 0-5.7-5.61Zm-17.29 94.68a4 4 0 0 0-7.71 2.14a100.08 100.08 0 0 0 25 43.31a4 4 0 1 0 5.71-5.61a91.91 91.91 0 0 1-23-39.84M151 217.09a92 92 0 0 1-46 0a4 4 0 0 0-2 7.75a100 100 0 0 0 50 0a4 4 0 1 0-2-7.74Zm70.58-67.25a4 4 0 0 0-4.92 2.79a92.12 92.12 0 0 1-23 39.82a4 4 0 1 0 5.7 5.61a100.18 100.18 0 0 0 25-43.29a4 4 0 0 0-2.78-4.93m-4.94-46.46a4 4 0 0 0 7.71-2.14a100.08 100.08 0 0 0-25-43.31a4 4 0 1 0-5.71 5.61a91.91 91.91 0 0 1 23 39.84"/></svg>