<svg xmlns="http://www.w3.org/2000/svg" width="1em" height="1em" viewBox="0 0 256 256"><path fill="currentColor" d="M247.93 124.52C246.11 77.54 207.07 40 160.06 40a88.1 88.1 0 0 0-78.77 48.67A87.48 87.48 0 0 0 72 127.73a8.18 8.18 0 0 1-7.43 8.27a8 8 0 0 1-8.57-8a103.66 103.66 0 0 1 5.34-32.92a4 4 0 0 0-4.75-5.18A64.09 64.09 0 0 0 8 152c0 35.19 29.75 64 65 64h87a88.09 88.09 0 0 0 87.93-91.48m-50.27-6.86l-48 48a8 8 0 0 1-11.32 0l-24-24a8 8 0 0 1 11.32-11.32L144 148.69l42.34-42.35a8 8 0 0 1 11.32 11.32"/></svg>