<svg xmlns="http://www.w3.org/2000/svg" width="1em" height="1em" viewBox="0 0 256 256"><path fill="currentColor" d="M164 72a76.45 76.45 0 0 0-12.36 1A71.93 71.93 0 0 0 96.17 9.83a8 8 0 0 0-9.59 9.58A56.45 56.45 0 0 1 88 32a56.06 56.06 0 0 1-56 56a56.45 56.45 0 0 1-12.59-1.42a8 8 0 0 0-9.59 9.59a72.22 72.22 0 0 0 32.29 45.06A52 52 0 0 0 84 224h80a76 76 0 0 0 0-152M29.37 104H32a72.08 72.08 0 0 0 72-72v-2.67a55.63 55.63 0 0 1 32 48a76.28 76.28 0 0 0-43 43.4a52 52 0 0 0-39 8.86A56.22 56.22 0 0 1 29.37 104M164 208H84a36 36 0 1 1 4.78-71.69c-.37 2.37-.63 4.79-.77 7.23a8 8 0 0 0 16 .92a58.91 58.91 0 0 1 1.88-11.81c0-.16.09-.32.12-.48A60.06 60.06 0 1 1 164 208"/></svg>