<svg xmlns="http://www.w3.org/2000/svg" width="1em" height="1em" viewBox="0 0 256 256"><path fill="currentColor" d="M184 92a52.88 52.88 0 0 0-8.26.65a52 52 0 1 0-95.48 0A52.88 52.88 0 0 0 72 92a52 52 0 1 0 31.38 93.48l-11.21 37.37A4 4 0 0 0 96 228h64a4 4 0 0 0 3.83-5.15l-11.21-37.37A52 52 0 1 0 184 92m0 96a43.92 43.92 0 0 1-36.73-19.77a4 4 0 0 0-7.17 3.36L154.62 220h-53.24l14.52-48.41a4 4 0 0 0-7.17-3.36a44 44 0 1 1-21.91-65.67a4 4 0 0 0 4.66-6a44 44 0 1 1 73 0a4 4 0 0 0 4.66 6A44 44 0 1 1 184 188"/></svg>