<svg xmlns="http://www.w3.org/2000/svg" width="1em" height="1em" viewBox="0 0 256 256"><path fill="currentColor" d="M76 40V16a12 12 0 0 1 24 0v24a12 12 0 0 1-24 0m52 12a12 12 0 0 0 12-12V16a12 12 0 0 0-24 0v24a12 12 0 0 0 12 12m40 0a12 12 0 0 0 12-12V16a12 12 0 0 0-24 0v24a12 12 0 0 0 12 12m83.2 53.6L224 126v58a36 36 0 0 1-36 36H68a36 36 0 0 1-36-36v-58L4.8 105.6a12 12 0 0 1 14.4-19.2L32 96v-8a20 20 0 0 1 20-20h152a20 20 0 0 1 20 20v8l12.8-9.6a12 12 0 0 1 14.4 19.2M200 92H56v92a12 12 0 0 0 12 12h120a12 12 0 0 0 12-12Z"/></svg>