<svg xmlns="http://www.w3.org/2000/svg" width="1em" height="1em" viewBox="0 0 256 256"><path fill="currentColor" d="M163.07 164.93a10 10 0 1 1-14.14 0a10 10 0 0 1 14.14 0m-78.14-8a10 10 0 1 0 14.14 0a10 10 0 0 0-14.14 0m6.14-41.86a10 10 0 1 0-14.14 0a10 10 0 0 0 14.14 0m33.86 1.86a10 10 0 1 0 14.14 0a10 10 0 0 0-14.14 0M230 128A102 102 0 1 1 128 26a6 6 0 0 1 6 6a42 42 0 0 0 42 42a6 6 0 0 1 6 6a42 42 0 0 0 42 42a6 6 0 0 1 6 6m-12.18 5.65A54.09 54.09 0 0 1 170.3 85.7a54.09 54.09 0 0 1-48-47.53a90 90 0 1 0 95.47 95.48Z"/></svg>