<svg xmlns="http://www.w3.org/2000/svg" width="1em" height="1em" viewBox="0 0 256 256"><g fill="currentColor"><path d="M90.55 70.17a8.74 8.74 0 0 1 0-12.34l31.28-31.28a8.74 8.74 0 0 1 12.34 0l31.28 31.28a8.74 8.74 0 0 1 0 12.34l-31.28 31.28a8.74 8.74 0 0 1-12.34 0Zm138.9 51.66l-31.28-31.28a8.74 8.74 0 0 0-12.34 0l-31.28 31.28a8.74 8.74 0 0 0 0 12.34l31.28 31.28a8.74 8.74 0 0 0 12.34 0l31.28-31.28a8.74 8.74 0 0 0 0-12.34m-128 0L70.17 90.55a8.74 8.74 0 0 0-12.34 0l-31.28 31.28a8.74 8.74 0 0 0 0 12.34l31.28 31.28a8.74 8.74 0 0 0 12.34 0l31.28-31.28a8.74 8.74 0 0 0 0-12.34m32.72 32.72a8.74 8.74 0 0 0-12.34 0l-31.28 31.28a8.74 8.74 0 0 0 0 12.34l31.28 31.28a8.74 8.74 0 0 0 12.34 0l31.28-31.28a8.74 8.74 0 0 0 0-12.34Z" opacity=".2"/><path d="M116.17 107.1a16.75 16.75 0 0 0 23.66 0l31.27-31.28a16.72 16.72 0 0 0 0-23.65l-31.27-31.28a16.75 16.75 0 0 0-23.66 0L84.9 52.17a16.72 16.72 0 0 0 0 23.65Zm-20-43.62l31.28-31.27a.71.71 0 0 1 1 0l31.28 31.27a.74.74 0 0 1 0 1l-31.22 31.31a.72.72 0 0 1-1 0l-31.3-31.28a.74.74 0 0 1 0-1.03Zm138.9 52.69l-31.24-31.28a16.74 16.74 0 0 0-23.65 0l-31.28 31.28a16.75 16.75 0 0 0 0 23.66l31.28 31.28a16.74 16.74 0 0 0 23.65 0l31.28-31.28a16.75 16.75 0 0 0 0-23.66Zm-11.27 12.34l-31.28 31.28a.74.74 0 0 1-1 0l-31.28-31.28a.72.72 0 0 1 0-1l31.28-31.28a.74.74 0 0 1 1 0l31.28 31.28a.72.72 0 0 1 0 1m-116.7-12.34L75.82 84.89a16.74 16.74 0 0 0-23.65 0l-31.28 31.28a16.75 16.75 0 0 0 0 23.66l31.28 31.28a16.74 16.74 0 0 0 23.65 0l31.28-31.28a16.75 16.75 0 0 0 0-23.66m-11.31 12.34l-31.28 31.28a.74.74 0 0 1-1 0L32.2 128.51a.72.72 0 0 1 0-1l31.28-31.3a.74.74 0 0 1 1 0l31.28 31.28a.72.72 0 0 1 .03 1.02m44 20.39a16.75 16.75 0 0 0-23.66 0L84.9 180.18a16.72 16.72 0 0 0 0 23.65l31.27 31.28a16.75 16.75 0 0 0 23.66 0l31.27-31.28a16.72 16.72 0 0 0 0-23.65Zm20 43.62l-31.28 31.27a.71.71 0 0 1-1 0l-31.3-31.27a.74.74 0 0 1 0-1l31.28-31.28a.72.72 0 0 1 1 0l31.28 31.28a.74.74 0 0 1 .02 1"/></g></svg>