<svg xmlns="http://www.w3.org/2000/svg" width="1em" height="1em" viewBox="0 0 256 256"><path fill="currentColor" d="M108 136a16 16 0 1 1-16-16a16 16 0 0 1 16 16m56-16a16 16 0 1 0 16 16a16 16 0 0 0-16-16m68.24 26.18a20.42 20.42 0 0 1-8.41 1.85a19.59 19.59 0 0 1-3.83-.39V184a44.05 44.05 0 0 1-44 44H80a44.05 44.05 0 0 1-44-44v-36.37a19 19 0 0 1-3.85.39a20.31 20.31 0 0 1-8.39-1.84a19.71 19.71 0 0 1-11.4-21.9l16.42-88a20 20 0 0 1 24.51-15.69l.47.13l52 15.27h44.54l52-15.27l.47-.13a20 20 0 0 1 24.51 15.72l16.42 88a19.71 19.71 0 0 1-11.46 21.87m-60-91.63L217 112.42l-12.56-67.33ZM39 112.42l44.76-57.87l-32.2-9.46ZM196 184v-59.52L146.11 60h-36.22L60 124.48V184a20 20 0 0 0 20 20h36v-7l-12.48-12.49a12 12 0 0 1 17-17L128 175l7.51-7.52a12 12 0 0 1 17 17L140 197v7h36a20 20 0 0 0 20-20"/></svg>