<svg xmlns="http://www.w3.org/2000/svg" width="1em" height="1em" viewBox="0 0 256 256"><path fill="currentColor" d="M66.26 80.23a15.26 15.26 0 0 1-1.65-12.17a15.54 15.54 0 0 1 2-4.76L88 32.7V8a8 8 0 0 1 8.53-8A8.17 8.17 0 0 1 104 8.27v24.15l5.25 6.58a23.91 23.91 0 0 0 19.13 9a24.67 24.67 0 0 0 18.71-9.43l4.91-6.15V8a8 8 0 0 1 8.53-8A8.17 8.17 0 0 1 168 8.27V32.7l21.42 30.6a15.54 15.54 0 0 1 2 4.76a15.26 15.26 0 0 1-1.65 12.17a1.74 1.74 0 0 0-.11.18l-13.86 21.74a4 4 0 0 1-3.4 1.85H83.6a4 4 0 0 1-3.37-1.85L66.37 80.41a1.74 1.74 0 0 0-.11-.18m148.5 129.56a2.52 2.52 0 0 0-.15-.34l-40.92-87.15a4 4 0 0 0-3.63-2.3H85.94a4 4 0 0 0-3.63 2.3l-40.92 87.15a2.52 2.52 0 0 0-.15.34A16.19 16.19 0 0 0 41.6 223a16 16 0 0 0 14.4 9h144a16 16 0 0 0 14.39-9a16.19 16.19 0 0 0 .37-13.21"/></svg>