<svg xmlns="http://www.w3.org/2000/svg" width="1em" height="1em" viewBox="0 0 256 256"><path fill="currentColor" d="M128 20a108 108 0 1 0 108 108A108.12 108.12 0 0 0 128 20m83.13 96h-3.12a172.63 172.63 0 0 0-41.39 5.06A171.26 171.26 0 0 0 156 97.39a172.34 172.34 0 0 0 32.9-27.15A83.72 83.72 0 0 1 211.13 116M170 55.3a148.53 148.53 0 0 1-27 21.88a173.29 173.29 0 0 0-30.58-31.71A83.52 83.52 0 0 1 170 55.3m-84.46.27a149.23 149.23 0 0 1 35.9 32.87A147.73 147.73 0 0 1 64 100c-5 0-10-.26-14.94-.75a84.49 84.49 0 0 1 36.47-43.68ZM44 128c0-1.73.07-3.44.17-5.14A175.15 175.15 0 0 0 64 124a171.8 171.8 0 0 0 70.84-15.22a145.82 145.82 0 0 1 8.92 19.65a170.71 170.71 0 0 0-21.52 10.44a173 173 0 0 0-53.68 48.44A83.77 83.77 0 0 1 44 128m43.77 73.72a149 149 0 0 1 46.46-42.06a147.2 147.2 0 0 1 16-7.94a148.52 148.52 0 0 1 2.67 28a148.66 148.66 0 0 1-2.9 29.34a83.81 83.81 0 0 1-62.22-7.34Zm88.29-4.89c.56-5.68.86-11.4.86-17.14a172.57 172.57 0 0 0-3.72-35.54A148.85 148.85 0 0 1 208 140h3.11a84.07 84.07 0 0 1-35.05 56.83"/></svg>