<svg xmlns="http://www.w3.org/2000/svg" width="1em" height="1em" viewBox="0 0 256 256"><path fill="currentColor" d="M238.83 146.13L201.08 120l37.75-26.13a12 12 0 0 0 0-19.74l-52-36a12 12 0 0 0-13.66 0L128 69.41L82.83 38.13a12 12 0 0 0-13.66 0l-52 36a12 12 0 0 0 0 19.74L54.92 120l-37.75 26.13a12 12 0 0 0 0 19.74l52 36a12 12 0 0 0 13.66 0L128 170.59l45.17 31.28a12 12 0 0 0 13.66 0l52-36a12 12 0 0 0 0-19.74M128 141.41L97.08 120L128 98.59L158.92 120Zm52-78.81L210.92 84L180 105.4L149.08 84Zm-104 0L106.92 84L76 105.4L45.08 84Zm0 114.8L45.08 156L76 134.6l30.92 21.4Zm104 0L149.08 156L180 134.6l30.92 21.4Zm-25.27 32.09a12 12 0 0 1-3 16.7l-16.86 11.68a12 12 0 0 1-13.66 0l-16.86-11.68A12 12 0 1 1 118 206.46l10 6.94l10-6.94a12 12 0 0 1 16.73 3.03"/></svg>