<svg xmlns="http://www.w3.org/2000/svg" width="1em" height="1em" viewBox="0 0 256 256"><path fill="currentColor" d="M213.92 210.62a8 8 0 1 1-11.84 10.76l-10.28-11.31a103.18 103.18 0 0 0 11.83-10.77ZM64.2 45.93L53.92 34.62a8 8 0 1 0-11.84 10.76L52.37 56.7A103.18 103.18 0 0 1 64.2 45.93M203.63 199.3L64.2 45.93A103.94 103.94 0 0 1 203.63 199.3M159 104a32 32 0 0 0-20.08-22.09a8 8 0 0 0-5.45 15a16 16 0 0 1 10 11a8 8 0 0 0 7.74 6a7.68 7.68 0 0 0 2-.26A8 8 0 0 0 159 104m33 8a64 64 0 0 0-85.89-60.16a8 8 0 0 0 5.47 15A48 48 0 0 1 176 112a8 8 0 0 0 16 0m-44 56a20 20 0 0 1-20-20a24.11 24.11 0 0 1 1-7l-20.45-22.5A7.91 7.91 0 0 1 104 120a8 8 0 0 1-8-8a32 32 0 0 1 .68-6.56L84.39 91.92A47.59 47.59 0 0 0 80 112c0 11.9 6.71 20.5 13.82 29.6c7 8.92 14.18 18.15 14.18 30.4a20 20 0 0 0 34 14.29a8 8 0 1 1 11.19 11.42A36 36 0 0 1 92 172c0-6.74-5-13.14-10.79-20.55C73.54 141.63 64 129.41 64 112a63.5 63.5 0 0 1 9-32.66L52.37 56.7A103.94 103.94 0 0 0 191.8 210.07l-38.8-42.7a19.82 19.82 0 0 1-5 .63"/></svg>