<svg xmlns="http://www.w3.org/2000/svg" width="1em" height="1em" viewBox="0 0 256 256"><path fill="currentColor" d="M80 108a12 12 0 0 1-12 12H24a12 12 0 0 1 0-24h44a12 12 0 0 1 12 12m-12 28H24a12 12 0 0 0 0 24h44a12 12 0 0 0 0-24m0 40H24a12 12 0 0 0 0 24h44a12 12 0 0 0 0-24m82-40h-44a12 12 0 0 0 0 24h44a12 12 0 0 0 0-24m0 40h-44a12 12 0 0 0 0 24h44a12 12 0 0 0 0-24m38-96h44a12 12 0 0 0 0-24h-44a12 12 0 0 0 0 24m44 16h-44a12 12 0 0 0 0 24h44a12 12 0 0 0 0-24m0 40h-44a12 12 0 0 0 0 24h44a12 12 0 0 0 0-24m0 40h-44a12 12 0 0 0 0 24h44a12 12 0 0 0 0-24"/></svg>