<svg xmlns="http://www.w3.org/2000/svg" width="1em" height="1em" viewBox="0 0 256 256"><g fill="currentColor"><path d="M88 160a73.37 73.37 0 0 0 .4 7.6a72 72 0 1 1 79.2-79.2a73.37 73.37 0 0 0-7.6-.4a72 72 0 0 0-72 72m79.6-71.6a73.37 73.37 0 0 1 .4 7.6a72 72 0 0 1-72 72a73.37 73.37 0 0 1-7.6-.4a72 72 0 1 0 79.2-79.2" opacity=".2"/><path d="M174.63 81.37a80 80 0 1 0-93.26 93.26a80 80 0 1 0 93.26-93.26M32 96a64 64 0 0 1 126-16a80.08 80.08 0 0 0-77.95 78A64.11 64.11 0 0 1 32 96m128 0a64.07 64.07 0 0 1-64 64a64.07 64.07 0 0 1 64-64m0 128a64.11 64.11 0 0 1-62-48a80.08 80.08 0 0 0 78-78a64 64 0 0 1-16 126"/></g></svg>