<svg xmlns="http://www.w3.org/2000/svg" width="1em" height="1em" viewBox="0 0 256 256"><path fill="currentColor" d="M48 120h160a8 8 0 0 0 8-8V88a8 8 0 0 0-2.34-5.66l-56-56A8 8 0 0 0 152 24H56a16 16 0 0 0-16 16v72a8 8 0 0 0 8 8m104-76l44 44h-44Zm72 108a8 8 0 0 1-8 8h-24v16h16a8 8 0 0 1 0 16h-16v16a8 8 0 0 1-16 0v-56a8 8 0 0 1 8-8h32a8 8 0 0 1 8 8m-160-8H48a8 8 0 0 0-8 8v56a8 8 0 0 0 16 0v-8h8a28 28 0 0 0 0-56m0 40h-8v-24h8a12 12 0 0 1 0 24m64-40h-16a8 8 0 0 0-8 8v56a8 8 0 0 0 8 8h16a36 36 0 0 0 0-72m0 56h-8v-40h8a20 20 0 0 1 0 40"/></svg>