<svg xmlns="http://www.w3.org/2000/svg" width="1em" height="1em" viewBox="0 0 256 256"><path fill="currentColor" d="M150.35 149.82a12 12 0 0 0-11.63-.6L118 159.37A20 20 0 0 0 100 148H48a20 20 0 0 0-20 20v40a20 20 0 0 0 20 20h52a20 20 0 0 0 18.3-12l20.12 10.58A12 12 0 0 0 156 216v-56a12 12 0 0 0-5.65-10.18M96 204H52v-32h44Zm36-7.87l-12-6.3v-4.72l12-5.87Zm84.49-116.62l-56-56A12 12 0 0 0 152 20H56a20 20 0 0 0-20 20v76a12 12 0 0 0 24 0V44h76v48a12 12 0 0 0 12 12h48v108h-8a12 12 0 0 0 0 24h12a20 20 0 0 0 20-20V88a12 12 0 0 0-3.51-8.49M160 57l23 23h-23Z"/></svg>