<svg xmlns="http://www.w3.org/2000/svg" width="1em" height="1em" viewBox="0 0 256 256"><path fill="currentColor" d="M208 88h-56V32Z" opacity=".2"/><path fill="currentColor" d="M216 88a7.7 7.7 0 0 0-2.4-5.7l-55.9-56l-.6-.5h-.2l-.5-.3h-.1l-.5-.4h-.1l-.6-.3h-.1l-.7-.3H56A16 16 0 0 0 40 40v176a16 16 0 0 0 16 16h144a16 16 0 0 0 16-16V88Zm-56-36.7L188.7 80H160ZM200 216H56V40h88v48a8 8 0 0 0 8 8h48v120Zm-45.5-48.8a36.4 36.4 0 0 0-5-44.7a36.2 36.2 0 0 0-51 0a36.2 36.2 0 0 0 0 51a36.2 36.2 0 0 0 44.7 5l10.9 11a8.3 8.3 0 0 0 5.7 2.3a8.5 8.5 0 0 0 5.7-2.3a8.1 8.1 0 0 0 0-11.4Zm-44.6-5.1a19.9 19.9 0 0 1 0-28.2a19.8 19.8 0 0 1 28.2 0a19.9 19.9 0 0 1 0 28.2a19.8 19.8 0 0 1-28.2 0Z"/></svg>