<svg xmlns="http://www.w3.org/2000/svg" width="1em" height="1em" viewBox="0 0 256 256"><path fill="currentColor" d="M76 224a4 4 0 0 1-4 4H56a12 12 0 0 1-12-12v-32a4 4 0 0 1 8 0v32a4 4 0 0 0 4 4h16a4 4 0 0 1 4 4Zm4-196H56a12 12 0 0 0-12 12v24a4 4 0 0 0 8 0V40a4 4 0 0 1 4-4h24a4 4 0 0 0 0-8Zm132 60.1V136a4 4 0 0 1-8 0V92h-52a4 4 0 0 1-4-4V36h-28a4 4 0 0 1 0-8h33.5l.6.3h.1l.6.5l56 55.9A4.5 4.5 0 0 1 212 88ZM156 84h42.3L156 41.7Zm52 88a4 4 0 0 0-4 4v40a4 4 0 0 1-4 4h-8a4 4 0 0 0 0 8h8a12 12 0 0 0 12-12v-40a4 4 0 0 0-4-4ZM48 148a4 4 0 0 0 4-4v-40a4 4 0 0 0-8 0v40a4 4 0 0 0 4 4Zm104 72h-40a4 4 0 0 0 0 8h40a4 4 0 0 0 0-8Z"/></svg>