<svg xmlns="http://www.w3.org/2000/svg" width="1em" height="1em" viewBox="0 0 256 256"><path fill="currentColor" d="M220 92v-4a12.3 12.3 0 0 0-3.5-8.5l-56-56A12.3 12.3 0 0 0 152 20H56a20.1 20.1 0 0 0-20 20v176a20.1 20.1 0 0 0 20 20h144a20.1 20.1 0 0 0 20-20V92Zm-37-12h-23V57ZM60 212V44h76v48a12 12 0 0 0 12 12h48v108Zm96.5-48.5A35.6 35.6 0 0 0 160 148a36 36 0 0 0-61.5-25.5a36.2 36.2 0 0 0 0 51a36.2 36.2 0 0 0 41 7l11.8 11.8a12.1 12.1 0 0 0 17 0a12 12 0 0 0 0-17Zm-41-7a12.1 12.1 0 0 1 0-17a12 12 0 0 1 17 0a12.1 12.1 0 0 1 0 17a12 12 0 0 1-17 0Z"/></svg>