<svg xmlns="http://www.w3.org/2000/svg" width="1em" height="1em" viewBox="0 0 256 256"><path fill="currentColor" d="M184 128a246.64 246.64 0 0 1-18.54 94.24a8 8 0 0 1-7.4 5a8.19 8.19 0 0 1-3-.6a8 8 0 0 1-4.36-10.45A230.67 230.67 0 0 0 168 128a8 8 0 0 1 16 0m-56-40a40.06 40.06 0 0 1 29.81 13.33a8 8 0 1 0 11.92-10.67A56 56 0 0 0 72 128a136.06 136.06 0 0 1-17 65.85a8 8 0 1 0 14 7.76A152.14 152.14 0 0 0 88 128a40 40 0 0 1 40-40m0-64a103.75 103.75 0 0 0-34.67 5.92A8 8 0 0 0 98.67 45A88.05 88.05 0 0 1 216 128a281.31 281.31 0 0 1-6.94 62.23a8 8 0 0 0 6 9.57a7.77 7.77 0 0 0 1.78.2a8 8 0 0 0 7.8-6.23A298.11 298.11 0 0 0 232 128A104.11 104.11 0 0 0 128 24M69.34 62.42a8 8 0 1 0-10.67-11.93A104.16 104.16 0 0 0 24 128a87.29 87.29 0 0 1-8 36.66a8 8 0 0 0 14.54 6.68A103.17 103.17 0 0 0 40 128a88.13 88.13 0 0 1 29.34-65.58m44.58 138.32a8 8 0 0 0-10.61 3.93c-1.92 4.2-4 8.39-6.29 12.44a8 8 0 0 0 3.12 10.89a7.88 7.88 0 0 0 3.87 1a8 8 0 0 0 7-4.12c2.44-4.41 4.74-9 6.84-13.52a8 8 0 0 0-3.93-10.62M128 120a8 8 0 0 0-8 8a185.07 185.07 0 0 1-5.79 46a8 8 0 0 0 5.75 9.74a8.12 8.12 0 0 0 2 .25a8 8 0 0 0 7.74-6a200.68 200.68 0 0 0 6.3-50a8 8 0 0 0-8-7.99"/></svg>