<svg xmlns="http://www.w3.org/2000/svg" width="1em" height="1em" viewBox="0 0 256 256"><path fill="currentColor" d="M164.05 76a8 8 0 1 1-8-8a8 8 0 0 1 8 8m40.72 78.54c-20.38 25.9-53.33 39.8-97.94 41.34l-23 53.74a4 4 0 0 1-3.71 2.38h-.26a4 4 0 0 1-3.59-2.89l-15.42-54L6.9 179.69a4 4 0 0 1-.47-7.52l53.74-23c1.55-44.62 15.46-77.56 41.36-97.94c41.8-32.9 101.9-22 113.52-19.48a12 12 0 0 1 9.2 9.19c2.52 11.63 13.42 71.76-19.48 113.55Zm-32 17A48.07 48.07 0 0 1 132 124a48.07 48.07 0 0 1-47.45-40.8c-10.27 18-15.79 41-16.46 68.74a4 4 0 0 1-2.42 3.58L19.92 175.1l45.27 13a4 4 0 0 1 2.75 2.75l12.93 45.27l19.61-45.75a4 4 0 0 1 3.58-2.42c27.76-.7 50.75-6.22 68.75-16.5Zm43.66-128.9a4 4 0 0 0-3.07-3.07a172.71 172.71 0 0 0-45.72-3.31C143 37.85 122.39 45 106.48 57.52a85 85 0 0 0-14.22 14.21a40 40 0 0 0 43.6 44.05a4 4 0 0 1 4.36 4.36a40 40 0 0 0 44.08 43.59a85 85 0 0 0 14.18-14.19c12.52-15.9 19.67-36.48 21.26-61.17a172.84 172.84 0 0 0-3.31-45.73"/></svg>