<svg xmlns="http://www.w3.org/2000/svg" width="1em" height="1em" viewBox="0 0 256 256"><g fill="currentColor"><path d="M185.81 167.62c-18 13.9-44.17 23.41-81.68 24.31L80.09 248l-16-56.07L8 175.87l56.07-24c.9-37.49 10.41-63.61 24.31-81.65a44 44 0 0 0 47.82 49.58a44 44 0 0 0 49.61 47.82" opacity=".2"/><path d="M168.06 75.94a12 12 0 1 1-12-12a12 12 0 0 1 12 12m39.87 81c-20.76 26.37-53.85 40.74-98.41 42.77l-22 51.42a8 8 0 0 1-7.39 4.87h-.51a8 8 0 0 1-7.19-5.78l-14.81-51.85L5.8 183.53a8 8 0 0 1-1-15.05l51.43-22c2-44.57 16.41-77.66 42.79-98.41c43.21-34 104.91-22.83 116.84-20.25a16 16 0 0 1 12.26 12.26C230.76 52 241.94 113.76 207.93 157Zm-46.33 15.67a52.12 52.12 0 0 1-33.42-44.79A52.1 52.1 0 0 1 83.4 94.41c-7 15.86-10.76 35.11-11.3 57.62a8 8 0 0 1-4.85 7.16l-35.41 15.15l34.46 9.87a8 8 0 0 1 5.49 5.49l9.84 34.46l15.18-35.41a8 8 0 0 1 7.19-4.85c22.48-.53 41.73-4.31 57.6-11.29m50.93-129.14c-10.7-2.32-66-12.39-103.57 17.18a80.9 80.9 0 0 0-12.83 12.67a36 36 0 0 0 39.36 38.47a8 8 0 0 1 8.72 8.72a36 36 0 0 0 38.49 39.36a80.64 80.64 0 0 0 12.65-12.81c29.57-37.57 19.5-92.88 17.18-103.59"/></g></svg>