<svg xmlns="http://www.w3.org/2000/svg" width="1em" height="1em" viewBox="0 0 256 256"><path fill="currentColor" d="M219.32 40.75a8 8 0 0 0-8.56 1.25c-28 24.22-51.72 12.48-79.21-1.13C103.07 26.76 70.78 10.79 34.76 42A8 8 0 0 0 32 48v168a8 8 0 0 0 16 0v-44.23c26.79-21.16 49.87-9.75 76.45 3.41c28.49 14.09 60.77 30.06 96.79-1.13a8 8 0 0 0 2.76-6V48a8 8 0 0 0-4.68-7.25M208 63.6v44.65c-14 11.06-27 13.22-40 10.88V71.34a60.05 60.05 0 0 0 40-7.74m-56 3.76v47c-6.66-2.67-13.43-6-20.45-9.49c-8.82-4.36-18-8.9-27.55-12.17v-47c6.66 2.66 13.43 6 20.45 9.48c8.82 4.37 18.01 8.91 27.55 12.18M88 40.91v47.78a60.06 60.06 0 0 0-40 7.75V51.78c14-11.06 27-13.21 40-10.87M78.58 144A60.06 60.06 0 0 0 48 152.43v-36.65c14-11.06 27-13.22 40-10.88v39.8a65.61 65.61 0 0 0-9.42-.7m25.42 4.67v-39c6.66 2.66 13.43 6 20.45 9.48c8.82 4.37 18 8.9 27.55 12.17v39c-6.66-2.67-13.43-6-20.45-9.48c-8.82-4.37-18.01-8.9-27.55-12.17m64 26.45v-39.8a65.61 65.61 0 0 0 9.42.72a60.11 60.11 0 0 0 30.58-8.47v36.68c-14 11.06-27 13.21-40 10.87"/></svg>