<svg xmlns="http://www.w3.org/2000/svg" width="1em" height="1em" viewBox="0 0 256 256"><path fill="currentColor" d="M217.66 44.44a4 4 0 0 0-4.28.61c-30 26-56 13.08-83.61-.56c-28.7-14.2-58.38-28.88-92.39.56a4 4 0 0 0-1.38 3V216a4 4 0 0 0 8 0v-46.13c29.41-24.39 55.08-11.69 82.23 1.74c28.7 14.19 58.38 28.88 92.39-.56a4 4 0 0 0 1.38-3v-120a4 4 0 0 0-2.34-3.61M212 56.32v53.88c-16.91 14-32.58 15.78-48 12.2V66.67c15.24 3.23 31.09 1.7 48-10.35m-56 8.23v55.54c-8.7-3-17.39-7.25-26.23-11.63c-9.76-4.83-19.64-9.71-29.77-12.9V40c8.7 3 17.39 7.25 26.23 11.62c9.77 4.87 19.64 9.75 29.77 12.93M92 37.73v55.71c-15.24-3.23-31.09-1.69-48 10.37V49.93c16.91-14.03 32.58-15.78 48-12.2M44 159.78V113.9c16.91-14 32.58-15.79 48-12.21v47.73A64.48 64.48 0 0 0 78.64 148C67.52 148 56 151.2 44 159.78m56-8.23V104c8.71 3 17.39 7.26 26.23 11.63c9.76 4.83 19.64 9.7 29.77 12.89v47.54c-8.71-3-17.39-7.25-26.23-11.62c-9.77-4.83-19.64-9.71-29.77-12.89m64 26.82v-47.72a64.48 64.48 0 0 0 13.36 1.47c11.12 0 22.61-3.27 34.64-11.85v45.9c-16.91 14.02-32.58 15.83-48 12.2"/></svg>