<svg xmlns="http://www.w3.org/2000/svg" width="1em" height="1em" viewBox="0 0 256 256"><path fill="currentColor" d="M94 208a6 6 0 0 1-6 6H39.4A13.4 13.4 0 0 1 26 200.6V192a6 6 0 0 1 12 0v8.6a1.4 1.4 0 0 0 1.4 1.4H88a6 6 0 0 1 6 6Zm66-6h-32a6 6 0 0 0 0 12h32a6 6 0 0 0 0-12Zm64-56a6 6 0 0 0-6 6v48.9a1.1 1.1 0 0 1-1.1 1.1H200a6 6 0 0 0 0 12h16.9a13.1 13.1 0 0 0 13.1-13.1V152a6 6 0 0 0-6-6Zm-8-72h-48a6 6 0 0 0 0 12h48a2 2 0 0 1 2 2v24a6 6 0 0 0 12 0V88a14 14 0 0 0-14-14ZM26 80V56a14 14 0 0 1 14-14h52.7a14.3 14.3 0 0 1 9.9 4.1l29.6 29.7a5.7 5.7 0 0 1 1.3 6.5A6 6 0 0 1 128 86H32a6 6 0 0 1-6-6Zm12-6h75.5L94.1 54.6a2 2 0 0 0-1.4-.6H40a2 2 0 0 0-2 2Zm-6 84a6 6 0 0 0 6-6v-32a6 6 0 0 0-12 0v32a6 6 0 0 0 6 6Z"/></svg>