<svg xmlns="http://www.w3.org/2000/svg" width="1em" height="1em" viewBox="0 0 256 256"><path fill="currentColor" d="M20 80V64a20.1 20.1 0 0 1 20-20h53.3a19.9 19.9 0 0 1 12 4l29.9 22.4a12 12 0 0 1 2.4 16.8a12 12 0 0 1-16.8 2.4L92 68H44v12a12 12 0 0 1-24 0Zm68 116H44v-4a12 12 0 0 0-24 0v8.6A19.4 19.4 0 0 0 39.4 220H88a12 12 0 0 0 0-24Zm72 0h-32a12 12 0 0 0 0 24h32a12 12 0 0 0 0-24Zm64-56a12 12 0 0 0-12 12v44h-12a12 12 0 0 0 0 24h16.9a19.2 19.2 0 0 0 19.1-19.1V152a12 12 0 0 0-12-12Zm-8-72h-48a12 12 0 0 0 0 24h44v20a12 12 0 0 0 24 0V88a20.1 20.1 0 0 0-20-20ZM32 164a12 12 0 0 0 12-12v-32a12 12 0 0 0-24 0v32a12 12 0 0 0 12 12Z"/></svg>