<svg xmlns="http://www.w3.org/2000/svg" width="1em" height="1em" viewBox="0 0 256 256"><path fill="currentColor" d="M224 64h-69.33l-27.74-20.8a16.12 16.12 0 0 0-9.6-3.2H72a16 16 0 0 0-16 16v16H40a16 16 0 0 0-16 16v112a16 16 0 0 0 16 16h152.89A15.13 15.13 0 0 0 208 200.89V184h16.89A15.13 15.13 0 0 0 240 168.89V80a16 16 0 0 0-16-16m-32 136H40V88h45.33l27.74 20.8a16.12 16.12 0 0 0 9.6 3.2H192Zm32-32h-16v-56a16 16 0 0 0-16-16h-69.33L94.93 75.2a16.12 16.12 0 0 0-9.6-3.2H72V56h45.33l27.74 20.8a16.12 16.12 0 0 0 9.6 3.2H224Z"/></svg>