<svg xmlns="http://www.w3.org/2000/svg" width="1em" height="1em" viewBox="0 0 256 256"><path fill="currentColor" d="M125.6 83.2L95.7 60.8a4.1 4.1 0 0 0-2.4-.8H40a4 4 0 0 0-4 4v16a4 4 0 0 1-8 0V64a12 12 0 0 1 12-12h53.3a12.2 12.2 0 0 1 7.2 2.4l29.9 22.4a4 4 0 0 1 .8 5.6A4.2 4.2 0 0 1 128 84a4.3 4.3 0 0 1-2.4-.8ZM88 204H39.4a3.4 3.4 0 0 1-3.4-3.4V192a4 4 0 0 0-8 0v8.6A11.4 11.4 0 0 0 39.4 212H88a4 4 0 0 0 0-8Zm72 0h-32a4 4 0 0 0 0 8h32a4 4 0 0 0 0-8Zm64-56a4 4 0 0 0-4 4v48.9a3.1 3.1 0 0 1-3.1 3.1H200a4 4 0 0 0 0 8h16.9a11.1 11.1 0 0 0 11.1-11.1V152a4 4 0 0 0-4-4Zm-8-72h-48a4 4 0 0 0 0 8h48a4 4 0 0 1 4 4v24a4 4 0 0 0 8 0V88a12 12 0 0 0-12-12ZM32 156a4 4 0 0 0 4-4v-32a4 4 0 0 0-8 0v32a4 4 0 0 0 4 4Z"/></svg>