<svg xmlns="http://www.w3.org/2000/svg" width="1em" height="1em" viewBox="0 0 256 256"><path fill="currentColor" d="M92 208a4 4 0 0 1-4 4H39.4A11.4 11.4 0 0 1 28 200.6V192a4 4 0 0 1 8 0v8.6a3.4 3.4 0 0 0 3.4 3.4H88a4 4 0 0 1 4 4Zm68-4h-32a4 4 0 0 0 0 8h32a4 4 0 0 0 0-8Zm64-56a4 4 0 0 0-4 4v48.9a3.1 3.1 0 0 1-3.1 3.1H200a4 4 0 0 0 0 8h16.9a11.1 11.1 0 0 0 11.1-11.1V152a4 4 0 0 0-4-4Zm-8-72h-48a4 4 0 0 0 0 8h48a4 4 0 0 1 4 4v24a4 4 0 0 0 8 0V88a12 12 0 0 0-12-12ZM28 80V56a12 12 0 0 1 12-12h52.7a11.9 11.9 0 0 1 8.5 3.5l29.6 29.7a3.8 3.8 0 0 1 .9 4.3A4 4 0 0 1 128 84H32a4 4 0 0 1-4-4Zm8-4h82.3L95.5 53.2a3.8 3.8 0 0 0-2.8-1.2H40a4 4 0 0 0-4 4Zm-4 80a4 4 0 0 0 4-4v-32a4 4 0 0 0-8 0v32a4 4 0 0 0 4 4Z"/></svg>