<svg xmlns="http://www.w3.org/2000/svg" width="1em" height="1em" viewBox="0 0 256 256"><path fill="currentColor" d="M128 208a8 8 0 0 1-8 8H40a16 16 0 0 1-16-16V64a16 16 0 0 1 16-16h53.33a16.12 16.12 0 0 1 9.6 3.2L130.67 72H216a16 16 0 0 1 16 16v32a8 8 0 0 1-16 0V88h-85.33a16.12 16.12 0 0 1-9.6-3.2L93.33 64H40v136h80a8 8 0 0 1 8 8m109.09-40.22l-22.51 18.59l6.85 27.71a8 8 0 0 1-11.82 8.81L184 207.82l-25.61 15.07a8 8 0 0 1-11.82-8.81l6.85-27.71l-22.51-18.59a8 8 0 0 1 4.47-14.14l29.84-2.31l11.43-26.5a8 8 0 0 1 14.7 0l11.43 26.5l29.84 2.31a8 8 0 0 1 4.47 14.14m-25.47.28l-14.89-1.15a8 8 0 0 1-6.73-4.8l-6-13.92l-6 13.92a8 8 0 0 1-6.73 4.8l-14.89 1.15l11.11 9.18a8 8 0 0 1 2.68 8.09l-3.5 14.12l13.27-7.81a8 8 0 0 1 8.12 0l13.27 7.81l-3.5-14.12a8 8 0 0 1 2.68-8.09Z"/></svg>