<svg xmlns="http://www.w3.org/2000/svg" width="1em" height="1em" viewBox="0 0 256 256"><path fill="currentColor" d="M128 28a100 100 0 1 0 100 100A100.11 100.11 0 0 0 128 28m87.64 128h-46.15a157.43 157.43 0 0 0 0-56h46.15a92.09 92.09 0 0 1 0 56M128 220a3.76 3.76 0 0 1-2.78-1.23c-13.65-14.7-23.52-33.72-28.81-54.77h63.18c-5.29 21.05-15.16 40.07-28.81 54.77A3.76 3.76 0 0 1 128 220m-33.35-64a149.25 149.25 0 0 1 0-56h66.7a149.25 149.25 0 0 1 0 56ZM128 36a3.76 3.76 0 0 1 2.78 1.23C144.43 51.93 154.3 71 159.59 92H96.41c5.29-21 15.16-40.07 28.81-54.77A3.76 3.76 0 0 1 128 36m84.66 56h-44.85c-4.91-20.73-14-39.72-26.66-55.06A92.3 92.3 0 0 1 212.66 92m-97.81-55.06C102.22 52.28 93.1 71.27 88.19 92H43.34a92.3 92.3 0 0 1 71.51-55.06M40.36 100h46.15a157.43 157.43 0 0 0 0 56H40.36a92.09 92.09 0 0 1 0-56m3 64h44.83c4.91 20.73 14 39.72 26.66 55.06A92.3 92.3 0 0 1 43.34 164Zm97.81 55.06c12.63-15.34 21.75-34.33 26.66-55.06h44.85a92.3 92.3 0 0 1-71.53 55.06Z"/></svg>