<svg xmlns="http://www.w3.org/2000/svg" width="1em" height="1em" viewBox="0 0 256 256"><path fill="currentColor" d="M128 26a102 102 0 1 0 102 102A102.12 102.12 0 0 0 128 26m81.57 64h-40.18a139.15 139.15 0 0 0-23.45-50.2A90.32 90.32 0 0 1 209.57 90m8.43 38a89.7 89.7 0 0 1-3.83 26h-42.31a159 159 0 0 0 0-52h42.31a89.7 89.7 0 0 1 3.83 26m-90 90a1.75 1.75 0 0 1-1.32-.59C113.8 203.54 104.34 185.73 99 166h58c-5.34 19.73-14.8 37.54-27.68 51.41a1.75 1.75 0 0 1-1.32.59m-31.69-64a147.48 147.48 0 0 1 0-52h63.38a147.48 147.48 0 0 1 0 52ZM38 128a89.7 89.7 0 0 1 3.83-26h42.31a159 159 0 0 0 0 52H41.83A89.7 89.7 0 0 1 38 128m90-90a1.75 1.75 0 0 1 1.32.59C142.2 52.46 151.66 70.27 157 90H99c5.34-19.73 14.8-37.54 27.68-51.41A1.75 1.75 0 0 1 128 38m-17.94 1.8A139.15 139.15 0 0 0 86.61 90H46.43a90.32 90.32 0 0 1 63.63-50.2M46.43 166h40.18a139.15 139.15 0 0 0 23.45 50.2A90.32 90.32 0 0 1 46.43 166m99.51 50.2a139.15 139.15 0 0 0 23.45-50.2h40.18a90.32 90.32 0 0 1-63.63 50.2"/></svg>