<svg xmlns="http://www.w3.org/2000/svg" width="1em" height="1em" viewBox="0 0 256 256"><g fill="currentColor"><path d="M234.34 133.66L128 240L21.66 133.66a8 8 0 0 1 0-11.32L128 16l106.34 106.34a8 8 0 0 1 0 11.32" opacity=".2"/><path d="M136 16v32a8 8 0 0 1-16 0V16a8 8 0 0 1 16 0m40 40a8 8 0 0 0-8 8v32a8 8 0 0 0 16 0V64a8 8 0 0 0-8-8m-48 144a8 8 0 0 0-8 8v32a8 8 0 0 0 16 0v-32a8 8 0 0 0-8-8m0-120a8 8 0 0 0-8 8v80a8 8 0 0 0 16 0V88a8 8 0 0 0-8-8M80 56a8 8 0 0 0-8 8v56a8 8 0 0 0 16 0V64a8 8 0 0 0-8-8m96 72a8 8 0 0 0-8 8v56a8 8 0 0 0 16 0v-56a8 8 0 0 0-8-8M32 104a8 8 0 0 0-8 8v32a8 8 0 0 0 16 0v-32a8 8 0 0 0-8-8m48 48a8 8 0 0 0-8 8v32a8 8 0 0 0 16 0v-32a8 8 0 0 0-8-8m144-48a8 8 0 0 0-8 8v32a8 8 0 0 0 16 0v-32a8 8 0 0 0-8-8"/></g></svg>