<svg xmlns="http://www.w3.org/2000/svg" width="1em" height="1em" viewBox="0 0 256 256"><path fill="currentColor" d="m242.83 45.17l-32-32a4 4 0 0 0-5.66 5.66l1.17 1.17l-65.09 65.1c-21.91-12.54-46.89-12.31-61.67 2.47a38.11 38.11 0 0 0-8.5 13A12.24 12.24 0 0 1 59.94 108c-13.55.46-25.29 5.28-34 13.94c-11.12 11.2-15.84 27.37-13.24 45.57c2.54 17.77 11.8 35.42 26.08 49.71s31.94 23.54 49.71 26.08a67.39 67.39 0 0 0 9.59.7c14.25 0 26.79-4.82 36-14c8.66-8.67 13.48-20.41 13.94-34a12.24 12.24 0 0 1 7.45-11.14a38.11 38.11 0 0 0 13-8.5c14.78-14.78 15-39.76 2.47-61.67L236 49.66l1.17 1.17a4 4 0 1 0 5.66-5.66m-80.06 125.59a29.94 29.94 0 0 1-10.3 6.72A20.25 20.25 0 0 0 140 195.79c-.38 11.49-4.39 21.37-11.6 28.57c-9.34 9.34-23.1 13.26-38.75 11c-16.07-2.29-32.11-10.75-45.18-23.82s-21.53-29.11-23.82-45.18c-2.24-15.65 1.68-29.41 11-38.75c7.2-7.21 17.08-11.22 28.57-11.6a20.25 20.25 0 0 0 18.31-12.5a29.94 29.94 0 0 1 6.72-10.3c11.8-11.8 31.84-12 50.14-2.27l-25.09 25.09a28 28 0 1 0 29.7 29.68l25-25.09c9.81 18.3 9.57 38.38-2.23 50.14M112 124a20 20 0 0 1 20 20a20 20 0 1 1-20-20m26.71 11.63a28.06 28.06 0 0 0-18.34-18.34l22-22a74.51 74.51 0 0 1 18.35 18.35ZM158 98a81.07 81.07 0 0 0-9.9-8.44L176 61.65L194.34 80l-27.87 27.87A81.07 81.07 0 0 0 158 98m42-23.63L181.66 56L212 25.66L230.34 44ZM90.84 197.16a4 4 0 0 1-5.66 5.66l-32-32a4 4 0 0 1 5.66-5.66Z"/></svg>