<svg xmlns="http://www.w3.org/2000/svg" width="1em" height="1em" viewBox="0 0 256 256"><path fill="currentColor" d="m244.24 43.76l-32-32a6 6 0 0 0-8.7 8.21L140.9 82.62C118.54 70.42 93.29 71 78.17 86.16a39.94 39.94 0 0 0-9 13.69a10.24 10.24 0 0 1-9.3 6.15c-14.06.48-26.27 5.5-35.3 14.53C13 132.18 8 149 10.72 167.79C13.32 186 22.78 204 37.37 218.63S70 242.68 88.21 245.28a70 70 0 0 0 9.88.72c14.79 0 27.81-5 37.35-14.57c9-9 14.05-21.23 14.53-35.3a10.24 10.24 0 0 1 6.18-9.35a39.94 39.94 0 0 0 13.69-8.95c15.12-15.12 15.74-40.37 3.54-62.73L236 52.46a6 6 0 0 0 8.22-8.7ZM200 71.51L184.49 56L212 28.48L227.52 44Zm-38.64 97.84a28.06 28.06 0 0 1-9.63 6.27a22.22 22.22 0 0 0-13.73 20.1c-.37 11-4.18 20.39-11 27.22c-8.89 8.89-22 12.61-37 10.46c-15.65-2.23-31.29-10.49-44.06-23.25s-21-28.41-23.25-44.06c-2.15-15 1.57-28.16 10.46-37.05c6.83-6.84 16.25-10.65 27.22-11a22.21 22.21 0 0 0 20.1-13.76a28.12 28.12 0 0 1 6.27-9.62c5.78-5.89 13.83-8.66 22.7-8.66A52.74 52.74 0 0 1 132 91.49l-22.6 22.63a30 30 0 1 0 32.48 32.48l22.64-22.6c8.11 16.82 7.48 34.68-3.16 45.35M151 105a72.26 72.26 0 0 1 7.17 8.35L139.5 132a30.18 30.18 0 0 0-15.5-15.5l18.62-18.62A73 73 0 0 1 151 105m-39 21a18 18 0 0 1 18 18a18 18 0 1 1-18-18m47.43-29.44a83.26 83.26 0 0 0-8.27-7.23L176 64.48L191.52 80l-24.84 24.83a83.31 83.31 0 0 0-7.24-8.28Zm-67.19 99.2a6 6 0 1 1-8.49 8.48l-32-32a6 6 0 0 1 8.48-8.48Z"/></svg>