<svg xmlns="http://www.w3.org/2000/svg" width="1em" height="1em" viewBox="0 0 256 256"><path fill="currentColor" d="m245.66 42.34l-32-32a8 8 0 0 0-12.72 9.41l-60.42 60.41c-22.79-11.86-48.31-10.87-63.77 4.58a42.27 42.27 0 0 0-9.39 14.37a8.24 8.24 0 0 1-7.55 4.89c-14.59.49-27.26 5.72-36.65 15.11C11.08 131.22 6 148.6 8.74 168.07C11.4 186.7 21.07 205.15 36 220s33.34 24.56 52 27.22a71.13 71.13 0 0 0 10.1.78c15.32 0 28.83-5.23 38.76-15.16c9.39-9.39 14.62-22.06 15.11-36.65a8.24 8.24 0 0 1 4.92-7.55a42.22 42.22 0 0 0 14.37-9.39c15.45-15.46 16.44-41 4.58-63.77l60.41-60.42a8 8 0 0 0 9.41-12.72M200 68.68L187.32 56L212 31.31L224.69 44Zm-40 99.25a26.12 26.12 0 0 1-8.95 5.83a24.24 24.24 0 0 0-15 21.89c-.36 10.46-4 19.41-10.43 25.88c-8.44 8.43-21 11.95-35.36 9.89c-15.26-2.17-30.53-10.23-42.99-22.69S26.75 181 24.58 165.81c-2-14.37 1.46-26.92 9.89-35.36C40.94 124 49.89 120.38 60.35 120a24.22 24.22 0 0 0 21.89-15a26.12 26.12 0 0 1 5.83-9c5.49-5.49 13-8.13 21.38-8.13a49.38 49.38 0 0 1 19.13 4.19l-20.08 20.13a32 32 0 1 0 35.31 35.31l20.08-20.08c6.52 15.29 5.58 30.99-3.89 40.51m-10.4-61.48a72.9 72.9 0 0 1 5.93 6.75l-15.42 15.42a32.22 32.22 0 0 0-12.68-12.68l15.42-15.43a73 73 0 0 1 6.7 5.94ZM112 128a16 16 0 0 1 16 16a16 16 0 1 1-16-16m48.85-32.85a85.23 85.23 0 0 0-6.69-6L176 67.31L188.69 80l-21.83 21.82a86.94 86.94 0 0 0-6-6.68Zm-67.2 99.19a8 8 0 0 1-11.31 11.32l-32-32a8 8 0 0 1 11.32-11.31Z"/></svg>