<svg xmlns="http://www.w3.org/2000/svg" width="1em" height="1em" viewBox="0 0 256 256"><path fill="currentColor" d="M123.64 218.91A12 12 0 0 1 112 228a12.28 12.28 0 0 1-2.92-.36l-32-8a11.79 11.79 0 0 1-3.74-1.64l-24-16a12 12 0 0 1 13.32-20l22.27 14.85l30 7.5a12 12 0 0 1 8.71 14.56M255 122.75a19.88 19.88 0 0 1-10 11.56l-22.87 11.44l-53.58 54.73a12 12 0 0 1-11.4 3.16l-64-16a12.16 12.16 0 0 1-4.17-1.95L35 146.28l-23.94-12a20 20 0 0 1-9-26.83L27 57.79a20 20 0 0 1 26.83-8.94l20.59 10.31l50.21-14.68a12.07 12.07 0 0 1 6.74 0l50.21 14.68l20.63-10.32A20 20 0 0 1 229 57.79l24.85 49.69a19.86 19.86 0 0 1 1.15 15.27M200.3 134l-25-50h-26.44l-38.2 37.05c15.76 7.26 31.16.19 40.82-9.55a12 12 0 0 1 16-.91l31.26 25ZM25.37 114.63l10.53 5.27l21.27-42.53l-10.54-5.27ZM182 153l-21.7-17.43c-20.49 15.29-45.85 16.79-67 3.25a20 20 0 0 1-3.4-31l.12-.12l39.8-38.7l-1.82-.5l-46.34 13.55l-25.12 50.24l44.65 32.64l55.13 13.78Zm48.59-38.36L209.37 72.1l-10.54 5.27l21.27 42.53Z"/></svg>