<svg xmlns="http://www.w3.org/2000/svg" width="1em" height="1em" viewBox="0 0 256 256"><g fill="currentColor"><path d="M201.55 185.73a71.73 71.73 0 0 0-7.43-53.73l-19-32.91a17.46 17.46 0 0 0-1.12-1.75l-9.8-14.77L170.77 94a18 18 0 0 0-27.22 22.27L120 75.51L109 59l6.6 11.44A18 18 0 0 0 88 92.07l-.06.05l-7.2-12.47l-4.35-5.06l-6.58-11.44a18 18 0 1 1 31.18-18l7.2 12.47L109 59a18 18 0 1 1 31.18-18l24 41.57a18 18 0 0 1 31.18-18l19 32.91a72 72 0 0 1-12.81 88.25" opacity=".2"/><path d="M168 24V8a8 8 0 0 1 16 0v16a8 8 0 0 1-16 0m35.83 17a7.9 7.9 0 0 0 4.17 1.13a8 8 0 0 0 6.84-3.83l8-13.11a8 8 0 1 0-13.66-8.33l-8 13.1A8 8 0 0 0 203.83 41m17.44 52.53A79.71 79.71 0 0 1 208.68 190a80 80 0 0 1-146.19 18l-35-60.63a26 26 0 0 1 19.18-38.77l-4-6.94A26 26 0 0 1 61 63a26 26 0 0 1 11.4-31.37a26.05 26.05 0 0 1 30.81 3.58A26 26 0 0 1 147.09 37l12 20.79a26 26 0 0 1 43.18 2.78ZM115.92 55l5.93 10.27a25.87 25.87 0 0 1 5 6.24l12 20.75a26.2 26.2 0 0 1 16-9.78L133.24 45a10 10 0 0 0-13.66-3.66A10 10 0 0 0 115.92 55m-39.18 4.15l5.93 10.28l.32.29a25.93 25.93 0 0 1 16.72-10.78l-5.65-9.79a10 10 0 0 0-18.32 2.41a9.92 9.92 0 0 0 1 7.59M187.19 136l-19-32.91a10 10 0 0 0-17.74 9.18L161.87 132a8 8 0 1 1-13.87 8l-35-60.47a10 10 0 0 0-17.37 9.87l24.63 42.6a8 8 0 1 1-13.85 8L73.84 83.66a10 10 0 1 0-17.32 10l36 62.36a8 8 0 1 1-13.86 8l-20-34.64a10 10 0 0 0-17.32 10l35 60.63a64 64 0 1 0 110.85-64Zm20.22-34.51l-19-32.91a10 10 0 0 0-17.32 10L177 88.83a26.06 26.06 0 0 1 5 6.26L201 128a80.13 80.13 0 0 1 10.13 30a63.82 63.82 0 0 0-3.72-56.51m43.86-47.94a8 8 0 0 0-10.07-5.16l-15 4.85a8 8 0 0 0 2.45 15.62a8.15 8.15 0 0 0 2.46-.39l15-4.85a8 8 0 0 0 5.16-10.07"/></g></svg>