<svg xmlns="http://www.w3.org/2000/svg" width="1em" height="1em" viewBox="0 0 256 256"><path fill="currentColor" d="M227.9 144.24a20.45 20.45 0 0 0-17.84-3.53L160.75 152a23.76 23.76 0 0 0 3.25-12a24 24 0 0 0-24-24H89.94a27.81 27.81 0 0 0-19.8 8.2L46.34 148H16a12 12 0 0 0-12 12v40a12 12 0 0 0 12 12h104a4 4 0 0 0 1-.12l64-16a4.69 4.69 0 0 0 .6-.2l38.82-16.54l.22-.1a20.6 20.6 0 0 0 3.29-34.8ZM12 200v-40a4 4 0 0 1 4-4h28v48H16a4 4 0 0 1-4-4m209.13-28.17l-38.41 16.37l-63.21 15.8H52v-50.34l23.8-23.8A19.86 19.86 0 0 1 89.94 124H140a16 16 0 0 1 0 32h-28a4 4 0 0 0 0 8h32a3.94 3.94 0 0 0 .9-.1l67-15.41h.16a12.6 12.6 0 0 1 9 23.38ZM164 92a31.88 31.88 0 0 0 8.73-1.2a32 32 0 1 0 22.55-37.58A32 32 0 1 0 164 92m64-8a24 24 0 1 1-24-24a24 24 0 0 1 24 24m-64-48a24 24 0 0 1 23.74 20.46A32 32 0 0 0 172 82.62A24 24 0 1 1 164 36"/></svg>