<svg xmlns="http://www.w3.org/2000/svg" width="1em" height="1em" viewBox="0 0 256 256"><path fill="currentColor" d="M170 24V8a6 6 0 0 1 12 0v16a6 6 0 0 1-12 0m34.87 15.25a6 6 0 0 0 8.25-2l8-13.11a6 6 0 1 0-10.24-6.25l-8 13.11a6 6 0 0 0 1.99 8.25m44.5 14.92a6 6 0 0 0-7.55-3.88l-15 4.85a6 6 0 0 0 1.84 11.72a5.91 5.91 0 0 0 1.84-.3l15-4.84a6 6 0 0 0 3.87-7.55m-29.83 40.32a77.71 77.71 0 0 1-12.63 94.4A78 78 0 0 1 64.22 207l-35-60.63a24 24 0 0 1 20.79-36l-5.61-9.73a24 24 0 0 1 19.45-35.93a24 24 0 0 1 39.71-26.25a24 24 0 0 1 41.8-.45L159 61.59a24 24 0 0 1 41.56 0ZM114.18 56l6.09 10.56a23.61 23.61 0 0 1 4.86 6l13.63 23.56a23.95 23.95 0 0 1 19.36-12L135 44a12 12 0 0 0-20.79 12ZM75 60.15l6.1 10.56A23.69 23.69 0 0 1 83.33 73A23.92 23.92 0 0 1 103 60.57l-7.21-12.42a12 12 0 0 0-20.79 12m120.52 124.94a65.62 65.62 0 0 0-6.59-50.09l-19-32.91a12 12 0 0 0-21.19 11.22l11.4 19.7a6 6 0 1 1-10.39 6l-35-60.5A12 12 0 0 0 93.9 90.4l24.63 42.6a6 6 0 1 1-10.39 6L75.57 82.66a12 12 0 0 0-20.78 12l36 62.36a6 6 0 0 1-10.39 6l-20-34.64a12 12 0 0 0-20.79 12l35 60.63a66 66 0 0 0 120.91-15.92m13.63-84.6l-19-32.91a12 12 0 0 0-20.79 12l6.1 10.57a24 24 0 0 1 4.86 5.94l19 32.91a77.68 77.68 0 0 1 10.44 36.51a65.8 65.8 0 0 0-.61-65.02"/></svg>