<svg xmlns="http://www.w3.org/2000/svg" width="1em" height="1em" viewBox="0 0 256 256"><path fill="currentColor" d="M119.76 217.94A8 8 0 0 1 112 224a8.13 8.13 0 0 1-2-.24l-32-8a8 8 0 0 1-2.5-1.11l-24-16a8 8 0 1 1 8.88-13.31l22.84 15.23l30.66 7.67a8 8 0 0 1 5.88 9.7m132.69-96.46a15.89 15.89 0 0 1-8 9.25l-23.68 11.84l-15.08 15.09l-40 40a8 8 0 0 1-7.6 2.1l-64-16a8.06 8.06 0 0 1-2.71-1.25l-55.52-39.64l-24.28-12.14a16 16 0 0 1-7.16-21.46l24.85-49.69a16 16 0 0 1 21.46-7.16l22.06 11l53-15.14a8 8 0 0 1 4.4 0l53 15.14l22.06-11a16 16 0 0 1 21.46 7.16l24.85 49.69a15.9 15.9 0 0 1 .89 12.21M188 152.66l-27.71-22.19c-19.54 16-44.35 18.11-64.91 5a16 16 0 0 1-2.72-24.82a.6.6 0 0 1 .08-.08l44.86-43.51l-9.6-2.74l-50.42 14.41l-27.37 54.73l49.2 35.15l58.14 14.53Zm18.24-18.24L179.06 80h-31.82L104 122c12.66 8.09 32.51 10.32 50.32-7.63a8 8 0 0 1 10.68-.61l34.41 27.57Z"/></svg>