<svg xmlns="http://www.w3.org/2000/svg" width="1em" height="1em" viewBox="0 0 256 256"><g fill="currentColor"><path d="M80 152v40a16 16 0 0 1-16 16H48a16 16 0 0 1-16-16v-56h32a16 16 0 0 1 16 16m112-16a16 16 0 0 0-16 16v40a16 16 0 0 0 16 16h16a16 16 0 0 0 16-16v-56Z" opacity=".2"/><path d="M201.89 62.66A104.08 104.08 0 0 0 24 136v56a24 24 0 0 0 24 24h16a24 24 0 0 0 24-24v-40a24 24 0 0 0-24-24H40.36A88 88 0 0 1 128 48h.67a87.71 87.71 0 0 1 87 80H192a24 24 0 0 0-24 24v40a24 24 0 0 0 24 24h16a24 24 0 0 0 24-24v-56a103.41 103.41 0 0 0-30.11-73.34M64 144a8 8 0 0 1 8 8v40a8 8 0 0 1-8 8H48a8 8 0 0 1-8-8v-48Zm152 48a8 8 0 0 1-8 8h-16a8 8 0 0 1-8-8v-40a8 8 0 0 1 8-8h24Z"/></g></svg>