<svg xmlns="http://www.w3.org/2000/svg" width="1em" height="1em" viewBox="0 0 256 256"><g fill="currentColor"><path d="M178.13 80L128 128L77.87 80Z" opacity=".2"/><path d="M211.18 196.56L139.57 128l71.61-68.56a1.59 1.59 0 0 1 .13-.13A16 16 0 0 0 200 32H56a16 16 0 0 0-11.31 27.31a1.59 1.59 0 0 1 .13.13L116.43 128l-71.61 68.56a1.59 1.59 0 0 1-.13.13A16 16 0 0 0 56 224h144a16 16 0 0 0 11.32-27.31a1.59 1.59 0 0 1-.14-.13M97.79 88h60.42L128 116.92ZM200 48l-25.08 24H81.08L56 48ZM56 208l64-61.26V168a8 8 0 0 0 16 0v-21.26L200 208Z"/></g></svg>