<svg xmlns="http://www.w3.org/2000/svg" width="1em" height="1em" viewBox="0 0 256 256"><g fill="currentColor"><path d="M205.64 53.66L128 128L50.36 53.66A8 8 0 0 1 56 40h144a8 8 0 0 1 5.64 13.66M128 128l-77.64 74.34A8 8 0 0 0 56 216h144a8 8 0 0 0 5.66-13.66Z" opacity=".2"/><path d="M211.18 196.56L139.57 128l71.61-68.56a1.59 1.59 0 0 1 .13-.13A16 16 0 0 0 200 32H56a16 16 0 0 0-11.31 27.31a1.59 1.59 0 0 1 .13.13L116.43 128l-71.61 68.56a1.59 1.59 0 0 1-.13.13A16 16 0 0 0 56 224h144a16 16 0 0 0 11.32-27.31a1.59 1.59 0 0 1-.14-.13M200 48l-72 68.92L56 48ZM56 208l72-68.92L200 208Z"/></g></svg>