<svg xmlns="http://www.w3.org/2000/svg" width="1em" height="1em" viewBox="0 0 256 256"><g fill="currentColor"><path d="M225.94 161.94a48 48 0 0 1-67.88 0L128 128l30.06-33.94a48 48 0 0 1 67.88 67.88M30.06 94.06a48 48 0 0 0 67.88 67.88L128 128L97.94 94.06a48 48 0 0 0-67.88 0" opacity=".2"/><path d="M248 128a56 56 0 0 1-95.6 39.6l-.33-.35l-59.95-67.7a40 40 0 1 0 0 56.9l8.52-9.62a8 8 0 1 1 12 10.61l-8.69 9.81l-.33.35a56 56 0 1 1 0-79.2l.33.35l59.95 67.7a40 40 0 1 0 0-56.9l-8.52 9.62a8 8 0 1 1-12-10.61l8.69-9.81l.33-.35A56 56 0 0 1 248 128"/></g></svg>