<svg xmlns="http://www.w3.org/2000/svg" width="1em" height="1em" viewBox="0 0 256 256"><path fill="currentColor" d="M193.78 97.13c.13-1.69.22-3.4.22-5.13a66 66 0 0 0-132 0c0 1.73.09 3.44.22 5.13A66 66 0 1 0 128 211.27a66 66 0 1 0 65.78-114.14M74 92a54 54 0 0 1 108 0v.51a65.75 65.75 0 0 0-54 8.22a65.75 65.75 0 0 0-54-8.22zm72 64a53.88 53.88 0 0 1-18 40.21A53.88 53.88 0 0 1 110 156v-.51a65.73 65.73 0 0 0 36 0zm-18-10a53.61 53.61 0 0 1-16.5-2.59a54.09 54.09 0 0 1 16.5-27.62a54.09 54.09 0 0 1 16.5 27.62A53.61 53.61 0 0 1 128 146m-27.6-7.61a54.14 54.14 0 0 1-24.9-33.8a53.85 53.85 0 0 1 42.5 4.12a66.09 66.09 0 0 0-17.6 29.68m37.6-29.68a53.85 53.85 0 0 1 42.53-4.12a54.14 54.14 0 0 1-24.9 33.8A66.09 66.09 0 0 0 138 108.71M92 210a54 54 0 0 1-27.6-100.39a66.29 66.29 0 0 0 33.82 41.26c-.13 1.69-.22 3.4-.22 5.13a65.8 65.8 0 0 0 20 47.29A53.64 53.64 0 0 1 92 210m72 0a53.64 53.64 0 0 1-26-6.71A65.8 65.8 0 0 0 158 156c0-1.73-.09-3.44-.22-5.13a66.29 66.29 0 0 0 33.82-41.26A54 54 0 0 1 164 210"/></svg>