<svg xmlns="http://www.w3.org/2000/svg" width="1em" height="1em" viewBox="0 0 256 256"><path fill="currentColor" d="M160 16a80.07 80.07 0 0 0-76.09 104.78l-57.57 57.56A8 8 0 0 0 24 184v40a8 8 0 0 0 8 8h40a8 8 0 0 0 8-8v-16h16a8 8 0 0 0 8-8v-16h16a8 8 0 0 0 5.66-2.34l9.56-9.57A80 80 0 1 0 160 16m0 144a63.7 63.7 0 0 1-23.65-4.51a8 8 0 0 0-8.84 1.68L116.69 168H96a8 8 0 0 0-8 8v16H72a8 8 0 0 0-8 8v16H40v-28.69l58.83-58.82a8 8 0 0 0 1.68-8.84A64 64 0 1 1 160 160m32-84a12 12 0 1 1-12-12a12 12 0 0 1 12 12"/></svg>