<svg xmlns="http://www.w3.org/2000/svg" width="1em" height="1em" viewBox="0 0 256 256"><g fill="currentColor"><path d="M57 183a24 24 0 1 1-34 0a24 24 0 0 1 34 0M79 79a24 24 0 1 0 34 0a24 24 0 0 0-34 0m64 64a24 24 0 1 0 34 0a24 24 0 0 0-34 0m90-104a24 24 0 1 0 0 34a24 24 0 0 0 0-34" opacity=".2"/><path d="M238.64 33.36a32 32 0 0 0-45.26 0a32 32 0 0 0 0 45.26c.29.29.6.57.9.85l-26.63 49.46a32.19 32.19 0 0 0-23.9 3.5l-20.18-20.18a32 32 0 0 0-50.2-38.89a32 32 0 0 0 0 45.26c.29.29.59.57.89.85l-26.63 49.47a32 32 0 0 0-30.27 8.44a32 32 0 1 0 45.26 0c-.29-.29-.6-.57-.9-.85l26.63-49.46A32.4 32.4 0 0 0 96 128a32 32 0 0 0 16.25-4.41l20.18 20.18a32 32 0 1 0 50.2-6.38c-.29-.29-.59-.57-.89-.85l26.63-49.46A32.33 32.33 0 0 0 216 88a32 32 0 0 0 22.63-54.62ZM51.3 211.33a16 16 0 0 1-22.63-22.64a16 16 0 1 1 22.63 22.64m33.38-104a16 16 0 0 1 0-22.63a16 16 0 1 1 0 22.63m86.64 64a16 16 0 0 1-22.63-22.63a16 16 0 0 1 22.63 22.63m56-104a16 16 0 1 1-22.62-22.66a16 16 0 0 1 22.63 22.64Z"/></g></svg>