<svg xmlns="http://www.w3.org/2000/svg" width="1em" height="1em" viewBox="0 0 256 256"><path fill="currentColor" d="M241.47 30.53a36 36 0 0 0-50.92 0a36.06 36.06 0 0 0-1.2 49.66l-23.83 44.26a36.08 36.08 0 0 0-21 3.07l-16-16a36 36 0 0 0-57.94-41a36 36 0 0 0-1.2 49.66L45.5 164.45a36 36 0 0 0-31 10.1a36 36 0 1 0 52.12 1.26l23.83-44.26A35.21 35.21 0 0 0 96 132a36.07 36.07 0 0 0 15.51-3.5l16 16a36 36 0 1 0 59.14-8.68l23.85-44.27a36.32 36.32 0 0 0 5.5.45a36 36 0 0 0 25.46-61.45Zm-154 57a12 12 0 0 1 17 17a12 12 0 0 1-17-17m-39 121a12 12 0 1 1 0-17a12 12 0 0 1 0 16.97Zm120-40a12 12 0 1 1 0-17a12 12 0 0 1 .02 16.96Zm56-104a12 12 0 1 1 0-17a12 12 0 0 1 .03 16.95Z"/></svg>