<svg xmlns="http://www.w3.org/2000/svg" width="1em" height="1em" viewBox="0 0 256 256"><g fill="currentColor"><path d="M216 48v160a8 8 0 0 1-8 8H48a8 8 0 0 1-8-8V48a8 8 0 0 1 8-8h160a8 8 0 0 1 8 8" opacity=".2"/><path d="M208 32H48a16 16 0 0 0-16 16v160a16 16 0 0 0 16 16h160a16 16 0 0 0 16-16V48a16 16 0 0 0-16-16m0 176H48V48h160zm-48-32a8 8 0 0 1-8 8h-48a8 8 0 0 1-6.4-12.8l43.17-57.56a16 16 0 1 0-27.86-15a8 8 0 0 1-15.09-5.34a32.43 32.43 0 0 1 4.62-8.59a32 32 0 1 1 51.11 38.52L120 168h32a8 8 0 0 1 8 8"/></g></svg>