<svg xmlns="http://www.w3.org/2000/svg" width="1em" height="1em" viewBox="0 0 256 256"><path fill="currentColor" d="M230.5 164.88a4 4 0 0 0-5 0c-.88.7-21.5 17.45-21.5 39.12a24 24 0 0 0 48 0c0-21.67-20.62-38.42-21.5-39.12M228 220a16 16 0 0 1-16-16c0-13.75 10.95-25.8 16-30.63c5.05 4.83 16 16.88 16 30.63a16 16 0 0 1-16 16m-1.17-99.34L119.34 13.17a4 4 0 0 0-5.65 0L70.25 56.6L42.82 29.17a4 4 0 0 0-5.65 5.66L64.6 62.26L17.86 109a20 20 0 0 0 0 28.29l84.85 84.85a20 20 0 0 0 28.29 0l95.83-95.83a4 4 0 0 0 0-5.65m-101.49 95.82a12 12 0 0 1-17 0l-84.83-84.85a12 12 0 0 1 0-17l46.74-46.71l34.2 34.2A24 24 0 0 0 141 133a24 24 0 0 0-30.86-36.51l-34.2-34.2l40.61-40.6l101.79 101.79Zm10-89.17a16 16 0 1 1 0-22.62a16 16 0 0 1-.03 22.62Z"/></svg>