<svg xmlns="http://www.w3.org/2000/svg" width="1em" height="1em" viewBox="0 0 256 256"><g fill="currentColor"><path d="M219.91 134.86L51.93 231a8 8 0 0 1-11.44-9.67l31-90.71a7.89 7.89 0 0 0 0-5.38l-31-90.47a8 8 0 0 1 11.44-9.67l168 95.85a8 8 0 0 1-.02 13.91" opacity=".2"/><path d="m223.87 114l-168-95.89a16 16 0 0 0-22.94 19.21l31 90.47a.42.42 0 0 0 0 .1a.3.3 0 0 0 0 .1l-31 90.67A16 16 0 0 0 48 240a16.14 16.14 0 0 0 7.92-2.1l167.91-96.05a16 16 0 0 0 .05-27.89ZM48 224v-.09L78.14 136H136a8 8 0 0 0 0-16H78.22L48.06 32.12L48 32l168 95.83Z"/></g></svg>