<svg xmlns="http://www.w3.org/2000/svg" width="1em" height="1em" viewBox="0 0 256 256"><g fill="currentColor"><path d="M232 108a20 20 0 1 1-20-20a20 20 0 0 1 20 20m-168 0a20 20 0 1 0-20 20a20 20 0 0 0 20-20m28-28a20 20 0 1 0-20-20a20 20 0 0 0 20 20m72 0a20 20 0 1 0-20-20a20 20 0 0 0 20 20m19.24 75.85A43.46 43.46 0 0 1 162.57 130a36 36 0 0 0-69.14 0a43.49 43.49 0 0 1-20.67 25.9a32 32 0 0 0 27.73 57.62a72.49 72.49 0 0 1 55 0a32 32 0 0 0 27.73-57.62Z" opacity=".2"/><path d="M212 80a28 28 0 1 0 28 28a28 28 0 0 0-28-28m0 40a12 12 0 1 1 12-12a12 12 0 0 1-12 12M72 108a28 28 0 1 0-28 28a28 28 0 0 0 28-28m-28 12a12 12 0 1 1 12-12a12 12 0 0 1-12 12m48-32a28 28 0 1 0-28-28a28 28 0 0 0 28 28m0-40a12 12 0 1 1-12 12a12 12 0 0 1 12-12m72 40a28 28 0 1 0-28-28a28 28 0 0 0 28 28m0-40a12 12 0 1 1-12 12a12 12 0 0 1 12-12m23.12 100.86a35.3 35.3 0 0 1-16.87-21.14a44 44 0 0 0-84.5 0A35.25 35.25 0 0 1 69 148.82A40 40 0 0 0 88 224a39.48 39.48 0 0 0 15.52-3.13a64.09 64.09 0 0 1 48.87 0a40 40 0 0 0 34.73-72ZM168 208a24 24 0 0 1-9.45-1.93a80.14 80.14 0 0 0-61.19 0a24 24 0 0 1-20.71-43.26a51.22 51.22 0 0 0 24.46-30.67a28 28 0 0 1 53.78 0a51.27 51.27 0 0 0 24.53 30.71A24 24 0 0 1 168 208"/></g></svg>