<svg xmlns="http://www.w3.org/2000/svg" width="1em" height="1em" viewBox="0 0 256 256"><path fill="currentColor" d="M240 100.68a15.86 15.86 0 0 0-4.69-11.31l-68.68-68.69a16 16 0 0 0-22.63 0l-28.43 28.43l-58 21.77a16.06 16.06 0 0 0-10.22 12.35L24.11 222.68A8 8 0 0 0 32 232a8.4 8.4 0 0 0 1.32-.11l139.44-23.24a16 16 0 0 0 12.35-10.17l21.77-58L235.31 112a15.87 15.87 0 0 0 4.69-11.32m-69.87 92.19L55.32 212l47.37-47.37a28 28 0 1 0-11.32-11.32L44 200.7L63.13 85.86L118 65.29L190.7 138ZM104 140a12 12 0 1 1 12 12a12 12 0 0 1-12-12m96-15.32L131.31 56l24-24L224 100.68Z"/></svg>