<svg xmlns="http://www.w3.org/2000/svg" width="1em" height="1em" viewBox="0 0 256 256"><g fill="currentColor"><path d="M221.66 90.34L192 120l-56-56l29.66-29.66a8 8 0 0 1 11.31 0L221.66 79a8 8 0 0 1 0 11.34" opacity=".2"/><path d="M53.92 34.62a8 8 0 1 0-11.84 10.76l48.2 53L36.68 152A15.89 15.89 0 0 0 32 163.31V208a16 16 0 0 0 16 16h44.69a15.86 15.86 0 0 0 11.31-4.69l50.4-50.39l47.69 52.46a8 8 0 1 0 11.84-10.76Zm63 93.12L68 176.69L51.31 160l49.75-49.74ZM48 179.31L76.69 208H48Zm48 25.38L79.32 188l48.41-48.41l15.89 17.48ZM227.32 73.37l-44.69-44.68a16 16 0 0 0-22.63 0l-41.67 41.67a8 8 0 0 0 11.32 11.31l6.35-6.36L152.69 92L145 99.69A8 8 0 1 0 156.31 111l7.69-7.69L180.69 120l-9 9A8 8 0 0 0 183 140.34L227.32 96a16 16 0 0 0 0-22.63M192 108.69L147.32 64l24-24L216 84.69Z"/></g></svg>