<svg xmlns="http://www.w3.org/2000/svg" width="1em" height="1em" viewBox="0 0 256 256"><g fill="currentColor"><path d="M176 56a24 24 0 1 1-24-24a24 24 0 0 1 24 24" opacity=".2"/><path d="M152 88a32 32 0 1 0-32-32a32 32 0 0 0 32 32m0-48a16 16 0 1 1-16 16a16 16 0 0 1 16-16m67.31 100.68c-.61.28-7.49 3.28-19.67 3.28c-13.85 0-34.55-3.88-60.69-20a169.31 169.31 0 0 1-15.41 32.34a104.29 104.29 0 0 1 31.31 15.81C173.92 186.65 184 207.35 184 232a8 8 0 0 1-16 0c0-41.7-34.69-56.71-54.14-61.85c-.55.7-1.12 1.41-1.69 2.1c-19.64 23.8-44.25 36.18-71.63 36.18a92.29 92.29 0 0 1-9.34-.43a8 8 0 0 1 1.6-16c25.92 2.59 48.47-7.49 67-30c12.49-15.14 21-33.61 25.25-47c-38.92-22.66-63.78-3.37-64.05-3.16a8 8 0 1 1-10-12.48c1.5-1.2 37.22-29 89.51 6.57c45.47 30.91 71.93 20.31 72.18 20.19a8 8 0 1 1 6.63 14.56Z"/></g></svg>