<svg xmlns="http://www.w3.org/2000/svg" width="1em" height="1em" viewBox="0 0 256 256"><path fill="currentColor" d="M223.22 115.75A97.08 97.08 0 0 1 224 128a95.93 95.93 0 0 1-154.57 76c25.19-6.16 54.82-18.93 82.44-34.8c29.44-16.91 54.29-35.74 71.35-53.45m21.89-55.07c-7.65-13.19-27.84-16.16-58.5-8.66A95.93 95.93 0 0 0 32 128a98 98 0 0 0 .78 12.31C5.09 169 5.49 186 10.9 195.32C16 204.16 26.64 208 40.64 208a124.11 124.11 0 0 0 28.79-4a97.22 97.22 0 0 1-14.16-13.42c-17.29 2.88-28 1-30.53-3.29c-1.46-2.51-.65-7.24 2.22-13a79.42 79.42 0 0 1 10.28-15.05a.29.29 0 0 0 0-.09v.08a96.21 96.21 0 0 0 18 31.32c20.94-3.49 51.49-13.91 88.63-35.25C172 139.19 202 116.67 218.79 96.82a95.69 95.69 0 0 0-18-31.35l-.13-.15c0 .05.09.09.13.15c14.21-2.35 27.37-2.17 30.5 3.24c.92 1.57 1 3.92.15 7c-1.69 6.31-6.19 13.53-12.63 21.13a95.39 95.39 0 0 1 4.43 18.93c12.5-13 20.82-25.35 23.65-35.92c1.94-7.34 1.35-13.78-1.78-19.17"/></svg>