<svg xmlns="http://www.w3.org/2000/svg" width="1em" height="1em" viewBox="0 0 256 256"><path fill="currentColor" d="M251.62 39.65a12 12 0 0 0-11.27-11.27c-53.28-3.14-96.2 13.37-114.84 44.14c-12.14 20-12.56 44.17-1.46 67.3a75.21 75.21 0 0 0-11.24 20l-9.7-9.7c7.19-16.77 6.43-34.11-2.4-48.69C86.73 78.36 54.89 66 15.55 68.28A12 12 0 0 0 4.28 79.55C2 118.89 14.36 150.73 37.45 164.71a49.76 49.76 0 0 0 26 7.27a57.54 57.54 0 0 0 22.7-4.87L108 189v27a12 12 0 0 0 24 0v-29.49a51.63 51.63 0 0 1 9.49-29.95a76.81 76.81 0 0 0 32.09 7.44a64.92 64.92 0 0 0 33.9-9.46c30.77-18.69 47.28-61.62 44.14-114.89M49.88 144.18c-13.19-8-21.18-27.46-21.83-52.13c24.67.65 44.14 8.65 52.13 21.83a26 26 0 0 1 3.63 17l-11.33-11.37a12 12 0 0 0-17 17l11.34 11.34a26.27 26.27 0 0 1-16.94-3.67M195.05 134c-10.66 6.45-23 7.67-35.81 3.76l37.25-37.24a12 12 0 0 0-17-17l-37.25 37.24C138.37 108 139.59 95.61 146 85c12.77-21.09 43-33.07 82-33c.14 39-11.86 69.18-32.95 82"/></svg>