<svg xmlns="http://www.w3.org/2000/svg" width="1em" height="1em" viewBox="0 0 256 256"><g fill="currentColor"><path d="m185 127l-58 58a24 24 0 0 1-33.94 0L71 162.91A24 24 0 0 1 71 129l58-58a24 24 0 0 1 33.94 0L185 93.09a24 24 0 0 1 0 33.91" opacity=".2"/><path d="M237.66 18.34a8 8 0 0 0-11.32 0l-52.4 52.41l-5.37-5.38a32.05 32.05 0 0 0-45.26 0L100 88.69l-6.34-6.35a8 8 0 0 0-11.32 11.32l6.35 6.34l-23.32 23.31a32 32 0 0 0 0 45.26l5.38 5.37l-52.41 52.4a8 8 0 0 0 11.32 11.32l52.4-52.41l5.37 5.38a32.06 32.06 0 0 0 45.26 0L156 167.31l6.34 6.35a8 8 0 0 0 11.32-11.32l-6.35-6.34l23.32-23.31a32 32 0 0 0 0-45.26l-5.38-5.37l52.41-52.4a8 8 0 0 0 0-11.32m-116.29 161a16 16 0 0 1-22.62 0l-22.06-22.09a16 16 0 0 1 0-22.62L100 111.31L144.69 156Zm57.94-57.94L156 144.69L111.31 100l23.32-23.31a16 16 0 0 1 22.62 0l22.06 22a16 16 0 0 1 0 22.63Zm-90.9-86.87a8 8 0 0 1 15.18-5.06l8 24a8 8 0 0 1-15.18 5.06Zm-64 58.94a8 8 0 0 1 10.12-5.06l24 8a8 8 0 0 1-5.06 15.18l-24-8a8 8 0 0 1-5.06-10.12m207.18 69.06a8 8 0 0 1-10.12 5.06l-24-8a8 8 0 0 1 5.06-15.18l24 8a8 8 0 0 1 5.06 10.12m-64 58.94a8 8 0 0 1-15.18 5.06l-8-24a8 8 0 0 1 15.18-5.06Z"/></g></svg>