<svg xmlns="http://www.w3.org/2000/svg" width="1em" height="1em" viewBox="0 0 256 256"><path fill="currentColor" d="M149.66 149.66L131.31 168l18.35 18.34a8 8 0 0 1-11.32 11.32l-6.34-6.35l-23.31 23.32a32.06 32.06 0 0 1-45.26 0l-5.37-5.38l-28.4 28.41a8 8 0 0 1-11.32-11.32l28.41-28.4l-5.38-5.37a32 32 0 0 1 0-45.26L64.69 124l-6.35-6.34a8 8 0 0 1 11.32-11.32L88 124.69l18.34-18.35a8 8 0 0 1 11.32 11.32L99.31 136L120 156.69l18.34-18.35a8 8 0 0 1 11.32 11.32m88-131.32a8 8 0 0 0-11.32 0l-28.4 28.41l-5.37-5.38a32.05 32.05 0 0 0-45.26 0L124 64.69l-6.34-6.35a8 8 0 0 0-11.32 11.32l80 80a8 8 0 0 0 11.32-11.32l-6.35-6.34l23.32-23.31a32 32 0 0 0 0-45.26l-5.38-5.37l28.41-28.4a8 8 0 0 0 0-11.32"/></svg>