<svg xmlns="http://www.w3.org/2000/svg" width="1em" height="1em" viewBox="0 0 256 256"><path fill="currentColor" d="M96 32a8 8 0 0 1 8-8h48a8 8 0 0 1 0 16h-48a8 8 0 0 1-8-8m152 88a8 8 0 0 1-8 8h-8v80a16 16 0 0 1-16 16h-24a16 16 0 0 1-16-16v-16H80v16a16 16 0 0 1-16 16H40a16 16 0 0 1-16-16v-80h-8a8 8 0 0 1 0-16h11.36l27.39-47.94A16 16 0 0 1 68.64 56h118.72a16 16 0 0 1 13.89 8.06L228.64 112H240a8 8 0 0 1 8 8M88 152a8 8 0 0 0-8-8H64a8 8 0 0 0 0 16h16a8 8 0 0 0 8-8m112 0a8 8 0 0 0-8-8h-16a8 8 0 0 0 0 16h16a8 8 0 0 0 8-8"/></svg>