<svg xmlns="http://www.w3.org/2000/svg" width="1em" height="1em" viewBox="0 0 256 256"><g fill="currentColor"><rect width="80" height="80" x="40" y="40" rx="16"/><rect width="80" height="80" x="40" y="136" rx="16"/><rect width="80" height="80" x="136" y="40" rx="16"/><path d="M144 184a8 8 0 0 0 8-8v-32a8 8 0 0 0-16 0v32a8 8 0 0 0 8 8"/><path d="M208 152h-24v-8a8 8 0 0 0-16 0v56h-24a8 8 0 0 0 0 16h32a8 8 0 0 0 8-8v-40h24a8 8 0 0 0 0-16m0 32a8 8 0 0 0-8 8v16a8 8 0 0 0 16 0v-16a8 8 0 0 0-8-8"/></g></svg>