<svg xmlns="http://www.w3.org/2000/svg" width="1em" height="1em" viewBox="0 0 256 256"><path fill="currentColor" d="M128 24a104 104 0 1 0 104 104A104.11 104.11 0 0 0 128 24m0 192a88 88 0 1 1 88-88a88.1 88.1 0 0 1-88 88m51.77-127a8 8 0 0 0-8.21.39l-48 32a8 8 0 0 0 0 13.32l48 32A8 8 0 0 0 176 168a8 8 0 0 0 8-8V96a8 8 0 0 0-4.23-7M168 145.05L142.42 128L168 111ZM115.77 89a8 8 0 0 0-8.21.39l-48 32a8 8 0 0 0 0 13.32l48 32A8 8 0 0 0 112 168a8 8 0 0 0 8-8V96a8 8 0 0 0-4.23-7M104 145.05L78.42 128L104 111Z"/></svg>