<svg xmlns="http://www.w3.org/2000/svg" width="1em" height="1em" viewBox="0 0 256 256"><path fill="currentColor" d="M200 52h-68V16a4 4 0 0 0-8 0v36H56a28 28 0 0 0-28 28v112a28 28 0 0 0 28 28h144a28 28 0 0 0 28-28V80a28 28 0 0 0-28-28m20 140a20 20 0 0 1-20 20H56a20 20 0 0 1-20-20V80a20 20 0 0 1 20-20h144a20 20 0 0 1 20 20Zm-56-52H92a24 24 0 0 0 0 48h72a24 24 0 0 0 0-48m-24 8v32h-24v-32Zm-64 16a16 16 0 0 1 16-16h16v32H92a16 16 0 0 1-16-16m88 16h-16v-32h16a16 16 0 0 1 0 32m-88-72a8 8 0 1 1 8 8a8 8 0 0 1-8-8m88 0a8 8 0 1 1 8 8a8 8 0 0 1-8-8"/></svg>