<svg xmlns="http://www.w3.org/2000/svg" width="1em" height="1em" viewBox="0 0 256 256"><path fill="currentColor" d="M200 48h-64V16a8 8 0 0 0-16 0v32H56a32 32 0 0 0-32 32v112a32 32 0 0 0 32 32h144a32 32 0 0 0 32-32V80a32 32 0 0 0-32-32m16 144a16 16 0 0 1-16 16H56a16 16 0 0 1-16-16V80a16 16 0 0 1 16-16h144a16 16 0 0 1 16 16Zm-52-56H92a28 28 0 0 0 0 56h72a28 28 0 0 0 0-56m-28 16v24h-16v-24Zm-56 12a12 12 0 0 1 12-12h12v24H92a12 12 0 0 1-12-12m84 12h-12v-24h12a12 12 0 0 1 0 24m-92-68a12 12 0 1 1 12 12a12 12 0 0 1-12-12m88 0a12 12 0 1 1 12 12a12 12 0 0 1-12-12"/></svg>