<svg xmlns="http://www.w3.org/2000/svg" width="1em" height="1em" viewBox="0 0 256 256"><path fill="currentColor" d="M98.91 157.09A71.53 71.53 0 0 1 120 208a8 8 0 0 1-16 0a56 56 0 0 0-56-56a8 8 0 0 1 0-16a71.53 71.53 0 0 1 50.91 21.09M48 88a8 8 0 0 0 0 16a104 104 0 0 1 104 104a8 8 0 0 0 16 0A120 120 0 0 0 48 88m118.79 1.21A166.9 166.9 0 0 0 48 40a8 8 0 0 0 0 16a151 151 0 0 1 107.48 44.52A151 151 0 0 1 200 208a8 8 0 0 0 16 0a166.9 166.9 0 0 0-49.21-118.79M52 192a12 12 0 1 0 12 12a12 12 0 0 0-12-12"/></svg>