<svg xmlns="http://www.w3.org/2000/svg" width="1em" height="1em" viewBox="0 0 256 256"><path fill="currentColor" d="M224 40v40a8 8 0 0 1-16 0V48h-32a8 8 0 0 1 0-16h40a8 8 0 0 1 8 8M80 208H48v-32a8 8 0 0 0-16 0v40a8 8 0 0 0 8 8h40a8 8 0 0 0 0-16m136-40a8 8 0 0 0-8 8v32h-32a8 8 0 0 0 0 16h40a8 8 0 0 0 8-8v-40a8 8 0 0 0-8-8M40 88a8 8 0 0 0 8-8V48h32a8 8 0 0 0 0-16H40a8 8 0 0 0-8 8v40a8 8 0 0 0 8 8m128 96H88a16 16 0 0 1-16-16V88a16 16 0 0 1 16-16h80a16 16 0 0 1 16 16v80a16 16 0 0 1-16 16m-80-16h80V88H88Z"/></svg>