<svg xmlns="http://www.w3.org/2000/svg" width="1em" height="1em" viewBox="0 0 256 256"><path fill="currentColor" d="M228 40v40a12 12 0 0 1-24 0V52h-28a12 12 0 0 1 0-24h40a12 12 0 0 1 12 12M80 204H52v-28a12 12 0 0 0-24 0v40a12 12 0 0 0 12 12h40a12 12 0 0 0 0-24m136-40a12 12 0 0 0-12 12v28h-28a12 12 0 0 0 0 24h40a12 12 0 0 0 12-12v-40a12 12 0 0 0-12-12M40 92a12 12 0 0 0 12-12V52h28a12 12 0 0 0 0-24H40a12 12 0 0 0-12 12v40a12 12 0 0 0 12 12m124 92H92a20 20 0 0 1-20-20V92a20 20 0 0 1 20-20h72a20 20 0 0 1 20 20v72a20 20 0 0 1-20 20m-4-88H96v64h64Z"/></svg>