<svg xmlns="http://www.w3.org/2000/svg" width="1em" height="1em" viewBox="0 0 256 256"><path fill="currentColor" d="M152 216a8 8 0 0 1-8 8h-32a8 8 0 0 1 0-16h32a8 8 0 0 1 8 8M40 152a8 8 0 0 0 8-8v-32a8 8 0 0 0-16 0v32a8 8 0 0 0 8 8m32 56H48v-24a8 8 0 0 0-16 0v24a16 16 0 0 0 16 16h24a8 8 0 0 0 0-16M224 48a16 16 0 0 0-16-16H48a15.87 15.87 0 0 0-10.66 4.11a7.67 7.67 0 0 0-1.23 1.23A15.87 15.87 0 0 0 32 48v24a8 8 0 0 0 16 0V59.31L196.69 208H184a8 8 0 0 0 0 16h24a15.91 15.91 0 0 0 10.66-4.1a7.35 7.35 0 0 0 .65-.59a6 6 0 0 0 .58-.65A15.87 15.87 0 0 0 224 208Z"/></svg>