<svg xmlns="http://www.w3.org/2000/svg" width="1em" height="1em" viewBox="0 0 256 256"><path fill="currentColor" d="M128 24a104 104 0 1 0 104 104A104.11 104.11 0 0 0 128 24m36 72a12 12 0 1 1-12 12a12 12 0 0 1 12-12m-72 0a12 12 0 1 1-12 12a12 12 0 0 1 12-12m89.66 77.66a8 8 0 0 1-11.32 0L160 163.31l-10.34 10.35a8 8 0 0 1-11.32 0L128 163.31l-10.34 10.35a8 8 0 0 1-11.32 0L96 163.31l-10.34 10.35a8 8 0 0 1-11.32-11.32l16-16a8 8 0 0 1 11.32 0L112 156.69l10.34-10.35a8 8 0 0 1 11.32 0L144 156.69l10.34-10.35a8 8 0 0 1 11.32 0l16 16a8 8 0 0 1 0 11.32"/></svg>