<svg xmlns="http://www.w3.org/2000/svg" width="1em" height="1em" viewBox="0 0 256 256"><path fill="currentColor" d="M184.49 176.49a12 12 0 0 1-17 0L160 169l-7.51 7.52a12 12 0 0 1-17 0L128 169l-7.51 7.52a12 12 0 0 1-17 0L96 169l-7.51 7.52a12 12 0 0 1-17-17l16-16a12 12 0 0 1 17 0L112 151l7.51-7.52a12 12 0 0 1 17 0L144 151l7.51-7.52a12 12 0 0 1 17 0l16 16a12 12 0 0 1-.02 17.01M236 128A108 108 0 1 1 128 20a108.12 108.12 0 0 1 108 108m-24 0a84 84 0 1 0-84 84a84.09 84.09 0 0 0 84-84m-120-4a16 16 0 1 0-16-16a16 16 0 0 0 16 16m72 0a16 16 0 1 0-16-16a16 16 0 0 0 16 16"/></svg>