<svg xmlns="http://www.w3.org/2000/svg" width="1em" height="1em" viewBox="0 0 256 256"><g fill="currentColor"><path d="M248 167.06v.94H32V75.54A8 8 0 0 1 37.27 68L113 40.48a8 8 0 0 1 10 4.27l23.27 54.35a32 32 0 0 0 19.12 17.36l60.73 20.25A32 32 0 0 1 248 167.06" opacity=".2"/><path d="m228.65 129.11l-60.73-20.24a24 24 0 0 1-14.32-13L130.39 41.6v-.1a16 16 0 0 0-20.14-8.5L34.53 60.49A16.05 16.05 0 0 0 24 75.53V192a16 16 0 0 0 16 16h200a16 16 0 0 0 16-16v-24.94a40 40 0 0 0-27.35-37.95M40 75.53L115.72 48l7.11 16.63l-21.56 7.85A8 8 0 0 0 104 88a7.91 7.91 0 0 0 2.73-.49l22.4-8.14l4.74 11.07l-16.6 6A8 8 0 0 0 120 112a7.91 7.91 0 0 0 2.73-.49l17.6-6.4a40.06 40.06 0 0 0 7.68 10l-14.74 5.36A8 8 0 0 0 136 136a8.14 8.14 0 0 0 2.73-.48l28-10.18l56.87 18.95A24 24 0 0 1 238.93 160H40ZM240 192H40v-16h200Z"/></g></svg>