<svg xmlns="http://www.w3.org/2000/svg" width="1em" height="1em" viewBox="0 0 256 256"><path fill="currentColor" d="M157.27 21.22a12 12 0 0 0-12.64 1.31L75.88 76H32a20 20 0 0 0-20 20v64a20 20 0 0 0 20 20h43.88l68.75 53.47A12 12 0 0 0 164 224V32a12 12 0 0 0-6.73-10.78M140 199.47l-52.63-40.94A12 12 0 0 0 80 156H36v-56h44a12 12 0 0 0 7.37-2.53L140 56.54Zm108.49-55.95a12 12 0 0 1-17 17L216 145l-15.51 15.52a12 12 0 0 1-17-17L199 128l-15.52-15.51a12 12 0 0 1 17-17L216 111l15.51-15.51a12 12 0 0 1 17 17L233 128Z"/></svg>