<svg xmlns="http://www.w3.org/2000/svg" width="1em" height="1em" viewBox="0 0 256 256"><path fill="currentColor" d="M155.51 24.81a8 8 0 0 0-8.42.88L77.25 80H32a16 16 0 0 0-16 16v64a16 16 0 0 0 16 16h45.25l69.84 54.31A8 8 0 0 0 160 224V32a8 8 0 0 0-4.49-7.19M144 207.64l-59.09-45.95A7.94 7.94 0 0 0 80 160H32V96h48a7.94 7.94 0 0 0 4.91-1.69L144 48.36Zm101.66-61.3a8 8 0 0 1-11.32 11.32L216 139.31l-18.34 18.35a8 8 0 0 1-11.32-11.32L204.69 128l-18.35-18.34a8 8 0 0 1 11.32-11.32L216 116.69l18.34-18.35a8 8 0 0 1 11.32 11.32L227.31 128Z"/></svg>