<svg xmlns="http://www.w3.org/2000/svg" width="1em" height="1em" viewBox="0 0 256 256"><path fill="currentColor" d="M246 144a6 6 0 0 1-12 0a98.11 98.11 0 0 0-98-98a90.1 90.1 0 0 0-90 90a82.1 82.1 0 0 0 82 82a74.09 74.09 0 0 0 74-74a66.08 66.08 0 0 0-66-66a58.07 58.07 0 0 0-58 58a50.06 50.06 0 0 0 50 50a42 42 0 0 0 42-42a34 34 0 0 0-34-34a26 26 0 0 0-26 26a18 18 0 0 0 18 18a10 10 0 0 0 10-10a2 2 0 0 0-2-2a6 6 0 0 1 0-12a14 14 0 0 1 14 14a22 22 0 0 1-22 22a30 30 0 0 1-30-30a38 38 0 0 1 38-38a46.06 46.06 0 0 1 46 46a54.06 54.06 0 0 1-54 54a62.07 62.07 0 0 1-62-62a70.08 70.08 0 0 1 70-70a78.09 78.09 0 0 1 78 78a86.1 86.1 0 0 1-86 86a94.11 94.11 0 0 1-94-94A102.12 102.12 0 0 1 136 34a110.13 110.13 0 0 1 110 110"/></svg>