<svg xmlns="http://www.w3.org/2000/svg" width="1em" height="1em" viewBox="0 0 256 256"><path fill="currentColor" d="M201.21 128L231 76a8 8 0 0 0-7-12h-59.35L135 12a8 8 0 0 0-13.9 0L91.33 64H32a8 8 0 0 0-6.95 12l29.72 52l-29.72 52a8 8 0 0 0 7 12h59.28l29.72 52a8 8 0 0 0 13.9 0l29.7-52H224a8 8 0 0 0 7-12Zm9-48L192 111.88L173.79 80Zm-27.42 48l-27.42 48h-54.75L73.2 128l27.42-48h54.75ZM128 32.12L146.22 64h-36.45ZM45.78 80h36.41L64 111.88Zm0 95.92L64 144.12L82.19 176ZM128 223.88L109.77 192h36.45ZM173.79 176L192 144.12L210.21 176Z"/></svg>