<svg xmlns="http://www.w3.org/2000/svg" width="1em" height="1em" viewBox="0 0 256 256"><path fill="currentColor" d="M153.82 53.16a4 4 0 0 0 0-7.13A91.09 91.09 0 0 0 112 36a92 92 0 0 0 0 184a91.09 91.09 0 0 0 41.82-10a4 4 0 0 0 0-7.13a84 84 0 0 1 0-149.68ZM100 128a91.63 91.63 0 0 0 43.21 78a83.23 83.23 0 0 1-31.21 6a84 84 0 0 1 0-168a83.23 83.23 0 0 1 31.21 6A91.63 91.63 0 0 0 100 128m149.58-3.67l-28.71-12.4l-2.49-32.24a4 4 0 0 0-7.08-2.24l-20.19 24.46L161 94.45a4 4 0 0 0-4.41 5.91L172.82 128l-16.27 27.64a4 4 0 0 0 4.41 5.91l30.15-7.46l20.19 24.46a4 4 0 0 0 3.09 1.45a3.81 3.81 0 0 0 1.2-.19a4 4 0 0 0 2.79-3.5l2.49-32.24l28.71-12.4a4 4 0 0 0 0-7.34m-34.1 13.35a4 4 0 0 0-2.4 3.36l-1.92 24.77l-15.49-18.76a4 4 0 0 0-3.08-1.45a4 4 0 0 0-1 .12l-23.36 5.78l12.68-21.5a4 4 0 0 0 0-4.06l-12.64-21.44l23.36 5.78a4 4 0 0 0 4-1.33l15.49-18.76l1.96 24.81a4 4 0 0 0 2.4 3.36L237.9 128Z"/></svg>