<svg xmlns="http://www.w3.org/2000/svg" width="1em" height="1em" viewBox="0 0 256 256"><path fill="currentColor" d="m228.13 116.77l-63.46-23.08a3.94 3.94 0 0 1-2.36-2.36l-23.08-63.46a11.95 11.95 0 0 0-22.46 0L93.69 91.33a3.94 3.94 0 0 1-2.36 2.36l-63.46 23.08a11.95 11.95 0 0 0 0 22.46l63.46 23.08a3.94 3.94 0 0 1 2.36 2.36l23.08 63.46a11.95 11.95 0 0 0 22.46 0l23.08-63.46a3.94 3.94 0 0 1 2.36-2.36l63.46-23.08a11.95 11.95 0 0 0 0-22.46m-2.73 15l-63.46 23.07a11.93 11.93 0 0 0-7.15 7.15l-23.07 63.41a4 4 0 0 1-7.44 0l-23.07-63.46a11.93 11.93 0 0 0-7.15-7.15L30.6 131.72a4 4 0 0 1 0-7.44l63.46-23.07a11.93 11.93 0 0 0 7.15-7.15l23.07-63.46a4 4 0 0 1 7.44 0l23.07 63.46a11.93 11.93 0 0 0 7.15 7.15l63.46 23.07a4 4 0 0 1 0 7.44Z"/></svg>