<svg xmlns="http://www.w3.org/2000/svg" width="1em" height="1em" viewBox="0 0 256 256"><path fill="currentColor" d="M155.64 199.28a80 80 0 0 1 0-142.56a8 8 0 0 0 0-14.25A94.93 94.93 0 0 0 112 32a96 96 0 0 0 0 192a94.93 94.93 0 0 0 43.64-10.47a8 8 0 0 0 0-14.25M112 208a80 80 0 1 1 22.4-156.84a96.08 96.08 0 0 0 0 153.68A79.82 79.82 0 0 1 112 208m139.17-87.35l-26.5-11.43l-2.31-29.84a8 8 0 0 0-14.14-4.47l-18.59 22.51l-27.71-6.85a8 8 0 0 0-8.81 11.82L168.18 128l-15.07 25.61a8 8 0 0 0 8.81 11.82l27.71-6.85l18.59 22.51a8 8 0 0 0 14.14-4.47l2.31-29.84l26.5-11.43a8 8 0 0 0 0-14.7M213.89 134a8 8 0 0 0-4.8 6.73l-1.15 14.89l-9.18-11.11a8 8 0 0 0-6.17-2.91a8.4 8.4 0 0 0-1.92.23l-14.12 3.5l7.81-13.27a8 8 0 0 0 0-8.12l-7.81-13.27l14.12 3.5a8 8 0 0 0 8.09-2.68l9.18-11.11l1.15 14.89a8 8 0 0 0 4.8 6.73l13.92 6Z"/></svg>