<svg xmlns="http://www.w3.org/2000/svg" width="1em" height="1em" viewBox="0 0 256 256"><g fill="currentColor"><path d="m226.76 135.48l-63.45 23.07a8 8 0 0 0-4.76 4.76l-23.07 63.45a8 8 0 0 1-15 0l-23.03-63.45a8 8 0 0 0-4.76-4.76l-63.45-23.07a8 8 0 0 1 0-15l63.45-23.03a8 8 0 0 0 4.76-4.76l23.07-63.45a8 8 0 0 1 15 0l23.07 63.45a8 8 0 0 0 4.76 4.76l63.45 23.07a8 8 0 0 1-.04 14.96" opacity=".2"/><path d="m229.5 113l-63.43-23L143 26.5a16 16 0 0 0-30 0L90 89.93L26.5 113a16 16 0 0 0 0 30l63.43 23L113 229.5a16 16 0 0 0 30 0l23.07-63.44L229.5 143a16 16 0 0 0 0-30m-68.93 38a16 16 0 0 0-9.54 9.54L128 223.9l-23-63.33a16 16 0 0 0-9.57-9.57L32.1 128l63.33-23a16 16 0 0 0 9.57-9.57l23-63.33l23 63.33a16 16 0 0 0 9.54 9.54l63.33 23Z"/></g></svg>