<svg xmlns="http://www.w3.org/2000/svg" width="1em" height="1em" viewBox="0 0 256 256"><path fill="currentColor" d="M208 28H48a20 20 0 0 0-20 20v160a20 20 0 0 0 20 20h160a20 20 0 0 0 20-20V48a20 20 0 0 0-20-20m-4 176H52V52h152Zm-56-52c0-6.37-6.29-9.32-24-14.42c-16.14-4.65-38.23-11-38.23-33.58c0-20.52 18.15-36 42.22-36c17.24 0 32.06 8.14 38.69 21.24a12 12 0 1 1-21.41 10.84C142.8 95.17 136 92 128 92c-10.22 0-18.22 5.27-18.22 12c0 1.09 0 2.21 3.28 4.17c4.18 2.48 11 4.45 17.6 6.35c8.75 2.52 17.8 5.13 25.38 9.86c13.19 8.23 16 19.56 16 27.62c0 20.19-19.33 36-44 36c-21.26 0-39.46-12.35-43.27-29.38a12 12 0 0 1 23.42-5.24C109.3 158.49 117.21 164 128 164c9.44 0 20-5.13 20-12"/></svg>