<svg xmlns="http://www.w3.org/2000/svg" width="1em" height="1em" viewBox="0 0 256 256"><path fill="currentColor" d="M120 184v8a8 8 0 0 1-8 8H40a8 8 0 0 1-8-8v-8a8 8 0 0 1 8-8h72a8 8 0 0 1 8 8m-8-88H40a8 8 0 0 0-8 8v8a8 8 0 0 0 8 8h72a8 8 0 0 0 8-8v-8a8 8 0 0 0-8-8m0 40H40a8 8 0 0 0-8 8v8a8 8 0 0 0 8 8h72a8 8 0 0 0 8-8v-8a8 8 0 0 0-8-8m0-80H40a8 8 0 0 0-8 8v8a8 8 0 0 0 8 8h72a8 8 0 0 0 8-8v-8a8 8 0 0 0-8-8m104 40h-72a8 8 0 0 0-8 8v8a8 8 0 0 0 8 8h72a8 8 0 0 0 8-8v-8a8 8 0 0 0-8-8m0 80h-72a8 8 0 0 0-8 8v8a8 8 0 0 0 8 8h72a8 8 0 0 0 8-8v-8a8 8 0 0 0-8-8m0-120h-72a8 8 0 0 0-8 8v8a8 8 0 0 0 8 8h72a8 8 0 0 0 8-8v-8a8 8 0 0 0-8-8m0 80h-72a8 8 0 0 0-8 8v8a8 8 0 0 0 8 8h72a8 8 0 0 0 8-8v-8a8 8 0 0 0-8-8"/></svg>