<svg xmlns="http://www.w3.org/2000/svg" width="1em" height="1em" viewBox="0 0 256 256"><path fill="currentColor" d="M177.41 80.54a8 8 0 0 1 2.05-11.12c10.4-7.18 26.68-7.18 37.08 0c5 3.47 13.88 3.47 18.92 0a8 8 0 0 1 9.08 13.16a34.64 34.64 0 0 1-37.08 0c-5-3.47-13.88-3.47-18.92 0a8 8 0 0 1-11.13-2.04m58.05 20.88c-5 3.47-13.88 3.47-18.92 0c-10.4-7.18-26.68-7.18-37.08 0a8 8 0 1 0 9.08 13.16c5-3.47 13.88-3.47 18.92 0a34.64 34.64 0 0 0 37.08 0a8 8 0 0 0-9.08-13.16M176 192a56 56 0 1 1-88-45.92V40a32 32 0 0 1 64 0v106.08A56 56 0 0 1 176 192M136 40a16 16 0 0 0-32 0v40h32Z"/></svg>