<svg xmlns="http://www.w3.org/2000/svg" width="1em" height="1em" viewBox="0 0 256 256"><path fill="currentColor" d="M177.41 80.54a8 8 0 0 1 2.05-11.12c10.4-7.18 26.68-7.18 37.08 0c5 3.47 13.88 3.47 18.92 0a8 8 0 0 1 9.08 13.16a34.64 34.64 0 0 1-37.08 0c-5-3.47-13.88-3.47-18.92 0a8 8 0 0 1-11.13-2.04m58.05 20.88c-5 3.47-13.88 3.47-18.92 0c-10.4-7.18-26.68-7.18-37.08 0a8 8 0 1 0 9.08 13.16c5-3.47 13.88-3.47 18.92 0a34.64 34.64 0 0 0 37.08 0a8 8 0 0 0-9.08-13.16M152 184a32 32 0 1 1-40-31V48a8 8 0 0 1 16 0v105a32.06 32.06 0 0 1 24 31m-16 0a16 16 0 1 0-16 16a16 16 0 0 0 16-16m48 0a64 64 0 1 1-104-50V48a40 40 0 0 1 80 0v86a64.08 64.08 0 0 1 24 50m-16 0a48.08 48.08 0 0 0-20.58-39.4A8 8 0 0 1 144 138V48a24 24 0 0 0-48 0v90a8 8 0 0 1-3.42 6.56A48 48 0 1 0 168 184"/></svg>