<svg xmlns="http://www.w3.org/2000/svg" width="1em" height="1em" viewBox="0 0 256 256"><g fill="currentColor"><path d="m48 56l40 40l-40 40L8 96Zm40 40l40 40l40-40l-40-40Zm40 120l40-40l-40-40l-40 40Zm80-160l-40 40l40 40l40-40Z" opacity=".2"/><path d="m253.66 90.34l-40-40a8 8 0 0 0-11.32 0L168 84.69l-34.34-34.35a8 8 0 0 0-11.32 0L88 84.69L53.66 50.34a8 8 0 0 0-11.32 0l-40 40a8 8 0 0 0 0 11.32l40 40a8 8 0 0 0 11.32 0L88 107.31L116.69 136l-34.35 34.34a8 8 0 0 0 0 11.32l40 40a8 8 0 0 0 11.32 0l40-40a8 8 0 0 0 0-11.32L139.31 136L168 107.31l34.34 34.35a8 8 0 0 0 11.32 0l40-40a8 8 0 0 0 0-11.32M48 124.69L19.31 96L48 67.31L76.69 96Zm80 80L99.31 176L128 147.31L156.69 176Zm0-80L99.31 96L128 67.31L156.69 96Zm80 0L179.31 96L208 67.31L236.69 96Z"/></g></svg>