<svg xmlns="http://www.w3.org/2000/svg" width="1em" height="1em" viewBox="0 0 256 256"><path fill="currentColor" d="M168 110h48a14 14 0 0 0 14-14V48a14 14 0 0 0-14-14h-48a14 14 0 0 0-14 14v18h-10a30 30 0 0 0-30 30v26H78v-10a14 14 0 0 0-14-14H32a14 14 0 0 0-14 14v32a14 14 0 0 0 14 14h32a14 14 0 0 0 14-14v-10h36v26a30 30 0 0 0 30 30h10v18a14 14 0 0 0 14 14h48a14 14 0 0 0 14-14v-48a14 14 0 0 0-14-14h-48a14 14 0 0 0-14 14v18h-10a18 18 0 0 1-18-18V96a18 18 0 0 1 18-18h10v18a14 14 0 0 0 14 14M66 144a2 2 0 0 1-2 2H32a2 2 0 0 1-2-2v-32a2 2 0 0 1 2-2h32a2 2 0 0 1 2 2Zm100 16a2 2 0 0 1 2-2h48a2 2 0 0 1 2 2v48a2 2 0 0 1-2 2h-48a2 2 0 0 1-2-2Zm0-112a2 2 0 0 1 2-2h48a2 2 0 0 1 2 2v48a2 2 0 0 1-2 2h-48a2 2 0 0 1-2-2Z"/></svg>