<svg xmlns="http://www.w3.org/2000/svg" width="1em" height="1em" viewBox="0 0 256 256"><path fill="currentColor" d="M168 112h48a16 16 0 0 0 16-16V48a16 16 0 0 0-16-16h-48a16 16 0 0 0-16 16v16h-8a32 32 0 0 0-32 32v24H80v-8a16 16 0 0 0-16-16H32a16 16 0 0 0-16 16v32a16 16 0 0 0 16 16h32a16 16 0 0 0 16-16v-8h32v24a32 32 0 0 0 32 32h8v16a16 16 0 0 0 16 16h48a16 16 0 0 0 16-16v-48a16 16 0 0 0-16-16h-48a16 16 0 0 0-16 16v16h-8a16 16 0 0 1-16-16V96a16 16 0 0 1 16-16h8v16a16 16 0 0 0 16 16M64 144H32v-32h32zm104 16h48v48h-48Zm0-112h48v48h-48Z"/></svg>