<svg xmlns="http://www.w3.org/2000/svg" width="1em" height="1em" viewBox="0 0 256 256"><g fill="currentColor"><path d="M240 120v64a8 8 0 0 1-8 8h-24a24 24 0 0 0-32-22.63A24 24 0 0 0 160 192H96a24 24 0 0 0-48 0H24a8 8 0 0 1-8-8v-40h160v-24Z" opacity=".2"/><path d="m247.42 117l-14-35a15.93 15.93 0 0 0-14.84-10H184v-8a8 8 0 0 0-8-8H24A16 16 0 0 0 8 72v112a16 16 0 0 0 16 16h17a32 32 0 0 0 62 0h50a32 32 0 0 0 62 0h17a16 16 0 0 0 16-16v-64a7.94 7.94 0 0 0-.58-3M184 88h34.58l9.6 24H184ZM24 72h144v64H24Zm48 136a16 16 0 1 1 16-16a16 16 0 0 1-16 16m81-24h-50a32 32 0 0 0-62 0H24v-32h144v12.31A32.11 32.11 0 0 0 153 184m31 24a16 16 0 1 1 16-16a16 16 0 0 1-16 16m48-24h-17a32.06 32.06 0 0 0-31-24v-32h48Z"/></g></svg>