<svg xmlns="http://www.w3.org/2000/svg" width="1em" height="1em" viewBox="0 0 256 256"><path fill="currentColor" d="M236 127A108.44 108.44 0 0 0 54.46 56.69A107.53 107.53 0 0 0 20 127a12 12 0 0 0 12 13h92v60a28 28 0 0 0 56 0a4 4 0 0 0-8 0a20 20 0 0 1-40 0v-60h92a12 12 0 0 0 12-13m-204 5a4 4 0 0 1-4-4.38a100.2 100.2 0 0 1 89.73-91.09C106 49.76 85.08 80.45 84 132Zm60 0c1.21-56 27.6-86.37 35.94-94.57c8.41 8.21 34.79 38.57 36 94.57Zm134.87-1.3a4 4 0 0 1-3 1.3H172c-1-51.55-22-82.24-33.7-95.47a100.2 100.2 0 0 1 89.7 91.09a4 4 0 0 1-1.07 3.08Z"/></svg>