<svg xmlns="http://www.w3.org/2000/svg" width="1em" height="1em" viewBox="0 0 256 256"><path fill="currentColor" d="M171.17 84.83a76 76 0 1 0-86.34 86.34a76 76 0 1 0 86.34-86.34M228 160a68.63 68.63 0 0 1-1.27 13.07l-57.34-57.34A76 76 0 0 0 172 96c0-1 0-2-.07-2.93A68.1 68.1 0 0 1 228 160M45.2 50.86l58.34 58.33a76.35 76.35 0 0 0-14.09 22.6L31.67 74A68.14 68.14 0 0 1 45.2 50.86M74 31.67l57.78 57.78a76.35 76.35 0 0 0-22.6 14.09L50.86 45.2A68.14 68.14 0 0 1 74 31.67M164 96a67.59 67.59 0 0 1-7.45 30.89l-27.44-27.44A67.59 67.59 0 0 1 160 92c1.3 0 2.6 0 3.88.12c.12 1.28.12 2.58.12 3.88m-30 56.36L103.64 122A68.74 68.74 0 0 1 122 103.64L152.36 134A68.74 68.74 0 0 1 134 152.36M92 160a67.59 67.59 0 0 1 7.45-30.89l27.44 27.44A67.59 67.59 0 0 1 96 164c-1.3 0-2.6-.05-3.88-.12c-.07-1.28-.12-2.58-.12-3.88m54.81-7.54l58.33 58.34A68.14 68.14 0 0 1 182 224.33l-57.78-57.78a76.35 76.35 0 0 0 22.59-14.09m5.65-5.65a76.35 76.35 0 0 0 14.09-22.6L224.33 182a68.14 68.14 0 0 1-13.53 23.15Zm10.47-62.74c-1 0-2-.07-2.93-.07a76 76 0 0 0-19.73 2.61L82.93 29.27a68 68 0 0 1 80 54.8M28 96a68.63 68.63 0 0 1 1.27-13.07l57.34 57.34A76 76 0 0 0 84 160c0 1 0 2 .07 2.93A68.1 68.1 0 0 1 28 96m65.07 75.93c1 0 2 .07 2.93.07a76 76 0 0 0 19.73-2.61l57.34 57.34a68 68 0 0 1-80-54.8"/></svg>