<svg xmlns="http://www.w3.org/2000/svg" width="1em" height="1em" viewBox="0 0 256 256"><path fill="currentColor" d="M178 78A84 84 0 1 0 78 178A84 84 0 1 0 178 78m42 82a60.75 60.75 0 0 1-.38 6.65l-44-44a83.31 83.31 0 0 0 4-19.34A60.09 60.09 0 0 1 220 160m-74-30.94L126.94 110a59.57 59.57 0 0 1 28.9-9.81a59.57 59.57 0 0 1-9.84 28.87m-36-2.12L129.06 146a59.57 59.57 0 0 1-28.9 9.81a59.57 59.57 0 0 1 9.84-28.87m42.7-50.6a83.31 83.31 0 0 0-19.34 4l-44-44A60.75 60.75 0 0 1 96 36a60.09 60.09 0 0 1 56.67 40.34ZM64.19 45.16l46.73 46.73a85 85 0 0 0-19 19l-46.76-46.7a60.45 60.45 0 0 1 19.03-19.03M36 96a60.75 60.75 0 0 1 .38-6.65l44 44a83.31 83.31 0 0 0-4 19.34A60.09 60.09 0 0 1 36 96m67.33 83.66a83.31 83.31 0 0 0 19.34-4l44 44a60.75 60.75 0 0 1-6.67.34a60.09 60.09 0 0 1-56.67-40.34m88.48 31.18l-46.73-46.73a85 85 0 0 0 19-19l46.73 46.73a60.45 60.45 0 0 1-19 19"/></svg>