<svg xmlns="http://www.w3.org/2000/svg" width="1em" height="1em" viewBox="0 0 256 256"><path fill="currentColor" d="M29.6 123.2a4 4 0 0 0 5.6-.8a56 56 0 0 1 89.6 0a3.93 3.93 0 0 0 6.38 0a56 56 0 0 1 89.6 0a4 4 0 1 0 6.4-4.8a63.55 63.55 0 0 0-32.5-22.85a36 36 0 1 0-37.4 0a63.39 63.39 0 0 0-29.3 19a63.34 63.34 0 0 0-29.3-19a36 36 0 1 0-37.4 0A63.61 63.61 0 0 0 28.8 117.6a4 4 0 0 0 .8 5.6M148 64a28 28 0 1 1 28 28a28 28 0 0 1-28-28m-96 0a28 28 0 1 1 28 28a28 28 0 0 1-28-28m142.7 134.75a36 36 0 1 0-37.4 0A63.39 63.39 0 0 0 128 217.7a63.34 63.34 0 0 0-29.3-18.95a36 36 0 1 0-37.4 0a63.61 63.61 0 0 0-32.5 22.85a4 4 0 0 0 6.4 4.8a56 56 0 0 1 89.6 0a3.93 3.93 0 0 0 6.38 0a56 56 0 0 1 89.6 0a4 4 0 0 0 6.4-4.8a63.55 63.55 0 0 0-32.48-22.85M52 168a28 28 0 1 1 28 28a28 28 0 0 1-28-28m96 0a28 28 0 1 1 28 28a28 28 0 0 1-28-28"/></svg>