<svg xmlns="http://www.w3.org/2000/svg" width="1em" height="1em" viewBox="0 0 256 256"><path fill="currentColor" d="M224 48v28a8 8 0 0 1-16 0V48h-28a8 8 0 0 1 0-16h28a16 16 0 0 1 16 16m-8 124a8 8 0 0 0-8 8v28h-28a8 8 0 0 0 0 16h28a16 16 0 0 0 16-16v-28a8 8 0 0 0-8-8M76 208H48v-28a8 8 0 0 0-16 0v28a16 16 0 0 0 16 16h28a8 8 0 0 0 0-16M40 84a8 8 0 0 0 8-8V48h28a8 8 0 0 0 0-16H48a16 16 0 0 0-16 16v28a8 8 0 0 0 8 8m61 57.51a67.94 67.94 0 0 0-27.4 21.68A8 8 0 0 0 80 176h96a8 8 0 0 0 6.4-12.81a67.94 67.94 0 0 0-27.4-21.68a40 40 0 1 0-53.94 0Z"/></svg>