<svg xmlns="http://www.w3.org/2000/svg" width="1em" height="1em" viewBox="0 0 256 256"><path fill="currentColor" d="M107.19 159a56 56 0 1 0-46.38 0a91.83 91.83 0 0 0-53.93 38.81a4 4 0 1 0 6.7 4.37a84 84 0 0 1 140.84 0a4 4 0 1 0 6.7-4.37A91.83 91.83 0 0 0 107.19 159M36 108a48 48 0 1 1 48 48a48.05 48.05 0 0 1-48-48m212 95.35a4 4 0 0 1-5.53-1.17A83.81 83.81 0 0 0 172 164a4 4 0 0 1 0-8a48 48 0 1 0-17.82-92.58a4 4 0 1 1-3-7.43a56 56 0 0 1 44 103a91.83 91.83 0 0 1 53.93 38.86a4 4 0 0 1-1.11 5.5"/></svg>