<svg xmlns="http://www.w3.org/2000/svg" width="1em" height="1em" viewBox="0 0 256 256"><path fill="currentColor" d="m228.25 63.07l-4.66-2.69a23.6 23.6 0 0 0 0-8.76l4.66-2.69a8 8 0 0 0-8-13.86l-4.67 2.7a23.92 23.92 0 0 0-7.58-4.39V28a8 8 0 0 0-16 0v5.38a23.92 23.92 0 0 0-7.58 4.39l-4.67-2.7a8 8 0 1 0-8 13.86l4.66 2.69a23.6 23.6 0 0 0 0 8.76l-4.66 2.69a8 8 0 0 0 4 14.93a7.92 7.92 0 0 0 4-1.07l4.67-2.7a23.92 23.92 0 0 0 7.58 4.39V84a8 8 0 0 0 16 0v-5.38a23.92 23.92 0 0 0 7.58-4.39l4.67 2.7a7.92 7.92 0 0 0 4 1.07a8 8 0 0 0 4-14.93M192 56a8 8 0 1 1 8 8a8 8 0 0 1-8-8m29.35 48.11a8 8 0 0 0-6.57 9.21A88.85 88.85 0 0 1 216 128a87.62 87.62 0 0 1-22.24 58.41a79.66 79.66 0 0 0-36.06-28.75a48 48 0 1 0-59.4 0a79.66 79.66 0 0 0-36.06 28.75A88 88 0 0 1 128 40a88.76 88.76 0 0 1 14.68 1.22a8 8 0 0 0 2.64-15.78a103.92 103.92 0 1 0 85.24 85.24a8 8 0 0 0-9.21-6.57M96 120a32 32 0 1 1 32 32a32 32 0 0 1-32-32m-21.92 77.5a64 64 0 0 1 107.84 0a87.83 87.83 0 0 1-107.84 0"/></svg>