<svg xmlns="http://www.w3.org/2000/svg" width="1em" height="1em" viewBox="0 0 256 256"><path fill="currentColor" d="m252.24 132.24l-24 24a6 6 0 0 1-8.48 0l-24-24a6 6 0 1 1 8.48-8.48L218 137.51V128A90 90 0 0 0 54.87 75.5a6 6 0 1 1-9.74-7A102 102 0 0 1 230 128v9.51l13.76-13.75a6 6 0 1 1 8.48 8.48m-41.39 55.26A102 102 0 0 1 26 128v-9.51l-13.76 13.75a6 6 0 0 1-8.48-8.48l24-24a6 6 0 0 1 8.48 0l24 24a6 6 0 1 1-8.48 8.48L38 118.49V128a89.65 89.65 0 0 0 24.49 61.64a77.53 77.53 0 0 1 40-31.38a46 46 0 1 1 51 0a77.49 77.49 0 0 1 40 31.41a89.35 89.35 0 0 0 7.58-9.17a6 6 0 1 1 9.74 7ZM128 154a34 34 0 1 0-34-34a34 34 0 0 0 34 34m0 64a90.24 90.24 0 0 0 56.57-20a66 66 0 0 0-113.13 0A89.58 89.58 0 0 0 128 218"/></svg>