<svg xmlns="http://www.w3.org/2000/svg" width="1em" height="1em" viewBox="0 0 256 256"><path fill="currentColor" d="m228.25 63.07l-4.66-2.69a23.6 23.6 0 0 0 0-8.76l4.66-2.69a8 8 0 0 0-8-13.86l-4.67 2.7a23.92 23.92 0 0 0-7.58-4.39V28a8 8 0 0 0-16 0v5.38a23.92 23.92 0 0 0-7.58 4.39l-4.67-2.7a8 8 0 1 0-8 13.86l4.66 2.69a23.6 23.6 0 0 0 0 8.76l-4.66 2.69a8 8 0 0 0 4 14.93a7.92 7.92 0 0 0 4-1.07l4.67-2.7a23.92 23.92 0 0 0 7.58 4.39V84a8 8 0 0 0 16 0v-5.38a23.92 23.92 0 0 0 7.58-4.39l4.67 2.7a7.92 7.92 0 0 0 4 1.07a8 8 0 0 0 4-14.93M200 64a8 8 0 1 1 8-8a8 8 0 0 1-8 8m-72 12a44 44 0 1 1-44 44a44 44 0 0 1 44-44m102.56 34.68a103.92 103.92 0 1 1-85.24-85.24a8 8 0 0 1-2.64 15.78A88.07 88.07 0 0 0 40 128a87.62 87.62 0 0 0 22.24 58.41A79.71 79.71 0 0 1 84 165.1a4 4 0 0 1 4.83.32a59.81 59.81 0 0 0 78.27 0a4 4 0 0 1 4.84-.32a79.86 79.86 0 0 1 21.79 21.31A87.62 87.62 0 0 0 216 128a88.85 88.85 0 0 0-1.22-14.68a8 8 0 1 1 15.78-2.64"/></svg>