<svg xmlns="http://www.w3.org/2000/svg" width="1em" height="1em" viewBox="0 0 256 256"><path fill="currentColor" d="M164.47 195.63a8 8 0 0 1-6.7 12.37H10.23a8 8 0 0 1-6.7-12.37a95.83 95.83 0 0 1 47.22-37.71a60 60 0 1 1 66.5 0a95.83 95.83 0 0 1 47.22 37.71m87.91-.15a95.87 95.87 0 0 0-47.13-37.56A60 60 0 0 0 144.7 54.59a4 4 0 0 0-1.33 6a75.83 75.83 0 0 1 3.63 89.94a4 4 0 0 0 1.07 5.53a112.32 112.32 0 0 1 29.85 30.83a23.92 23.92 0 0 1 3.65 16.47a4 4 0 0 0 3.95 4.64h60.3a8 8 0 0 0 7.73-5.93a8.22 8.22 0 0 0-1.17-6.59"/></svg>