<svg xmlns="http://www.w3.org/2000/svg" width="1em" height="1em" viewBox="0 0 256 256"><g fill="currentColor"><path d="M248 120v64a8 8 0 0 1-8 8h-24a24 24 0 0 0-48 0h-64a24 24 0 0 0-48 0H32a8 8 0 0 1-8-8v-64Z" opacity=".2"/><path d="m254.07 114.79l-45.54-53.06A16 16 0 0 0 196.26 56H32a16 16 0 0 0-16 16v112a16 16 0 0 0 16 16h17a32 32 0 0 0 62 0h50a32 32 0 0 0 62 0h17a16 16 0 0 0 16-16v-64a8 8 0 0 0-1.93-5.21M230.59 112H176V72h20.26ZM104 112V72h56v40ZM88 72v40H32V72Zm-8 136a16 16 0 1 1 16-16a16 16 0 0 1-16 16m112 0a16 16 0 1 1 16-16a16 16 0 0 1-16 16m31-24a32 32 0 0 0-62 0h-50a32 32 0 0 0-62 0H32v-56h208v56Z"/></g></svg>