<svg xmlns="http://www.w3.org/2000/svg" width="1em" height="1em" viewBox="0 0 256 256"><path fill="currentColor" d="M37.16 74.81a4 4 0 0 1 0-5.64C37.87 68.47 54.72 52 88 52c17.21 0 29.92 8.48 42.22 16.67C142 76.55 153.21 84 168 84c29.77 0 45-14.69 45.18-14.84a4 4 0 0 1 5.65 5.67c-.7.7-17.55 17.17-50.83 17.17c-17.21 0-29.92-8.48-42.22-16.67C114 67.45 102.79 60 88 60c-29.77 0-45 14.69-45.18 14.84a4 4 0 0 1-5.66-.03m176 50.35C213 125.31 197.77 140 168 140c-14.79 0-26-7.45-37.78-15.33C117.92 116.48 105.21 108 88 108c-33.28 0-50.13 16.47-50.83 17.17a4 4 0 0 0 5.65 5.67C43 130.69 58.23 116 88 116c14.79 0 26 7.45 37.78 15.33c12.3 8.19 25 16.67 42.22 16.67c33.28 0 50.13-16.47 50.83-17.17a4 4 0 0 0-5.65-5.67Zm0 56C213 181.31 197.77 196 168 196c-14.79 0-26-7.45-37.78-15.33C117.92 172.48 105.21 164 88 164c-33.28 0-50.13 16.47-50.83 17.17a4 4 0 0 0 5.65 5.67C43 186.69 58.23 172 88 172c14.79 0 26 7.45 37.78 15.33c12.3 8.19 25 16.67 42.22 16.67c33.28 0 50.13-16.47 50.83-17.17a4 4 0 0 0-5.65-5.67Z"/></svg>