<svg xmlns="http://www.w3.org/2000/svg" width="1em" height="1em" viewBox="0 0 256 256"><path fill="currentColor" d="M176 84a36 36 0 1 0-36-36a36 36 0 0 0 36 36m0-48a12 12 0 1 1-12 12a12 12 0 0 1 12-12m29.28 96.39a12 12 0 0 1 2.49 10l-16 80A12 12 0 0 1 180 232a11.87 11.87 0 0 1-2.36-.23a12 12 0 0 1-9.42-14.12L181.36 152H124a12 12 0 0 1-10.4-18l17.92-31.2a76.1 76.1 0 0 0-79.88 10.55a12 12 0 0 1-15.28-18.49a100 100 0 0 1 118.19-6.68a12 12 0 0 1 3.85 16L144.74 128H196a12 12 0 0 1 9.28 4.39m-41.47 44.52a64 64 0 1 1-73.64-68.16a12 12 0 0 1 3.66 23.72a40 40 0 1 0 46.05 42.62a12 12 0 1 1 23.93 1.82"/></svg>