<svg xmlns="http://www.w3.org/2000/svg" width="1em" height="1em" viewBox="0 0 256 256"><path fill="currentColor" d="M136 204a8 8 0 1 1-8-8a8 8 0 0 1 8 8m69.66-124l21.17-21.17a4 4 0 1 0-5.66-5.66L200 74.34l-21.17-21.17a4 4 0 0 0-5.66 5.66L194.34 80l-21.17 21.17a4 4 0 0 0 5.66 5.66L200 85.66l21.17 21.17a4 4 0 1 0 5.66-5.66Zm-35.31 81.77a72 72 0 0 0-84.71 0a4 4 0 0 0 4.71 6.46a64.05 64.05 0 0 1 75.29 0a4 4 0 1 0 4.71-6.46m-26.74-101a4 4 0 1 0 .78-8A178.6 178.6 0 0 0 128 52A168.33 168.33 0 0 0 21.46 90.09a4 4 0 1 0 5.08 6.19A160.22 160.22 0 0 1 128 60c5.21 0 10.46.25 15.61.75Zm-.16 48.31a4 4 0 0 0 1.1-7.93A121.84 121.84 0 0 0 128 100a118.72 118.72 0 0 0-74.48 25.91a4 4 0 0 0 5 6.27A110.84 110.84 0 0 1 128 108a113.6 113.6 0 0 1 15.45 1.06Z"/></svg>